<svg id="Componente_48_1" data-name="Componente 48 – 1" xmlns="http://www.w3.org/2000/svg" width="125.241" height="165.242" viewBox="0 0 125.241 165.242">
  <path id="Caminho_311" data-name="Caminho 311" d="M291.631,263.074l34.06,28.185a21.97,21.97,0,0,1,7.948,17.036,21.7,21.7,0,0,1-2.865,10.411l-39.145,47.3Z" transform="translate(-208.399 -263.074)" fill="#ec6600"/>
  <path id="Caminho_312" data-name="Caminho 312" d="M247.67,324.169l50.558-61.1V366.007Z" transform="translate(-214.997 -263.074)" fill="#e44200"/>
  <path id="Caminho_313" data-name="Caminho 313" d="M255.407,343.616a3.413,3.413,0,0,0,4.228.074l4.014-4.445a3.413,3.413,0,0,0-.5-4.2l.007,0-.126-.114-3.8-3.434-.125-.114,0,.007a3.411,3.411,0,0,0-4.227-.074l-4.014,4.446a3.411,3.411,0,0,0,.5,4.2l-.006,0,.127.114,3.8,3.433.127.115Z" transform="translate(-214.595 -252.937)" fill="#b33a0f"/>
  <path id="Caminho_314" data-name="Caminho 314" d="M235.013,345.829a3.413,3.413,0,0,0,4.228.074l4.014-4.445a3.413,3.413,0,0,0-.5-4.2l.007,0-.127-.114-3.8-3.434-.125-.114,0,.007a3.413,3.413,0,0,0-4.228-.074l-4.013,4.446a3.409,3.409,0,0,0,.5,4.2l-.006,0,.126.114,3.8,3.433.126.114Z" transform="translate(-217.656 -252.604)" fill="#b33a0f"/>
  <path id="Caminho_315" data-name="Caminho 315" d="M277.995,364.539a5.881,5.881,0,1,1,5.573-6.173,5.881,5.881,0,0,1-5.573,6.173" transform="translate(-211.373 -249.609)" fill="#b33a0f"/>
  <path id="Caminho_316" data-name="Caminho 316" d="M257.749,363.134a5.881,5.881,0,1,1,5.573-6.174,5.882,5.882,0,0,1-5.573,6.174" transform="translate(-214.412 -249.82)" fill="#b33a0f"/>
  <path id="Caminho_317" data-name="Caminho 317" d="M245.6,334.355a5.881,5.881,0,1,1,5.573-6.173,5.881,5.881,0,0,1-5.573,6.173" transform="translate(-216.236 -254.14)" fill="#ec6600"/>
  <path id="Caminho_318" data-name="Caminho 318" d="M269.73,351.92l-.1-2.017,1.947-.1a2.594,2.594,0,0,0-.265-5.181l-1.947.1-.1-1.877a2.593,2.593,0,1,0-5.18.266l.094,1.876-1.947.1a2.594,2.594,0,0,0,.265,5.181l1.947-.1.1,2.017a2.594,2.594,0,0,0,5.181-.265" transform="translate(-213.181 -251.471)" fill="#ec6600"/>
  <path id="Caminho_319" data-name="Caminho 319" d="M271.256,373.144l-.1-2.017,1.947-.1a2.594,2.594,0,1,0-.264-5.181l-1.946.1-.1-1.877a2.593,2.593,0,1,0-5.18.266l.1,1.876-1.948.1a2.593,2.593,0,1,0,.265,5.18l1.947-.1.1,2.017a2.594,2.594,0,0,0,5.181-.265" transform="translate(-212.952 -248.285)" fill="#ec6600"/>
  <path id="Caminho_320" data-name="Caminho 320" d="M250.652,353.617l-.1-2.017,1.947-.1a2.594,2.594,0,0,0-.263-5.181l-1.948.1-.1-1.877a2.593,2.593,0,1,0-5.18.266l.1,1.877-1.948.1a2.594,2.594,0,0,0,.264,5.181l1.947-.1.1,2.017a2.594,2.594,0,0,0,5.181-.265" transform="translate(-216.044 -251.216)" fill="#ec6600"/>
  <path id="Caminho_321" data-name="Caminho 321" d="M219.261,367.809a49.805,49.805,0,0,0,99.112,0Z" transform="translate(-219.261 -247.354)" fill="#e44200"/>
  <path id="Caminho_322" data-name="Caminho 322" d="M314.927,378.976a49.827,49.827,0,0,1-93.014,0Z" transform="translate(-218.863 -245.678)" fill="#ec6600"/>
</svg>
