<svg id="Componente_34_1" data-name="Componente 34 – 1" xmlns="http://www.w3.org/2000/svg" width="141.174" height="142.638" viewBox="0 0 141.174 142.638">
  <g id="Grupo_79" data-name="Grupo 79" transform="translate(-492.593 343.446) rotate(-41)">
    <path id="Caminho_326" data-name="Caminho 326" d="M587.524,180.382l38.14-38.14a19.343,19.343,0,0,0,2.283-24.609l-5.158-7.535-38.46,38.46a18.8,18.8,0,0,0-2.218,23.917Z" transform="translate(18.822)" fill="#0091a2"/>
    <path id="Caminho_327" data-name="Caminho 327" d="M576.156,130.719V114.5l-19.171.071Z" transform="translate(0 3.795)" fill="#ec6600"/>
    <path id="Caminho_328" data-name="Caminho 328" d="M567.252,114.5v53.754a26.189,26.189,0,0,0,21.368,25.739l12.153,2.273V141.906A25.451,25.451,0,0,0,580,116.889Z" transform="translate(8.849 3.794)" fill="#0091a2"/>
    <path id="Caminho_329" data-name="Caminho 329" d="M576.254,140.977v36.507a13.094,13.094,0,0,0,10.686,12.87l6.074,1.138V154.679a12.729,12.729,0,0,0-10.384-12.508Z" transform="translate(16.608 26.616)" fill="#0091a2"/>
    <path id="Caminho_330" data-name="Caminho 330" d="M571.429,118.179a1.193,1.193,0,1,1-1.192-1.192,1.193,1.193,0,0,1,1.192,1.192" transform="translate(10.393 5.938)" fill="#fff"/>
  </g>
</svg>
