<svg id="Componente_49_1" data-name="Componente 49 – 1" xmlns="http://www.w3.org/2000/svg" width="96.058" height="48.732" viewBox="0 0 96.058 48.732">
  <path id="Caminho_331" data-name="Caminho 331" d="M440.546,274.907a8.8,8.8,0,0,0,8.648,7.179h8.948L457.378,278a8.8,8.8,0,0,0-8.648-7.179h-8.948Z" transform="translate(-439.783 -233.354)" fill="#197288"/>
  <path id="Caminho_332" data-name="Caminho 332" d="M536.632,278.11H448.166l3.294-17.631a38.023,38.023,0,0,1,37.368-31.031h7.143a38.02,38.02,0,0,1,37.368,31.031l2.136,11.455Z" transform="translate(-440.574 -229.448)" fill="#72c3cf"/>
  <path id="Caminho_333" data-name="Caminho 333" d="M519.955,259.062a8.8,8.8,0,0,1-8.648,7.179H502.36l.763-4.082a8.8,8.8,0,0,1,8.648-7.179h8.948Z" transform="translate(-445.689 -231.858)" fill="#197288"/>
  <path id="Caminho_334" data-name="Caminho 334" d="M504.513,282.281H493.949v-8.675h3.315a6.778,6.778,0,0,1,6.662,5.531Z" transform="translate(-444.895 -233.616)" fill="#197288"/>
  <path id="Caminho_335" data-name="Caminho 335" d="M545.24,282.537h-5.874a6.749,6.749,0,0,1,4.716-6.175Z" transform="translate(-449.182 -233.876)" fill="#197288"/>
  <path id="Caminho_336" data-name="Caminho 336" d="M485.479,282.281H474.915v-8.675h3.315a6.778,6.778,0,0,1,6.662,5.531Z" transform="translate(-443.099 -233.616)" fill="#197288"/>
  <path id="Caminho_337" data-name="Caminho 337" d="M530.867,270.059a2.644,2.644,0,1,1-2.644-2.644,2.644,2.644,0,0,1,2.644,2.644" transform="translate(-447.88 -233.032)" fill="#197288"/>
</svg>
