<svg xmlns="http://www.w3.org/2000/svg" width="928.326" height="295.815" viewBox="0 0 928.326 295.815">
  <g id="Grupo_87" data-name="Grupo 87" transform="translate(-495.882 -4101.857)">
    <text id="_36_anos" data-name="36 anos" transform="translate(957.832 4318.074)" fill="#ef7d00" font-size="190" font-family="Montserrat-ExtraBold, Montserrat" font-weight="800"><tspan x="-388.36" y="0">36 anos</tspan></text>
    <text id="_2021" data-name="2021" transform="translate(959.239 4165.857)" fill="#0099a8" font-size="66" font-family="Montserrat-ExtraBold, Montserrat" font-weight="800" letter-spacing="-0.05em"><tspan x="-70.257" y="0">2021</tspan></text>
    <g id="Componente_33_1" data-name="Componente 33 – 1" transform="translate(498.876 4300.682)">
      <g id="Grupo_72" data-name="Grupo 72">
        <path id="Caminho_292" data-name="Caminho 292" d="M23.1-212.586a4.284,4.284,0,0,0-.806-.967,1.461,1.461,0,0,0-1.453-.484,20.809,20.809,0,0,0-3.063,1.935c-2.258,1.936-5.16,2.419-7.579,2.9l-1.774.322A6.771,6.771,0,0,1,2.3-211.3a11.328,11.328,0,0,1-1.129-1.613l-.645-1.129A3.186,3.186,0,0,1,.2-218.068,2.308,2.308,0,0,0,.525-220a2.645,2.645,0,0,1,.323-3.224,4.242,4.242,0,0,0,1.129-2.419,10.231,10.231,0,0,1,.322-1.129c-.967-2.258.645-3.71,1.775-5a37.76,37.76,0,0,0,2.74-4.193L7.62-237.1a14.225,14.225,0,0,1,7.418-5.805c3.548-1.129,6.934-.806,9.353,1.129a12.12,12.12,0,0,0,1.129-2.9l.645-1.774.483-1.774c.483-2.1.806-2.9,1.775-3.871,0,.161.161-.322.161-.483-.161-2.9,1.129-5.483,2.1-7.9.645-1.29.967-2.1,1.29-2.9q1.936-5.563,9.192-8.224a2.469,2.469,0,0,1,2.58,0c3.386,1.612,5.482,1.29,4.193,7.74a11.877,11.877,0,0,0-.483,3.063,10.586,10.586,0,0,1-1.291,4.677,66.183,66.183,0,0,1-4.032,8.385l-1.452,3.064a17.413,17.413,0,0,1-2.579,4.837,3.043,3.043,0,0,0-.323,1.291,3.029,3.029,0,0,1-1.129,2.1c-.645.645-.645.806-.645.806l-.161.806c-1.774,1.613-2.741,3.548-3.871,6.128a9.612,9.612,0,0,1-2.257,3.225c-2.419,2.258-1.935,5.16-1.452,7.9.806,4.676,1.613,5.321,5.482,4.676A14.813,14.813,0,0,0,38.9-215l1.935-1.129a19.151,19.151,0,0,0,5.805-4.193,6.43,6.43,0,0,1,1.773-1.935,31.535,31.535,0,0,0,5-6.612,3.273,3.273,0,0,1,4.193-1.774c1.129.323,1.935,1.613,1.613,2.419-.161.161-.161.483-.323.806a3.5,3.5,0,0,1-.806,1.29c-2.1,3.71-6.611,8.87-11.288,13.223a10.39,10.39,0,0,1-2.579,1.452c-2.419,1.129-5,2.258-7.418,3.225-3.064,1.452-4.676.806-7.257.161C26.325-208.555,24.068-210.006,23.1-212.586Zm-4.355-8.225A24.815,24.815,0,0,1,21-224.2a.717.717,0,0,0-.322-.967c-1.613-1.29-1.936-2.581-1.453-5.322a5.982,5.982,0,0,1,.323-1.451v-.323l.967-3.064c.484-1.129,0-2.1-1.129-2.9-.483-.322-.806-.322-1.613.645a26.4,26.4,0,0,0-4.192,3.225,10.415,10.415,0,0,0-1.291,1.129,4,4,0,0,0-.806,1.129c-1.291,2.58-2.58,5-3.709,7.579A12.8,12.8,0,0,0,7.3-222.1a12.462,12.462,0,0,1-.645,3.225,4.333,4.333,0,0,0,1.613,4.192,1.407,1.407,0,0,0,1.613.484C14.232-215.972,16.973-217.907,18.747-220.81Zm16.126-26.769a12.3,12.3,0,0,1,1.129-2.1,36.738,36.738,0,0,0,3.386-7.1,13.638,13.638,0,0,0,1.29-3.87c.162-.484.162-.968.323-1.452,0-1.452.483-.806.645-2.258.161-.644-.323-2.1-1.452-.322-.644,1.128-1.129,2.58-1.774,3.87a19.415,19.415,0,0,0-1.29,2.741l-.968,2.1a18.663,18.663,0,0,1-.967,2.419c-2.257,4.031-4.676,12.9-4.192,12.254A34.51,34.51,0,0,0,34.873-247.579Z" transform="translate(0.367 271.969)" fill="#fff" stroke="#fff" stroke-width="6"/>
        <path id="Caminho_293" data-name="Caminho 293" d="M102.118-225.338a2.619,2.619,0,0,0-.484.967c-.322.805-.484,1.29-.967,1.612A24.333,24.333,0,0,1,97.6-219.21a12.983,12.983,0,0,0-1.936,2.257,20.47,20.47,0,0,1-6.611,5c-1.129.484-2.258.806-2.9,1.774-5,3.063-8.062,3.225-12.578,3.709H72.447c-5.644.323-11.933-2.741-14.191-7.256-1.613-3.064-2.1-5-1.613-7.256l.484-3.225a18.367,18.367,0,0,1,1.291-6.451,9.963,9.963,0,0,0,.806-1.935l.806-2.257a17.7,17.7,0,0,1,4.353-5.805,10.175,10.175,0,0,1,7.74-3.064,4.9,4.9,0,0,1,3.709,1.613c2.419,2.258,2.9,3.87,1.613,6.128a9.883,9.883,0,0,0-.967,3.386c-.484,4.354-3.224,6.773-6.289,9.03a14.657,14.657,0,0,1-2.741,1.452,4.837,4.837,0,0,0-1.291.645l-.644.161c-2.419.967-1.129,1.129-1.129,3.871l.162.967a5.4,5.4,0,0,0,3.386,3.386c4.516,2.1,6.129,1.613,9.514,0a13.633,13.633,0,0,0,1.935-.645c1.129-.484,1.775-.645,2.581-.967a4.2,4.2,0,0,0,1.29-.484,48.916,48.916,0,0,1,4.032-2.9,19.746,19.746,0,0,0,5.805-4.837l2.419-3.064a17.057,17.057,0,0,1,2.417-2.419,2.944,2.944,0,0,1,3.71.323C102.44-227.434,102.44-226.467,102.118-225.338ZM64.546-226.95v.322a5.672,5.672,0,0,0,3.87-3.225,13.317,13.317,0,0,1,1.451-2.579,4.339,4.339,0,0,0,1.291-2.9v-.806c0-1.129-.322-2.1-.484-1.935-.322-.162-.967.322-1.451.806-.323.161-.323.322-.645.483a8.955,8.955,0,0,0-1.774,2.742c-.161.322-.161.483-.323.644a8.507,8.507,0,0,0-1.29,4.032A16.727,16.727,0,0,1,64.546-226.95Z" transform="translate(-4.152 269.724)" fill="#fff" stroke="#fff" stroke-width="6"/>
        <path id="Caminho_294" data-name="Caminho 294" d="M212.565-224.471l-.806,1.29a3.038,3.038,0,0,1-.644.968l-2.419,2.58a40.269,40.269,0,0,1-5.321,5c-3.87,3.224-6.772,5.321-12.577,7.1a19.6,19.6,0,0,1-7.579.322c-3.386-.161-5-1.774-5.805-5.16a23.306,23.306,0,0,1-.644-4.838,29.647,29.647,0,0,1,.644-3.709l.483-2.258,1.129-3.709-1.451,2.1c-1.452,2.1-2.1,2.741-2.581,3.386l-1.774,1.613c-1.128,1.129-2.1,2.1-3.225,3.386a17.5,17.5,0,0,1-6.289,3.548,4.916,4.916,0,0,1-3.709,0c-1.29-.644-1.936-1.451-1.774-2.418a5.5,5.5,0,0,0,.161-1.613,14.212,14.212,0,0,1,.645-3.225c.967-1.613,2.1-5.321,3.386-9.514-2.1,2.258-5.805,7.1-9.191,11.772-1.775,2.419-3.548,4.837-5.483,7.256-1.129,1.613-2.1,3.225-4.354,4.193-1.452.967-3.064.645-4.677-.484-1.129-.806-1.451-1.612-1.129-2.58a17.323,17.323,0,0,0,1.129-5,25.167,25.167,0,0,1,2.258-7.257,3.181,3.181,0,0,1,.323-1.612,1.457,1.457,0,0,0,.161-.806c-.161-1.129.161-2.419,1.29-5.322a10.793,10.793,0,0,0,1.29-4.354,5.5,5.5,0,0,1,1.775-3.063c.483-.968,1.935-1.291,3.224-1.129a3.42,3.42,0,0,1,2.419,2.257,1.448,1.448,0,0,0,.162.806c.16.967.322,1.774,0,2.257a5.473,5.473,0,0,1-1.129,1.775c-1.129,1.774-1.452,2.741-1.129,3.548.162.806-.805,3.225-1.29,3.87a7.455,7.455,0,0,0-1.129,3.71,6.167,6.167,0,0,0,1.452-1.452,7.024,7.024,0,0,1,.967-1.129,7.42,7.42,0,0,0,1.129-1.129A52.544,52.544,0,0,1,160-235.436a6.573,6.573,0,0,1,8.385-.483c1.613.806,2.1,1.935,1.613,3.386a57.623,57.623,0,0,0-1.934,6.611,23.815,23.815,0,0,1-.645,2.741,31.236,31.236,0,0,0,5.321-5.8c1.129-1.29,1.613-1.935,2.419-2.741a21.882,21.882,0,0,1,6.289-4.516,19.31,19.31,0,0,0,3.386-2.1c1.452-.967,3.064-.645,4.677.483a3.911,3.911,0,0,1,.966,1.775,7.023,7.023,0,0,1-1.129,4.837,52.078,52.078,0,0,0-5.644,12.9,20.761,20.761,0,0,0-.644,3.064c-.161.967.322,1.774,1.451,2.58a3.634,3.634,0,0,0,4.194.161c2.418-.967,4.836-1.774,7.255-4.032a21.6,21.6,0,0,1,3.71-2.58,10.335,10.335,0,0,0,5-4.837c.646-.967,1.453-1.613,2.1-2.419.322-.161.483-.484.806-.806,1.613-1.452,3.225-1.935,4.354-.806A3.019,3.019,0,0,1,212.565-224.471Zm-49.827-5.967v0Z" transform="translate(-10.593 269.34)" fill="#fff" stroke="#fff" stroke-width="6"/>
        <path id="Caminho_295" data-name="Caminho 295" d="M217.619-205.7c-.806-.645-1.613-1.291-2.579-1.935l-.323-.161a2.539,2.539,0,0,1-1.129-1.129,19.145,19.145,0,0,1-2.419-7.417l.483-2.58.162-.645a3.8,3.8,0,0,0,.322-1.29,2.715,2.715,0,0,0-.322-.806c-.323-1.129-.484-1.775,0-2.58a10.79,10.79,0,0,0,1.129-2.742,7.284,7.284,0,0,1,1.774-3.548,4.407,4.407,0,0,0,1.129-2.1,2.518,2.518,0,0,1,.644-1.613,39.164,39.164,0,0,0,5.644-5.805c2.257-2.741,8.385-2.9,10.965-.161,1.775,2.258,2.1,3.064,1.775,4.515-.646,1.775-.323,2.741,1.29,3.871l.806.483a4.375,4.375,0,0,1,2.58,2.741,2.326,2.326,0,0,0,.322,1.129c.323,1.613.806,3.386.161,5.321a6.62,6.62,0,0,0-.483,1.291c-.161,1.29,0,1.935.483,2.1a10.608,10.608,0,0,0,10.8-1.774,3.278,3.278,0,0,1,1.129-.967.5.5,0,0,1,.322-.161,12.868,12.868,0,0,0,3.71-2.9,11.817,11.817,0,0,1,3.063-3.225,2.709,2.709,0,0,1,3.548.323,4.877,4.877,0,0,1,.806,1.129c.323,1.129-1.613,4.193-2.419,4.838l-3.87,3.87-1.291.645a.5.5,0,0,1-.322.161l-2.419,1.291c-2.9,1.613-6.289,3.548-12.739,2.418a11.8,11.8,0,0,1-3.71-.644c-.645-.323-.806-.323-2.258,2.419s-4.193,3.87-6.772,4.837l-1.936.484a9.7,9.7,0,0,0-2.58.806A5.627,5.627,0,0,1,217.619-205.7Zm7.9-5.482,2.1-1.774c2.9-2.1,2.741-2.419-.484-4.354a7.439,7.439,0,0,1-2.1-11.772,4.923,4.923,0,0,1,1.29-1.29,6.981,6.981,0,0,0,.967-1.129,2.257,2.257,0,0,0,.968-1.452c.483-1.612.322-1.612-.806-3.386-.162,0,0-.162-.484,0a3.424,3.424,0,0,0-1.612,1.451c-3.225,4.354-4.838,7.1-6.129,11.449l-.483,1.613c-.645,1.936-1.291,3.548-.484,5.322v1.451a12.109,12.109,0,0,0,0,2.419,2.136,2.136,0,0,0,1.129,1.452c.323.161.645.161.967.322a5.492,5.492,0,0,1,1.613.161A3.577,3.577,0,0,0,225.52-211.185Zm7.257-10.159a3.061,3.061,0,0,0,.484-1.451v-1.129a6.585,6.585,0,0,1-.162-1.774c0-.645-.484-1.291-.484-1.935a.709.709,0,0,0-.806.161,6.535,6.535,0,0,0-1.613,2.741l-.321,1.29c-.645,1.129.321,2.419,1.934,2.742C232.293-220.538,232.777-220.7,232.777-221.345Z" transform="translate(-16.454 269.6)" fill="#fff" stroke="#fff" stroke-width="6"/>
        <path id="Caminho_296" data-name="Caminho 296" d="M332.564-224.471l-.806,1.29a3.038,3.038,0,0,1-.644.968l-2.419,2.58a40.267,40.267,0,0,1-5.321,5c-3.87,3.224-6.772,5.321-12.577,7.1a19.6,19.6,0,0,1-7.579.322c-3.386-.161-5-1.774-5.805-5.16a23.307,23.307,0,0,1-.644-4.838,29.652,29.652,0,0,1,.644-3.709l.483-2.258,1.129-3.709-1.451,2.1c-1.452,2.1-2.1,2.741-2.581,3.386l-1.774,1.613c-1.129,1.129-2.1,2.1-3.225,3.386a17.5,17.5,0,0,1-6.289,3.548,4.916,4.916,0,0,1-3.709,0c-1.29-.644-1.936-1.451-1.774-2.418a5.5,5.5,0,0,0,.161-1.613,14.212,14.212,0,0,1,.645-3.225c.967-1.613,2.1-5.321,3.386-9.514-2.1,2.258-5.805,7.1-9.191,11.772-1.775,2.419-3.548,4.837-5.483,7.256-1.128,1.613-2.1,3.225-4.354,4.193-1.452.967-3.064.645-4.677-.484-1.129-.806-1.451-1.612-1.129-2.58a17.323,17.323,0,0,0,1.129-5,25.166,25.166,0,0,1,2.258-7.257,3.181,3.181,0,0,1,.323-1.612,1.457,1.457,0,0,0,.161-.806c-.161-1.129.161-2.419,1.29-5.322a10.793,10.793,0,0,0,1.29-4.354,5.5,5.5,0,0,1,1.775-3.063c.483-.968,1.935-1.291,3.224-1.129a3.42,3.42,0,0,1,2.419,2.257,1.448,1.448,0,0,0,.162.806c.16.967.322,1.774,0,2.257a5.473,5.473,0,0,1-1.129,1.775c-1.129,1.774-1.452,2.741-1.129,3.548.161.806-.806,3.225-1.291,3.87a7.455,7.455,0,0,0-1.128,3.71,6.168,6.168,0,0,0,1.452-1.452,6.98,6.98,0,0,1,.967-1.129,7.454,7.454,0,0,0,1.129-1.129A52.544,52.544,0,0,1,280-235.436a6.573,6.573,0,0,1,8.385-.483c1.613.806,2.1,1.935,1.613,3.386a57.623,57.623,0,0,0-1.934,6.611,23.815,23.815,0,0,1-.645,2.741,31.236,31.236,0,0,0,5.321-5.8c1.128-1.29,1.613-1.935,2.419-2.741a21.882,21.882,0,0,1,6.289-4.516,19.31,19.31,0,0,0,3.386-2.1c1.452-.967,3.064-.645,4.677.483a3.911,3.911,0,0,1,.966,1.775,7.023,7.023,0,0,1-1.129,4.837,52.079,52.079,0,0,0-5.644,12.9,20.763,20.763,0,0,0-.644,3.064c-.161.967.322,1.774,1.451,2.58a3.634,3.634,0,0,0,4.194.161c2.418-.967,4.836-1.774,7.255-4.032a21.6,21.6,0,0,1,3.71-2.58,10.335,10.335,0,0,0,5-4.837c.646-.967,1.453-1.613,2.1-2.419.322-.161.484-.484.806-.806,1.613-1.452,3.225-1.935,4.354-.806A3.019,3.019,0,0,1,332.564-224.471Zm-49.827-5.967v0Z" transform="translate(-20.135 269.34)" fill="#fff" stroke="#fff" stroke-width="6"/>
        <path id="Caminho_297" data-name="Caminho 297" d="M377.151-225.338a2.634,2.634,0,0,0-.484.967c-.322.805-.483,1.29-.967,1.612a24.278,24.278,0,0,1-3.063,3.548,12.938,12.938,0,0,0-1.935,2.257,20.483,20.483,0,0,1-6.612,5c-1.129.484-2.258.806-2.9,1.774-5,3.063-8.063,3.225-12.578,3.709H347.48c-5.644.323-11.933-2.741-14.191-7.256-1.613-3.064-2.1-5-1.613-7.256l.484-3.225a18.367,18.367,0,0,1,1.291-6.451,9.963,9.963,0,0,0,.806-1.935l.806-2.257a17.7,17.7,0,0,1,4.353-5.805,10.175,10.175,0,0,1,7.74-3.064,4.9,4.9,0,0,1,3.71,1.613c2.419,2.258,2.9,3.87,1.613,6.128a9.866,9.866,0,0,0-.968,3.386c-.484,4.354-3.224,6.773-6.289,9.03a14.656,14.656,0,0,1-2.741,1.452,4.837,4.837,0,0,0-1.29.645l-.644.161c-2.419.967-1.129,1.129-1.129,3.871l.162.967a5.4,5.4,0,0,0,3.386,3.386c4.515,2.1,6.128,1.613,9.514,0a13.665,13.665,0,0,0,1.934-.645c1.129-.484,1.775-.645,2.581-.967a4.2,4.2,0,0,0,1.29-.484,48.914,48.914,0,0,1,4.032-2.9,19.745,19.745,0,0,0,5.805-4.837l2.419-3.064a17.066,17.066,0,0,1,2.418-2.419,2.942,2.942,0,0,1,3.709.323C377.473-227.434,377.473-226.467,377.151-225.338Zm-37.572-1.613v.322a5.669,5.669,0,0,0,3.87-3.225,13.366,13.366,0,0,1,1.451-2.579,4.34,4.34,0,0,0,1.291-2.9v-.806c0-1.129-.323-2.1-.485-1.935-.321-.162-.967.322-1.451.806-.323.161-.323.322-.645.483a8.954,8.954,0,0,0-1.774,2.742c-.161.322-.161.483-.322.644a8.508,8.508,0,0,0-1.291,4.032A16.486,16.486,0,0,1,339.579-226.95Z" transform="translate(-26.023 269.724)" fill="#fff" stroke="#fff" stroke-width="6"/>
        <path id="Caminho_298" data-name="Caminho 298" d="M403.841-208.016c-3.71-.967-5.805-3.224-7.579-8.062a6.632,6.632,0,0,1,0-3.548c.484-1.774,1.129-3.71,1.774-5.482l1.935-5c.161-.484,0-.645,0-.645a1.247,1.247,0,0,0-.483-.161,15.241,15.241,0,0,0-3.871,2.258,11.3,11.3,0,0,1-2.741,1.451,7.234,7.234,0,0,0-2.741,1.613,15.223,15.223,0,0,1-1.613,1.613,16.873,16.873,0,0,1-3.063,2.741,16.658,16.658,0,0,0-3.387,4.032,16.293,16.293,0,0,1-2.9,3.709,5.015,5.015,0,0,0-1.129,1.452,6.267,6.267,0,0,1-2.58,2.418c-1.452.645-3.871-.644-4.354-2.418a5.609,5.609,0,0,1,.967-3.871,10.054,10.054,0,0,0,.968-4.193c.16-1.129.16-1.774.321-2.419a27.3,27.3,0,0,1,2.419-6.933,3.811,3.811,0,0,0,.806-2.1c0-3.386,1.452-5.805,3.064-8.062.967-1.613,3.224-1.613,4.837-.161,1.29,1.451,1.452,2.1.806,3.548a51.8,51.8,0,0,0-1.935,5.321,25.18,25.18,0,0,1-.806,2.58c0,.161-.322.484-.484.644a1.815,1.815,0,0,0-.483,1.291c.483-.322,1.129-.484,1.613-.806.967-.644,1.935-1.451,3.064-2.257l2.257-1.775a2.542,2.542,0,0,1,1.129-1.129,16.269,16.269,0,0,0,3.71-1.935c2.58-1.291,5.159-2.741,8.224-3.064a3.383,3.383,0,0,1,3.548,1.452c1.775,2.9,2.258,4.676,1.452,6.612-.162.322-.162.645-.323.967a3.028,3.028,0,0,1-.644,1.613c-2.1,3.548-1.774,7.256-1.774,11.288,0,.967.161.967,1.612,1.774,2.259,1.774,3.548,1.613,7.741-.323,3.547-1.451,5-2.9,8.385-5.643a22.132,22.132,0,0,0,5.482-7.257c.162,0,.484-.322.806-.483a2.942,2.942,0,0,1,2.581-.967c1.29.322,2.1.806,2.257,1.935.322.161-1.129,3.548-1.613,4.032a22.488,22.488,0,0,0-2.419,3.063,13.4,13.4,0,0,1-4.837,4.677,2.9,2.9,0,0,0-1.452,1.29,5.154,5.154,0,0,1-2.419,1.774,2.475,2.475,0,0,1-.967.645,8.118,8.118,0,0,1-4.192,1.774,4.537,4.537,0,0,0-1.775.645c-1.935.967-2.1,1.29-3.87.967A17.052,17.052,0,0,1,403.841-208.016Z" transform="translate(-29.169 269.494)" fill="#fff" stroke="#fff" stroke-width="6"/>
        <path id="Caminho_299" data-name="Caminho 299" d="M473.052-227.245l-.483.967a5.331,5.331,0,0,1-1.613,2.418c-.645.645-1.613,1.775-2.581,2.9-1.29,1.29-1.934,2.1-2.74,2.741a25.4,25.4,0,0,1-5.967,4.193l-2.579,1.451c-2.742,1.775-4.516,2.258-7.741,3.225-6.611,1.774-10.32-.161-12.416-1.29-.644-.323-.967-.645-1.29-.645a2.957,2.957,0,0,1-1.613-1.129.5.5,0,0,1-.161-.323c-2.1-.644-3.386-4.515-3.225-8.062a34.521,34.521,0,0,1,1.774-12.255,9.9,9.9,0,0,1,.806-1.936,11.233,11.233,0,0,0,.645-1.612,5.147,5.147,0,0,1,.323-2.419,11.682,11.682,0,0,0,1.934-4.354,13.457,13.457,0,0,1,.806-2.9c.162-.645.484-.323-.806-.162A2.392,2.392,0,0,1,435-246.6a6.039,6.039,0,0,0-2.258.161h-1.612a17.373,17.373,0,0,1-2.9,0,2.39,2.39,0,0,1-1.935-2.257c-.161-.806.161-1.129,1.129-1.613.162,0,.323,0,.323-.161a11.218,11.218,0,0,1,5.159-.806c1.775.161,2.1.161,2.742-.161a17.454,17.454,0,0,1,2.741-.323c.322,0,.806-.645,1.291-1.774a2.9,2.9,0,0,0,.806-2.1,3.407,3.407,0,0,1,.806-2.9,1.359,1.359,0,0,0,.483-1.613l2.419-5.8c.967-1.935,3.063-2.419,5-.806.16,0,.16.161.483.484.645.806.967,1.129.967,1.935v1.29a8.579,8.579,0,0,1-.161,2.258,13.735,13.735,0,0,0-1.129,3.386,12.26,12.26,0,0,1-1.451,4.031c0,.162-.162.323-.322.484l-.323.645a3.579,3.579,0,0,0,2.58-.162c4.515-1.29,7.9-.967,12.255-.805.645,0,1.774.322,1.936.805h.161c.322.484.645.806.645,1.129a2.458,2.458,0,0,1-1.129,1.935,4.2,4.2,0,0,1-2.419.645c-.806,0-1.613.161-2.257.161a29.207,29.207,0,0,1-4.032.322,1.457,1.457,0,0,0-.806.161h-.645a19.452,19.452,0,0,0-3.224.162c-.968,0-2.1.161-3.387.161-1.29.161-1.451.161-1.611,1.613a10.5,10.5,0,0,1-1.613,3.063,5.655,5.655,0,0,0-1.129,3.709,6.857,6.857,0,0,1-.806,1.936c-.483.645-.483.645-.483.806-4.193,8.708-4.355,12.094-3.71,18.222,0,.645.161.967,1.129,1.774,2.581,2.9,5.321,3.386,9.192,1.935,3.225-1.129,5.805-1.774,8.063-4.193a7,7,0,0,1,2.742-1.774,11.154,11.154,0,0,0,1.612-.644,13.7,13.7,0,0,0,3.548-3.225c.484-.484,1.129-1.29,1.775-2.1a11.87,11.87,0,0,1,3.063-3.225,2.671,2.671,0,0,1,3.225.162l.322.322C473.052-228.374,473.374-227.89,473.052-227.245Z" transform="translate(-33.557 271.631)" fill="#fff" stroke="#fff" stroke-width="6"/>
        <path id="Caminho_300" data-name="Caminho 300" d="M475.487-205.7c-.806-.645-1.613-1.291-2.58-1.935l-.323-.161a2.544,2.544,0,0,1-1.129-1.129,19.16,19.16,0,0,1-2.419-7.417l.483-2.58.162-.645a3.8,3.8,0,0,0,.323-1.29,2.724,2.724,0,0,0-.323-.806c-.323-1.129-.483-1.775,0-2.58a10.823,10.823,0,0,0,1.129-2.742,7.276,7.276,0,0,1,1.773-3.548,4.408,4.408,0,0,0,1.129-2.1,2.523,2.523,0,0,1,.644-1.613A39.118,39.118,0,0,0,480-240.051c2.257-2.741,8.385-2.9,10.965-.161,1.775,2.258,2.1,3.064,1.775,4.515-.645,1.775-.323,2.741,1.29,3.871l.806.483a4.375,4.375,0,0,1,2.58,2.741,2.336,2.336,0,0,0,.322,1.129c.323,1.613.806,3.386.161,5.321a6.618,6.618,0,0,0-.483,1.291c-.161,1.29,0,1.935.483,2.1a10.608,10.608,0,0,0,10.8-1.774,3.286,3.286,0,0,1,1.129-.967.5.5,0,0,1,.323-.161,12.876,12.876,0,0,0,3.709-2.9,11.83,11.83,0,0,1,3.063-3.225,2.71,2.71,0,0,1,3.548.323,4.935,4.935,0,0,1,.806,1.129c.322,1.129-1.613,4.193-2.419,4.838l-3.871,3.87-1.29.645a.5.5,0,0,1-.321.161l-2.419,1.291c-2.9,1.613-6.289,3.548-12.739,2.418a11.8,11.8,0,0,1-3.71-.644c-.645-.323-.806-.323-2.258,2.419s-4.192,3.87-6.772,4.837l-1.936.484a9.682,9.682,0,0,0-2.579.806A5.627,5.627,0,0,1,475.487-205.7Zm7.9-5.482,2.1-1.774c2.9-2.1,2.741-2.419-.483-4.354a7.438,7.438,0,0,1-2.1-11.772,4.913,4.913,0,0,1,1.291-1.29,7.024,7.024,0,0,0,.966-1.129,2.257,2.257,0,0,0,.968-1.452c.483-1.612.322-1.612-.806-3.386-.162,0,0-.162-.484,0a3.428,3.428,0,0,0-1.612,1.451c-3.225,4.354-4.838,7.1-6.128,11.449l-.484,1.613c-.645,1.936-1.29,3.548-.484,5.322v1.451a12.11,12.11,0,0,0,0,2.419,2.139,2.139,0,0,0,1.129,1.452c.323.161.646.161.967.322a5.489,5.489,0,0,1,1.613.161A3.579,3.579,0,0,0,483.388-211.185Zm7.256-10.159a3.061,3.061,0,0,0,.484-1.451v-1.129a6.585,6.585,0,0,1-.162-1.774c0-.645-.483-1.291-.483-1.935a.708.708,0,0,0-.806.161,6.517,6.517,0,0,0-1.613,2.741l-.322,1.29c-.645,1.129.322,2.419,1.935,2.742C490.16-220.538,490.644-220.7,490.644-221.345Z" transform="translate(-36.96 269.6)" fill="#fff" stroke="#fff" stroke-width="6"/>
        <path id="Caminho_301" data-name="Caminho 301" d="M566.307-226.027a.6.6,0,0,0-.16.484,14.933,14.933,0,0,1-.806,1.612,11.126,11.126,0,0,1-2.58,2.9,11.461,11.461,0,0,0-1.936,2.419,6.382,6.382,0,0,1-1.935,2.419,38.885,38.885,0,0,1-4.676,3.87,9,9,0,0,0-2.58,2.1,11.474,11.474,0,0,1-5.644,2.741,22.358,22.358,0,0,0-3.225,1.291c-1.613.645-3.87.645-5.8.806a24.987,24.987,0,0,0-3.548.161,61.985,61.985,0,0,0-7.1-.967c-.484,0-.968-.161-1.613-.161-2.581-.323-3.387-1.613-4.677-4.193v-.967a1.222,1.222,0,0,0-.161-.645c0-1.774.484-2.741,1.774-3.224,1.613-.645,2.9-.484,3.871.644a10.633,10.633,0,0,0,1.128,1.29l.967.967a1.329,1.329,0,0,0,1.774.322,9.2,9.2,0,0,0,4.354-5.967,4.444,4.444,0,0,0,.162-1.935c-.967-2.9-1.936-5.643-2.742-8.385l-1.129-3.548v-.483c0-.162,0-.322-.161-.322l-.484.483a.158.158,0,0,1-.161.161l-.484,1.129a4.491,4.491,0,0,1-1.129,2.1,20.821,20.821,0,0,0-1.452,2.58,9.289,9.289,0,0,1-2.419,3.548c-1.451,1.29-2.74,1.29-4.515.322-.644-.322-1.29-1.128-.967-1.612a18.9,18.9,0,0,1,3.225-5.805,38.06,38.06,0,0,0,3.386-5.805,28.878,28.878,0,0,1,3.386-5.967,1.264,1.264,0,0,0,.161-1.291,3.38,3.38,0,0,1,.645-3.224c1.128-1.774,4.032-2.58,6.128-1.935A2.087,2.087,0,0,1,536.8-245.7a13.8,13.8,0,0,0-.806,2.419,9.535,9.535,0,0,1-1.129,2.741c-.806,1.613-.806,2.58.162,4.838l.967,2.58a11.481,11.481,0,0,0,1.774,3.386,15.964,15.964,0,0,1,1.774,3.225,19.241,19.241,0,0,1-.806,14.029v.322a.566.566,0,0,1-.161.323.158.158,0,0,0,.161.161l2.418-.484a15.749,15.749,0,0,0,5.644-2.1L550.989-217l.968-.645c.644-.645,1.128-.806,1.29-1.452,1.451-.644,5-4.515,7.418-8.224.322-.645,3.224-2.741,5.159-.645C566.469-227.316,566.469-226.994,566.307-226.027Z" transform="translate(-40.867 270.09)" fill="#fff" stroke="#fff" stroke-width="6"/>
        <path id="Caminho_302" data-name="Caminho 302" d="M650.258-225.338a2.616,2.616,0,0,0-.485.967c-.321.805-.483,1.29-.966,1.612a24.391,24.391,0,0,1-3.063,3.548,12.947,12.947,0,0,0-1.936,2.257,20.472,20.472,0,0,1-6.612,5c-1.129.484-2.258.806-2.9,1.774-5,3.063-8.063,3.225-12.578,3.709h-1.129c-5.643.323-11.932-2.741-14.191-7.256-1.613-3.064-2.1-5-1.613-7.256l.485-3.225a18.365,18.365,0,0,1,1.29-6.451,9.907,9.907,0,0,0,.806-1.935l.806-2.257a17.719,17.719,0,0,1,4.354-5.805,10.174,10.174,0,0,1,7.74-3.064,4.9,4.9,0,0,1,3.709,1.613c2.419,2.258,2.9,3.87,1.613,6.128a9.885,9.885,0,0,0-.968,3.386c-.483,4.354-3.224,6.773-6.289,9.03a14.648,14.648,0,0,1-2.74,1.452,4.844,4.844,0,0,0-1.291.645l-.644.161c-2.419.967-1.129,1.129-1.129,3.871l.161.967a5.4,5.4,0,0,0,3.386,3.386c4.515,2.1,6.128,1.613,9.514,0a13.713,13.713,0,0,0,1.935-.645c1.128-.484,1.774-.645,2.58-.967a4.2,4.2,0,0,0,1.291-.484,48.76,48.76,0,0,1,4.032-2.9,19.731,19.731,0,0,0,5.8-4.837l2.419-3.064a17.117,17.117,0,0,1,2.418-2.419,2.942,2.942,0,0,1,3.709.323C650.579-227.434,650.579-226.467,650.258-225.338Zm-37.573-1.613v.322a5.673,5.673,0,0,0,3.871-3.225,13.266,13.266,0,0,1,1.451-2.579,4.339,4.339,0,0,0,1.29-2.9v-.806c0-1.129-.323-2.1-.484-1.935-.322-.162-.967.322-1.451.806-.323.161-.323.322-.646.483a8.953,8.953,0,0,0-1.773,2.742c-.161.322-.161.483-.323.644a8.5,8.5,0,0,0-1.29,4.032A16.6,16.6,0,0,1,612.685-226.95Z" transform="translate(-47.74 269.724)" fill="#fff" stroke="#fff" stroke-width="6"/>
        <path id="Caminho_303" data-name="Caminho 303" d="M694.539-226.027a.594.594,0,0,0-.161.484,14.756,14.756,0,0,1-.806,1.612,11.125,11.125,0,0,1-2.58,2.9,11.458,11.458,0,0,0-1.935,2.419,6.394,6.394,0,0,1-1.936,2.419,38.737,38.737,0,0,1-4.676,3.87,9.029,9.029,0,0,0-2.58,2.1,11.471,11.471,0,0,1-5.643,2.741A22.269,22.269,0,0,0,671-206.192c-1.613.645-3.87.645-5.805.806a24.973,24.973,0,0,0-3.547.161,62.014,62.014,0,0,0-7.1-.967c-.485,0-.968-.161-1.613-.161-2.581-.323-3.387-1.613-4.677-4.193v-.967a1.222,1.222,0,0,0-.161-.645c0-1.774.483-2.741,1.774-3.224,1.612-.645,2.9-.484,3.871.644a10.641,10.641,0,0,0,1.128,1.29l.968.967a1.329,1.329,0,0,0,1.774.322,9.2,9.2,0,0,0,4.354-5.967,4.439,4.439,0,0,0,.161-1.935c-.967-2.9-1.936-5.643-2.742-8.385l-1.128-3.548v-.483c0-.162,0-.322-.162-.322l-.483.483a.158.158,0,0,1-.161.161l-.484,1.129a4.5,4.5,0,0,1-1.128,2.1,20.7,20.7,0,0,0-1.452,2.58,9.311,9.311,0,0,1-2.419,3.548c-1.451,1.29-2.741,1.29-4.515.322-.645-.322-1.29-1.128-.967-1.612a18.9,18.9,0,0,1,3.225-5.805A37.968,37.968,0,0,0,653.1-235.7a28.875,28.875,0,0,1,3.386-5.967,1.263,1.263,0,0,0,.162-1.291,3.377,3.377,0,0,1,.644-3.224c1.129-1.774,4.032-2.58,6.128-1.935a2.085,2.085,0,0,1,1.613,2.418,13.879,13.879,0,0,0-.806,2.419,9.5,9.5,0,0,1-1.129,2.741c-.806,1.613-.806,2.58.162,4.838l.966,2.58A11.482,11.482,0,0,0,666-229.735a16.015,16.015,0,0,1,1.775,3.225,19.252,19.252,0,0,1-.806,14.029v.322a.565.565,0,0,1-.162.323.158.158,0,0,0,.162.161l2.418-.484a15.756,15.756,0,0,0,5.644-2.1L679.22-217l.968-.645c.644-.645,1.128-.806,1.29-1.452,1.452-.644,5-4.515,7.418-8.224.323-.645,3.225-2.741,5.159-.645C694.7-227.316,694.7-226.994,694.539-226.027Z" transform="translate(-51.063 270.09)" fill="#fff" stroke="#fff" stroke-width="6"/>
        <path id="Caminho_304" data-name="Caminho 304" d="M675.922-178.862v-.161l.484-2.1v-.161l3.063-6.935c0-.16.162-.322.162-.483a2.144,2.144,0,0,0,.483-1.129,15.155,15.155,0,0,1,2.742-8.386v-1.452c-.162-1.451,0-2.1.644-2.741a3.833,3.833,0,0,0,.483-1.129c.323-.645.323-.967.645-1.291,0-.161.161-.322.161-.483a2.141,2.141,0,0,0,.484-1.129,23.662,23.662,0,0,1,1.935-8.385,25.835,25.835,0,0,0,1.613-5l1.129-3.548a9.466,9.466,0,0,0,1.29-5.16l.161-.645a22.162,22.162,0,0,0,1.935-8.062,11.758,11.758,0,0,1,1.452-4.193,11.067,11.067,0,0,0,1.129-2.419c.484-1.129,2.258-1.613,3.548-1.451,1.613.161,3.063,1.613,2.9,3.063a22.256,22.256,0,0,1-2.258,9.514,4.715,4.715,0,0,0-.322,1.452,16.444,16.444,0,0,1-1.452,4.031,14.752,14.752,0,0,0-1.613,3.871c-.483,1.613-1.129,3.548-1.613,5.321-.483,1.613-.806,3.064-1.29,4.515v.161c0,.645-1.613.806-.323.645-.161.323.323-.322.485-.483s.16-.162.16-.323l.323-.322a14.686,14.686,0,0,1,1.29-2.1,11.885,11.885,0,0,1,1.291-2.1,22.022,22.022,0,0,1,2.9-3.87c.161-.323.483-.484.645-.806a9.027,9.027,0,0,0,.967-1.29,24.68,24.68,0,0,1,3.87-5l2.742-3.387a16.616,16.616,0,0,1,8.385-5.967c1.936-1.451,4.032-.806,5.644-.322a2.975,2.975,0,0,0,1.129.322,6.459,6.459,0,0,1,4.354,3.871,12.578,12.578,0,0,1,.968,8.708c-2.259,5.805-5.967,9.353-11.933,11.772a.964.964,0,0,0-.162.644.159.159,0,0,0,.162.162c3.87.483,7.256.967,10.642-.162a23.944,23.944,0,0,1,5-2.418c3.224-1.291,7.9-4.838,9.835-7.9a13.919,13.919,0,0,1,2.419-2.741,6.191,6.191,0,0,0,1.453-1.451,4.852,4.852,0,0,1,3.386-.806,2.732,2.732,0,0,1,1.936,3.709c-1.452,2.9-3.225,4.354-5.483,6.289l-4.193,3.871a4.256,4.256,0,0,1-.806.967,50.569,50.569,0,0,1-14.835,6.289,26.283,26.283,0,0,1-5,.484,4.975,4.975,0,0,1-1.613.161,35.585,35.585,0,0,1-9.352-1.774,8.022,8.022,0,0,1-4.354-2.741c-.645-.806-1.936-1.936-.967-3.548a4.212,4.212,0,0,1,3.709-2.258c.322,0,.484,0,.644.161a.973.973,0,0,1,.646.161c0,.484,4.192-.644,4.837-1.29a18.868,18.868,0,0,1,2.58-2.419c2.1-1.613,4.193-3.386,5.16-6.289.322-1.129-.161-3.871-.967-5.643a.5.5,0,0,0-.323-.162,4.318,4.318,0,0,0-3.709.322c-2.257.968-4.032,2.581-6.128,5.322-2.1,2.9-5.482,7.417-7.1,10.643-1.936,4.193-4.838,7.9-7.74,11.61a18.109,18.109,0,0,0-1.935,3.386,14.62,14.62,0,0,1-2.9,5,2.255,2.255,0,0,0-.968,1.452,54.421,54.421,0,0,1-3.548,8.385,44.484,44.484,0,0,0-2.9,6.29,17.1,17.1,0,0,1-1.935,3.224,3.722,3.722,0,0,1-5,.484A2.575,2.575,0,0,1,675.922-178.862Z" transform="translate(-53.411 269.85)" fill="#fff" stroke="#fff" stroke-width="6"/>
        <path id="Caminho_305" data-name="Caminho 305" d="M795.833-225.338a2.606,2.606,0,0,0-.484.967c-.322.805-.484,1.29-.967,1.612a24.391,24.391,0,0,1-3.063,3.548,12.942,12.942,0,0,0-1.936,2.257,20.479,20.479,0,0,1-6.611,5c-1.129.484-2.259.806-2.9,1.774-5,3.063-8.063,3.225-12.578,3.709h-1.128c-5.644.323-11.933-2.741-14.191-7.256-1.613-3.064-2.1-5-1.613-7.256l.484-3.225a18.386,18.386,0,0,1,1.29-6.451,9.851,9.851,0,0,0,.806-1.935l.806-2.257a17.72,17.72,0,0,1,4.354-5.805,10.175,10.175,0,0,1,7.74-3.064,4.9,4.9,0,0,1,3.709,1.613c2.419,2.258,2.9,3.87,1.613,6.128a9.882,9.882,0,0,0-.967,3.386c-.484,4.354-3.224,6.773-6.29,9.03a14.619,14.619,0,0,1-2.74,1.452,4.838,4.838,0,0,0-1.29.645l-.645.161c-2.419.967-1.128,1.129-1.128,3.871l.162.967a5.4,5.4,0,0,0,3.386,3.386c4.516,2.1,6.129,1.613,9.514,0a13.633,13.633,0,0,0,1.935-.645c1.128-.484,1.775-.645,2.581-.967a4.2,4.2,0,0,0,1.29-.484,48.77,48.77,0,0,1,4.032-2.9,19.731,19.731,0,0,0,5.8-4.837l2.419-3.064a17.114,17.114,0,0,1,2.418-2.419,2.943,2.943,0,0,1,3.709.323C796.155-227.434,796.155-226.467,795.833-225.338Zm-37.572-1.613v.322a5.674,5.674,0,0,0,3.87-3.225,13.314,13.314,0,0,1,1.451-2.579,4.339,4.339,0,0,0,1.29-2.9v-.806c0-1.129-.322-2.1-.484-1.935-.322-.162-.967.322-1.451.806-.323.161-.323.322-.645.483a8.953,8.953,0,0,0-1.774,2.742c-.161.322-.161.483-.323.644a8.507,8.507,0,0,0-1.29,4.032A16.734,16.734,0,0,1,758.261-226.95Z" transform="translate(-59.316 269.724)" fill="#fff" stroke="#fff" stroke-width="6"/>
        <path id="Caminho_306" data-name="Caminho 306" d="M798.931-208.589a11.469,11.469,0,0,1-6.773-6.128,16.653,16.653,0,0,1-.644-9.031,19.862,19.862,0,0,1,2.579-6.289c1.13-2.419,3.064-5.805,5.968-7.418a37.384,37.384,0,0,0,3.224-2.58c2.58-2.419,5.8-2.1,8.708-1.613a2.99,2.99,0,0,1,2.1,1.452,7.479,7.479,0,0,1,1.451,5.483v2.741c0,1.129-1.774,2.58-3.548,2.741-1.452,0-3.71-1.613-3.71-2.741a1.736,1.736,0,0,1,.323-1.291,3.627,3.627,0,0,0,.162-2.58c0-.322-.485-.645-.485-.645a2.221,2.221,0,0,0-2.579.806c-3.548,3.548-5.805,7.741-7.1,13.707a9.385,9.385,0,0,0,.322,3.548c0,.645.161,1.129.161,1.613a3.956,3.956,0,0,0,2.419,3.386c3.386,1.452,7.257,3.386,13.707-1.129a7.7,7.7,0,0,1,1.935-.806c1.936-.484,4.515-1.129,5.967-2.9l1.29-1.29a7.475,7.475,0,0,0,1.612-1.613,25.359,25.359,0,0,0,4.032-4.515l1.129-1.452a4.791,4.791,0,0,1,2.419-1.452,2.841,2.841,0,0,1,2.741,1.452c.645.967.162,3.064-.644,4.032-2.1,2.1-3.065,3.386-5,5.643-4.355,5-9.353,7.74-17.254,9.353a2.3,2.3,0,0,1-.967.323l-.968.483C808.768-206.493,801.995-207.461,798.931-208.589Z" transform="translate(-62.576 269.584)" fill="#fff" stroke="#fff" stroke-width="6"/>
        <path id="Caminho_307" data-name="Caminho 307" d="M840.516-206.84c-.968-.161-2.419-.483-3.064-1.612a25.94,25.94,0,0,1-3.386-4.838,2.893,2.893,0,0,1-.483-1.774v-4.515c-.323-5.16,1.128-10.159,2.741-15.158a4.86,4.86,0,0,1,1.451-2.419c1.129-1.612,4.193-1.29,5.161.161a3.693,3.693,0,0,1,.483,1.775v.161L841-224.577a25.282,25.282,0,0,0-.483,8.869,4.075,4.075,0,0,0,2.74,3.871l1.129.483a2.732,2.732,0,0,0,.806.323,1.851,1.851,0,0,0,1.613.161,12.9,12.9,0,0,0,5.966-2.9,28.6,28.6,0,0,0,5.644-5.159,12.074,12.074,0,0,1,2.1-2.581,29.805,29.805,0,0,0,2.9-4.192c.645-1.613,1.613-1.935,3.225-2.741a2.688,2.688,0,0,1,3.225,1.773,2.7,2.7,0,0,1-.484,1.936l-.645,1.774a7.235,7.235,0,0,0-1.613,2.741,15.954,15.954,0,0,0-1.451,1.613,59.109,59.109,0,0,1-4.838,5.482,31.006,31.006,0,0,1-6.612,5.16c-4.676,2.258-8.708,2.741-12.578,1.452A2.316,2.316,0,0,0,840.516-206.84Z" transform="translate(-65.944 269.286)" fill="#fff" stroke="#fff" stroke-width="6"/>
        <path id="Caminho_308" data-name="Caminho 308" d="M895.689-207.02a3.635,3.635,0,0,0-1.129-.161c-4.514-.644-6.611-2.1-9.352-6.611a4.341,4.341,0,0,0-.645-.806H884.4l-2.1,1.613c-1.129.806-1.613,1.29-2.419,1.774a3.5,3.5,0,0,0-.806.644l-1.936,1.129c-3.547,2.257-7.1,1.935-10.32-.645-1.774-1.29-2.419-2.258-2.258-3.87,0-.967-.161-1.613-.161-2.258a7.907,7.907,0,0,1,.322-4.193c.162-.483.484-1.129.645-1.774a6.989,6.989,0,0,0,.806-3.709c-.161-.484.161-1.129.323-1.774a70.483,70.483,0,0,0,4.031-6.612,10.529,10.529,0,0,1,5-4.515,6.554,6.554,0,0,1,2.259-1.613,4.238,4.238,0,0,0,1.451-.806,6.677,6.677,0,0,1,4.677-1.291c4.676.806,7.739,2.742,9.352,6.451a5.307,5.307,0,0,1,.484.967,3.016,3.016,0,0,1,.805,2.258,3.105,3.105,0,0,1-2.74,2.9c-1.936.161-3.709-.806-3.871-2.1l-.484-1.129a2.864,2.864,0,0,1-.806-1.291c-.483-1.452-.966-1.613-2.579-1.774a5.415,5.415,0,0,0-4.516,1.935,14.6,14.6,0,0,1-1.773,1.613,9.814,9.814,0,0,0-2.1,2.419,4.905,4.905,0,0,1-.806,1.129c-.806,1.129-1.128,1.613-1.128,2.258a2.817,2.817,0,0,1-.644,1.935,8.228,8.228,0,0,0-1.775,5.805c0,.644-.161,1.29-.161,2.1,0,.484.161.967.161,1.613a2.973,2.973,0,0,1,.322,1.129,1.341,1.341,0,0,0,1.774.967,8.6,8.6,0,0,0,3.548-2.418,12.035,12.035,0,0,1,2.741-2.9,6.654,6.654,0,0,0,2.58-3.87l.967-1.613a14.769,14.769,0,0,1,.806-1.613,4.594,4.594,0,0,1,2.9-2.1c1.13-.806,3.548.323,3.548,1.775a5.852,5.852,0,0,1,0,3.386,9.172,9.172,0,0,0,.967,7.741,6.07,6.07,0,0,0,3.71,2.579,20.059,20.059,0,0,0,2.579-.644c2.1-.323,5.161-.484,8.224-3.871a20.858,20.858,0,0,1,2.258-1.935,11,11,0,0,0,2.741-2.741,17.722,17.722,0,0,0,.967-1.774,25.273,25.273,0,0,1,1.935-2.741c.162-.162.322-.484.645-.806l.644-.968a3.428,3.428,0,0,1,4.032.323,2.167,2.167,0,0,1,.645,2.58c0,.161-.162.161-.162.322v.162c0,.161-.16.322-.321.483a3.451,3.451,0,0,1-.968,1.613c-2.419,3.386-3.87,5.482-5.643,7.74a12.134,12.134,0,0,1-4.677,4.031c-.161.162-.483.162-.644.323a16.119,16.119,0,0,1-6.934,2.58c-.806.161-1.613.322-2.742.644A9.038,9.038,0,0,1,895.689-207.02Z" transform="translate(-68.387 269.627)" fill="#fff" stroke="#fff" stroke-width="6"/>
        <path id="Caminho_309" data-name="Caminho 309" d="M924.778-206.84c-.967-.161-2.418-.483-3.064-1.612a25.942,25.942,0,0,1-3.385-4.838,2.893,2.893,0,0,1-.484-1.774v-4.515c-.322-5.16,1.129-10.159,2.742-15.158a4.86,4.86,0,0,1,1.451-2.419c1.129-1.612,4.193-1.29,5.16.161a3.683,3.683,0,0,1,.484,1.775v.161l-2.419,10.482a25.3,25.3,0,0,0-.484,8.869,4.076,4.076,0,0,0,2.741,3.871l1.129.483a2.732,2.732,0,0,0,.806.323,1.85,1.85,0,0,0,1.613.161,12.906,12.906,0,0,0,5.966-2.9,28.624,28.624,0,0,0,5.644-5.159,12.072,12.072,0,0,1,2.1-2.581,29.752,29.752,0,0,0,2.9-4.192c.646-1.613,1.613-1.935,3.225-2.741a2.687,2.687,0,0,1,3.225,1.773,2.706,2.706,0,0,1-.483,1.936L953-222.965a7.234,7.234,0,0,0-1.613,2.741,15.962,15.962,0,0,0-1.451,1.613,59.121,59.121,0,0,1-4.838,5.482,31.05,31.05,0,0,1-6.612,5.16c-4.676,2.258-8.708,2.741-12.578,1.452A2.319,2.319,0,0,0,924.778-206.84Z" transform="translate(-72.645 269.286)" fill="#fff" stroke="#fff" stroke-width="6"/>
        <path id="Caminho_310" data-name="Caminho 310" d="M997.427-226.027a.594.594,0,0,0-.161.484,14.924,14.924,0,0,1-.806,1.612,11.108,11.108,0,0,1-2.58,2.9,11.426,11.426,0,0,0-1.935,2.419,6.393,6.393,0,0,1-1.936,2.419,38.885,38.885,0,0,1-4.676,3.87,9.016,9.016,0,0,0-2.58,2.1,11.47,11.47,0,0,1-5.644,2.741,22.393,22.393,0,0,0-3.225,1.291c-1.613.645-3.87.645-5.8.806a24.986,24.986,0,0,0-3.548.161,61.986,61.986,0,0,0-7.1-.967c-.484,0-.967-.161-1.613-.161-2.58-.323-3.386-1.613-4.677-4.193v-.967a1.222,1.222,0,0,0-.161-.645c0-1.774.484-2.741,1.774-3.224,1.613-.645,2.9-.484,3.871.644a10.637,10.637,0,0,0,1.129,1.29l.968.967a1.328,1.328,0,0,0,1.773.322,9.2,9.2,0,0,0,4.354-5.967,4.445,4.445,0,0,0,.162-1.935c-.967-2.9-1.936-5.643-2.742-8.385l-1.128-3.548v-.483c0-.162,0-.322-.162-.322l-.484.483a.157.157,0,0,1-.16.161l-.485,1.129a4.5,4.5,0,0,1-1.128,2.1,20.728,20.728,0,0,0-1.453,2.58,9.3,9.3,0,0,1-2.418,3.548c-1.452,1.29-2.741,1.29-4.516.322-.644-.322-1.29-1.128-.967-1.612A18.9,18.9,0,0,1,952.6-229.9a38.056,38.056,0,0,0,3.386-5.805,28.881,28.881,0,0,1,3.386-5.967,1.267,1.267,0,0,0,.162-1.291,3.377,3.377,0,0,1,.644-3.224c1.128-1.774,4.032-2.58,6.128-1.935a2.085,2.085,0,0,1,1.613,2.418,13.878,13.878,0,0,0-.806,2.419,9.54,9.54,0,0,1-1.129,2.741c-.806,1.613-.806,2.58.162,4.838l.967,2.58a11.48,11.48,0,0,0,1.774,3.386,15.964,15.964,0,0,1,1.774,3.225,19.247,19.247,0,0,1-.805,14.029v.322a.565.565,0,0,1-.162.323.158.158,0,0,0,.162.161l2.417-.484a15.75,15.75,0,0,0,5.644-2.1L982.108-217l.968-.645c.644-.645,1.128-.806,1.29-1.452,1.451-.644,5-4.515,7.418-8.224.322-.645,3.225-2.741,5.159-.645C997.588-227.316,997.588-226.994,997.427-226.027Z" transform="translate(-75.148 270.09)" fill="#fff" stroke="#fff" stroke-width="6"/>
      </g>
      <g id="Grupo_73" data-name="Grupo 73" transform="translate(0.806)">
        <path id="Caminho_292-2" data-name="Caminho 292" d="M23.1-212.586a4.284,4.284,0,0,0-.806-.967,1.461,1.461,0,0,0-1.453-.484,20.809,20.809,0,0,0-3.063,1.935c-2.258,1.936-5.16,2.419-7.579,2.9l-1.774.322A6.771,6.771,0,0,1,2.3-211.3a11.328,11.328,0,0,1-1.129-1.613l-.645-1.129A3.186,3.186,0,0,1,.2-218.068,2.308,2.308,0,0,0,.525-220a2.645,2.645,0,0,1,.323-3.224,4.242,4.242,0,0,0,1.129-2.419,10.231,10.231,0,0,1,.322-1.129c-.967-2.258.645-3.71,1.775-5a37.76,37.76,0,0,0,2.74-4.193L7.62-237.1a14.225,14.225,0,0,1,7.418-5.805c3.548-1.129,6.934-.806,9.353,1.129a12.12,12.12,0,0,0,1.129-2.9l.645-1.774.483-1.774c.483-2.1.806-2.9,1.775-3.871,0,.161.161-.322.161-.483-.161-2.9,1.129-5.483,2.1-7.9.645-1.29.967-2.1,1.29-2.9q1.936-5.563,9.192-8.224a2.469,2.469,0,0,1,2.58,0c3.386,1.612,5.482,1.29,4.193,7.74a11.877,11.877,0,0,0-.483,3.063,10.586,10.586,0,0,1-1.291,4.677,66.183,66.183,0,0,1-4.032,8.385l-1.452,3.064a17.413,17.413,0,0,1-2.579,4.837,3.043,3.043,0,0,0-.323,1.291,3.029,3.029,0,0,1-1.129,2.1c-.645.645-.645.806-.645.806l-.161.806c-1.774,1.613-2.741,3.548-3.871,6.128a9.612,9.612,0,0,1-2.257,3.225c-2.419,2.258-1.935,5.16-1.452,7.9.806,4.676,1.613,5.321,5.482,4.676A14.813,14.813,0,0,0,38.9-215l1.935-1.129a19.151,19.151,0,0,0,5.805-4.193,6.43,6.43,0,0,1,1.773-1.935,31.535,31.535,0,0,0,5-6.612,3.273,3.273,0,0,1,4.193-1.774c1.129.323,1.935,1.613,1.613,2.419-.161.161-.161.483-.323.806a3.5,3.5,0,0,1-.806,1.29c-2.1,3.71-6.611,8.87-11.288,13.223a10.39,10.39,0,0,1-2.579,1.452c-2.419,1.129-5,2.258-7.418,3.225-3.064,1.452-4.676.806-7.257.161C26.325-208.555,24.068-210.006,23.1-212.586Zm-4.355-8.225A24.815,24.815,0,0,1,21-224.2a.717.717,0,0,0-.322-.967c-1.613-1.29-1.936-2.581-1.453-5.322a5.982,5.982,0,0,1,.323-1.451v-.323l.967-3.064c.484-1.129,0-2.1-1.129-2.9-.483-.322-.806-.322-1.613.645a26.4,26.4,0,0,0-4.192,3.225,10.415,10.415,0,0,0-1.291,1.129,4,4,0,0,0-.806,1.129c-1.291,2.58-2.58,5-3.709,7.579A12.8,12.8,0,0,0,7.3-222.1a12.462,12.462,0,0,1-.645,3.225,4.333,4.333,0,0,0,1.613,4.192,1.407,1.407,0,0,0,1.613.484C14.232-215.972,16.973-217.907,18.747-220.81Zm16.126-26.769a12.3,12.3,0,0,1,1.129-2.1,36.738,36.738,0,0,0,3.386-7.1,13.638,13.638,0,0,0,1.29-3.87c.162-.484.162-.968.323-1.452,0-1.452.483-.806.645-2.258.161-.644-.323-2.1-1.452-.322-.644,1.128-1.129,2.58-1.774,3.87a19.415,19.415,0,0,0-1.29,2.741l-.968,2.1a18.663,18.663,0,0,1-.967,2.419c-2.257,4.031-4.676,12.9-4.192,12.254A34.51,34.51,0,0,0,34.873-247.579Z" transform="translate(0.367 271.969)" fill="#0099a8"/>
        <path id="Caminho_293-2" data-name="Caminho 293" d="M102.118-225.338a2.619,2.619,0,0,0-.484.967c-.322.805-.484,1.29-.967,1.612A24.333,24.333,0,0,1,97.6-219.21a12.983,12.983,0,0,0-1.936,2.257,20.47,20.47,0,0,1-6.611,5c-1.129.484-2.258.806-2.9,1.774-5,3.063-8.062,3.225-12.578,3.709H72.447c-5.644.323-11.933-2.741-14.191-7.256-1.613-3.064-2.1-5-1.613-7.256l.484-3.225a18.367,18.367,0,0,1,1.291-6.451,9.963,9.963,0,0,0,.806-1.935l.806-2.257a17.7,17.7,0,0,1,4.353-5.805,10.175,10.175,0,0,1,7.74-3.064,4.9,4.9,0,0,1,3.709,1.613c2.419,2.258,2.9,3.87,1.613,6.128a9.883,9.883,0,0,0-.967,3.386c-.484,4.354-3.224,6.773-6.289,9.03a14.657,14.657,0,0,1-2.741,1.452,4.837,4.837,0,0,0-1.291.645l-.644.161c-2.419.967-1.129,1.129-1.129,3.871l.162.967a5.4,5.4,0,0,0,3.386,3.386c4.516,2.1,6.129,1.613,9.514,0a13.633,13.633,0,0,0,1.935-.645c1.129-.484,1.775-.645,2.581-.967a4.2,4.2,0,0,0,1.29-.484,48.916,48.916,0,0,1,4.032-2.9,19.746,19.746,0,0,0,5.805-4.837l2.419-3.064a17.057,17.057,0,0,1,2.417-2.419,2.944,2.944,0,0,1,3.71.323C102.44-227.434,102.44-226.467,102.118-225.338ZM64.546-226.95v.322a5.672,5.672,0,0,0,3.87-3.225,13.317,13.317,0,0,1,1.451-2.579,4.339,4.339,0,0,0,1.291-2.9v-.806c0-1.129-.322-2.1-.484-1.935-.322-.162-.967.322-1.451.806-.323.161-.323.322-.645.483a8.955,8.955,0,0,0-1.774,2.742c-.161.322-.161.483-.323.644a8.507,8.507,0,0,0-1.29,4.032A16.727,16.727,0,0,1,64.546-226.95Z" transform="translate(-4.152 269.724)" fill="#0099a8"/>
        <path id="Caminho_294-2" data-name="Caminho 294" d="M212.565-224.471l-.806,1.29a3.038,3.038,0,0,1-.644.968l-2.419,2.58a40.269,40.269,0,0,1-5.321,5c-3.87,3.224-6.772,5.321-12.577,7.1a19.6,19.6,0,0,1-7.579.322c-3.386-.161-5-1.774-5.805-5.16a23.306,23.306,0,0,1-.644-4.838,29.647,29.647,0,0,1,.644-3.709l.483-2.258,1.129-3.709-1.451,2.1c-1.452,2.1-2.1,2.741-2.581,3.386l-1.774,1.613c-1.128,1.129-2.1,2.1-3.225,3.386a17.5,17.5,0,0,1-6.289,3.548,4.916,4.916,0,0,1-3.709,0c-1.29-.644-1.936-1.451-1.774-2.418a5.5,5.5,0,0,0,.161-1.613,14.212,14.212,0,0,1,.645-3.225c.967-1.613,2.1-5.321,3.386-9.514-2.1,2.258-5.805,7.1-9.191,11.772-1.775,2.419-3.548,4.837-5.483,7.256-1.129,1.613-2.1,3.225-4.354,4.193-1.452.967-3.064.645-4.677-.484-1.129-.806-1.451-1.612-1.129-2.58a17.323,17.323,0,0,0,1.129-5,25.167,25.167,0,0,1,2.258-7.257,3.181,3.181,0,0,1,.323-1.612,1.457,1.457,0,0,0,.161-.806c-.161-1.129.161-2.419,1.29-5.322a10.793,10.793,0,0,0,1.29-4.354,5.5,5.5,0,0,1,1.775-3.063c.483-.968,1.935-1.291,3.224-1.129a3.42,3.42,0,0,1,2.419,2.257,1.448,1.448,0,0,0,.162.806c.16.967.322,1.774,0,2.257a5.473,5.473,0,0,1-1.129,1.775c-1.129,1.774-1.452,2.741-1.129,3.548.162.806-.805,3.225-1.29,3.87a7.455,7.455,0,0,0-1.129,3.71,6.167,6.167,0,0,0,1.452-1.452,7.024,7.024,0,0,1,.967-1.129,7.42,7.42,0,0,0,1.129-1.129A52.544,52.544,0,0,1,160-235.436a6.573,6.573,0,0,1,8.385-.483c1.613.806,2.1,1.935,1.613,3.386a57.623,57.623,0,0,0-1.934,6.611,23.815,23.815,0,0,1-.645,2.741,31.236,31.236,0,0,0,5.321-5.8c1.129-1.29,1.613-1.935,2.419-2.741a21.882,21.882,0,0,1,6.289-4.516,19.31,19.31,0,0,0,3.386-2.1c1.452-.967,3.064-.645,4.677.483a3.911,3.911,0,0,1,.966,1.775,7.023,7.023,0,0,1-1.129,4.837,52.078,52.078,0,0,0-5.644,12.9,20.761,20.761,0,0,0-.644,3.064c-.161.967.322,1.774,1.451,2.58a3.634,3.634,0,0,0,4.194.161c2.418-.967,4.836-1.774,7.255-4.032a21.6,21.6,0,0,1,3.71-2.58,10.335,10.335,0,0,0,5-4.837c.646-.967,1.453-1.613,2.1-2.419.322-.161.483-.484.806-.806,1.613-1.452,3.225-1.935,4.354-.806A3.019,3.019,0,0,1,212.565-224.471Zm-49.827-5.967v0Z" transform="translate(-10.593 269.34)" fill="#0099a8"/>
        <path id="Caminho_295-2" data-name="Caminho 295" d="M217.619-205.7c-.806-.645-1.613-1.291-2.579-1.935l-.323-.161a2.539,2.539,0,0,1-1.129-1.129,19.145,19.145,0,0,1-2.419-7.417l.483-2.58.162-.645a3.8,3.8,0,0,0,.322-1.29,2.715,2.715,0,0,0-.322-.806c-.323-1.129-.484-1.775,0-2.58a10.79,10.79,0,0,0,1.129-2.742,7.284,7.284,0,0,1,1.774-3.548,4.407,4.407,0,0,0,1.129-2.1,2.518,2.518,0,0,1,.644-1.613,39.164,39.164,0,0,0,5.644-5.805c2.257-2.741,8.385-2.9,10.965-.161,1.775,2.258,2.1,3.064,1.775,4.515-.646,1.775-.323,2.741,1.29,3.871l.806.483a4.375,4.375,0,0,1,2.58,2.741,2.326,2.326,0,0,0,.322,1.129c.323,1.613.806,3.386.161,5.321a6.62,6.62,0,0,0-.483,1.291c-.161,1.29,0,1.935.483,2.1a10.608,10.608,0,0,0,10.8-1.774,3.278,3.278,0,0,1,1.129-.967.5.5,0,0,1,.322-.161,12.868,12.868,0,0,0,3.71-2.9,11.817,11.817,0,0,1,3.063-3.225,2.709,2.709,0,0,1,3.548.323,4.877,4.877,0,0,1,.806,1.129c.323,1.129-1.613,4.193-2.419,4.838l-3.87,3.87-1.291.645a.5.5,0,0,1-.322.161l-2.419,1.291c-2.9,1.613-6.289,3.548-12.739,2.418a11.8,11.8,0,0,1-3.71-.644c-.645-.323-.806-.323-2.258,2.419s-4.193,3.87-6.772,4.837l-1.936.484a9.7,9.7,0,0,0-2.58.806A5.627,5.627,0,0,1,217.619-205.7Zm7.9-5.482,2.1-1.774c2.9-2.1,2.741-2.419-.484-4.354a7.439,7.439,0,0,1-2.1-11.772,4.923,4.923,0,0,1,1.29-1.29,6.981,6.981,0,0,0,.967-1.129,2.257,2.257,0,0,0,.968-1.452c.483-1.612.322-1.612-.806-3.386-.162,0,0-.162-.484,0a3.424,3.424,0,0,0-1.612,1.451c-3.225,4.354-4.838,7.1-6.129,11.449l-.483,1.613c-.645,1.936-1.291,3.548-.484,5.322v1.451a12.109,12.109,0,0,0,0,2.419,2.136,2.136,0,0,0,1.129,1.452c.323.161.645.161.967.322a5.492,5.492,0,0,1,1.613.161A3.577,3.577,0,0,0,225.52-211.185Zm7.257-10.159a3.061,3.061,0,0,0,.484-1.451v-1.129a6.585,6.585,0,0,1-.162-1.774c0-.645-.484-1.291-.484-1.935a.709.709,0,0,0-.806.161,6.535,6.535,0,0,0-1.613,2.741l-.321,1.29c-.645,1.129.321,2.419,1.934,2.742C232.293-220.538,232.777-220.7,232.777-221.345Z" transform="translate(-16.454 269.6)" fill="#0099a8"/>
        <path id="Caminho_296-2" data-name="Caminho 296" d="M332.564-224.471l-.806,1.29a3.038,3.038,0,0,1-.644.968l-2.419,2.58a40.267,40.267,0,0,1-5.321,5c-3.87,3.224-6.772,5.321-12.577,7.1a19.6,19.6,0,0,1-7.579.322c-3.386-.161-5-1.774-5.805-5.16a23.307,23.307,0,0,1-.644-4.838,29.652,29.652,0,0,1,.644-3.709l.483-2.258,1.129-3.709-1.451,2.1c-1.452,2.1-2.1,2.741-2.581,3.386l-1.774,1.613c-1.129,1.129-2.1,2.1-3.225,3.386a17.5,17.5,0,0,1-6.289,3.548,4.916,4.916,0,0,1-3.709,0c-1.29-.644-1.936-1.451-1.774-2.418a5.5,5.5,0,0,0,.161-1.613,14.212,14.212,0,0,1,.645-3.225c.967-1.613,2.1-5.321,3.386-9.514-2.1,2.258-5.805,7.1-9.191,11.772-1.775,2.419-3.548,4.837-5.483,7.256-1.128,1.613-2.1,3.225-4.354,4.193-1.452.967-3.064.645-4.677-.484-1.129-.806-1.451-1.612-1.129-2.58a17.323,17.323,0,0,0,1.129-5,25.166,25.166,0,0,1,2.258-7.257,3.181,3.181,0,0,1,.323-1.612,1.457,1.457,0,0,0,.161-.806c-.161-1.129.161-2.419,1.29-5.322a10.793,10.793,0,0,0,1.29-4.354,5.5,5.5,0,0,1,1.775-3.063c.483-.968,1.935-1.291,3.224-1.129a3.42,3.42,0,0,1,2.419,2.257,1.448,1.448,0,0,0,.162.806c.16.967.322,1.774,0,2.257a5.473,5.473,0,0,1-1.129,1.775c-1.129,1.774-1.452,2.741-1.129,3.548.161.806-.806,3.225-1.291,3.87a7.455,7.455,0,0,0-1.128,3.71,6.168,6.168,0,0,0,1.452-1.452,6.98,6.98,0,0,1,.967-1.129,7.454,7.454,0,0,0,1.129-1.129A52.544,52.544,0,0,1,280-235.436a6.573,6.573,0,0,1,8.385-.483c1.613.806,2.1,1.935,1.613,3.386a57.623,57.623,0,0,0-1.934,6.611,23.815,23.815,0,0,1-.645,2.741,31.236,31.236,0,0,0,5.321-5.8c1.128-1.29,1.613-1.935,2.419-2.741a21.882,21.882,0,0,1,6.289-4.516,19.31,19.31,0,0,0,3.386-2.1c1.452-.967,3.064-.645,4.677.483a3.911,3.911,0,0,1,.966,1.775,7.023,7.023,0,0,1-1.129,4.837,52.079,52.079,0,0,0-5.644,12.9,20.763,20.763,0,0,0-.644,3.064c-.161.967.322,1.774,1.451,2.58a3.634,3.634,0,0,0,4.194.161c2.418-.967,4.836-1.774,7.255-4.032a21.6,21.6,0,0,1,3.71-2.58,10.335,10.335,0,0,0,5-4.837c.646-.967,1.453-1.613,2.1-2.419.322-.161.484-.484.806-.806,1.613-1.452,3.225-1.935,4.354-.806A3.019,3.019,0,0,1,332.564-224.471Zm-49.827-5.967v0Z" transform="translate(-20.135 269.34)" fill="#0099a8"/>
        <path id="Caminho_297-2" data-name="Caminho 297" d="M377.151-225.338a2.634,2.634,0,0,0-.484.967c-.322.805-.483,1.29-.967,1.612a24.278,24.278,0,0,1-3.063,3.548,12.938,12.938,0,0,0-1.935,2.257,20.483,20.483,0,0,1-6.612,5c-1.129.484-2.258.806-2.9,1.774-5,3.063-8.063,3.225-12.578,3.709H347.48c-5.644.323-11.933-2.741-14.191-7.256-1.613-3.064-2.1-5-1.613-7.256l.484-3.225a18.367,18.367,0,0,1,1.291-6.451,9.963,9.963,0,0,0,.806-1.935l.806-2.257a17.7,17.7,0,0,1,4.353-5.805,10.175,10.175,0,0,1,7.74-3.064,4.9,4.9,0,0,1,3.71,1.613c2.419,2.258,2.9,3.87,1.613,6.128a9.866,9.866,0,0,0-.968,3.386c-.484,4.354-3.224,6.773-6.289,9.03a14.656,14.656,0,0,1-2.741,1.452,4.837,4.837,0,0,0-1.29.645l-.644.161c-2.419.967-1.129,1.129-1.129,3.871l.162.967a5.4,5.4,0,0,0,3.386,3.386c4.515,2.1,6.128,1.613,9.514,0a13.665,13.665,0,0,0,1.934-.645c1.129-.484,1.775-.645,2.581-.967a4.2,4.2,0,0,0,1.29-.484,48.914,48.914,0,0,1,4.032-2.9,19.745,19.745,0,0,0,5.805-4.837l2.419-3.064a17.066,17.066,0,0,1,2.418-2.419,2.942,2.942,0,0,1,3.709.323C377.473-227.434,377.473-226.467,377.151-225.338Zm-37.572-1.613v.322a5.669,5.669,0,0,0,3.87-3.225,13.366,13.366,0,0,1,1.451-2.579,4.34,4.34,0,0,0,1.291-2.9v-.806c0-1.129-.323-2.1-.485-1.935-.321-.162-.967.322-1.451.806-.323.161-.323.322-.645.483a8.954,8.954,0,0,0-1.774,2.742c-.161.322-.161.483-.322.644a8.508,8.508,0,0,0-1.291,4.032A16.486,16.486,0,0,1,339.579-226.95Z" transform="translate(-26.023 269.724)" fill="#0099a8"/>
        <path id="Caminho_298-2" data-name="Caminho 298" d="M403.841-208.016c-3.71-.967-5.805-3.224-7.579-8.062a6.632,6.632,0,0,1,0-3.548c.484-1.774,1.129-3.71,1.774-5.482l1.935-5c.161-.484,0-.645,0-.645a1.247,1.247,0,0,0-.483-.161,15.241,15.241,0,0,0-3.871,2.258,11.3,11.3,0,0,1-2.741,1.451,7.234,7.234,0,0,0-2.741,1.613,15.223,15.223,0,0,1-1.613,1.613,16.873,16.873,0,0,1-3.063,2.741,16.658,16.658,0,0,0-3.387,4.032,16.293,16.293,0,0,1-2.9,3.709,5.015,5.015,0,0,0-1.129,1.452,6.267,6.267,0,0,1-2.58,2.418c-1.452.645-3.871-.644-4.354-2.418a5.609,5.609,0,0,1,.967-3.871,10.054,10.054,0,0,0,.968-4.193c.16-1.129.16-1.774.321-2.419a27.3,27.3,0,0,1,2.419-6.933,3.811,3.811,0,0,0,.806-2.1c0-3.386,1.452-5.805,3.064-8.062.967-1.613,3.224-1.613,4.837-.161,1.29,1.451,1.452,2.1.806,3.548a51.8,51.8,0,0,0-1.935,5.321,25.18,25.18,0,0,1-.806,2.58c0,.161-.322.484-.484.644a1.815,1.815,0,0,0-.483,1.291c.483-.322,1.129-.484,1.613-.806.967-.644,1.935-1.451,3.064-2.257l2.257-1.775a2.542,2.542,0,0,1,1.129-1.129,16.269,16.269,0,0,0,3.71-1.935c2.58-1.291,5.159-2.741,8.224-3.064a3.383,3.383,0,0,1,3.548,1.452c1.775,2.9,2.258,4.676,1.452,6.612-.162.322-.162.645-.323.967a3.028,3.028,0,0,1-.644,1.613c-2.1,3.548-1.774,7.256-1.774,11.288,0,.967.161.967,1.612,1.774,2.259,1.774,3.548,1.613,7.741-.323,3.547-1.451,5-2.9,8.385-5.643a22.132,22.132,0,0,0,5.482-7.257c.162,0,.484-.322.806-.483a2.942,2.942,0,0,1,2.581-.967c1.29.322,2.1.806,2.257,1.935.322.161-1.129,3.548-1.613,4.032a22.488,22.488,0,0,0-2.419,3.063,13.4,13.4,0,0,1-4.837,4.677,2.9,2.9,0,0,0-1.452,1.29,5.154,5.154,0,0,1-2.419,1.774,2.475,2.475,0,0,1-.967.645,8.118,8.118,0,0,1-4.192,1.774,4.537,4.537,0,0,0-1.775.645c-1.935.967-2.1,1.29-3.87.967A17.052,17.052,0,0,1,403.841-208.016Z" transform="translate(-29.169 269.494)" fill="#0099a8"/>
        <path id="Caminho_299-2" data-name="Caminho 299" d="M473.052-227.245l-.483.967a5.331,5.331,0,0,1-1.613,2.418c-.645.645-1.613,1.775-2.581,2.9-1.29,1.29-1.934,2.1-2.74,2.741a25.4,25.4,0,0,1-5.967,4.193l-2.579,1.451c-2.742,1.775-4.516,2.258-7.741,3.225-6.611,1.774-10.32-.161-12.416-1.29-.644-.323-.967-.645-1.29-.645a2.957,2.957,0,0,1-1.613-1.129.5.5,0,0,1-.161-.323c-2.1-.644-3.386-4.515-3.225-8.062a34.521,34.521,0,0,1,1.774-12.255,9.9,9.9,0,0,1,.806-1.936,11.233,11.233,0,0,0,.645-1.612,5.147,5.147,0,0,1,.323-2.419,11.682,11.682,0,0,0,1.934-4.354,13.457,13.457,0,0,1,.806-2.9c.162-.645.484-.323-.806-.162A2.392,2.392,0,0,1,435-246.6a6.039,6.039,0,0,0-2.258.161h-1.612a17.373,17.373,0,0,1-2.9,0,2.39,2.39,0,0,1-1.935-2.257c-.161-.806.161-1.129,1.129-1.613.162,0,.323,0,.323-.161a11.218,11.218,0,0,1,5.159-.806c1.775.161,2.1.161,2.742-.161a17.454,17.454,0,0,1,2.741-.323c.322,0,.806-.645,1.291-1.774a2.9,2.9,0,0,0,.806-2.1,3.407,3.407,0,0,1,.806-2.9,1.359,1.359,0,0,0,.483-1.613l2.419-5.8c.967-1.935,3.063-2.419,5-.806.16,0,.16.161.483.484.645.806.967,1.129.967,1.935v1.29a8.579,8.579,0,0,1-.161,2.258,13.735,13.735,0,0,0-1.129,3.386,12.26,12.26,0,0,1-1.451,4.031c0,.162-.162.323-.322.484l-.323.645a3.579,3.579,0,0,0,2.58-.162c4.515-1.29,7.9-.967,12.255-.805.645,0,1.774.322,1.936.805h.161c.322.484.645.806.645,1.129a2.458,2.458,0,0,1-1.129,1.935,4.2,4.2,0,0,1-2.419.645c-.806,0-1.613.161-2.257.161a29.207,29.207,0,0,1-4.032.322,1.457,1.457,0,0,0-.806.161h-.645a19.452,19.452,0,0,0-3.224.162c-.968,0-2.1.161-3.387.161-1.29.161-1.451.161-1.611,1.613a10.5,10.5,0,0,1-1.613,3.063,5.655,5.655,0,0,0-1.129,3.709,6.857,6.857,0,0,1-.806,1.936c-.483.645-.483.645-.483.806-4.193,8.708-4.355,12.094-3.71,18.222,0,.645.161.967,1.129,1.774,2.581,2.9,5.321,3.386,9.192,1.935,3.225-1.129,5.805-1.774,8.063-4.193a7,7,0,0,1,2.742-1.774,11.154,11.154,0,0,0,1.612-.644,13.7,13.7,0,0,0,3.548-3.225c.484-.484,1.129-1.29,1.775-2.1a11.87,11.87,0,0,1,3.063-3.225,2.671,2.671,0,0,1,3.225.162l.322.322C473.052-228.374,473.374-227.89,473.052-227.245Z" transform="translate(-33.557 271.631)" fill="#0099a8"/>
        <path id="Caminho_300-2" data-name="Caminho 300" d="M475.487-205.7c-.806-.645-1.613-1.291-2.58-1.935l-.323-.161a2.544,2.544,0,0,1-1.129-1.129,19.16,19.16,0,0,1-2.419-7.417l.483-2.58.162-.645a3.8,3.8,0,0,0,.323-1.29,2.724,2.724,0,0,0-.323-.806c-.323-1.129-.483-1.775,0-2.58a10.823,10.823,0,0,0,1.129-2.742,7.276,7.276,0,0,1,1.773-3.548,4.408,4.408,0,0,0,1.129-2.1,2.523,2.523,0,0,1,.644-1.613A39.118,39.118,0,0,0,480-240.051c2.257-2.741,8.385-2.9,10.965-.161,1.775,2.258,2.1,3.064,1.775,4.515-.645,1.775-.323,2.741,1.29,3.871l.806.483a4.375,4.375,0,0,1,2.58,2.741,2.336,2.336,0,0,0,.322,1.129c.323,1.613.806,3.386.161,5.321a6.618,6.618,0,0,0-.483,1.291c-.161,1.29,0,1.935.483,2.1a10.608,10.608,0,0,0,10.8-1.774,3.286,3.286,0,0,1,1.129-.967.5.5,0,0,1,.323-.161,12.876,12.876,0,0,0,3.709-2.9,11.83,11.83,0,0,1,3.063-3.225,2.71,2.71,0,0,1,3.548.323,4.935,4.935,0,0,1,.806,1.129c.322,1.129-1.613,4.193-2.419,4.838l-3.871,3.87-1.29.645a.5.5,0,0,1-.321.161l-2.419,1.291c-2.9,1.613-6.289,3.548-12.739,2.418a11.8,11.8,0,0,1-3.71-.644c-.645-.323-.806-.323-2.258,2.419s-4.192,3.87-6.772,4.837l-1.936.484a9.682,9.682,0,0,0-2.579.806A5.627,5.627,0,0,1,475.487-205.7Zm7.9-5.482,2.1-1.774c2.9-2.1,2.741-2.419-.483-4.354a7.438,7.438,0,0,1-2.1-11.772,4.913,4.913,0,0,1,1.291-1.29,7.024,7.024,0,0,0,.966-1.129,2.257,2.257,0,0,0,.968-1.452c.483-1.612.322-1.612-.806-3.386-.162,0,0-.162-.484,0a3.428,3.428,0,0,0-1.612,1.451c-3.225,4.354-4.838,7.1-6.128,11.449l-.484,1.613c-.645,1.936-1.29,3.548-.484,5.322v1.451a12.11,12.11,0,0,0,0,2.419,2.139,2.139,0,0,0,1.129,1.452c.323.161.646.161.967.322a5.489,5.489,0,0,1,1.613.161A3.579,3.579,0,0,0,483.388-211.185Zm7.256-10.159a3.061,3.061,0,0,0,.484-1.451v-1.129a6.585,6.585,0,0,1-.162-1.774c0-.645-.483-1.291-.483-1.935a.708.708,0,0,0-.806.161,6.517,6.517,0,0,0-1.613,2.741l-.322,1.29c-.645,1.129.322,2.419,1.935,2.742C490.16-220.538,490.644-220.7,490.644-221.345Z" transform="translate(-36.96 269.6)" fill="#0099a8"/>
        <path id="Caminho_301-2" data-name="Caminho 301" d="M566.307-226.027a.6.6,0,0,0-.16.484,14.933,14.933,0,0,1-.806,1.612,11.126,11.126,0,0,1-2.58,2.9,11.461,11.461,0,0,0-1.936,2.419,6.382,6.382,0,0,1-1.935,2.419,38.885,38.885,0,0,1-4.676,3.87,9,9,0,0,0-2.58,2.1,11.474,11.474,0,0,1-5.644,2.741,22.358,22.358,0,0,0-3.225,1.291c-1.613.645-3.87.645-5.8.806a24.987,24.987,0,0,0-3.548.161,61.985,61.985,0,0,0-7.1-.967c-.484,0-.968-.161-1.613-.161-2.581-.323-3.387-1.613-4.677-4.193v-.967a1.222,1.222,0,0,0-.161-.645c0-1.774.484-2.741,1.774-3.224,1.613-.645,2.9-.484,3.871.644a10.633,10.633,0,0,0,1.128,1.29l.967.967a1.329,1.329,0,0,0,1.774.322,9.2,9.2,0,0,0,4.354-5.967,4.444,4.444,0,0,0,.162-1.935c-.967-2.9-1.936-5.643-2.742-8.385l-1.129-3.548v-.483c0-.162,0-.322-.161-.322l-.484.483a.158.158,0,0,1-.161.161l-.484,1.129a4.491,4.491,0,0,1-1.129,2.1,20.821,20.821,0,0,0-1.452,2.58,9.289,9.289,0,0,1-2.419,3.548c-1.451,1.29-2.74,1.29-4.515.322-.644-.322-1.29-1.128-.967-1.612a18.9,18.9,0,0,1,3.225-5.805,38.06,38.06,0,0,0,3.386-5.805,28.878,28.878,0,0,1,3.386-5.967,1.264,1.264,0,0,0,.161-1.291,3.38,3.38,0,0,1,.645-3.224c1.128-1.774,4.032-2.58,6.128-1.935A2.087,2.087,0,0,1,536.8-245.7a13.8,13.8,0,0,0-.806,2.419,9.535,9.535,0,0,1-1.129,2.741c-.806,1.613-.806,2.58.162,4.838l.967,2.58a11.481,11.481,0,0,0,1.774,3.386,15.964,15.964,0,0,1,1.774,3.225,19.241,19.241,0,0,1-.806,14.029v.322a.566.566,0,0,1-.161.323.158.158,0,0,0,.161.161l2.418-.484a15.749,15.749,0,0,0,5.644-2.1L550.989-217l.968-.645c.644-.645,1.128-.806,1.29-1.452,1.451-.644,5-4.515,7.418-8.224.322-.645,3.224-2.741,5.159-.645C566.469-227.316,566.469-226.994,566.307-226.027Z" transform="translate(-40.867 270.09)" fill="#0099a8"/>
        <path id="Caminho_302-2" data-name="Caminho 302" d="M650.258-225.338a2.616,2.616,0,0,0-.485.967c-.321.805-.483,1.29-.966,1.612a24.391,24.391,0,0,1-3.063,3.548,12.947,12.947,0,0,0-1.936,2.257,20.472,20.472,0,0,1-6.612,5c-1.129.484-2.258.806-2.9,1.774-5,3.063-8.063,3.225-12.578,3.709h-1.129c-5.643.323-11.932-2.741-14.191-7.256-1.613-3.064-2.1-5-1.613-7.256l.485-3.225a18.365,18.365,0,0,1,1.29-6.451,9.907,9.907,0,0,0,.806-1.935l.806-2.257a17.719,17.719,0,0,1,4.354-5.805,10.174,10.174,0,0,1,7.74-3.064,4.9,4.9,0,0,1,3.709,1.613c2.419,2.258,2.9,3.87,1.613,6.128a9.885,9.885,0,0,0-.968,3.386c-.483,4.354-3.224,6.773-6.289,9.03a14.648,14.648,0,0,1-2.74,1.452,4.844,4.844,0,0,0-1.291.645l-.644.161c-2.419.967-1.129,1.129-1.129,3.871l.161.967a5.4,5.4,0,0,0,3.386,3.386c4.515,2.1,6.128,1.613,9.514,0a13.713,13.713,0,0,0,1.935-.645c1.128-.484,1.774-.645,2.58-.967a4.2,4.2,0,0,0,1.291-.484,48.76,48.76,0,0,1,4.032-2.9,19.731,19.731,0,0,0,5.8-4.837l2.419-3.064a17.117,17.117,0,0,1,2.418-2.419,2.942,2.942,0,0,1,3.709.323C650.579-227.434,650.579-226.467,650.258-225.338Zm-37.573-1.613v.322a5.673,5.673,0,0,0,3.871-3.225,13.266,13.266,0,0,1,1.451-2.579,4.339,4.339,0,0,0,1.29-2.9v-.806c0-1.129-.323-2.1-.484-1.935-.322-.162-.967.322-1.451.806-.323.161-.323.322-.646.483a8.953,8.953,0,0,0-1.773,2.742c-.161.322-.161.483-.323.644a8.5,8.5,0,0,0-1.29,4.032A16.6,16.6,0,0,1,612.685-226.95Z" transform="translate(-47.74 269.724)" fill="#0099a8"/>
        <path id="Caminho_303-2" data-name="Caminho 303" d="M694.539-226.027a.594.594,0,0,0-.161.484,14.756,14.756,0,0,1-.806,1.612,11.125,11.125,0,0,1-2.58,2.9,11.458,11.458,0,0,0-1.935,2.419,6.394,6.394,0,0,1-1.936,2.419,38.737,38.737,0,0,1-4.676,3.87,9.029,9.029,0,0,0-2.58,2.1,11.471,11.471,0,0,1-5.643,2.741A22.269,22.269,0,0,0,671-206.192c-1.613.645-3.87.645-5.805.806a24.973,24.973,0,0,0-3.547.161,62.014,62.014,0,0,0-7.1-.967c-.485,0-.968-.161-1.613-.161-2.581-.323-3.387-1.613-4.677-4.193v-.967a1.222,1.222,0,0,0-.161-.645c0-1.774.483-2.741,1.774-3.224,1.612-.645,2.9-.484,3.871.644a10.641,10.641,0,0,0,1.128,1.29l.968.967a1.329,1.329,0,0,0,1.774.322,9.2,9.2,0,0,0,4.354-5.967,4.439,4.439,0,0,0,.161-1.935c-.967-2.9-1.936-5.643-2.742-8.385l-1.128-3.548v-.483c0-.162,0-.322-.162-.322l-.483.483a.158.158,0,0,1-.161.161l-.484,1.129a4.5,4.5,0,0,1-1.128,2.1,20.7,20.7,0,0,0-1.452,2.58,9.311,9.311,0,0,1-2.419,3.548c-1.451,1.29-2.741,1.29-4.515.322-.645-.322-1.29-1.128-.967-1.612a18.9,18.9,0,0,1,3.225-5.805A37.968,37.968,0,0,0,653.1-235.7a28.875,28.875,0,0,1,3.386-5.967,1.263,1.263,0,0,0,.162-1.291,3.377,3.377,0,0,1,.644-3.224c1.129-1.774,4.032-2.58,6.128-1.935a2.085,2.085,0,0,1,1.613,2.418,13.879,13.879,0,0,0-.806,2.419,9.5,9.5,0,0,1-1.129,2.741c-.806,1.613-.806,2.58.162,4.838l.966,2.58A11.482,11.482,0,0,0,666-229.735a16.015,16.015,0,0,1,1.775,3.225,19.252,19.252,0,0,1-.806,14.029v.322a.565.565,0,0,1-.162.323.158.158,0,0,0,.162.161l2.418-.484a15.756,15.756,0,0,0,5.644-2.1L679.22-217l.968-.645c.644-.645,1.128-.806,1.29-1.452,1.452-.644,5-4.515,7.418-8.224.323-.645,3.225-2.741,5.159-.645C694.7-227.316,694.7-226.994,694.539-226.027Z" transform="translate(-51.063 270.09)" fill="#0099a8"/>
        <path id="Caminho_304-2" data-name="Caminho 304" d="M675.922-178.862v-.161l.484-2.1v-.161l3.063-6.935c0-.16.162-.322.162-.483a2.144,2.144,0,0,0,.483-1.129,15.155,15.155,0,0,1,2.742-8.386v-1.452c-.162-1.451,0-2.1.644-2.741a3.833,3.833,0,0,0,.483-1.129c.323-.645.323-.967.645-1.291,0-.161.161-.322.161-.483a2.141,2.141,0,0,0,.484-1.129,23.662,23.662,0,0,1,1.935-8.385,25.835,25.835,0,0,0,1.613-5l1.129-3.548a9.466,9.466,0,0,0,1.29-5.16l.161-.645a22.162,22.162,0,0,0,1.935-8.062,11.758,11.758,0,0,1,1.452-4.193,11.067,11.067,0,0,0,1.129-2.419c.484-1.129,2.258-1.613,3.548-1.451,1.613.161,3.063,1.613,2.9,3.063a22.256,22.256,0,0,1-2.258,9.514,4.715,4.715,0,0,0-.322,1.452,16.444,16.444,0,0,1-1.452,4.031,14.752,14.752,0,0,0-1.613,3.871c-.483,1.613-1.129,3.548-1.613,5.321-.483,1.613-.806,3.064-1.29,4.515v.161c0,.645-1.613.806-.323.645-.161.323.323-.322.485-.483s.16-.162.16-.323l.323-.322a14.686,14.686,0,0,1,1.29-2.1,11.885,11.885,0,0,1,1.291-2.1,22.022,22.022,0,0,1,2.9-3.87c.161-.323.483-.484.645-.806a9.027,9.027,0,0,0,.967-1.29,24.68,24.68,0,0,1,3.87-5l2.742-3.387a16.616,16.616,0,0,1,8.385-5.967c1.936-1.451,4.032-.806,5.644-.322a2.975,2.975,0,0,0,1.129.322,6.459,6.459,0,0,1,4.354,3.871,12.578,12.578,0,0,1,.968,8.708c-2.259,5.805-5.967,9.353-11.933,11.772a.964.964,0,0,0-.162.644.159.159,0,0,0,.162.162c3.87.483,7.256.967,10.642-.162a23.944,23.944,0,0,1,5-2.418c3.224-1.291,7.9-4.838,9.835-7.9a13.919,13.919,0,0,1,2.419-2.741,6.191,6.191,0,0,0,1.453-1.451,4.852,4.852,0,0,1,3.386-.806,2.732,2.732,0,0,1,1.936,3.709c-1.452,2.9-3.225,4.354-5.483,6.289l-4.193,3.871a4.256,4.256,0,0,1-.806.967,50.569,50.569,0,0,1-14.835,6.289,26.283,26.283,0,0,1-5,.484,4.975,4.975,0,0,1-1.613.161,35.585,35.585,0,0,1-9.352-1.774,8.022,8.022,0,0,1-4.354-2.741c-.645-.806-1.936-1.936-.967-3.548a4.212,4.212,0,0,1,3.709-2.258c.322,0,.484,0,.644.161a.973.973,0,0,1,.646.161c0,.484,4.192-.644,4.837-1.29a18.868,18.868,0,0,1,2.58-2.419c2.1-1.613,4.193-3.386,5.16-6.289.322-1.129-.161-3.871-.967-5.643a.5.5,0,0,0-.323-.162,4.318,4.318,0,0,0-3.709.322c-2.257.968-4.032,2.581-6.128,5.322-2.1,2.9-5.482,7.417-7.1,10.643-1.936,4.193-4.838,7.9-7.74,11.61a18.109,18.109,0,0,0-1.935,3.386,14.62,14.62,0,0,1-2.9,5,2.255,2.255,0,0,0-.968,1.452,54.421,54.421,0,0,1-3.548,8.385,44.484,44.484,0,0,0-2.9,6.29,17.1,17.1,0,0,1-1.935,3.224,3.722,3.722,0,0,1-5,.484A2.575,2.575,0,0,1,675.922-178.862Z" transform="translate(-53.411 269.85)" fill="#0099a8"/>
        <path id="Caminho_305-2" data-name="Caminho 305" d="M795.833-225.338a2.606,2.606,0,0,0-.484.967c-.322.805-.484,1.29-.967,1.612a24.391,24.391,0,0,1-3.063,3.548,12.942,12.942,0,0,0-1.936,2.257,20.479,20.479,0,0,1-6.611,5c-1.129.484-2.259.806-2.9,1.774-5,3.063-8.063,3.225-12.578,3.709h-1.128c-5.644.323-11.933-2.741-14.191-7.256-1.613-3.064-2.1-5-1.613-7.256l.484-3.225a18.386,18.386,0,0,1,1.29-6.451,9.851,9.851,0,0,0,.806-1.935l.806-2.257a17.72,17.72,0,0,1,4.354-5.805,10.175,10.175,0,0,1,7.74-3.064,4.9,4.9,0,0,1,3.709,1.613c2.419,2.258,2.9,3.87,1.613,6.128a9.882,9.882,0,0,0-.967,3.386c-.484,4.354-3.224,6.773-6.29,9.03a14.619,14.619,0,0,1-2.74,1.452,4.838,4.838,0,0,0-1.29.645l-.645.161c-2.419.967-1.128,1.129-1.128,3.871l.162.967a5.4,5.4,0,0,0,3.386,3.386c4.516,2.1,6.129,1.613,9.514,0a13.633,13.633,0,0,0,1.935-.645c1.128-.484,1.775-.645,2.581-.967a4.2,4.2,0,0,0,1.29-.484,48.77,48.77,0,0,1,4.032-2.9,19.731,19.731,0,0,0,5.8-4.837l2.419-3.064a17.114,17.114,0,0,1,2.418-2.419,2.943,2.943,0,0,1,3.709.323C796.155-227.434,796.155-226.467,795.833-225.338Zm-37.572-1.613v.322a5.674,5.674,0,0,0,3.87-3.225,13.314,13.314,0,0,1,1.451-2.579,4.339,4.339,0,0,0,1.29-2.9v-.806c0-1.129-.322-2.1-.484-1.935-.322-.162-.967.322-1.451.806-.323.161-.323.322-.645.483a8.953,8.953,0,0,0-1.774,2.742c-.161.322-.161.483-.323.644a8.507,8.507,0,0,0-1.29,4.032A16.734,16.734,0,0,1,758.261-226.95Z" transform="translate(-59.316 269.724)" fill="#0099a8"/>
        <path id="Caminho_306-2" data-name="Caminho 306" d="M798.931-208.589a11.469,11.469,0,0,1-6.773-6.128,16.653,16.653,0,0,1-.644-9.031,19.862,19.862,0,0,1,2.579-6.289c1.13-2.419,3.064-5.805,5.968-7.418a37.384,37.384,0,0,0,3.224-2.58c2.58-2.419,5.8-2.1,8.708-1.613a2.99,2.99,0,0,1,2.1,1.452,7.479,7.479,0,0,1,1.451,5.483v2.741c0,1.129-1.774,2.58-3.548,2.741-1.452,0-3.71-1.613-3.71-2.741a1.736,1.736,0,0,1,.323-1.291,3.627,3.627,0,0,0,.162-2.58c0-.322-.485-.645-.485-.645a2.221,2.221,0,0,0-2.579.806c-3.548,3.548-5.805,7.741-7.1,13.707a9.385,9.385,0,0,0,.322,3.548c0,.645.161,1.129.161,1.613a3.956,3.956,0,0,0,2.419,3.386c3.386,1.452,7.257,3.386,13.707-1.129a7.7,7.7,0,0,1,1.935-.806c1.936-.484,4.515-1.129,5.967-2.9l1.29-1.29a7.475,7.475,0,0,0,1.612-1.613,25.359,25.359,0,0,0,4.032-4.515l1.129-1.452a4.791,4.791,0,0,1,2.419-1.452,2.841,2.841,0,0,1,2.741,1.452c.645.967.162,3.064-.644,4.032-2.1,2.1-3.065,3.386-5,5.643-4.355,5-9.353,7.74-17.254,9.353a2.3,2.3,0,0,1-.967.323l-.968.483C808.768-206.493,801.995-207.461,798.931-208.589Z" transform="translate(-62.576 269.584)" fill="#0099a8"/>
        <path id="Caminho_307-2" data-name="Caminho 307" d="M840.516-206.84c-.968-.161-2.419-.483-3.064-1.612a25.94,25.94,0,0,1-3.386-4.838,2.893,2.893,0,0,1-.483-1.774v-4.515c-.323-5.16,1.128-10.159,2.741-15.158a4.86,4.86,0,0,1,1.451-2.419c1.129-1.612,4.193-1.29,5.161.161a3.693,3.693,0,0,1,.483,1.775v.161L841-224.577a25.282,25.282,0,0,0-.483,8.869,4.075,4.075,0,0,0,2.74,3.871l1.129.483a2.732,2.732,0,0,0,.806.323,1.851,1.851,0,0,0,1.613.161,12.9,12.9,0,0,0,5.966-2.9,28.6,28.6,0,0,0,5.644-5.159,12.074,12.074,0,0,1,2.1-2.581,29.805,29.805,0,0,0,2.9-4.192c.645-1.613,1.613-1.935,3.225-2.741a2.688,2.688,0,0,1,3.225,1.773,2.7,2.7,0,0,1-.484,1.936l-.645,1.774a7.235,7.235,0,0,0-1.613,2.741,15.954,15.954,0,0,0-1.451,1.613,59.109,59.109,0,0,1-4.838,5.482,31.006,31.006,0,0,1-6.612,5.16c-4.676,2.258-8.708,2.741-12.578,1.452A2.316,2.316,0,0,0,840.516-206.84Z" transform="translate(-65.944 269.286)" fill="#0099a8"/>
        <path id="Caminho_308-2" data-name="Caminho 308" d="M895.689-207.02a3.635,3.635,0,0,0-1.129-.161c-4.514-.644-6.611-2.1-9.352-6.611a4.341,4.341,0,0,0-.645-.806H884.4l-2.1,1.613c-1.129.806-1.613,1.29-2.419,1.774a3.5,3.5,0,0,0-.806.644l-1.936,1.129c-3.547,2.257-7.1,1.935-10.32-.645-1.774-1.29-2.419-2.258-2.258-3.87,0-.967-.161-1.613-.161-2.258a7.907,7.907,0,0,1,.322-4.193c.162-.483.484-1.129.645-1.774a6.989,6.989,0,0,0,.806-3.709c-.161-.484.161-1.129.323-1.774a70.483,70.483,0,0,0,4.031-6.612,10.529,10.529,0,0,1,5-4.515,6.554,6.554,0,0,1,2.259-1.613,4.238,4.238,0,0,0,1.451-.806,6.677,6.677,0,0,1,4.677-1.291c4.676.806,7.739,2.742,9.352,6.451a5.307,5.307,0,0,1,.484.967,3.016,3.016,0,0,1,.805,2.258,3.105,3.105,0,0,1-2.74,2.9c-1.936.161-3.709-.806-3.871-2.1l-.484-1.129a2.864,2.864,0,0,1-.806-1.291c-.483-1.452-.966-1.613-2.579-1.774a5.415,5.415,0,0,0-4.516,1.935,14.6,14.6,0,0,1-1.773,1.613,9.814,9.814,0,0,0-2.1,2.419,4.905,4.905,0,0,1-.806,1.129c-.806,1.129-1.128,1.613-1.128,2.258a2.817,2.817,0,0,1-.644,1.935,8.228,8.228,0,0,0-1.775,5.805c0,.644-.161,1.29-.161,2.1,0,.484.161.967.161,1.613a2.973,2.973,0,0,1,.322,1.129,1.341,1.341,0,0,0,1.774.967,8.6,8.6,0,0,0,3.548-2.418,12.035,12.035,0,0,1,2.741-2.9,6.654,6.654,0,0,0,2.58-3.87l.967-1.613a14.769,14.769,0,0,1,.806-1.613,4.594,4.594,0,0,1,2.9-2.1c1.13-.806,3.548.323,3.548,1.775a5.852,5.852,0,0,1,0,3.386,9.172,9.172,0,0,0,.967,7.741,6.07,6.07,0,0,0,3.71,2.579,20.059,20.059,0,0,0,2.579-.644c2.1-.323,5.161-.484,8.224-3.871a20.858,20.858,0,0,1,2.258-1.935,11,11,0,0,0,2.741-2.741,17.722,17.722,0,0,0,.967-1.774,25.273,25.273,0,0,1,1.935-2.741c.162-.162.322-.484.645-.806l.644-.968a3.428,3.428,0,0,1,4.032.323,2.167,2.167,0,0,1,.645,2.58c0,.161-.162.161-.162.322v.162c0,.161-.16.322-.321.483a3.451,3.451,0,0,1-.968,1.613c-2.419,3.386-3.87,5.482-5.643,7.74a12.134,12.134,0,0,1-4.677,4.031c-.161.162-.483.162-.644.323a16.119,16.119,0,0,1-6.934,2.58c-.806.161-1.613.322-2.742.644A9.038,9.038,0,0,1,895.689-207.02Z" transform="translate(-68.387 269.627)" fill="#0099a8"/>
        <path id="Caminho_309-2" data-name="Caminho 309" d="M924.778-206.84c-.967-.161-2.418-.483-3.064-1.612a25.942,25.942,0,0,1-3.385-4.838,2.893,2.893,0,0,1-.484-1.774v-4.515c-.322-5.16,1.129-10.159,2.742-15.158a4.86,4.86,0,0,1,1.451-2.419c1.129-1.612,4.193-1.29,5.16.161a3.683,3.683,0,0,1,.484,1.775v.161l-2.419,10.482a25.3,25.3,0,0,0-.484,8.869,4.076,4.076,0,0,0,2.741,3.871l1.129.483a2.732,2.732,0,0,0,.806.323,1.85,1.85,0,0,0,1.613.161,12.906,12.906,0,0,0,5.966-2.9,28.624,28.624,0,0,0,5.644-5.159,12.072,12.072,0,0,1,2.1-2.581,29.752,29.752,0,0,0,2.9-4.192c.646-1.613,1.613-1.935,3.225-2.741a2.687,2.687,0,0,1,3.225,1.773,2.706,2.706,0,0,1-.483,1.936L953-222.965a7.234,7.234,0,0,0-1.613,2.741,15.962,15.962,0,0,0-1.451,1.613,59.121,59.121,0,0,1-4.838,5.482,31.05,31.05,0,0,1-6.612,5.16c-4.676,2.258-8.708,2.741-12.578,1.452A2.319,2.319,0,0,0,924.778-206.84Z" transform="translate(-72.645 269.286)" fill="#0099a8"/>
        <path id="Caminho_310-2" data-name="Caminho 310" d="M997.427-226.027a.594.594,0,0,0-.161.484,14.924,14.924,0,0,1-.806,1.612,11.108,11.108,0,0,1-2.58,2.9,11.426,11.426,0,0,0-1.935,2.419,6.393,6.393,0,0,1-1.936,2.419,38.885,38.885,0,0,1-4.676,3.87,9.016,9.016,0,0,0-2.58,2.1,11.47,11.47,0,0,1-5.644,2.741,22.393,22.393,0,0,0-3.225,1.291c-1.613.645-3.87.645-5.8.806a24.986,24.986,0,0,0-3.548.161,61.986,61.986,0,0,0-7.1-.967c-.484,0-.967-.161-1.613-.161-2.58-.323-3.386-1.613-4.677-4.193v-.967a1.222,1.222,0,0,0-.161-.645c0-1.774.484-2.741,1.774-3.224,1.613-.645,2.9-.484,3.871.644a10.637,10.637,0,0,0,1.129,1.29l.968.967a1.328,1.328,0,0,0,1.773.322,9.2,9.2,0,0,0,4.354-5.967,4.445,4.445,0,0,0,.162-1.935c-.967-2.9-1.936-5.643-2.742-8.385l-1.128-3.548v-.483c0-.162,0-.322-.162-.322l-.484.483a.157.157,0,0,1-.16.161l-.485,1.129a4.5,4.5,0,0,1-1.128,2.1,20.728,20.728,0,0,0-1.453,2.58,9.3,9.3,0,0,1-2.418,3.548c-1.452,1.29-2.741,1.29-4.516.322-.644-.322-1.29-1.128-.967-1.612A18.9,18.9,0,0,1,952.6-229.9a38.056,38.056,0,0,0,3.386-5.805,28.881,28.881,0,0,1,3.386-5.967,1.267,1.267,0,0,0,.162-1.291,3.377,3.377,0,0,1,.644-3.224c1.128-1.774,4.032-2.58,6.128-1.935a2.085,2.085,0,0,1,1.613,2.418,13.878,13.878,0,0,0-.806,2.419,9.54,9.54,0,0,1-1.129,2.741c-.806,1.613-.806,2.58.162,4.838l.967,2.58a11.48,11.48,0,0,0,1.774,3.386,15.964,15.964,0,0,1,1.774,3.225,19.247,19.247,0,0,1-.805,14.029v.322a.565.565,0,0,1-.162.323.158.158,0,0,0,.162.161l2.417-.484a15.75,15.75,0,0,0,5.644-2.1L982.108-217l.968-.645c.644-.645,1.128-.806,1.29-1.452,1.451-.644,5-4.515,7.418-8.224.322-.645,3.225-2.741,5.159-.645C997.588-227.316,997.588-226.994,997.427-226.027Z" transform="translate(-75.148 270.09)" fill="#0099a8"/>
      </g>
    </g>
    <g id="Componente_31_1" data-name="Componente 31 – 1" transform="translate(1041.859 4142.818)">
      <path id="Caminho_165" data-name="Caminho 165" d="M812.7,366.38c-2.487-.762-3.732-2.737-1.242-3.648,1.864-.608,4.974-1.824,8.7-1.215a17.294,17.294,0,0,0,6.841,0,63.263,63.263,0,0,1,9.327-.154,101.19,101.19,0,0,0,12.437-.608,57.41,57.41,0,0,1,7.151-.152,28.121,28.121,0,0,0,3.42.152c1.866,0,4.665,0,5.907,1.063.935.307,1.867.914,1.867,1.369.622,1.064-.622,1.672-3.421,2.586v-.154h-.933c-2.8,0-5.6.305-8.706.458l-8.4.455a39.137,39.137,0,0,1-4.662-.151,108.29,108.29,0,0,0-11.816-.153,31.066,31.066,0,0,0-3.732.3c-1.553.153-3.109.153-4.662.3a25.016,25.016,0,0,1-8.085-.455" transform="translate(-810.099 -360.022)" fill="#0099a8"/>
      <path id="Caminho_166" data-name="Caminho 166" d="M836.073,365.977c-2.487-.762-3.732-2.737-1.242-3.648,1.864-.608,4.974-1.824,8.7-1.215a17.241,17.241,0,0,0,6.841,0,63.283,63.283,0,0,1,9.327-.154,101.2,101.2,0,0,0,12.437-.608,57.377,57.377,0,0,1,7.151-.151,28.352,28.352,0,0,0,3.42.151c1.866,0,4.665,0,5.907,1.064.935.305,1.867.913,1.867,1.368.622,1.064-.622,1.673-3.421,2.586v-.154h-.933c-2.8,0-5.6.305-8.706.458l-8.4.456a38.794,38.794,0,0,1-4.662-.153,108.277,108.277,0,0,0-11.816-.153,30.8,30.8,0,0,0-3.732.305c-1.553.151-3.109.151-4.662.3a25.055,25.055,0,0,1-8.085-.456" transform="translate(-833.474 -360.163)" fill="#0099a8"/>
    </g>
    <g id="Componente_32_1" data-name="Componente 32 – 1" transform="translate(821.044 4142.818)">
      <path id="Caminho_165-2" data-name="Caminho 165" d="M812.7,366.38c-2.487-.762-3.732-2.737-1.242-3.648,1.864-.608,4.974-1.824,8.7-1.215a17.294,17.294,0,0,0,6.841,0,63.263,63.263,0,0,1,9.327-.154,101.19,101.19,0,0,0,12.437-.608,57.41,57.41,0,0,1,7.151-.152,28.121,28.121,0,0,0,3.42.152c1.866,0,4.665,0,5.907,1.063.935.307,1.867.914,1.867,1.369.622,1.064-.622,1.672-3.421,2.586v-.154h-.933c-2.8,0-5.6.305-8.706.458l-8.4.455a39.137,39.137,0,0,1-4.662-.151,108.29,108.29,0,0,0-11.816-.153,31.066,31.066,0,0,0-3.732.3c-1.553.153-3.109.153-4.662.3a25.016,25.016,0,0,1-8.085-.455" transform="translate(-810.099 -360.022)" fill="#0099a8"/>
      <path id="Caminho_166-2" data-name="Caminho 166" d="M836.073,365.977c-2.487-.762-3.732-2.737-1.242-3.648,1.864-.608,4.974-1.824,8.7-1.215a17.241,17.241,0,0,0,6.841,0,63.283,63.283,0,0,1,9.327-.154,101.2,101.2,0,0,0,12.437-.608,57.377,57.377,0,0,1,7.151-.151,28.352,28.352,0,0,0,3.42.151c1.866,0,4.665,0,5.907,1.064.935.305,1.867.913,1.867,1.368.622,1.064-.622,1.673-3.421,2.586v-.154h-.933c-2.8,0-5.6.305-8.706.458l-8.4.456a38.794,38.794,0,0,1-4.662-.153,108.277,108.277,0,0,0-11.816-.153,30.8,30.8,0,0,0-3.732.305c-1.553.151-3.109.151-4.662.3a25.055,25.055,0,0,1-8.085-.456" transform="translate(-833.474 -360.163)" fill="#0099a8"/>
    </g>
  </g>
</svg>
