<svg id="Componente_41_1" data-name="Componente 41 – 1" xmlns="http://www.w3.org/2000/svg" width="156.779" height="66.302" viewBox="0 0 156.779 66.302">
  <path id="Caminho_323" data-name="Caminho 323" d="M714.151,416.383H557.372a34.917,34.917,0,0,0,23.7-23.745,31.463,31.463,0,0,0,.818-3.391l.151-.819,3.132-16.76H686.346l3.132,16.76.152.819a29.733,29.733,0,0,0,.828,3.391,34.476,34.476,0,0,0,4.812,10.107A35.211,35.211,0,0,0,714.151,416.383Z" transform="translate(-557.372 -350.081)" fill="#ec6600"/>
  <path id="Caminho_324" data-name="Caminho 324" d="M683.7,388.429H576.26l3.132-16.76H680.564Z" transform="translate(-551.589 -350.081)" fill="#fff"/>
  <path id="Caminho_325" data-name="Caminho 325" d="M667.888,376.729H586.065a13.322,13.322,0,0,1,10.8-5.443c-.02-.244-.034-.487-.034-.742a7.906,7.906,0,0,1,14.441-4.454,11.075,11.075,0,0,1,4.156-1.578,13.371,13.371,0,0,1,26.012,2.217,7.9,7.9,0,0,1,11.923,5.1,13.353,13.353,0,0,1,14.523,4.9" transform="translate(-548.587 -355.142)" fill="#0091a2"/>
</svg>
