<svg id="Componente_19_1" data-name="Componente 19 – 1" xmlns="http://www.w3.org/2000/svg" width="346.067" height="346.067" viewBox="0 0 346.067 346.067">
  <g id="Grupo_69" data-name="Grupo 69" transform="matrix(0.891, 0.454, -0.454, 0.891, -50.031, -170.051)">
    <path id="Caminho_249" data-name="Caminho 249" d="M307.838,204.422l-60.081-60.081a40.511,40.511,0,0,1-4.79-51.536l6.4-9.348,5.265-7.685,59.408,59.4a41.692,41.692,0,0,1,4.914,53.023Z" transform="translate(46.671)" fill="#0091a2"/>
    <path id="Caminho_250" data-name="Caminho 250" d="M354.509,113.673l-60.081,60.081a40.5,40.5,0,0,1-51.536,4.784l-9.348-6.4-7.685-5.265,59.4-59.408a41.691,41.691,0,0,1,53.023-4.914Z" transform="translate(0 90.749)" fill="#0091a2"/>
    <path id="Caminho_251" data-name="Caminho 251" d="M263.76,98.521,323.841,158.6a40.5,40.5,0,0,1,4.784,51.536l-6.4,9.348-5.265,7.685-59.408-59.4a41.691,41.691,0,0,1-4.914-53.023Z" transform="translate(90.749 105.901)" fill="#0091a2"/>
    <path id="Caminho_252" data-name="Caminho 252" d="M248.608,157.75,308.689,97.67a40.5,40.5,0,0,1,51.536-4.784l9.348,6.4,7.686,5.265-59.4,59.408a41.691,41.691,0,0,1-53.023,4.914Z" transform="translate(105.901 46.671)" fill="#0091a2"/>
    <path id="Caminho_253" data-name="Caminho 253" d="M347.121,139.4H268.039a37.706,37.706,0,0,1-37.064-30.764l-1.934-10.366-1.595-8.522,78.183-.006A38.793,38.793,0,0,1,343.756,121.4Z" transform="translate(7.388 65.024)" fill="#4cb4bb"/>
    <path id="Caminho_254" data-name="Caminho 254" d="M289.485,98.521V177.6a37.706,37.706,0,0,1-30.764,37.064L248.355,216.6l-8.522,1.595-.006-78.183a38.793,38.793,0,0,1,31.658-38.127Z" transform="translate(65.024 105.901)" fill="#4cb4bb"/>
    <path id="Caminho_255" data-name="Caminho 255" d="M248.608,98.521H327.69a37.706,37.706,0,0,1,37.064,30.764l1.934,10.366,1.595,8.522-78.183.006a38.793,38.793,0,0,1-38.127-31.658Z" transform="translate(105.901 105.901)" fill="#4cb4bb"/>
    <path id="Caminho_256" data-name="Caminho 256" d="M248.608,197.034V117.952a37.706,37.706,0,0,1,30.764-37.064l10.366-1.934,8.522-1.595.006,78.183a38.793,38.793,0,0,1-31.658,38.127Z" transform="translate(105.901 7.388)" fill="#4cb4bb"/>
    <path id="Caminho_257" data-name="Caminho 257" d="M263.363,101.965a8.138,8.138,0,1,1-8.138-8.138,8.136,8.136,0,0,1,8.138,8.138" transform="translate(98.82 84.049)" fill="#fff"/>
    <path id="Caminho_258" data-name="Caminho 258" d="M263.445,109.265a8.138,8.138,0,1,1-8.138-8.138,8.136,8.136,0,0,1,8.138,8.138" transform="translate(99.202 118.032)" fill="#fff"/>
    <path id="Caminho_259" data-name="Caminho 259" d="M259.922,103.781a8.138,8.138,0,1,1-8.138-8.138,8.136,8.136,0,0,1,8.138,8.138" transform="translate(82.802 92.503)" fill="#fff"/>
    <path id="Caminho_260" data-name="Caminho 260" d="M266.968,103.4a8.138,8.138,0,1,1-8.138-8.138,8.136,8.136,0,0,1,8.138,8.138" transform="translate(115.602 90.748)" fill="#fff"/>
    <path id="Caminho_261" data-name="Caminho 261" d="M260.19,107.336a8.138,8.138,0,1,1-8.138-8.138,8.136,8.136,0,0,1,8.138,8.138" transform="translate(84.049 109.052)" fill="#fff"/>
    <path id="Caminho_262" data-name="Caminho 262" d="M266.7,107.213a8.138,8.138,0,1,1-8.138-8.138,8.136,8.136,0,0,1,8.138,8.138" transform="translate(114.355 108.48)" fill="#fff"/>
    <path id="Caminho_263" data-name="Caminho 263" d="M263.363,105.531a8.138,8.138,0,1,1-8.138-8.138,8.136,8.136,0,0,1,8.138,8.138" transform="translate(98.82 100.65)" fill="#fff"/>
  </g>
</svg>
