<svg xmlns="http://www.w3.org/2000/svg" width="809.5" height="379" viewBox="0 0 809.5 379">
  <g id="Grupo_87" data-name="Grupo 87" transform="translate(-970.5 -3089.07)">
    <g id="noun_Heart_1140268" transform="translate(973 3138.07)">
      <g id="Grupo_67" data-name="Grupo 67">
        <path id="Caminho_247" data-name="Caminho 247" d="M233.982,17.7c-33.389,0-61.273,20.547-73.014,50.266C149.226,38.247,120.24,17.7,87.953,17.7,43.924,17.7,7.6,56.225,7.6,103.189,7.6,214.729,163.169,272.7,163.169,272.7s155.2-61.273,155.2-169.511C314.334,55.491,277.644,17.7,233.982,17.7Z" transform="translate(-7.6 -17.7)" fill="none" stroke="rgba(223,223,223,0.47)" stroke-width="5"/>
      </g>
    </g>
    <text id="_450" data-name="450" transform="translate(1393 3343.07)" fill="#ef7d00" font-size="262" font-family="Montserrat-ExtraBold, Montserrat" font-weight="800" letter-spacing="-0.05em"><tspan x="-247.721" y="0">450</tspan></text>
    <text id="_" data-name="+" transform="translate(1116 3266.07)" fill="#0099a8" font-size="85" font-family="Montserrat-SemiBold, Montserrat" font-weight="600"><tspan x="-25.075" y="0">+</tspan></text>
    <text id="de" transform="translate(1112 3299.07)" fill="#0099a8" font-size="50" font-family="Montserrat-Bold, Montserrat" font-weight="700"><tspan x="-33.075" y="0">de</tspan></text>
    <g id="Componente_35_1" data-name="Componente 35 – 1" transform="translate(1196 3251.07)">
      <text id="toneladas" transform="translate(202 119)" fill="#ededed" stroke="#ededed" stroke-width="5" font-size="163" font-family="Helvetica"><tspan x="-353.458" y="0">toneladas</tspan></text>
      <text id="toneladas-2" data-name="toneladas" transform="translate(203 118.061)" fill="#0099a8" font-size="163" font-family="Helvetica-Bold, Helvetica" font-weight="700"><tspan x="-380.439" y="0">toneladas</tspan></text>
    </g>
    <text id="em_ração" data-name="em ração" transform="translate(1415.624 3430.07)" fill="#0099a8" font-size="163" font-family="Helvetica-Bold, Helvetica" font-weight="700"><tspan x="-357.916" y="0">em ração</tspan></text>
  </g>
</svg>
