<svg xmlns="http://www.w3.org/2000/svg" width="243.108" height="117.678" viewBox="0 0 243.108 117.678">
  <g id="Grupo_88" data-name="Grupo 88" transform="translate(-208.892 -1154.147)">
    <g id="noun_Heart_1140268" transform="translate(210.392 1167.957)">
      <g id="Grupo_67" data-name="Grupo 67">
        <path id="Caminho_247" data-name="Caminho 247" d="M71.4,17.7A22.026,22.026,0,0,0,50.826,31.867,22.342,22.342,0,0,0,30.247,17.7C17.838,17.7,7.6,28.558,7.6,41.795,7.6,73.231,51.446,89.57,51.446,89.57S95.189,72.3,95.189,41.795C94.051,28.351,83.71,17.7,71.4,17.7Z" transform="translate(-7.6 -17.7)" fill="none" stroke="rgba(223,223,223,0.47)" stroke-width="3"/>
      </g>
    </g>
    <text id="_450" data-name="450" transform="translate(325.432 1222.147)" fill="#ef7d00" font-size="70" font-family="Montserrat-ExtraBold, Montserrat" font-weight="800" letter-spacing="-0.05em"><tspan x="-66.185" y="0">450</tspan></text>
    <text id="_" data-name="+" transform="translate(252 1202)" fill="#0099a8" font-size="22" font-family="Montserrat-SemiBold, Montserrat" font-weight="600"><tspan x="-6.49" y="0">+</tspan></text>
    <text id="de" transform="translate(250 1212)" fill="#0099a8" font-size="16" font-family="Montserrat-Bold, Montserrat" font-weight="700"><tspan x="-10.584" y="0">de</tspan></text>
    <g id="Componente_29_1" data-name="Componente 29 – 1" transform="translate(279.265 1197.654)">
      <text id="toneladas" transform="translate(60 35)" fill="#ededed" stroke="#ededed" stroke-width="2" font-size="48" font-family="Helvetica"><tspan x="-104.086" y="0">toneladas</tspan></text>
      <text id="toneladas-2" data-name="toneladas" transform="translate(59.735 35.346)" fill="#0099a8" font-size="48" font-family="Helvetica-Bold, Helvetica" font-weight="700"><tspan x="-112.031" y="0">toneladas</tspan></text>
    </g>
    <g id="Componente_30_1" data-name="Componente 30 – 1" transform="translate(306.265 1220.825)">
      <text id="em_ração" data-name="em ração" transform="translate(46 30)" fill="#0099a8" font-size="41" font-family="Helvetica-Bold, Helvetica" font-weight="700"><tspan x="-90.028" y="0">em ração</tspan></text>
    </g>
  </g>
</svg>
