<svg id="Componente_28_1" data-name="Componente 28 – 1" xmlns="http://www.w3.org/2000/svg" width="177.525" height="151.253" viewBox="0 0 177.525 151.253">
  <g id="Grupo_71" data-name="Grupo 71" transform="matrix(0.891, 0.454, -0.454, 0.891, 94.49, -253.727)">
    <path id="Caminho_280" data-name="Caminho 280" d="M181.66,295.417V251.072a1.1,1.1,0,0,0-1.1-1.1H180.1a22.763,22.763,0,0,0-22.763,22.763v44.345h2.655a21.665,21.665,0,0,0,21.665-21.665" transform="translate(21.52)" fill="#fff"/>
    <path id="Caminho_281" data-name="Caminho 281" d="M82.278,295.417V251.072a1.1,1.1,0,0,1,1.1-1.1h.459A22.763,22.763,0,0,1,106.6,272.737v44.345h-2.655a21.665,21.665,0,0,1-21.665-21.665" transform="translate(3.382)" fill="#fff"/>
    <path id="Caminho_282" data-name="Caminho 282" d="M199.943,296.056c0,25.45-26.363,46.082-58.882,46.082S82.18,321.506,82.18,296.056s26.363-46.082,58.881-46.082,58.882,20.632,58.882,46.082" transform="translate(3.359)" fill="#fff"/>
    <path id="Caminho_283" data-name="Caminho 283" d="M194.747,295.609h-24.9a1.676,1.676,0,1,1,0-3.352h24.9a1.676,1.676,0,1,1,0,3.352" transform="translate(24.138 10.217)" fill="#ec6600"/>
    <path id="Caminho_284" data-name="Caminho 284" d="M193.148,312.728a1.665,1.665,0,0,1-.762-.184l-23.4-11.978a1.676,1.676,0,0,1,1.528-2.984l23.4,11.978a1.676,1.676,0,0,1-.765,3.167" transform="translate(24.115 11.46)" fill="#ec6600"/>
    <path id="Caminho_285" data-name="Caminho 285" d="M169.753,292.8a1.676,1.676,0,0,1-.765-3.167l23.4-11.978a1.676,1.676,0,0,1,1.528,2.984l-23.4,11.978a1.665,1.665,0,0,1-.762.184" transform="translate(24.115 6.644)" fill="#ec6600"/>
    <path id="Caminho_286" data-name="Caminho 286" d="M94.854,295.609h-24.9a1.676,1.676,0,0,1,0-3.352h24.9a1.676,1.676,0,0,1,0,3.352" transform="translate(0 10.217)" fill="#ec6600"/>
    <path id="Caminho_287" data-name="Caminho 287" d="M71.262,312.728a1.676,1.676,0,0,1-.765-3.167l23.4-11.978a1.676,1.676,0,0,1,1.528,2.984l-23.4,11.978a1.665,1.665,0,0,1-.762.184" transform="translate(0.315 11.46)" fill="#ec6600"/>
    <path id="Caminho_288" data-name="Caminho 288" d="M94.657,292.8a1.665,1.665,0,0,1-.762-.184L70.5,280.636a1.676,1.676,0,0,1,1.528-2.984l23.4,11.978a1.676,1.676,0,0,1-.765,3.167" transform="translate(0.316 6.644)" fill="#ec6600"/>
    <path id="Caminho_289" data-name="Caminho 289" d="M116.035,280.514a3.97,3.97,0,1,1-3.971-3.968,3.97,3.97,0,0,1,3.971,3.968" transform="translate(9.621 6.421)" fill="#0091a2"/>
    <path id="Caminho_290" data-name="Caminho 290" d="M152.655,280.514a3.97,3.97,0,1,1-3.97-3.968,3.969,3.969,0,0,1,3.97,3.968" transform="translate(18.47 6.421)" fill="#0091a2"/>
    <path id="Caminho_291" data-name="Caminho 291" d="M130.587,292.688l5.057-4.813H125.529Z" transform="translate(13.834 9.159)" fill="#ec6600"/>
  </g>
</svg>
