<svg id="Componente_22_1" data-name="Componente 22 – 1" xmlns="http://www.w3.org/2000/svg" width="104.522" height="169.437" viewBox="0 0 104.522 169.437">
  <path id="Caminho_274" data-name="Caminho 274" d="M157.492,102.9V208.61a33.672,33.672,0,0,1-27.474,33.09l-15.62,2.932V138.126a32.7,32.7,0,0,1,26.692-32.148Z" transform="translate(-71.223 -75.195)" fill="#fffdfe"/>
  <path id="Caminho_275" data-name="Caminho 275" d="M142.52,153.995H91.411a18.554,18.554,0,0,1-9.347-2.487,18.8,18.8,0,0,1-9.206-12.9l-.071-.391-1.564-8.353h51.554a18.326,18.326,0,0,1,18.02,14.945Z" transform="translate(-71.223 -75.195)" fill="#fffdfe"/>
  <path id="Caminho_276" data-name="Caminho 276" d="M157.789,75.195l6.831,1.279a13.626,13.626,0,0,1,11.1,12.73l.029-.005v21.818l-.029,0a13.625,13.625,0,0,1-11.1,12.729l-6.831,1.279Z" transform="translate(-71.223 -75.195)" fill="#0091a2"/>
  <path id="Caminho_277" data-name="Caminho 277" d="M131.164,126.865a3.554,3.554,0,1,1-3.555-3.554,3.556,3.556,0,0,1,3.555,3.554" transform="translate(-71.223 -75.195)" fill="#0091a2"/>
  <rect id="Retângulo_21" data-name="Retângulo 21" width="43.094" height="5.402" transform="translate(43.176 105.616)" fill="#ee6c13"/>
  <path id="Caminho_278" data-name="Caminho 278" d="M147.616,198.773l-9.4,9.4a1.489,1.489,0,0,1-2.105,0l-9.407-9.4a1.489,1.489,0,0,1,0-2.1l10.458-10.458,10.458,10.458a1.489,1.489,0,0,1,0,2.1" transform="translate(-71.223 -75.195)" fill="#ee6c13"/>
  <path id="Caminho_279" data-name="Caminho 279" d="M83.912,129.862A13.34,13.34,0,0,1,74,137.983l-1.209.231-1.563-8.352Z" transform="translate(-71.223 -75.195)" fill="#0091a2"/>
</svg>
