<svg id="Grupo_1" data-name="Grupo 1" xmlns="http://www.w3.org/2000/svg" width="156.43" height="37.239" viewBox="0 0 156.43 37.239">
  <path id="Caminho_1" data-name="Caminho 1" d="M1273.927,412.442a4.76,4.76,0,0,0-5.026,4.48c-.005.089-.007.179-.007.268a3.961,3.961,0,0,0,3.89,4.037c.091,0,.181,0,.272,0h.044a4.734,4.734,0,0,0,5.148-4.282c.014-.141.02-.281.02-.422a3.968,3.968,0,0,0-3.839-4.092,3.872,3.872,0,0,0-.5.015" transform="translate(-1121.84 -412.425)" fill="#ec6500"/>
  <path id="Caminho_2" data-name="Caminho 2" d="M986.8,420.1a.72.72,0,0,0-.254-.984.6.6,0,0,0-.089-.044.555.555,0,0,0-.172-.062,22.926,22.926,0,0,0-7.739-1.182,26.946,26.946,0,0,0-12.708,2.724,18.01,18.01,0,0,0-9.887,16.583c0,10.822,7.989,15.355,17.035,15.355a30.028,30.028,0,0,0,9.563-1.339.9.9,0,0,0,.622-1.109s0-.007,0-.01l-.733-5.294c-.124-.592-.67-.639-1.1-.514a20.364,20.364,0,0,1-5.9.794c-5.963,0-9.777-3.13-9.777-8.643a10.477,10.477,0,0,1,4.717-9.234,13.777,13.777,0,0,1,7.6-1.883,22.216,22.216,0,0,1,5.883.793.851.851,0,0,0,1.138-.391.976.976,0,0,0,.062-.17l1.415-4.376Z" transform="translate(-955.944 -415.282)" fill="#fff"/>
  <path id="Caminho_3" data-name="Caminho 3" d="M1033.735,455.885a4.106,4.106,0,0,1-.887.093h-.047c-2.132,0-3.581-1.338-3.581-4.065,0-2.459,1.12-7.242,4.515-8.036a4.1,4.1,0,0,1,1-.109c2.538,0,3.517,1.885,3.517,4.18,0,2.907-1.338,7.251-4.515,7.937m2.133-18.828a19.359,19.359,0,0,0-2.133.109,14.7,14.7,0,0,0-13.33,11.146,15.839,15.839,0,0,0-.421,3.69,12.724,12.724,0,0,0,.421,3.3c1.4,5.045,6.089,7.38,11.146,7.38h.047a19.251,19.251,0,0,0,2.133-.107c7.864-.795,13.86-6.027,13.86-15.106.005-6.49-5.212-10.415-11.722-10.415" transform="translate(-989.892 -425.482)" fill="#fff"/>
  <path id="Caminho_4" data-name="Caminho 4" d="M1165.475,447.94c-.763,4.423-2.211,6.448-3.583,7.241a3.135,3.135,0,0,1-1.588.453c-1.432,0-2.678-1.137-2.678-3.583a8.982,8.982,0,0,1,4.265-7.6,5.609,5.609,0,0,1,2.679-.686,8.153,8.153,0,0,1,1.588.154Zm9.779-9.717a31.688,31.688,0,0,0-8.192-1.169,28.034,28.034,0,0,0-5.17.465c-9.476,1.859-13.656,8.912-13.656,16.06,0,5.668,3.628,9.093,8.19,9.093a9.1,9.1,0,0,0,5.465-1.713,10.531,10.531,0,0,0,2.835-3.208h.092c-.03,1.121-.107,2.258-.186,3.38a.821.821,0,0,0,.678.942l.071.008h6.431c.607,0,.949-.265.983-.983a65.292,65.292,0,0,1,.949-10.027l2.2-11.57a.918.918,0,0,0-.466-1.212.951.951,0,0,0-.22-.067" transform="translate(-1057.879 -425.481)" fill="#fff"/>
  <path id="Caminho_5" data-name="Caminho 5" d="M1098.679,443.661a4.4,4.4,0,0,1-1.868.453,2.323,2.323,0,0,1-2.473-2.162c0-.057-.005-.116-.005-.175a8.6,8.6,0,0,1,.25-2.63l.093-.639c.62-3.3,2.211-5.295,4-5.98a4.051,4.051,0,0,1,1.447-.28c1.792,0,2.927,1.393,2.927,3.583a9.032,9.032,0,0,1-4.371,7.831Zm5.638-18.484a12.317,12.317,0,0,0-5.622,1.338,9.683,9.683,0,0,0-1.929,1.293h-.094l2.025-9.753.545-2.647a.583.583,0,0,0-.4-.724.648.648,0,0,0-.15-.024.944.944,0,0,0-.218-.015h-7.147a1.082,1.082,0,0,0-.966.795l-4.659,22.741a25.167,25.167,0,0,0-.637,5.106c-.03,4.423,2.927,7.508,9.982,7.508a22.249,22.249,0,0,0,3.659-.3,16.22,16.22,0,0,0,13.719-16.443c-.032-5.046-3-8.878-8.113-8.878" transform="translate(-1024.394 -413.602)" fill="#fff"/>
  <path id="Caminho_6" data-name="Caminho 6" d="M1269.711,439.264h-7.07a.985.985,0,0,0-1,.857l-4.267,22.547a.782.782,0,0,0,.855,1.028h6.929a1.025,1.025,0,0,0,1.045-.92l4.282-22.734c.079-.436-.218-.778-.778-.778" transform="translate(-1115.714 -426.652)" fill="#fff"/>
  <path id="Caminho_7" data-name="Caminho 7" d="M1229.27,438.175a20.851,20.851,0,0,0-6.79-1.083c-7.053,0-12.162,3.223-12.162,8.89,0,3.675,3.317,5.639,6.306,6.812,2.229.872,3.085,1.5,3.085,2.335,0,.7-.7,1.24-2.429,1.24a20.356,20.356,0,0,1-7.1-1.728c-.465-.156-.827-.062-1,.59l-1.525,4.517c-.235.607.03.9.483,1.183a18.906,18.906,0,0,0,8.19,1.806c7.35.125,12.708-3.036,12.708-8.953,0-4.312-4.08-6.037-6.557-6.966-2.133-.775-3.176-1.548-3.176-2.132,0-.842,1-1.24,2.586-1.24a15.365,15.365,0,0,1,5.138.857c.56.218.872.045,1.059-.531l1.588-4.672c.139-.421.109-.771-.406-.925" transform="translate(-1089.331 -425.501)" fill="#fff"/>
</svg>
