<svg xmlns="http://www.w3.org/2000/svg" width="68.254" height="39.478" viewBox="0 0 68.254 39.478">
  <g id="Grupo_66" data-name="Grupo 66" transform="translate(-666.744 -36.17)">
    <path id="Caminho_243" data-name="Caminho 243" d="M688.783,47.189A13.512,13.512,0,0,1,677.769,36.17a13.512,13.512,0,0,1-11.025,11.021A13.512,13.512,0,0,1,677.757,58.21a13.512,13.512,0,0,1,11.026-11.021" fill="#fff" fill-rule="evenodd"/>
    <path id="Caminho_244" data-name="Caminho 244" d="M727.437,47.189A13.512,13.512,0,0,1,716.423,36.17,13.512,13.512,0,0,1,705.4,47.191,13.512,13.512,0,0,1,716.411,58.21a13.512,13.512,0,0,1,11.026-11.021" transform="translate(-8.016)" fill="#fff" fill-rule="evenodd"/>
    <path id="Caminho_245" data-name="Caminho 245" d="M766.091,47.189A13.512,13.512,0,0,1,755.077,36.17a13.512,13.512,0,0,1-11.025,11.021A13.512,13.512,0,0,1,755.065,58.21a13.512,13.512,0,0,1,11.026-11.021" transform="translate(-31.092 17.437)" fill="#fff" fill-rule="evenodd"/>
    <path id="Caminho_246" data-name="Caminho 246" d="M804.745,47.189A13.511,13.511,0,0,1,793.731,36.17a13.512,13.512,0,0,1-11.025,11.021A13.512,13.512,0,0,1,793.719,58.21a13.512,13.512,0,0,1,11.026-11.021" transform="translate(-100.932 17.437)" fill="#fff" fill-rule="evenodd"/>
  </g>
</svg>
