<svg xmlns="http://www.w3.org/2000/svg" width="393.473" height="143.186" viewBox="0 0 393.473 143.186">
  <g id="Componente_56_1" data-name="Componente 56 – 1" transform="translate(0)">
    <g id="Grupo_85" data-name="Grupo 85">
      <path id="Caminho_1310" data-name="Caminho 1310" d="M106.035,4.9A12.367,12.367,0,0,0,93.2,16.131v.8a9.849,9.849,0,0,0,9.626,10.027h.8a11.765,11.765,0,0,0,12.835-10.829v-1.2A10.2,10.2,0,0,0,106.837,4.5c0,.4-.4.4-.8.4Z" transform="translate(277.01 -4.5)" fill="#ee7d00"/>
      <path id="Caminho_1306" data-name="Caminho 1306" d="M79.12,11.572a1.609,1.609,0,0,0-.8-2.406h-.8A54.32,54.32,0,0,0,57.863,6.358a68.042,68.042,0,0,0-32.086,6.818A45.524,45.524,0,0,0,.909,54.889c0,27.274,20.054,38.5,42.916,38.5,8.022,0,16.444-.8,24.065-3.209a2.281,2.281,0,0,0,1.6-2.808h0L67.489,74.14c-.4-1.6-1.6-1.6-2.808-1.2a62.907,62.907,0,0,1-14.84,2.005c-14.84,0-24.466-8.022-24.466-21.658A26.269,26.269,0,0,1,37.407,30.021a35.308,35.308,0,0,1,19.252-4.813A62.907,62.907,0,0,1,71.5,27.214a2.3,2.3,0,0,0,2.808-.8v-.4l3.61-10.829Z" transform="translate(-0.897 0.862)" fill="#fff"/>
      <path id="Caminho_1307" data-name="Caminho 1307" d="M60.008,11.8a22.87,22.87,0,0,0-5.214.4A37.634,37.634,0,0,0,21.1,40.277,36.415,36.415,0,0,0,19.9,49.5a30.532,30.532,0,0,0,1.2,8.423c3.61,12.835,15.241,18.45,28.076,18.45h0a22.869,22.869,0,0,0,5.214-.4c19.653-2.005,34.894-15.241,34.894-38.1,0-16.043-13.236-26.07-29.279-26.07ZM54.393,59.128c-.8,0-1.6.4-2.406.4h0c-5.214,0-8.824-3.209-8.824-10.027,0-6.016,2.808-18.049,11.23-20.054.8,0,1.6-.4,2.406-.4,6.417,0,8.824,4.813,8.824,10.428,0,7.219-3.209,18.049-11.23,19.653Z" transform="translate(56.317 17.479)" fill="#fff"/>
      <path id="Caminho_1308" data-name="Caminho 1308" d="M125.483,14.708A71.887,71.887,0,0,0,105.028,11.9a66.384,66.384,0,0,0-12.835,1.2C68.529,17.916,57.7,35.564,57.7,53.612c0,14.439,9.225,22.862,20.455,22.862a24.012,24.012,0,0,0,13.637-4.412,27.952,27.952,0,0,0,7.219-8.022h.4c0,2.808-.4,5.615-.4,8.423a2.2,2.2,0,0,0,1.6,2.406h16.043a2.127,2.127,0,0,0,2.406-2.406A134.762,134.762,0,0,1,121.472,47.2l5.615-29.279a2.687,2.687,0,0,0-1.2-3.209ZM101.017,39.174C99.011,50.4,95.4,55.217,92.193,57.222a6.776,6.776,0,0,1-4.011,1.2c-3.61,0-6.818-2.808-6.818-8.824A23.042,23.042,0,0,1,92.193,30.35a13.183,13.183,0,0,1,6.818-1.6,13.645,13.645,0,0,1,4.011.4Z" transform="translate(170.126 17.78)" fill="#fff"/>
      <path id="Caminho_1309" data-name="Caminho 1309" d="M87.23,31.671A34.193,34.193,0,0,0,73.192,34.88a33.456,33.456,0,0,0-4.813,3.209h-.4l5.214-24.466,1.6-6.417c.4-.8-.4-1.6-.8-2.005H54.742a2.542,2.542,0,0,0-2.406,2.005L40.7,64.56a70.208,70.208,0,0,0-1.6,12.835c0,11.23,7.219,18.851,25.268,18.851a71.6,71.6,0,0,0,9.225-.8,40.749,40.749,0,0,0,34.493-41.311c-.4-12.835-8.022-22.461-20.856-22.461ZM73.192,78.2a10.679,10.679,0,0,1-4.813,1.2c-3.209.4-6.016-2.406-6.417-5.615v-.4a19.868,19.868,0,0,1,.8-6.818l.4-1.6c1.6-8.423,5.615-13.236,10.027-15.241a11.711,11.711,0,0,1,3.61-.8c4.412,0,7.219,3.61,7.219,8.824A22.289,22.289,0,0,1,73.192,78.2Z" transform="translate(114.125 -2.392)" fill="#fff"/>
      <path id="Caminho_1311" data-name="Caminho 1311" d="M120.9,12.5H103.249a2.246,2.246,0,0,0-2.406,2.005L90.013,71.058a1.682,1.682,0,0,0,1.2,2.406h18.049a2.93,2.93,0,0,0,2.808-2.406L122.9,14.505A1.9,1.9,0,0,0,120.9,12.5Z" transform="translate(266.961 19.586)" fill="#fff"/>
      <path id="Caminho_1312" data-name="Caminho 1312" d="M129.86,14.608A50.18,50.18,0,0,0,112.613,11.8c-17.648,0-30.482,8.022-30.482,22.461,0,9.225,8.423,14.038,16.043,17.246,5.615,2.005,7.621,3.61,7.621,6.016,0,1.6-1.6,3.209-6.016,3.209A59.414,59.414,0,0,1,81.73,56.32c-1.2-.4-2.005,0-2.407,1.6l-4.011,11.23c-.4,1.6,0,2.406,1.2,2.808a45.913,45.913,0,0,0,20.455,4.412c18.45.4,32.086-7.621,32.086-22.461,0-10.829-10.428-15.241-16.444-17.648-5.214-2.005-8.022-4.011-8.022-5.214,0-2.005,2.406-3.209,6.417-3.209a45.2,45.2,0,0,1,12.835,2.005c1.6.4,2.005,0,2.808-1.2l4.011-11.631c.4-1.2.4-2.005-.8-2.406Z" transform="translate(222.702 17.479)" fill="#fff"/>
    </g>
    <g id="Grupo_86" data-name="Grupo 86" transform="translate(4.825 107.49)">
      <path id="Caminho_357" data-name="Caminho 357" d="M21.352,53.658v4.011H2.1V32H20.951v4.011H6.512v6.818H18.945V46.84H6.512v7.219l14.84-.4Z" transform="translate(-2.1 -29.192)" fill="#fff"/>
      <path id="Caminho_358" data-name="Caminho 358" d="M11.11,52.752a7.558,7.558,0,0,1-3.61-1.6l1.6-3.61a23.817,23.817,0,0,0,3.209,1.6,11.1,11.1,0,0,0,3.61.4c2.808,0,4.011-.8,4.011-2.005,0-.8-.4-1.2-1.2-1.6s-2.005-.4-3.209-.8c-1.6-.4-2.808-.4-4.011-.8a6.465,6.465,0,0,1-2.808-1.6,4.554,4.554,0,0,1-1.2-3.209A5.032,5.032,0,0,1,9.906,35.1c1.6-1.2,3.61-1.6,6.417-1.6a13.645,13.645,0,0,1,4.011.4,27.634,27.634,0,0,1,3.209,1.2l-1.6,3.61a13.056,13.056,0,0,0-5.615-1.6,7.556,7.556,0,0,0-3.209.8c-.8.4-1.2.8-1.2,1.6s.4,1.2,1.2,1.6a25.567,25.567,0,0,0,3.61.8c1.6.4,2.808.4,4.011.8a3.683,3.683,0,0,1,2.406,1.6,4.554,4.554,0,0,1,1.2,3.209,5.032,5.032,0,0,1-2.406,4.412c-1.6,1.2-3.61,1.6-6.417,1.6A17.057,17.057,0,0,1,11.11,52.752Z" transform="translate(14.158 -24.676)" fill="#fff"/>
      <path id="Caminho_359" data-name="Caminho 359" d="M15.81,52.752a7.558,7.558,0,0,1-3.61-1.6l1.6-3.61a23.817,23.817,0,0,0,3.209,1.6,11.1,11.1,0,0,0,3.61.4c2.808,0,4.011-.8,4.011-2.005,0-.8-.4-1.2-1.2-1.6s-2.005-.4-3.209-.8c-1.6-.4-2.808-.4-4.011-.8a6.464,6.464,0,0,1-2.808-1.6,4.554,4.554,0,0,1-1.2-3.209A5.032,5.032,0,0,1,14.606,35.1c1.6-1.2,3.61-1.6,6.417-1.6a13.645,13.645,0,0,1,4.011.4,27.634,27.634,0,0,1,3.209,1.2l-1.6,3.61a13.056,13.056,0,0,0-5.615-1.6,7.556,7.556,0,0,0-3.209.8c-.8.4-1.2.8-1.2,1.6s.4,1.2,1.2,1.6a25.566,25.566,0,0,0,3.61.8c1.6.4,2.808.4,4.011.8a3.683,3.683,0,0,1,2.406,1.6,4.554,4.554,0,0,1,1.2,3.209,5.032,5.032,0,0,1-2.406,4.412c-1.6,1.2-3.61,1.6-6.417,1.6A17.057,17.057,0,0,1,15.81,52.752Z" transform="translate(28.309 -24.676)" fill="#fff"/>
      <path id="Caminho_360" data-name="Caminho 360" d="M37.054,44.73H21.813a6.511,6.511,0,0,0,2.005,3.61,7.2,7.2,0,0,0,4.412,1.2,7.625,7.625,0,0,0,5.214-2.005l2.406,2.808a6.237,6.237,0,0,1-3.209,2.406,14.418,14.418,0,0,1-4.412.8,12.811,12.811,0,0,1-5.615-1.2,7.87,7.87,0,0,1-3.61-3.61A8.447,8.447,0,0,1,17,43.527a11.1,11.1,0,0,1,1.2-5.214,7.87,7.87,0,0,1,3.61-3.61,11.1,11.1,0,0,1,5.214-1.2,11.1,11.1,0,0,1,5.214,1.2,7.87,7.87,0,0,1,3.61,3.61,11.1,11.1,0,0,1,1.2,5.214ZM23.417,38.313c-1.2.8-1.6,2.005-2.005,3.61h11.23c0-1.6-.8-2.406-1.6-3.61a6.469,6.469,0,0,0-3.61-1.2A6.776,6.776,0,0,0,23.417,38.313Z" transform="translate(42.761 -24.676)" fill="#fff"/>
      <path id="Caminho_361" data-name="Caminho 361" d="M40.045,35.806a8.468,8.468,0,0,1,2.406,6.417v11.23H38.04V42.625a6.776,6.776,0,0,0-1.2-4.011,4.9,4.9,0,0,0-3.61-1.2c-1.6,0-3.209.4-4.011,1.6a7.3,7.3,0,0,0-1.6,4.412V53.454H23.2V33.8h4.412v2.406A7.194,7.194,0,0,1,30.419,34.2a11.866,11.866,0,0,1,4.011-.8A14.063,14.063,0,0,1,40.045,35.806Z" transform="translate(61.428 -24.977)" fill="#fff"/>
      <path id="Caminho_362" data-name="Caminho 362" d="M34.214,52.351a7.87,7.87,0,0,1-3.61-3.61A11.375,11.375,0,0,1,29,43.527a11.1,11.1,0,0,1,1.2-5.214,7.87,7.87,0,0,1,3.61-3.61,12.811,12.811,0,0,1,5.615-1.2,11.1,11.1,0,0,1,5.214,1.2,8.21,8.21,0,0,1,3.209,3.209l-3.61,2.005a4.833,4.833,0,0,0-2.005-2.005,5.8,5.8,0,0,0-2.808-.8,6.032,6.032,0,0,0-4.412,1.6,5.478,5.478,0,0,0-1.6,4.412,5.551,5.551,0,0,0,6.016,6.016,7.436,7.436,0,0,0,2.808-.8,4.833,4.833,0,0,0,2.005-2.005l3.61,2.005a8.21,8.21,0,0,1-3.209,3.209,11.1,11.1,0,0,1-5.214,1.2A6,6,0,0,1,34.214,52.351Z" transform="translate(78.891 -24.676)" fill="#fff"/>
      <path id="Caminho_363" data-name="Caminho 363" d="M35.4,36.113A2.836,2.836,0,0,1,39.413,32.1a2.808,2.808,0,0,1-2.005,4.813A2.208,2.208,0,0,1,35.4,36.113Zm0,4.011h4.412V59.777H35.4Z" transform="translate(95.751 -31.3)" fill="#fff"/>
      <path id="Caminho_364" data-name="Caminho 364" d="M52.341,35.505c1.6,1.2,2.406,3.61,2.406,6.417V53.554H50.336V51.148a4.108,4.108,0,0,1-2.406,2.005,11.712,11.712,0,0,1-3.61.8,11.866,11.866,0,0,1-4.011-.8A4.108,4.108,0,0,1,37.9,51.148a7.556,7.556,0,0,1-.8-3.209,6.441,6.441,0,0,1,2.005-4.412c1.2-1.2,3.209-1.6,6.016-1.6h5.214v-.4a4.554,4.554,0,0,0-1.2-3.209,4.9,4.9,0,0,0-3.61-1.2,8.831,8.831,0,0,0-3.209.4,6.464,6.464,0,0,0-2.808,1.6l-1.6-3.209a14.246,14.246,0,0,1,3.61-1.6,17.057,17.057,0,0,1,4.412-.8A10.206,10.206,0,0,1,52.341,35.505ZM48.33,49.543a4.108,4.108,0,0,0,2.005-2.406V44.73H45.523c-2.808,0-4.011.8-4.011,2.406a3.064,3.064,0,0,0,.8,2.005,5.8,5.8,0,0,0,2.808.8C46.325,50.345,47.127,49.944,48.33,49.543Z" transform="translate(103.278 -24.676)" fill="#fff"/>
      <path id="Caminho_365" data-name="Caminho 365" d="M42.9,31.6h4.412V58.874H42.9Z" transform="translate(120.741 -30.397)" fill="#fff"/>
      <path id="Caminho_366" data-name="Caminho 366" d="M64.143,35a7.87,7.87,0,0,1,3.61,3.61,11.9,11.9,0,0,1,0,10.428,7.87,7.87,0,0,1-3.61,3.61,11.1,11.1,0,0,1-5.214,1.2,7.479,7.479,0,0,1-6.417-2.808v9.626H48.1V33.8h4.412v2.406A7.194,7.194,0,0,1,55.319,34.2a11.711,11.711,0,0,1,3.61-.8A19.857,19.857,0,0,1,64.143,35Zm-1.6,13.236a5.478,5.478,0,0,0,1.6-4.412,5.478,5.478,0,0,0-1.6-4.412,5.149,5.149,0,0,0-4.011-1.6,5.8,5.8,0,0,0-2.808.8,4.833,4.833,0,0,0-2.005,2.005,6.818,6.818,0,0,0,0,6.417,4.833,4.833,0,0,0,2.005,2.005,7.436,7.436,0,0,0,2.808.8C60.132,49.844,61.737,49.443,62.539,48.24Z" transform="translate(136.397 -24.977)" fill="#fff"/>
      <path id="Caminho_367" data-name="Caminho 367" d="M69.241,35.806c1.6,1.2,2.406,3.61,2.406,6.417V53.855H67.236V51.449a4.108,4.108,0,0,1-2.406,2.005,11.712,11.712,0,0,1-3.61.8,14.251,14.251,0,0,1-4.011-.8A4.108,4.108,0,0,1,54.8,51.449a11.711,11.711,0,0,1-.8-3.61,6.441,6.441,0,0,1,2.005-4.412c1.2-1.2,3.209-1.6,6.016-1.6h5.214v-.4a4.554,4.554,0,0,0-1.2-3.209,4.9,4.9,0,0,0-3.61-1.2,8.831,8.831,0,0,0-3.209.4,6.464,6.464,0,0,0-2.808,1.6l-1.6-3.209a14.247,14.247,0,0,1,3.61-1.6,17.057,17.057,0,0,1,4.412-.8C65.631,33.8,68.038,34.6,69.241,35.806ZM65.23,49.844a4.108,4.108,0,0,0,2.005-2.406V45.031H62.423c-2.808,0-4.011.8-4.011,2.406a3.064,3.064,0,0,0,.8,2.005,5.8,5.8,0,0,0,2.808.8A4.262,4.262,0,0,0,65.23,49.844Z" transform="translate(154.161 -24.977)" fill="#fff"/>
      <path id="Caminho_368" data-name="Caminho 368" d="M71.13,33.5v4.412h-1.2c-1.6,0-3.209.4-4.011,1.6a5.478,5.478,0,0,0-1.6,4.412v9.626H59.9V33.9h4.412v2.808C65.515,34.3,67.922,33.5,71.13,33.5Z" transform="translate(171.925 -24.676)" fill="#fff"/>
      <path id="Caminho_369" data-name="Caminho 369" d="M78.641,35.505c1.6,1.2,2.406,3.61,2.406,6.417V53.554H76.636V51.148a4.108,4.108,0,0,1-2.406,2.005,11.711,11.711,0,0,1-3.61.8,11.867,11.867,0,0,1-4.011-.8A4.108,4.108,0,0,1,64.2,51.148a7.556,7.556,0,0,1-.8-3.209,6.441,6.441,0,0,1,2.005-4.412c1.2-1.2,3.209-1.6,6.016-1.6h5.214v-.4a4.554,4.554,0,0,0-1.2-3.209,4.9,4.9,0,0,0-3.61-1.2,8.831,8.831,0,0,0-3.209.4,6.464,6.464,0,0,0-2.808,1.6l-1.6-3.209a14.246,14.246,0,0,1,3.61-1.6,17.057,17.057,0,0,1,4.412-.8A11.1,11.1,0,0,1,78.641,35.505ZM74.229,49.543a4.108,4.108,0,0,0,2.005-2.406V44.73H71.422c-2.808,0-4.011.8-4.011,2.406a3.064,3.064,0,0,0,.8,2.005,5.8,5.8,0,0,0,2.808.8A4.261,4.261,0,0,0,74.229,49.543Z" transform="translate(182.463 -24.676)" fill="#fff"/>
      <path id="Caminho_370" data-name="Caminho 370" d="M86.641,35.505c1.6,1.2,2.406,3.61,2.406,6.417V53.554H84.636V51.148a4.108,4.108,0,0,1-2.406,2.005,11.711,11.711,0,0,1-3.61.8,11.867,11.867,0,0,1-4.011-.8A4.108,4.108,0,0,1,72.2,51.148a7.556,7.556,0,0,1-.8-3.209,6.441,6.441,0,0,1,2.005-4.412c1.2-1.2,3.209-1.6,6.016-1.6h5.214v-.4a4.554,4.554,0,0,0-1.2-3.209,4.9,4.9,0,0,0-3.61-1.2,8.831,8.831,0,0,0-3.209.4,6.464,6.464,0,0,0-2.808,1.6l-1.6-3.209a14.247,14.247,0,0,1,3.61-1.6,17.057,17.057,0,0,1,4.412-.8C83.031,33.5,85.438,34.3,86.641,35.505ZM82.63,49.543a4.108,4.108,0,0,0,2.005-2.406V44.73H79.823c-2.808,0-4.011.8-4.011,2.406a3.064,3.064,0,0,0,.8,2.005,5.8,5.8,0,0,0,2.808.8A4.262,4.262,0,0,0,82.63,49.543Z" transform="translate(206.549 -24.676)" fill="#fff"/>
      <path id="Caminho_371" data-name="Caminho 371" d="M100.658,33.5,92.236,53.153H87.423L79,33.5h4.813l6.016,14.439L96.246,33.5Z" transform="translate(229.431 -24.676)" fill="#fff"/>
      <path id="Caminho_372" data-name="Caminho 372" d="M85.7,36.113a2.908,2.908,0,1,1,2.005.8A2.208,2.208,0,0,1,85.7,36.113Zm0,4.011h4.412V59.777H85.7Z" transform="translate(247.195 -31.3)" fill="#fff"/>
      <path id="Caminho_373" data-name="Caminho 373" d="M108.156,31.6V58.874h-4.412V56.467a7.194,7.194,0,0,1-2.808,2.005,11.711,11.711,0,0,1-3.61.8,11.1,11.1,0,0,1-5.214-1.2,7.87,7.87,0,0,1-3.61-3.61,11.9,11.9,0,0,1,0-10.428,7.87,7.87,0,0,1,3.61-3.61,11.1,11.1,0,0,1,5.214-1.2,11.711,11.711,0,0,1,3.61.8,7.194,7.194,0,0,1,2.808,2.005V32h4.412Zm-7.219,22.862a4.833,4.833,0,0,0,2.005-2.005,6.818,6.818,0,0,0,0-6.417,4.833,4.833,0,0,0-2.005-2.005,7.436,7.436,0,0,0-2.808-.8,7.436,7.436,0,0,0-2.808.8,4.833,4.833,0,0,0-2.005,2.005,6.818,6.818,0,0,0,0,6.417,4.833,4.833,0,0,0,2.005,2.005,7.436,7.436,0,0,0,2.808.8A10.2,10.2,0,0,0,100.937,54.462Z" transform="translate(254.421 -30.397)" fill="#fff"/>
      <path id="Caminho_374" data-name="Caminho 374" d="M108.941,35.505c1.6,1.2,2.406,3.61,2.406,6.417V53.554h-4.412V51.148a4.108,4.108,0,0,1-2.406,2.005,11.711,11.711,0,0,1-3.61.8,14.251,14.251,0,0,1-4.011-.8A4.108,4.108,0,0,1,94.5,51.148a7.556,7.556,0,0,1-.8-3.209,6.441,6.441,0,0,1,2.005-4.412c1.2-1.2,3.209-1.6,6.016-1.6h5.214v-.4a4.554,4.554,0,0,0-1.2-3.209,4.9,4.9,0,0,0-3.61-1.2,8.831,8.831,0,0,0-3.209.4,6.464,6.464,0,0,0-2.808,1.6l-1.6-3.209a14.246,14.246,0,0,1,3.61-1.6,17.057,17.057,0,0,1,4.412-.8A10.206,10.206,0,0,1,108.941,35.505ZM104.93,49.543a4.108,4.108,0,0,0,2.005-2.406V44.73h-4.813c-2.808,0-4.011.8-4.011,2.406a3.064,3.064,0,0,0,.8,2.005,5.8,5.8,0,0,0,2.808.8A4.262,4.262,0,0,0,104.93,49.543Z" transform="translate(273.69 -24.676)" fill="#fff"/>
    </g>
  </g>
</svg>
