<svg id="Componente_53_1" data-name="Componente 53 – 1" xmlns="http://www.w3.org/2000/svg" width="209.486" height="498.703" viewBox="0 0 209.486 498.703">
  <path id="Caminho_117" data-name="Caminho 117" d="M81.832,302.407c-3.884,2.827-8.725,6.343-8.725,13.348h6.314c0-3.606,2.328-5.481,6.125-8.24,3.884-2.827,8.725-6.343,8.725-13.344s-4.84-10.527-8.725-13.355c-3.8-2.762-6.125-4.634-6.125-8.24s2.328-5.481,6.125-8.243c3.884-2.827,8.725-6.343,8.725-13.348h0v-.025c0-7.009-4.84-10.528-8.725-13.355-3.8-2.762-6.125-4.637-6.125-8.247s2.328-5.481,6.125-8.24c3.884-2.827,8.725-6.343,8.725-13.348s-4.84-10.524-8.725-13.351c-3.8-2.762-6.125-4.637-6.125-8.243s2.328-5.477,6.125-8.24c3.884-2.827,8.725-6.346,8.725-13.348h0v-.025c0-7.009-4.84-10.528-8.725-13.355-3.8-2.762-6.125-4.637-6.125-8.247s2.328-5.481,6.125-8.24c3.884-2.827,8.725-6.343,8.725-13.348,0-.243-.047-.453-.062-.688H87.9c.022.228.058.445.058.688,0,3.6-2.328,5.481-6.125,8.24-3.884,2.827-8.725,6.343-8.725,13.348s4.84,10.524,8.725,13.351c3.8,2.762,6.125,4.641,6.125,8.25s-2.328,5.485-6.125,8.247c-3.884,2.827-8.725,6.346-8.725,13.355h0v.011c0,7.009,4.84,10.524,8.725,13.351,3.8,2.762,6.125,4.634,6.125,8.243s-2.328,5.481-6.125,8.24c-3.884,2.827-8.725,6.343-8.725,13.348s4.84,10.524,8.725,13.351c3.8,2.766,6.125,4.641,6.125,8.25s-2.328,5.488-6.125,8.247c-3.884,2.827-8.725,6.346-8.725,13.355h0v.014c0,7.005,4.84,10.52,8.725,13.348,3.8,2.762,6.125,4.634,6.125,8.247S85.629,299.648,81.832,302.407Z" transform="translate(18.477 182.948)" fill="#fff"/>
  <path id="Caminho_118" data-name="Caminho 118" d="M152.552,36.815c-57.851,0-104.743,54.755-104.743,122.3v37.259c0,67.545,46.892,122.3,104.743,122.3s104.743-54.755,104.743-122.3V159.116C257.295,91.57,210.4,36.815,152.552,36.815Z" transform="translate(-47.809 -36.815)" fill="#ef7d00"/>
  <g id="Grupo_42" data-name="Grupo 42" transform="translate(39.178 154.948)">
    <path id="Caminho_119" data-name="Caminho 119" d="M81.3,98.643H68.93l-1.571,3.207H58.631L69.857,79.829H80.468l11.107,22.022H82.843Zm-2.588-5.3-3.519-7.222h-.185L71.49,93.34Z" transform="translate(-58.631 -79.058)" fill="#fff"/>
    <path id="Caminho_120" data-name="Caminho 120" d="M96.694,79.829v22.022H87.441L75.871,88.68h-.185v13.17H68.131V79.829h9.38L88.922,92.815h.217V79.829Z" transform="translate(-33.739 -79.058)" fill="#fff"/>
    <path id="Caminho_121" data-name="Caminho 121" d="M104.6,82.516q4.029,2.894,4.026,8.884t-4.026,8.884q-4.024,2.894-11.954,2.9-7.9,0-11.921-2.9T76.7,91.4q0-5.99,4.026-8.884t11.921-2.9Q100.579,79.616,104.6,82.516ZM98.081,95.7a6,6,0,0,0,0-8.609,8.433,8.433,0,0,0-5.43-1.492,8.357,8.357,0,0,0-5.412,1.492,6.031,6.031,0,0,0,0,8.609,8.314,8.314,0,0,0,5.412,1.5A8.389,8.389,0,0,0,98.081,95.7Z" transform="translate(-11.276 -79.616)" fill="#fff"/>
    <path id="Caminho_122" data-name="Caminho 122" d="M104.046,85.133a13.157,13.157,0,0,0-7.389-.1,1.519,1.519,0,0,0-1.079,1.4,1.136,1.136,0,0,0,.648,1.079A6.583,6.583,0,0,0,98.449,88l8.974.742a11.432,11.432,0,0,1,6.122,1.94A5.773,5.773,0,0,1,115.6,95.53a6.418,6.418,0,0,1-1.651,4.721,9.152,9.152,0,0,1-4.844,2.3,45.216,45.216,0,0,1-8.435.634,39.489,39.489,0,0,1-8.142-.681,9.114,9.114,0,0,1-4.8-2.436,7.31,7.31,0,0,1-1.8-4.967H95.18a3.134,3.134,0,0,0,1.712,2.422,9.681,9.681,0,0,0,4.084.663,11.238,11.238,0,0,0,4-.51,1.676,1.676,0,0,0,1.216-1.586,1.38,1.38,0,0,0-.71-1.3,5.443,5.443,0,0,0-2.129-.521l-8.638-.836a12.758,12.758,0,0,1-6.169-1.879,5.414,5.414,0,0,1-2.067-4.721A5.737,5.737,0,0,1,88.128,82.5a9.446,9.446,0,0,1,4.721-2.237,38.274,38.274,0,0,1,7.7-.644,36.674,36.674,0,0,1,7.649.663,9.71,9.71,0,0,1,4.764,2.3,6.17,6.17,0,0,1,1.806,4.471H105.6A2.517,2.517,0,0,0,104.046,85.133Z" transform="translate(12.879 -79.616)" fill="#fff"/>
  </g>
  <g id="Grupo_43" data-name="Grupo 43" transform="translate(39.804 97.246)">
    <path id="Caminho_123" data-name="Caminho 123" d="M118.106,91.332q2.444,2.585,2.444,7.476,0,5.5-2.882,8.746t-9.619,4.764q-6.744,1.51-18.539,1.51-11.534,0-18.068-1.712t-9.416-5.4q-2.889-3.682-3.222-9.923H78.045a5.946,5.946,0,0,0,3.32,4.561q2.786,1.406,8.345,1.4a26.632,26.632,0,0,0,8.754-1.068q2.845-1.075,2.845-3.693a3.974,3.974,0,0,0-2.176-3.819,14.971,14.971,0,0,0-6.672-1.14H82V83.454H92.8a12.431,12.431,0,0,0,5.962-1.108,3.693,3.693,0,0,0,1.948-3.45c0-1.611-.93-2.748-2.78-3.421a26.4,26.4,0,0,0-8.417-1.006,16.947,16.947,0,0,0-7.472,1.311A5.774,5.774,0,0,0,78.849,79.9h-18.3a15.834,15.834,0,0,1,3.381-9.42q2.981-3.524,9.152-5.162A65.972,65.972,0,0,1,89.51,63.677a85.866,85.866,0,0,1,17,1.343q6.4,1.336,9.416,4.359a11.113,11.113,0,0,1,3.019,8.243,9.976,9.976,0,0,1-2.078,6.668,9.515,9.515,0,0,1-5.763,3.121v.4A12.992,12.992,0,0,1,118.106,91.332Z" transform="translate(-58.804 -63.677)" fill="#fff"/>
    <path id="Caminho_124" data-name="Caminho 124" d="M126.745,83.284q6.033,1.58,8.917,4.931a12.889,12.889,0,0,1,2.882,8.714,13.828,13.828,0,0,1-7.038,12.671q-7.043,4.225-22.8,4.228-11.534,0-18.47-2.451A18.2,18.2,0,0,1,80.117,103.5q-3.188-5.43-3.182-14.615,0-8.65,3.182-14.18a19.438,19.438,0,0,1,10.089-8.279q6.907-2.742,18.1-2.748,15.748,0,22.521,4.359T138.207,78.9H119.034q-1.673-4.556-10.723-4.558-6.435,0-9.756,2.277t-3.722,8.178H95.3a19.379,19.379,0,0,1,6.672-2.31,49.757,49.757,0,0,1,9.014-.771A64.477,64.477,0,0,1,126.745,83.284ZM98.823,93.077A4.449,4.449,0,0,0,95.908,97.4a4.621,4.621,0,0,0,2.947,4.456q2.949,1.368,9.119,1.376,6.033,0,8.815-1.376a4.632,4.632,0,0,0,2.78-4.456,4.454,4.454,0,0,0-2.748-4.326q-2.748-1.309-8.848-1.307Q101.735,91.77,98.823,93.077Z" transform="translate(-11.297 -63.677)" fill="#fff"/>
  </g>
  <path id="Caminho_125" data-name="Caminho 125" d="M84.317,113.6l5.818,7.479a17.624,17.624,0,0,1-.713,22.507L83.9,149.824l-6.071-7.8a17.141,17.141,0,0,1,.7-21.88Z" transform="translate(21.404 164.387)" fill="#ef7d00"/>
  <path id="Caminho_126" data-name="Caminho 126" d="M233.691,64.625C229.014,71.062,225.843,75,219.728,75s-9.282-3.942-13.952-10.379c-4.79-6.578-10.745-14.774-22.6-14.774s-17.826,8.2-22.615,14.774C155.875,71.062,152.7,75,146.582,75s-9.289-3.942-13.967-10.379c-3.142-4.315-6.828-9.286-12.316-12.222A21.31,21.31,0,0,0,110,49.851h0c-11.867,0-17.822,8.2-22.608,14.774C82.718,71.062,79.547,75,73.433,75S64.15,71.062,59.48,64.625c-1.082-1.484-2.241-3.052-3.5-4.59q-2.818,5.246-5.191,10.832l.036.054c4.786,6.578,10.745,14.774,22.6,14.774s17.826-8.2,22.612-14.774C100.722,64.487,103.9,60.549,110,60.549a10.932,10.932,0,0,1,5.278,1.3c3.1,1.644,5.561,4.786,8.678,9.076,4.79,6.578,10.745,14.774,22.6,14.774h.018c11.874,0,17.829-8.2,22.623-14.774,4.677-6.437,7.852-10.372,13.967-10.372s9.282,3.935,13.952,10.372c4.786,6.578,10.745,14.774,22.6,14.774,10.017,0,15.806-5.839,20.251-11.614q-2.265-5.767-5.007-11.2C234.542,63.47,234.1,64.057,233.691,64.625Z" transform="translate(-39.993 -2.658)" fill="#e13505"/>
  <path id="Caminho_127" data-name="Caminho 127" d="M237.171,106.386c-4.677,6.433-7.849,10.379-13.963,10.379s-9.282-3.946-13.952-10.379c-4.789-6.578-10.745-14.774-22.6-14.774s-17.826,8.2-22.615,14.774c-4.681,6.433-7.859,10.379-13.974,10.379s-9.289-3.946-13.967-10.379c-3.142-4.319-6.828-9.286-12.316-12.225a21.31,21.31,0,0,0-10.3-2.549h0c-11.867,0-17.822,8.2-22.608,14.774-4.677,6.433-7.849,10.379-13.963,10.379s-9.282-3.946-13.952-10.379c-3.36-4.619-7.345-9.974-13.5-12.794a130.893,130.893,0,0,0,11.795,27.4,21.827,21.827,0,0,0,15.654,6.462c11.871,0,17.826-8.2,22.612-14.778,4.677-6.433,7.852-10.368,13.959-10.372a10.932,10.932,0,0,1,5.278,1.3c3.1,1.644,5.561,4.79,8.678,9.076,4.79,6.582,10.745,14.778,22.6,14.778v0l.018,0c11.874,0,17.829-8.2,22.623-14.778,4.677-6.433,7.852-10.372,13.967-10.372s9.282,3.939,13.952,10.372c4.786,6.582,10.745,14.778,22.6,14.778a21.419,21.419,0,0,0,9.3-2.071A129.485,129.485,0,0,0,246.1,96.34C242.395,99.24,239.622,103.016,237.171,106.386Z" transform="translate(-43.473 106.764)" fill="#e13505"/>
</svg>
