<svg id="Componente_57_1" data-name="Componente 57 – 1" xmlns="http://www.w3.org/2000/svg" width="257.72" height="659.792" viewBox="0 0 257.72 659.792">
  <path id="Caminho_375" data-name="Caminho 375" d="M734.835,640.245h-3.559V199.856a52.007,52.007,0,0,0-51.949-51.948h-2.1A55.569,55.569,0,0,1,621.725,92.4V55.182h3.559V92.4a52.005,52.005,0,0,0,51.948,51.948h2.1a55.57,55.57,0,0,1,55.508,55.506Z" transform="translate(-582.723 -13.838)" fill="#4cb4bb"/>
  <rect id="Retângulo_43" data-name="Retângulo 43" width="3.559" height="316.185" transform="translate(215.282 343.607)" fill="#4cb4bb"/>
  <path id="Caminho_376" data-name="Caminho 376" d="M623.693,673.712h-3.559V367.666A55.569,55.569,0,0,1,675.64,312.16h68.186a52.005,52.005,0,0,0,51.948-51.948V55.037h3.559V260.212a55.569,55.569,0,0,1-55.506,55.506H675.64a52.005,52.005,0,0,0-51.948,51.948Z" transform="translate(-583.621 -13.92)" fill="#4cb4bb"/>
  <path id="Caminho_377" data-name="Caminho 377" d="M776.8,234.286l-13.046-7.532h24.03a9.116,9.116,0,0,0-9.115-9.117H763.6l20.811-12.015a9.116,9.116,0,0,0-12.452-3.337l-13.046,7.533,12.015-20.813a9.118,9.118,0,0,0-12.453,3.337l-7.532,13.048V181.359a9.116,9.116,0,0,0-9.115,9.117v15.064l-12.015-20.811a9.116,9.116,0,0,0-3.337,12.452l7.532,13.048L713.2,198.212a9.116,9.116,0,0,0,3.337,12.452l13.046,7.532h-24.03a9.114,9.114,0,0,0,9.115,9.115h15.065l-20.811,12.017a9.115,9.115,0,0,0,12.452,3.337l13.046-7.533L722.4,255.941a9.113,9.113,0,0,0,12.452-3.337l7.533-13.046v24.032a9.117,9.117,0,0,0,9.115-9.117V239.41l12.015,20.811a9.117,9.117,0,0,0,3.337-12.453l-7.532-13.046,20.811,12.015a9.115,9.115,0,0,0-3.337-12.452" transform="translate(-535.423 57.358)" fill="#4cb4bb"/>
  <path id="Caminho_378" data-name="Caminho 378" d="M736.234,442.948l-13.046-7.53h24.03A9.116,9.116,0,0,0,738.1,426.3H723.038l20.811-12.015a9.117,9.117,0,0,0-12.451-3.338l-13.046,7.535,12.015-20.814a9.119,9.119,0,0,0-12.453,3.338l-7.532,13.046v-24.03a9.116,9.116,0,0,0-9.115,9.117V414.2l-12.015-20.811a9.118,9.118,0,0,0-3.337,12.453l7.532,13.048-20.811-12.015a9.115,9.115,0,0,0,3.337,12.452l13.046,7.532h-24.03a9.113,9.113,0,0,0,9.115,9.113h15.065l-20.811,12.018a9.115,9.115,0,0,0,12.451,3.337l13.046-7.533L681.84,464.605a9.113,9.113,0,0,0,12.451-3.337l7.534-13.046v24.032a9.117,9.117,0,0,0,9.115-9.117V448.073l12.015,20.812a9.117,9.117,0,0,0,3.337-12.453l-7.532-13.046L739.57,455.4a9.118,9.118,0,0,0-3.337-12.453" transform="translate(-558.311 175.1)" fill="#4cb4bb"/>
  <path id="Caminho_379" data-name="Caminho 379" d="M780.226,83.412,767.179,75.88h24.03a9.116,9.116,0,0,0-9.115-9.117H767.029L787.84,54.748a9.116,9.116,0,0,0-12.452-3.337l-13.044,7.533,12.014-20.813A9.118,9.118,0,0,0,761.9,41.469l-7.532,13.048V30.485a9.114,9.114,0,0,0-9.113,9.117V54.665L733.242,33.854a9.115,9.115,0,0,0-3.337,12.452l7.532,13.048L716.627,47.337a9.117,9.117,0,0,0,3.337,12.453l13.046,7.532h-24.03a9.116,9.116,0,0,0,9.115,9.115h15.067L712.348,88.453A9.117,9.117,0,0,0,724.8,91.79l13.044-7.533-12.014,20.811a9.111,9.111,0,0,0,12.45-3.337l7.535-13.046v24.032a9.116,9.116,0,0,0,9.113-9.117V88.536l12.015,20.811a9.116,9.116,0,0,0,3.337-12.453L762.75,83.848l20.813,12.015a9.117,9.117,0,0,0-3.337-12.452" transform="translate(-533.489 -27.774)" fill="#4cb4bb"/>
  <path id="Caminho_380" data-name="Caminho 380" d="M778.892,345.2l-13.046-7.532h24.03a9.116,9.116,0,0,0-9.115-9.117H765.7l20.811-12.015a9.115,9.115,0,0,0-12.452-3.337l-13.046,7.534,12.015-20.813a9.118,9.118,0,0,0-12.453,3.337l-7.532,13.048V292.278a9.116,9.116,0,0,0-9.115,9.116v15.064l-12.015-20.811a9.115,9.115,0,0,0-3.337,12.451l7.532,13.048-20.811-12.015a9.116,9.116,0,0,0,3.337,12.452l13.046,7.532h-24.03a9.114,9.114,0,0,0,9.115,9.115h15.065l-20.811,12.017a9.116,9.116,0,0,0,12.452,3.337l13.046-7.533L724.5,366.861a9.113,9.113,0,0,0,12.452-3.337l7.533-13.046V374.51a9.116,9.116,0,0,0,9.115-9.116V350.329l12.015,20.811a9.117,9.117,0,0,0,3.336-12.453l-7.532-13.046,20.811,12.015a9.115,9.115,0,0,0-3.337-12.451" transform="translate(-534.241 119.946)" fill="#4cb4bb"/>
  <rect id="Retângulo_44" data-name="Retângulo 44" width="3.559" height="148.907" transform="translate(36.662 135.055)" fill="#4cb4bb"/>
  <path id="Caminho_381" data-name="Caminho 381" d="M668.038,189.329,654.992,181.8h24.03a9.116,9.116,0,0,0-9.115-9.117H654.842l20.811-12.015a9.116,9.116,0,0,0-12.452-3.337l-13.046,7.533L662.17,144.05a9.118,9.118,0,0,0-12.453,3.337l-7.532,13.048V136.4a9.116,9.116,0,0,0-9.115,9.117v15.064l-12.015-20.811a9.115,9.115,0,0,0-3.337,12.452l7.532,13.048L604.44,153.254a9.117,9.117,0,0,0,3.337,12.453l13.046,7.532h-24.03a9.115,9.115,0,0,0,9.115,9.115h15.065L600.161,194.37a9.116,9.116,0,0,0,12.452,3.337l13.046-7.534-12.015,20.811a9.113,9.113,0,0,0,12.452-3.337l7.533-13.046v24.03a9.115,9.115,0,0,0,9.115-9.115V194.453l12.015,20.811a9.117,9.117,0,0,0,3.337-12.453l-7.532-13.046,20.811,12.015a9.116,9.116,0,0,0-3.337-12.452" transform="translate(-596.792 31.991)" fill="#4cb4bb"/>
  <path id="Caminho_382" data-name="Caminho 382" d="M668.417,300.011l-13.046-7.532H679.4a9.116,9.116,0,0,0-9.115-9.117H655.221l20.811-12.015a9.115,9.115,0,0,0-12.452-3.337l-13.046,7.534,12.015-20.813a9.118,9.118,0,0,0-12.453,3.337l-7.532,13.048V247.084a9.116,9.116,0,0,0-9.115,9.117v15.064l-12.015-20.811A9.115,9.115,0,0,0,618.1,262.9l7.532,13.048-20.811-12.015a9.115,9.115,0,0,0,3.337,12.451l13.046,7.532h-24.03a9.114,9.114,0,0,0,9.115,9.115h15.065L600.54,305.052a9.115,9.115,0,0,0,12.451,3.337l13.046-7.533-12.015,20.811a9.113,9.113,0,0,0,12.452-3.337l7.534-13.046v24.032a9.117,9.117,0,0,0,9.115-9.117V305.135l12.015,20.811a9.117,9.117,0,0,0,3.337-12.453l-7.532-13.046,20.811,12.015a9.115,9.115,0,0,0-3.337-12.452" transform="translate(-596.578 94.445)" fill="#4cb4bb"/>
  <path id="Caminho_383" data-name="Caminho 383" d="M669.417,81.679l-13.046-7.532H680.4a9.116,9.116,0,0,0-9.115-9.117H656.221l20.811-12.015a9.115,9.115,0,0,0-12.452-3.337l-13.046,7.533L663.549,36.4A9.118,9.118,0,0,0,651.1,39.736l-7.532,13.048V28.752a9.116,9.116,0,0,0-9.115,9.117V52.932L622.434,32.121A9.115,9.115,0,0,0,619.1,44.573L626.63,57.62,605.819,45.6a9.117,9.117,0,0,0,3.337,12.453L622.2,65.589h-24.03a9.115,9.115,0,0,0,9.115,9.115h15.065L601.54,86.72a9.115,9.115,0,0,0,12.451,3.337l13.046-7.533-12.015,20.811A9.113,9.113,0,0,0,627.474,100l7.533-13.046v24.032a9.117,9.117,0,0,0,9.115-9.117V86.8l12.015,20.811a9.117,9.117,0,0,0,3.337-12.453l-7.532-13.046L672.753,94.13a9.115,9.115,0,0,0-3.337-12.452" transform="translate(-596.014 -28.752)" fill="#4cb4bb"/>
</svg>
