<svg id="Componente_12_1" data-name="Componente 12 – 1" xmlns="http://www.w3.org/2000/svg" xmlns:xlink="http://www.w3.org/1999/xlink" width="292" height="366.788" viewBox="0 0 292 366.788">
  <defs>
    <clipPath id="clip-path">
      <rect id="Retângulo_7" data-name="Retângulo 7" width="185.33" height="128.926" fill="none"/>
    </clipPath>
    <clipPath id="clip-path-2">
      <rect id="Retângulo_8" data-name="Retângulo 8" width="291.884" height="128.925" fill="none"/>
    </clipPath>
  </defs>
  <rect id="Retângulo_4" data-name="Retângulo 4" width="14.401" height="67.096" transform="translate(137.255 56.686)" fill="#fff"/>
  <path id="Caminho_39" data-name="Caminho 39" d="M353.477,159.882h0A16.684,16.684,0,0,0,370.162,143.2v-40h-1.611a15.881,15.881,0,0,0-15.879,15.883v40a.806.806,0,0,0,.805.805" transform="translate(-215.418 -103.196)" fill="#e13505"/>
  <path id="Caminho_40" data-name="Caminho 40" d="M353.194,144.547h0a10.828,10.828,0,0,0,10.825-10.825V107.77h-1.045a10.3,10.3,0,0,0-10.3,10.3v25.951a.524.524,0,0,0,.522.522" transform="translate(-215.418 -87.86)" fill="#ec6500"/>
  <rect id="Retângulo_5" data-name="Retângulo 5" width="185.33" height="128.925" transform="translate(53.334 123.781)" fill="#ef7d00"/>
  <rect id="Retângulo_6" data-name="Retângulo 6" width="291.998" height="128.925" transform="translate(0 237.863)" fill="#ef7d00"/>
  <g id="Grupo_10" data-name="Grupo 10" transform="translate(53.334 123.781)">
    <g id="Grupo_9" data-name="Grupo 9" clip-path="url(#clip-path)">
      <path id="Caminho_41" data-name="Caminho 41" d="M612.341,127.931a16.684,16.684,0,0,0-16.684,16.684V128.736a.806.806,0,0,0-.805-.805,16.684,16.684,0,0,0-16.684,16.684V128.736a.806.806,0,0,0-.805-.805,16.684,16.684,0,0,0-16.684,16.684V128.736a.806.806,0,0,0-.805-.805,16.686,16.686,0,0,0-16.684,16.684V128.736a.8.8,0,0,0-.8-.805A16.684,16.684,0,0,0,525.7,144.615V128.736a.806.806,0,0,0-.805-.805,16.684,16.684,0,0,0-16.684,16.684V128.736a.806.806,0,0,0-.805-.805,16.684,16.684,0,0,0-16.684,16.684V128.736a.806.806,0,0,0-.805-.805,16.684,16.684,0,0,0-16.684,16.684V128.736a.8.8,0,0,0-.8-.805,16.684,16.684,0,0,0-16.684,16.684V128.736a.806.806,0,0,0-.805-.805,16.684,16.684,0,0,0-16.684,16.684V128.736a.806.806,0,0,0-.805-.805,16.684,16.684,0,0,0-16.684,16.684V128.736a.806.806,0,0,0-.805-.805,16.684,16.684,0,0,0-16.684,16.684V128.736a.8.8,0,0,0-.8-.805,16.687,16.687,0,0,0-16.689,16.684V128.736a.8.8,0,0,0-.8-.805,16.684,16.684,0,0,0-16.684,16.684V128.736a.806.806,0,0,0-.805-.805,16.683,16.683,0,0,0-16.684,16.68V128.736a.806.806,0,0,0-.805-.805,16.684,16.684,0,0,0-16.684,16.684v40h1.611a15.879,15.879,0,0,0,15.879-15.875v15.875h1.606a15.881,15.881,0,0,0,15.883-15.879v15.879h1.606a15.877,15.877,0,0,0,15.879-15.879v15.879H387.4a15.878,15.878,0,0,0,15.879-15.879v15.879h1.61a15.877,15.877,0,0,0,15.879-15.879v15.879h1.611a15.88,15.88,0,0,0,15.879-15.879v15.879h1.606a15.881,15.881,0,0,0,15.883-15.879v15.879h1.606a15.877,15.877,0,0,0,15.879-15.879v15.879h1.611a15.878,15.878,0,0,0,15.879-15.879v15.879h1.611a15.88,15.88,0,0,0,15.879-15.879v15.879h1.606A15.881,15.881,0,0,0,525.7,168.734v15.879h1.606a15.878,15.878,0,0,0,15.879-15.879v15.879h1.61a15.878,15.878,0,0,0,15.879-15.879v15.879h1.611a15.878,15.878,0,0,0,15.879-15.879v15.879h1.606a15.881,15.881,0,0,0,15.883-15.879v15.879h1.606a15.877,15.877,0,0,0,15.879-15.879v-40A.8.8,0,0,0,612.341,127.931Z" transform="translate(-333.612 -144.046)" fill="#e13505"/>
    </g>
  </g>
  <path id="Caminho_42" data-name="Caminho 42" d="M339.418,147.2a2.311,2.311,0,1,1-2.311-2.311,2.313,2.313,0,0,1,2.311,2.311" transform="translate(-275.356 36.575)" fill="#fff"/>
  <path id="Caminho_43" data-name="Caminho 43" d="M342,147.2a2.311,2.311,0,1,1-2.311-2.311A2.313,2.313,0,0,1,342,147.2" transform="translate(-266.702 36.575)" fill="#fff"/>
  <path id="Caminho_44" data-name="Caminho 44" d="M344.579,147.2a2.311,2.311,0,1,1-2.311-2.311,2.31,2.31,0,0,1,2.311,2.311" transform="translate(-258.052 36.575)" fill="#fff"/>
  <path id="Caminho_45" data-name="Caminho 45" d="M347.16,147.2a2.311,2.311,0,1,1-2.311-2.311,2.313,2.313,0,0,1,2.311,2.311" transform="translate(-249.399 36.575)" fill="#fff"/>
  <path id="Caminho_46" data-name="Caminho 46" d="M349.741,147.2a2.311,2.311,0,1,1-2.311-2.311,2.313,2.313,0,0,1,2.311,2.311" transform="translate(-240.745 36.575)" fill="#fff"/>
  <path id="Caminho_47" data-name="Caminho 47" d="M352.321,147.2a2.311,2.311,0,1,1-2.311-2.311,2.31,2.31,0,0,1,2.311,2.311" transform="translate(-232.095 36.575)" fill="#fff"/>
  <path id="Caminho_48" data-name="Caminho 48" d="M354.9,147.2a2.311,2.311,0,1,1-2.311-2.311A2.313,2.313,0,0,1,354.9,147.2" transform="translate(-223.441 36.575)" fill="#fff"/>
  <path id="Caminho_49" data-name="Caminho 49" d="M357.483,147.2a2.311,2.311,0,1,1-2.311-2.311,2.313,2.313,0,0,1,2.311,2.311" transform="translate(-214.788 36.575)" fill="#fff"/>
  <path id="Caminho_50" data-name="Caminho 50" d="M360.063,147.2a2.311,2.311,0,1,1-2.311-2.311,2.31,2.31,0,0,1,2.311,2.311" transform="translate(-206.138 36.575)" fill="#fff"/>
  <path id="Caminho_51" data-name="Caminho 51" d="M362.644,147.2a2.311,2.311,0,1,1-2.311-2.311,2.313,2.313,0,0,1,2.311,2.311" transform="translate(-197.484 36.575)" fill="#fff"/>
  <path id="Caminho_52" data-name="Caminho 52" d="M365.225,147.2a2.311,2.311,0,1,1-2.311-2.311,2.313,2.313,0,0,1,2.311,2.311" transform="translate(-188.83 36.575)" fill="#fff"/>
  <path id="Caminho_53" data-name="Caminho 53" d="M367.8,147.2a2.311,2.311,0,1,1-2.311-2.311A2.31,2.31,0,0,1,367.8,147.2" transform="translate(-180.18 36.575)" fill="#fff"/>
  <path id="Caminho_54" data-name="Caminho 54" d="M370.386,147.2a2.311,2.311,0,1,1-2.311-2.311,2.313,2.313,0,0,1,2.311,2.311" transform="translate(-171.527 36.575)" fill="#fff"/>
  <path id="Caminho_55" data-name="Caminho 55" d="M372.967,147.2a2.311,2.311,0,1,1-2.311-2.311,2.313,2.313,0,0,1,2.311,2.311" transform="translate(-162.873 36.575)" fill="#fff"/>
  <path id="Caminho_56" data-name="Caminho 56" d="M375.547,147.2a2.311,2.311,0,1,1-2.311-2.311,2.31,2.31,0,0,1,2.311,2.311" transform="translate(-154.223 36.575)" fill="#fff"/>
  <path id="Caminho_57" data-name="Caminho 57" d="M378.128,147.2a2.311,2.311,0,1,1-2.311-2.311,2.313,2.313,0,0,1,2.311,2.311" transform="translate(-145.569 36.575)" fill="#fff"/>
  <g id="Grupo_12" data-name="Grupo 12" transform="translate(0.115 237.863)">
    <g id="Grupo_11" data-name="Grupo 11" clip-path="url(#clip-path-2)">
      <path id="Caminho_58" data-name="Caminho 58" d="M325.582,172.191a2.311,2.311,0,1,1-2.311-2.311,2.313,2.313,0,0,1,2.311,2.311" transform="translate(-321.859 -117.482)" fill="#fff"/>
    </g>
  </g>
  <path id="Caminho_59" data-name="Caminho 59" d="M328.178,172.191a2.311,2.311,0,1,1-2.311-2.311,2.313,2.313,0,0,1,2.311,2.311" transform="translate(-313.041 120.382)" fill="#fff"/>
  <path id="Caminho_60" data-name="Caminho 60" d="M330.774,172.191a2.311,2.311,0,1,1-2.311-2.311,2.313,2.313,0,0,1,2.311,2.311" transform="translate(-304.337 120.382)" fill="#fff"/>
  <path id="Caminho_61" data-name="Caminho 61" d="M333.369,172.191a2.311,2.311,0,1,1-2.311-2.311,2.31,2.31,0,0,1,2.311,2.311" transform="translate(-295.637 120.382)" fill="#fff"/>
  <path id="Caminho_62" data-name="Caminho 62" d="M335.965,172.191a2.311,2.311,0,1,1-2.311-2.311,2.313,2.313,0,0,1,2.311,2.311" transform="translate(-286.933 120.382)" fill="#fff"/>
  <path id="Caminho_63" data-name="Caminho 63" d="M338.561,172.191a2.311,2.311,0,1,1-2.311-2.311,2.313,2.313,0,0,1,2.311,2.311" transform="translate(-278.229 120.382)" fill="#fff"/>
  <path id="Caminho_64" data-name="Caminho 64" d="M341.157,172.191a2.311,2.311,0,1,1-2.316-2.311,2.314,2.314,0,0,1,2.316,2.311" transform="translate(-269.525 120.382)" fill="#fff"/>
  <path id="Caminho_65" data-name="Caminho 65" d="M343.752,172.191a2.311,2.311,0,1,1-2.311-2.311,2.31,2.31,0,0,1,2.311,2.311" transform="translate(-260.825 120.382)" fill="#fff"/>
  <path id="Caminho_66" data-name="Caminho 66" d="M346.348,172.191a2.311,2.311,0,1,1-2.311-2.311,2.313,2.313,0,0,1,2.311,2.311" transform="translate(-252.121 120.382)" fill="#fff"/>
  <path id="Caminho_67" data-name="Caminho 67" d="M348.944,172.191a2.311,2.311,0,1,1-2.311-2.311,2.313,2.313,0,0,1,2.311,2.311" transform="translate(-243.417 120.382)" fill="#fff"/>
  <path id="Caminho_68" data-name="Caminho 68" d="M351.539,172.191a2.311,2.311,0,1,1-2.307-2.311,2.309,2.309,0,0,1,2.307,2.311" transform="translate(-234.717 120.382)" fill="#fff"/>
  <path id="Caminho_69" data-name="Caminho 69" d="M354.135,172.191a2.311,2.311,0,1,1-2.311-2.311,2.313,2.313,0,0,1,2.311,2.311" transform="translate(-226.013 120.382)" fill="#fff"/>
  <path id="Caminho_70" data-name="Caminho 70" d="M356.731,172.191a2.311,2.311,0,1,1-2.311-2.311,2.313,2.313,0,0,1,2.311,2.311" transform="translate(-217.309 120.382)" fill="#fff"/>
  <path id="Caminho_71" data-name="Caminho 71" d="M359.327,172.191a2.311,2.311,0,1,1-2.311-2.311,2.313,2.313,0,0,1,2.311,2.311" transform="translate(-208.605 120.382)" fill="#fff"/>
  <path id="Caminho_72" data-name="Caminho 72" d="M361.922,172.191a2.311,2.311,0,1,1-2.311-2.311,2.31,2.31,0,0,1,2.311,2.311" transform="translate(-199.905 120.382)" fill="#fff"/>
  <path id="Caminho_73" data-name="Caminho 73" d="M364.518,172.191a2.311,2.311,0,1,1-2.311-2.311,2.313,2.313,0,0,1,2.311,2.311" transform="translate(-191.201 120.382)" fill="#fff"/>
  <path id="Caminho_74" data-name="Caminho 74" d="M367.114,172.191a2.311,2.311,0,1,1-2.311-2.311,2.313,2.313,0,0,1,2.311,2.311" transform="translate(-182.497 120.382)" fill="#fff"/>
  <path id="Caminho_75" data-name="Caminho 75" d="M369.71,172.191a2.311,2.311,0,1,1-2.311-2.311,2.313,2.313,0,0,1,2.311,2.311" transform="translate(-173.793 120.382)" fill="#fff"/>
  <path id="Caminho_76" data-name="Caminho 76" d="M372.3,172.191a2.311,2.311,0,1,1-2.311-2.311,2.31,2.31,0,0,1,2.311,2.311" transform="translate(-165.093 120.382)" fill="#fff"/>
  <path id="Caminho_77" data-name="Caminho 77" d="M374.9,172.191a2.311,2.311,0,1,1-2.311-2.311,2.313,2.313,0,0,1,2.311,2.311" transform="translate(-156.389 120.382)" fill="#fff"/>
  <path id="Caminho_78" data-name="Caminho 78" d="M377.5,172.191a2.311,2.311,0,1,1-2.311-2.311,2.313,2.313,0,0,1,2.311,2.311" transform="translate(-147.685 120.382)" fill="#fff"/>
  <path id="Caminho_79" data-name="Caminho 79" d="M380.093,172.191a2.311,2.311,0,1,1-2.311-2.311,2.313,2.313,0,0,1,2.311,2.311" transform="translate(-138.981 120.382)" fill="#fff"/>
  <path id="Caminho_80" data-name="Caminho 80" d="M382.688,172.191a2.311,2.311,0,1,1-2.311-2.311,2.31,2.31,0,0,1,2.311,2.311" transform="translate(-130.281 120.382)" fill="#fff"/>
  <path id="Caminho_81" data-name="Caminho 81" d="M385.284,172.191a2.311,2.311,0,1,1-2.311-2.311,2.313,2.313,0,0,1,2.311,2.311" transform="translate(-121.577 120.382)" fill="#fff"/>
  <path id="Caminho_82" data-name="Caminho 82" d="M387.88,172.191a2.311,2.311,0,1,1-2.311-2.311,2.313,2.313,0,0,1,2.311,2.311" transform="translate(-112.873 120.382)" fill="#fff"/>
  <path id="Caminho_83" data-name="Caminho 83" d="M390.479,172.191a2.314,2.314,0,1,1-2.316-2.311,2.314,2.314,0,0,1,2.316,2.311" transform="translate(-104.172 120.382)" fill="#fff"/>
  <path id="Caminho_84" data-name="Caminho 84" d="M559.8,157.842H321.14v35.323A15.887,15.887,0,0,0,329.832,179V194.88h1.606A15.881,15.881,0,0,0,347.318,179V194.88h1.611a15.879,15.879,0,0,0,15.879-15.875V194.88h1.611A15.881,15.881,0,0,0,382.3,179V194.88h1.611A15.884,15.884,0,0,0,399.786,179V194.88h1.606A15.885,15.885,0,0,0,417.276,179V194.88h1.606A15.881,15.881,0,0,0,434.761,179V194.88h1.611A15.881,15.881,0,0,0,452.25,179V194.88h1.611A15.884,15.884,0,0,0,469.74,179V194.88h1.606A15.885,15.885,0,0,0,487.229,179V194.88h1.606A15.881,15.881,0,0,0,504.715,179V194.88h1.611A15.881,15.881,0,0,0,522.2,179V194.88h1.61A15.881,15.881,0,0,0,539.694,179V194.88H541.3A15.885,15.885,0,0,0,557.183,179V194.88h1.606A15.881,15.881,0,0,0,574.668,179V194.88h1.611A15.881,15.881,0,0,0,592.158,179V194.88h1.611A15.881,15.881,0,0,0,609.647,179V194.88h1.61a15.8,15.8,0,0,0,1.88-.113V157.842Z" transform="translate(-321.138 80.021)" fill="#e54700"/>
</svg>
