<svg id="Componente_7_1" data-name="Componente 7 – 1" xmlns="http://www.w3.org/2000/svg" width="148.415" height="353.318" viewBox="0 0 148.415 353.318">
  <path id="Caminho_117" data-name="Caminho 117" d="M79.288,249.431c-2.752,2-6.181,4.494-6.181,9.456H77.58c0-2.555,1.649-3.883,4.34-5.838,2.752-2,6.181-4.494,6.181-9.454s-3.429-7.458-6.181-9.462c-2.69-1.957-4.34-3.283-4.34-5.838s1.649-3.883,4.34-5.84c2.752-2,6.181-4.494,6.181-9.456h0v-.018c0-4.965-3.429-7.458-6.181-9.462-2.69-1.957-4.34-3.285-4.34-5.843s1.649-3.883,4.34-5.838c2.752-2,6.181-4.494,6.181-9.456s-3.429-7.456-6.181-9.459c-2.69-1.957-4.34-3.286-4.34-5.84s1.649-3.881,4.34-5.837c2.752-2,6.181-4.5,6.181-9.456h0v-.018c0-4.965-3.429-7.458-6.181-9.462-2.69-1.957-4.34-3.286-4.34-5.843s1.649-3.883,4.34-5.837c2.752-2,6.181-4.494,6.181-9.456,0-.172-.033-.321-.044-.487h-4.47c.015.162.041.315.041.487,0,2.552-1.649,3.883-4.34,5.838-2.752,2-6.181,4.494-6.181,9.456s3.429,7.456,6.181,9.459c2.69,1.957,4.34,3.288,4.34,5.845s-1.649,3.886-4.34,5.843c-2.752,2-6.181,4.5-6.181,9.462h0v.008c0,4.966,3.429,7.456,6.181,9.459,2.69,1.957,4.34,3.283,4.34,5.84s-1.649,3.883-4.34,5.838c-2.752,2-6.181,4.494-6.181,9.456s3.429,7.456,6.181,9.459c2.69,1.96,4.34,3.288,4.34,5.845s-1.649,3.888-4.34,5.843c-2.752,2-6.181,4.5-6.181,9.462h0v.01c0,4.963,3.429,7.453,6.181,9.456,2.69,1.957,4.34,3.283,4.34,5.843S81.979,247.477,79.288,249.431Z" transform="translate(-8.222 94.43)" fill="#fff"/>
  <path id="Caminho_118" data-name="Caminho 118" d="M122.017,36.815c-40.986,0-74.208,38.793-74.208,86.647v26.4c0,47.854,33.222,86.647,74.208,86.647s74.208-38.793,74.208-86.647v-26.4C196.224,75.608,163,36.815,122.017,36.815Z" transform="translate(-47.809 -36.815)" fill="#ef7d00"/>
  <g id="Grupo_42" data-name="Grupo 42" transform="translate(27.756 109.776)">
    <path id="Caminho_119" data-name="Caminho 119" d="M74.692,93.158H65.928l-1.113,2.272H58.631l7.953-15.6H74.1l7.869,15.6H75.784ZM72.858,89.4l-2.493-5.117h-.131L67.741,89.4Z" transform="translate(-58.631 -79.283)" fill="#fff"/>
    <path id="Caminho_120" data-name="Caminho 120" d="M88.367,79.829v15.6H81.812l-8.2-9.331h-.131v9.331H68.131v-15.6h6.645l8.084,9.2h.154v-9.2Z" transform="translate(-43.765 -79.283)" fill="#fff"/>
    <path id="Caminho_121" data-name="Caminho 121" d="M96.471,81.67q2.855,2.051,2.852,6.294t-2.852,6.294Q93.62,96.309,88,96.313q-5.594,0-8.446-2.054T76.7,87.964q0-4.243,2.852-6.294T88,79.616Q93.619,79.616,96.471,81.67Zm-4.622,9.341a4.249,4.249,0,0,0,0-6.1,7.508,7.508,0,0,0-7.682,0,4.273,4.273,0,0,0,0,6.1,7.477,7.477,0,0,0,7.682,0Z" transform="translate(-30.35 -79.616)" fill="#fff"/>
    <path id="Caminho_122" data-name="Caminho 122" d="M98.762,83.525a9.321,9.321,0,0,0-5.235-.074,1.076,1.076,0,0,0-.764,1,.8.8,0,0,0,.459.764,4.664,4.664,0,0,0,1.575.349l6.358.526a8.1,8.1,0,0,1,4.337,1.375,4.09,4.09,0,0,1,1.454,3.432,4.547,4.547,0,0,1-1.17,3.345,6.484,6.484,0,0,1-3.432,1.629,32.034,32.034,0,0,1-5.976.449,27.977,27.977,0,0,1-5.768-.482A6.457,6.457,0,0,1,87.2,94.1a5.179,5.179,0,0,1-1.277-3.519h6.558A2.22,2.22,0,0,0,93.694,92.3a6.859,6.859,0,0,0,2.893.469,7.962,7.962,0,0,0,2.832-.362,1.188,1.188,0,0,0,.862-1.123.977.977,0,0,0-.5-.921A3.857,3.857,0,0,0,98.27,90L92.15,89.4a9.039,9.039,0,0,1-4.37-1.331,3.835,3.835,0,0,1-1.465-3.345,4.064,4.064,0,0,1,1.17-3.07,6.692,6.692,0,0,1,3.345-1.585,27.117,27.117,0,0,1,5.453-.457,25.982,25.982,0,0,1,5.419.469,6.879,6.879,0,0,1,3.375,1.629,4.371,4.371,0,0,1,1.28,3.168H99.865A1.783,1.783,0,0,0,98.762,83.525Z" transform="translate(-15.924 -79.616)" fill="#fff"/>
  </g>
  <g id="Grupo_43" data-name="Grupo 43" transform="translate(28.2 68.896)">
    <path id="Caminho_123" data-name="Caminho 123" d="M100.818,83.27a7.422,7.422,0,0,1,1.731,5.3,8.991,8.991,0,0,1-2.042,6.2q-2.043,2.308-6.815,3.375a63.058,63.058,0,0,1-13.134,1.07,52.923,52.923,0,0,1-12.8-1.213q-4.628-1.212-6.671-3.824A12.217,12.217,0,0,1,58.8,87.14H72.436a4.212,4.212,0,0,0,2.352,3.232,13.6,13.6,0,0,0,5.912,1,18.868,18.868,0,0,0,6.2-.757,2.686,2.686,0,0,0,2.016-2.616,2.816,2.816,0,0,0-1.541-2.706,10.607,10.607,0,0,0-4.727-.808h-7.41V77.689h7.648a8.807,8.807,0,0,0,4.224-.785,2.617,2.617,0,0,0,1.38-2.444,2.524,2.524,0,0,0-1.97-2.424,18.7,18.7,0,0,0-5.963-.713,12.007,12.007,0,0,0-5.294.928,4.091,4.091,0,0,0-2.26,2.921H60.043a11.218,11.218,0,0,1,2.4-6.674,12.388,12.388,0,0,1,6.484-3.657,46.739,46.739,0,0,1,11.637-1.164,60.834,60.834,0,0,1,12.042.952,13,13,0,0,1,6.671,3.088,7.873,7.873,0,0,1,2.139,5.84,7.068,7.068,0,0,1-1.472,4.724,6.741,6.741,0,0,1-4.083,2.211v.285A9.2,9.2,0,0,1,100.818,83.27Z" transform="translate(-58.804 -63.677)" fill="#fff"/>
    <path id="Caminho_124" data-name="Caminho 124" d="M112.224,77.568a12.139,12.139,0,0,1,6.317,3.493,9.132,9.132,0,0,1,2.042,6.173,9.8,9.8,0,0,1-4.986,8.977q-4.99,2.993-16.151,3a40.321,40.321,0,0,1-13.086-1.736,12.891,12.891,0,0,1-7.171-5.581q-2.258-3.847-2.254-10.354a19.938,19.938,0,0,1,2.254-10.046,13.771,13.771,0,0,1,7.148-5.866q4.894-1.943,12.827-1.947,11.157,0,15.956,3.088t5.225,7.694H106.761q-1.185-3.228-7.6-3.229-4.559,0-6.912,1.613t-2.637,5.794h.333A13.729,13.729,0,0,1,94.676,77a35.251,35.251,0,0,1,6.386-.546A45.68,45.68,0,0,1,112.224,77.568ZM92.442,84.506a3.152,3.152,0,0,0-2.065,3.065,3.274,3.274,0,0,0,2.088,3.157,16.175,16.175,0,0,0,6.461.975,14.963,14.963,0,0,0,6.245-.975,3.282,3.282,0,0,0,1.97-3.157,3.155,3.155,0,0,0-1.947-3.065,15.565,15.565,0,0,0-6.268-.926A16.822,16.822,0,0,0,92.442,84.506Z" transform="translate(-30.432 -63.677)" fill="#fff"/>
  </g>
  <path id="Caminho_125" data-name="Caminho 125" d="M81.375,113.6l4.122,5.3a12.486,12.486,0,0,1-.505,15.945l-3.909,4.417-4.3-5.527a12.144,12.144,0,0,1,.492-15.5Z" transform="translate(-6.474 83.345)" fill="#ef7d00"/>
  <path id="Caminho_126" data-name="Caminho 126" d="M180.371,60.318c-3.314,4.56-5.561,7.353-9.892,7.353s-6.576-2.793-9.885-7.353c-3.393-4.66-7.612-10.467-16.015-10.467s-12.629,5.807-16.022,10.467c-3.316,4.56-5.568,7.353-9.9,7.353s-6.581-2.793-9.9-7.353c-2.226-3.057-4.837-6.579-8.725-8.659a15.1,15.1,0,0,0-7.294-1.808h0c-8.407,0-12.627,5.807-16.017,10.467-3.314,4.56-5.561,7.353-9.892,7.353s-6.576-2.793-9.885-7.353c-.767-1.052-1.588-2.162-2.478-3.252q-2,3.716-3.678,7.674l.026.038c3.391,4.66,7.612,10.467,16.015,10.467s12.629-5.807,16.02-10.467c3.314-4.558,5.563-7.348,9.89-7.348a7.745,7.745,0,0,1,3.739.918c2.193,1.164,3.94,3.391,6.148,6.43,3.393,4.66,7.612,10.467,16.015,10.467h.013c8.413,0,12.632-5.807,16.028-10.467,3.314-4.56,5.563-7.348,9.9-7.348s6.576,2.788,9.885,7.348c3.391,4.66,7.612,10.467,16.015,10.467,7.1,0,11.2-4.137,14.348-8.228q-1.6-4.086-3.547-7.933C180.974,59.5,180.664,59.915,180.371,60.318Z" transform="translate(-43.141 -16.416)" fill="#e13505"/>
  <path id="Caminho_127" data-name="Caminho 127" d="M182.449,102.079c-3.314,4.558-5.561,7.353-9.892,7.353s-6.576-2.8-9.885-7.353c-3.393-4.66-7.612-10.467-16.015-10.467s-12.629,5.807-16.022,10.467c-3.316,4.558-5.568,7.353-9.9,7.353s-6.581-2.8-9.9-7.353c-2.226-3.06-4.837-6.579-8.725-8.661a15.1,15.1,0,0,0-7.294-1.806h0c-8.407,0-12.627,5.807-16.017,10.467-3.314,4.558-5.561,7.353-9.892,7.353s-6.576-2.8-9.885-7.353c-2.38-3.273-5.2-7.066-9.562-9.064a92.734,92.734,0,0,0,8.356,19.413,15.464,15.464,0,0,0,11.09,4.578c8.41,0,12.629-5.807,16.02-10.47,3.314-4.558,5.563-7.346,9.89-7.348a7.745,7.745,0,0,1,3.74.918c2.193,1.164,3.94,3.393,6.148,6.43,3.393,4.663,7.612,10.47,16.015,10.47v0l.013,0c8.413,0,12.632-5.807,16.028-10.47,3.314-4.558,5.563-7.348,9.9-7.348s6.576,2.79,9.885,7.348c3.391,4.663,7.612,10.47,16.015,10.47a15.175,15.175,0,0,0,6.586-1.467,91.737,91.737,0,0,0,9.631-20.577A34.3,34.3,0,0,0,182.449,102.079Z" transform="translate(-45.219 48.932)" fill="#e13505"/>
</svg>
