<svg xmlns="http://www.w3.org/2000/svg" width="629" height="121.755" viewBox="0 0 629 121.755">
  <g id="Grupo_90" data-name="Grupo 90" transform="translate(0)">
    <path id="Caminho_135" data-name="Caminho 135" d="M238.268,263.035q-13.262-9.552-39.381-9.554-26.019,0-39.282,9.554T146.343,292.3q0,19.717,13.262,29.271t39.282,9.551q26.119,0,39.381-9.551T251.533,292.3q0-19.718-13.265-29.269m-21.494,43.447q-6,4.931-17.887,4.929t-17.836-4.929Q175.1,301.551,175.1,292.3t5.947-14.176Q187,273.2,198.887,273.2t17.887,4.931q6,4.927,6,14.176t-6,14.179" transform="translate(-42.541 -232.748)" fill="#fff"/>
    <path id="Caminho_136" data-name="Caminho 136" d="M190.995,262.963q-10.115-8.484-30.746-8.487H105.675v72.565h54.573q20.736,0,30.8-8.487t10.062-27.8q0-19.308-10.113-27.8m-23.477,40.806q-4.832,4.066-14.179,4.066H131.893V273.686h21.445q9.35,0,14.179,4.063t4.827,13.01q0,8.947-4.827,13.01" transform="translate(-105.675 -231.203)" fill="#fff"/>
    <path id="Caminho_137" data-name="Caminho 137" d="M223.977,254.476l-36.995,72.565h28.763l5.181-10.57h40.754l5.082,10.57h28.763l-36.589-72.565Zm5.386,44.514,11.588-23.781h.607l11.588,23.781Z" transform="translate(20.547 -231.203)" fill="#fff"/>
    <path id="Caminho_138" data-name="Caminho 138" d="M299.99,298.1a13.452,13.452,0,0,1-5.488,9.554q-4.878,3.76-14.026,3.76-11.183,0-16.971-4.98T257.712,292.3q0-9.147,5.794-14.125t16.971-4.982a26.976,26.976,0,0,1,10.368,1.779,17,17,0,0,1,6.555,4.472,11,11,0,0,1,2.693,5.539h31.1q-.406-15.345-13.211-23.426t-37.4-8.078q-51.629,0-51.628,38.822,0,36.8,46.546,38.723l-5.488,5.59V341.7h.712a42.7,42.7,0,0,1,4.574-.559q3.048-.256,5.386-.255a18.388,18.388,0,0,1,5.59.61,2.183,2.183,0,0,1,0,4.27,18.491,18.491,0,0,1-5.59.608,70.028,70.028,0,0,1-8.436-.457,42.218,42.218,0,0,1-7.621-1.677h-.712v8.436a72.261,72.261,0,0,0,17.683,1.83q13.113,0,18.9-2.44t5.794-8.436q0-10.364-16.871-10.365a19.366,19.366,0,0,0-4.878.406l2.642-2.744q21.647-1.018,32.778-9.35T331.395,298.1Z" transform="translate(85.701 -232.748)" fill="#fff"/>
    <path id="Caminho_139" data-name="Caminho 139" d="M305.923,254.476l-36.995,72.565h28.763l5.181-10.57h40.754l5.082,10.57h28.763l-36.589-72.565Zm5.386,44.514,11.585-23.781h.61l11.585,23.781Z" transform="translate(147.762 -231.203)" fill="#fff"/>
    <path id="Caminho_140" data-name="Caminho 140" d="M308,248q-4.368-1.321-7.216-1.981a24.609,24.609,0,0,0-5.59-.661,15.806,15.806,0,0,0-7.621,1.981,15.506,15.506,0,0,0-6,5.945,18.467,18.467,0,0,0-2.341,9.556H295.4a4.524,4.524,0,0,1,.763-2.7,3.209,3.209,0,0,1,2.489-.761,13.949,13.949,0,0,1,3.507.607q2.182.613,4.523,1.322,4.165,1.325,7.063,1.981a24.686,24.686,0,0,0,5.539.661,16.1,16.1,0,0,0,7.673-1.981,15.771,15.771,0,0,0,6.1-5.947,18.157,18.157,0,0,0,2.389-9.551H319.285a4.55,4.55,0,0,1-.763,2.693,3.212,3.212,0,0,1-2.489.763,13.713,13.713,0,0,1-3.507-.613Q310.34,248.711,308,248" transform="translate(163.771 -245.358)" fill="#fff"/>
    <path id="Caminho_141" data-name="Caminho 141" d="M402.821,263.035q-13.262-9.552-39.381-9.554-26.019,0-39.282,9.554T310.9,292.3q0,19.717,13.262,29.271t39.282,9.551q26.119,0,39.381-9.551T416.086,292.3q0-19.718-13.265-29.269m-21.494,43.447q-6,4.931-17.887,4.929T345.6,306.482q-5.946-4.931-5.947-14.179t5.947-14.176q5.946-4.931,17.836-4.931t17.887,4.931q6,4.927,6,14.176t-6,14.179" transform="translate(212.914 -232.748)" fill="#fff"/>
  </g>
</svg>
