<svg xmlns="http://www.w3.org/2000/svg" width="396.447" height="68.814" viewBox="0 0 396.447 68.814">
  <g id="Grupo_87" data-name="Grupo 87" transform="translate(-31.319 -147.967)">
    <g id="Grupo_52" data-name="Grupo 52" transform="translate(31.319 182.994)">
      <path id="Caminho_163" data-name="Caminho 163" d="M633.36,366.882c-4.2-.827-6.3-2.973-2.1-3.964,3.145-.66,8.392-1.982,14.688-1.32a45.049,45.049,0,0,0,11.542,0c5.247-.333,10.493-.333,15.74-.167,3.151.167,14.169-.166,20.984-.66,4.2-.33,8.4-.166,12.068-.166,2.1.166,4.2.166,5.771.166,3.149,0,7.871,0,9.968,1.154,1.577.333,3.151.993,3.151,1.487,1.05,1.156-1.05,1.816-5.772,2.809v-.167h-1.575c-4.719,0-9.441.332-14.688.5l-14.167.494c-3.67,0-5.771,0-7.867-.164-3.149-.166-7.348-.33-19.938-.166-2.1,0-4.2.166-6.3.33-2.62.166-5.246.166-7.867.33a65.146,65.146,0,0,1-13.642-.494" transform="translate(-628.974 -359.975)" fill="#fff"/>
      <path id="Caminho_164" data-name="Caminho 164" d="M656.735,366.48c-4.2-.827-6.3-2.973-2.1-3.964,3.145-.66,8.392-1.982,14.688-1.32a44.912,44.912,0,0,0,11.542,0c5.247-.333,10.493-.333,15.74-.167,3.151.167,14.169-.166,20.984-.66,4.2-.33,8.4-.164,12.068-.164,2.1.164,4.2.164,5.771.164,3.149,0,7.871,0,9.968,1.156,1.577.332,3.151.992,3.151,1.486,1.05,1.156-1.05,1.817-5.772,2.809v-.167H741.2c-4.719,0-9.441.331-14.688.5l-14.167.5c-3.67,0-5.771,0-7.867-.166-3.149-.166-7.348-.33-19.938-.166-2.1,0-4.2.166-6.3.332-2.62.164-5.246.164-7.867.33a65.247,65.247,0,0,1-13.642-.5" transform="translate(-618.06 -360.163)" fill="#fff"/>
    </g>
    <g id="Grupo_53" data-name="Grupo 53" transform="translate(297.011 182.994)">
      <path id="Caminho_165" data-name="Caminho 165" d="M814.485,366.882c-4.2-.827-6.3-2.973-2.1-3.964,3.145-.66,8.392-1.982,14.688-1.32a45.06,45.06,0,0,0,11.543,0c5.246-.333,10.493-.333,15.738-.167,3.151.167,14.169-.166,20.986-.66,4.2-.33,8.4-.166,12.067-.166,2.1.166,4.2.166,5.771.166,3.149,0,7.871,0,9.968,1.154,1.577.333,3.151.993,3.151,1.487,1.05,1.156-1.05,1.816-5.772,2.809v-.167h-1.574c-4.72,0-9.442.332-14.69.5l-14.167.494c-3.67,0-5.771,0-7.867-.164-3.15-.166-7.348-.33-19.938-.166-2.1,0-4.2.166-6.3.33-2.62.166-5.246.166-7.867.33a65.147,65.147,0,0,1-13.642-.494" transform="translate(-810.099 -359.975)" fill="#fff"/>
      <path id="Caminho_166" data-name="Caminho 166" d="M837.86,366.48c-4.2-.827-6.3-2.973-2.1-3.964,3.145-.66,8.392-1.982,14.688-1.32a44.923,44.923,0,0,0,11.543,0c5.246-.333,10.493-.333,15.738-.167,3.151.167,14.169-.166,20.985-.66,4.2-.33,8.4-.164,12.067-.164,2.1.164,4.2.164,5.771.164,3.149,0,7.871,0,9.968,1.156,1.577.332,3.151.992,3.151,1.486,1.05,1.156-1.05,1.817-5.772,2.809v-.167h-1.574c-4.721,0-9.442.331-14.69.5l-14.167.5c-3.67,0-5.771,0-7.867-.166-3.15-.166-7.348-.33-19.938-.166-2.1,0-4.2.166-6.3.332-2.62.164-5.246.164-7.867.33a65.249,65.249,0,0,1-13.642-.5" transform="translate(-799.185 -360.163)" fill="#fff"/>
    </g>
    <rect id="Ret창ngulo_11" data-name="Ret창ngulo 11" width="81.848" height="27.952" transform="translate(191.099 147.967)" fill="#fff"/>
    <rect id="Ret창ngulo_12" data-name="Ret창ngulo 12" width="81.848" height="27.953" transform="translate(191.099 188.829)" fill="#fff"/>
  </g>
</svg>
