<svg xmlns="http://www.w3.org/2000/svg" width="396.848" height="98.109" viewBox="0 0 396.848 98.109">
  <g id="Grupo_57" data-name="Grupo 57" transform="translate(0)">
    <g id="Grupo_54" data-name="Grupo 54">
      <path id="Caminho_167" data-name="Caminho 167" d="M656.078,469.527h76.841l-3.155,16.464H628.087l.549-3.155a41.734,41.734,0,0,1,8.232-19.073,48.776,48.776,0,0,1,14.478-12.281,123.334,123.334,0,0,1,19.414-8.439l26.894-9.743q11.525-4.117,16.878-8.643a12.871,12.871,0,0,0,4.8-9.881q0-5.763-5.627-8.163t-15.916-2.4q-12.9,0-21.474,4.939a24.759,24.759,0,0,0-11.594,14.682H640.848q3.84-18.111,18.8-27.032,14.54-8.916,39.929-8.919,21.128,0,32.383,5.422t11.251,18.179a29.946,29.946,0,0,1-10.84,23.739,49.778,49.778,0,0,1-11.182,7.135,121.018,121.018,0,0,1-15.025,5.763L674.74,458.549Q659.371,463.627,656.078,469.527Z" transform="translate(-628.087 -387.882)" fill="#fff"/>
    </g>
    <g id="Grupo_55" data-name="Grupo 55" transform="translate(124.748 21.59)">
      <path id="Caminho_168" data-name="Caminho 168" d="M744.824,431.629h-9.975l-4.338-7.172h-8.775v7.172h-8.608v-23.82h21.487q5.136,0,7.373,1.969t2.234,6.005a6.989,6.989,0,0,1-1.335,4.637,6.8,6.8,0,0,1-3.8,2.134v.3ZM734.048,418.2a2.647,2.647,0,0,0,0-3.437,3.013,3.013,0,0,0-2-.55H721.737v4.537h10.309A3.012,3.012,0,0,0,734.048,418.2Z" transform="translate(-713.129 -400.168)" fill="#fff"/>
      <path id="Caminho_169" data-name="Caminho 169" d="M744.981,416.85h17.65v5.171h-17.65v3.837h18.784v5.771H736.373v-23.82h27.059v5.637H744.981Z" transform="translate(-702.276 -400.168)" fill="#fff"/>
      <path id="Caminho_170" data-name="Caminho 170" d="M765.836,414.08v4.17h17.716v5.8H765.836v7.574h-8.608v-23.82h27.19v6.271Z" transform="translate(-692.539 -400.168)" fill="#fff"/>
      <path id="Caminho_171" data-name="Caminho 171" d="M786.4,416.85h17.648v5.171H786.4v3.837H805.18v5.771H777.788v-23.82h27.058v5.637H786.4Z" transform="translate(-682.94 -400.168)" fill="#fff"/>
      <path id="Caminho_172" data-name="Caminho 172" d="M798.643,431.629v-23.82h8.608v23.82Z" transform="translate(-673.203 -400.168)" fill="#fff"/>
      <path id="Caminho_173" data-name="Caminho 173" d="M836.411,429.593q-3.652,2.735-10.758,3.07l-.868.9a6.314,6.314,0,0,1,1.6-.134q5.536,0,5.538,3.4a2.809,2.809,0,0,1-1.9,2.768,17.318,17.318,0,0,1-6.205.8,23.814,23.814,0,0,1-5.806-.6v-2.77h.233a13.817,13.817,0,0,0,2.5.55,22.823,22.823,0,0,0,2.77.151,6.023,6.023,0,0,0,1.835-.2.716.716,0,0,0,0-1.4,6.023,6.023,0,0,0-1.835-.2q-.768,0-1.768.084a14.7,14.7,0,0,0-1.5.183h-.233V434.53l1.8-1.835q-15.279-.634-15.279-12.711,0-12.745,16.949-12.744,8.073,0,12.276,2.652a8.849,8.849,0,0,1,4.338,7.691h-10.21a3.585,3.585,0,0,0-.883-1.819,5.575,5.575,0,0,0-2.152-1.468,8.882,8.882,0,0,0-3.4-.584,8.328,8.328,0,0,0-5.573,1.636,6.605,6.605,0,0,0,0,9.274,8.32,8.32,0,0,0,5.573,1.636,7.409,7.409,0,0,0,4.6-1.235,4.416,4.416,0,0,0,1.8-3.136h10.308A9.313,9.313,0,0,1,836.411,429.593Z" transform="translate(-669.518 -400.434)" fill="#fff"/>
      <path id="Caminho_174" data-name="Caminho 174" d="M861.251,412.541q4.352,3.138,4.354,9.61t-4.354,9.608Q856.9,434.9,848.321,434.9q-8.54,0-12.894-3.136t-4.352-9.608q0-6.471,4.352-9.61t12.894-3.135Q856.9,409.406,861.251,412.541Zm-10.843-4.052q-.948-.218-2.319-.651-.765-.233-1.484-.434a4.579,4.579,0,0,0-1.15-.2,1.046,1.046,0,0,0-.817.251,1.481,1.481,0,0,0-.251.883h-5.3a6.064,6.064,0,0,1,.767-3.136,5.109,5.109,0,0,1,1.969-1.952,5.194,5.194,0,0,1,2.5-.65,8.153,8.153,0,0,1,1.835.217q.933.218,2.368.651.768.233,1.486.434a4.493,4.493,0,0,0,1.15.2,1.066,1.066,0,0,0,.819-.248,1.506,1.506,0,0,0,.248-.885h5.306a5.974,5.974,0,0,1-.783,3.136,5.2,5.2,0,0,1-2,1.951,5.274,5.274,0,0,1-2.52.65A8.228,8.228,0,0,1,850.407,408.49Zm3.786,18.316a6.487,6.487,0,0,0,0-9.309q-1.967-1.617-5.872-1.618t-5.854,1.618a6.527,6.527,0,0,0,0,9.309q1.952,1.617,5.854,1.618T854.193,426.805Z" transform="translate(-658.06 -402.6)" fill="#fff"/>
      <path id="Caminho_175" data-name="Caminho 175" d="M865.269,416.85h17.648v5.171H865.269v3.837h18.782v5.771H856.66v-23.82h27.058v5.637H865.269Z" transform="translate(-646.114 -400.168)" fill="#fff"/>
      <path id="Caminho_176" data-name="Caminho 176" d="M896.344,413.212a10.366,10.366,0,0,0-4.087-.634,10.5,10.5,0,0,0-3.9.518,1.642,1.642,0,0,0-1.168,1.517,1.227,1.227,0,0,0,.7,1.168,7.133,7.133,0,0,0,2.4.534l9.708.8a12.372,12.372,0,0,1,6.623,2.1,6.24,6.24,0,0,1,2.218,5.238,6.953,6.953,0,0,1-1.784,5.1,9.9,9.9,0,0,1-5.24,2.485,48.883,48.883,0,0,1-9.123.684,42.853,42.853,0,0,1-8.807-.733,9.866,9.866,0,0,1-5.188-2.636,7.921,7.921,0,0,1-1.952-5.372h10.009a3.42,3.42,0,0,0,1.851,2.62,10.558,10.558,0,0,0,4.421.716,12.184,12.184,0,0,0,4.32-.55,1.82,1.82,0,0,0,1.319-1.718,1.489,1.489,0,0,0-.769-1.4,5.865,5.865,0,0,0-2.3-.568l-9.341-.9a13.829,13.829,0,0,1-6.673-2.036,5.843,5.843,0,0,1-2.234-5.1,6.2,6.2,0,0,1,1.784-4.687,10.239,10.239,0,0,1,5.1-2.42,41.331,41.331,0,0,1,8.325-.7,39.875,39.875,0,0,1,8.272.717,10.542,10.542,0,0,1,5.156,2.485,6.7,6.7,0,0,1,1.951,4.838h-9.909A2.72,2.72,0,0,0,896.344,413.212Z" transform="translate(-636.738 -400.434)" fill="#fff"/>
    </g>
    <g id="Grupo_56" data-name="Grupo 56" transform="translate(125.895 65.632)">
      <path id="Caminho_177" data-name="Caminho 177" d="M726.6,433.9a4.408,4.408,0,0,1,0,5.649,5.124,5.124,0,0,1-3.391.9H717.8v3.3h-3.887V432.986h9.3A5.07,5.07,0,0,1,726.6,433.9Zm-3.24,2.915a1.048,1.048,0,0,0-.315-.844,1.489,1.489,0,0,0-.98-.271H717.8v2.23h4.264Q723.359,437.928,723.358,436.813Z" transform="translate(-713.911 -432.455)" fill="#fff"/>
      <path id="Caminho_178" data-name="Caminho 178" d="M733.788,442.176h-6.042l-.769,1.568h-4.264l5.485-10.758h5.184l5.423,10.758h-4.263Zm-1.266-2.591-1.718-3.525h-.091L729,439.586Z" transform="translate(-709.801 -432.455)" fill="#fff"/>
      <path id="Caminho_179" data-name="Caminho 179" d="M748.778,443.744h-4.5l-1.958-3.239H738.35v3.239h-3.886V432.986h9.7a5.009,5.009,0,0,1,3.331.889,3.433,3.433,0,0,1,1.008,2.712,3.158,3.158,0,0,1-.6,2.095,3.078,3.078,0,0,1-1.718.964v.136Zm-4.867-6.064a1.2,1.2,0,0,0,0-1.553,1.368,1.368,0,0,0-.905-.246H738.35v2.048h4.656A1.368,1.368,0,0,0,743.911,437.68Z" transform="translate(-704.315 -432.455)" fill="#fff"/>
      <path id="Caminho_180" data-name="Caminho 180" d="M755.676,442.176h-6.044l-.767,1.568H744.6l5.485-10.758h5.182l5.425,10.758h-4.264Zm-1.267-2.591-1.718-3.525h-.09l-1.718,3.525Z" transform="translate(-699.582 -432.455)" fill="#fff"/>
      <path id="Caminho_181" data-name="Caminho 181" d="M773.6,434.146a5.769,5.769,0,0,1,0,8.678,12.7,12.7,0,0,1-11.66,0,5.769,5.769,0,0,1,0-8.678,12.7,12.7,0,0,1,11.66,0Zm-3.186,6.44a2.931,2.931,0,0,0,0-4.2,5.164,5.164,0,0,0-5.3,0,2.945,2.945,0,0,0,0,4.2,5.155,5.155,0,0,0,5.3,0Z" transform="translate(-692.403 -432.575)" fill="#fff"/>
      <path id="Caminho_182" data-name="Caminho 182" d="M785.7,432.986v10.758h-4.52l-5.65-6.434h-.089v6.434h-3.692V432.986h4.58l5.576,6.343h.106v-6.343Z" transform="translate(-686.907 -432.455)" fill="#fff"/>
      <path id="Caminho_183" data-name="Caminho 183" d="M797.642,443.864h-2.667v-1.22a4.5,4.5,0,0,1-1.967,1.2,8.928,8.928,0,0,1-2.764.393,10.1,10.1,0,0,1-5.891-1.417,5.762,5.762,0,0,1-.007-8.678,9.929,9.929,0,0,1,5.824-1.417,10.748,10.748,0,0,1,5.5,1.116,3.717,3.717,0,0,1,1.927,3.1h-4.611a1.657,1.657,0,0,0-.776-.874,3.862,3.862,0,0,0-2.04-.421,4.043,4.043,0,0,0-2.645.738,2.6,2.6,0,0,0-.882,2.111q0,2.935,3.647,2.937A5.38,5.38,0,0,0,792,441.2a2.829,2.829,0,0,0,1.016-.543,1.006,1.006,0,0,0,.361-.534h-2.8V437.9h7.066Z" transform="translate(-681.943 -432.575)" fill="#fff"/>
      <path id="Caminho_184" data-name="Caminho 184" d="M802.591,435.427a4.676,4.676,0,0,0-1.845-.287,4.741,4.741,0,0,0-1.763.235.744.744,0,0,0-.528.685.556.556,0,0,0,.317.528,3.233,3.233,0,0,0,1.084.241l4.386.362a5.6,5.6,0,0,1,2.991.948,2.822,2.822,0,0,1,1,2.368,3.135,3.135,0,0,1-.8,2.3,4.484,4.484,0,0,1-2.368,1.122,22.044,22.044,0,0,1-4.119.31,19.4,19.4,0,0,1-3.978-.332,4.474,4.474,0,0,1-2.343-1.19,3.577,3.577,0,0,1-.882-2.428h4.521a1.54,1.54,0,0,0,.835,1.184,4.776,4.776,0,0,0,2,.324,5.533,5.533,0,0,0,1.951-.248.824.824,0,0,0,.6-.777.672.672,0,0,0-.348-.632,2.625,2.625,0,0,0-1.038-.257l-4.219-.406a6.24,6.24,0,0,1-3.013-.92,2.639,2.639,0,0,1-1.009-2.3,2.8,2.8,0,0,1,.805-2.117,4.628,4.628,0,0,1,2.306-1.093,18.6,18.6,0,0,1,3.76-.317,17.939,17.939,0,0,1,3.736.326,4.754,4.754,0,0,1,2.328,1.121,3.028,3.028,0,0,1,.88,2.184h-4.474A1.231,1.231,0,0,0,802.591,435.427Z" transform="translate(-676.639 -432.575)" fill="#fff"/>
      <path id="Caminho_185" data-name="Caminho 185" d="M807.2,434.742l1.212.738-.667.948-.914-.711.009,1.116h-1.22l.007-1.116-.914.711-.659-.948,1.2-.738-1.2-.757.659-.932.914.676-.007-1.106h1.22l-.009,1.106.914-.676.667.932Z" transform="translate(-671.825 -432.624)" fill="#fff"/>
    </g>
  </g>
</svg>
