<svg xmlns="http://www.w3.org/2000/svg" width="479.058" height="111.982" viewBox="0 0 479.058 111.982">
  <g id="Grupo_88" data-name="Grupo 88" transform="translate(-74.97)">
    <path id="Caminho_128" data-name="Caminho 128" d="M204.865,204.355l-34.031,66.756h26.458l4.771-9.725H239.55l4.676,9.725h26.458l-33.656-66.756Zm4.957,40.951,10.656-21.877h.562L231.7,245.306Z" transform="translate(-4.521 -182.945)" fill="#fff"/>
    <path id="Caminho_130" data-name="Caminho 130" d="M222.284,268.691l-14.5-22.17v-.84q6.918-1.593,10.659-5.985t3.739-12.994q0-11.31-6.266-16.828t-20.659-5.518H135.047v66.753H159.17v-20.1h24.587l12.155,20.1h26a5.055,5.055,0,0,1,.368-2.417m-28.615-35.213q-1.776,1.543-5.61,1.542H159.17V222.306h28.888q3.832,0,5.61,1.542a7.414,7.414,0,0,1,0,9.63" transform="translate(-60.077 -182.945)" fill="#fff"/>
    <path id="Caminho_131" data-name="Caminho 131" d="M244.5,295.314a70.432,70.432,0,0,0,11.381,1.034c.018-.031.036-.056.056-.092l.033-.056.038-.056a7.079,7.079,0,0,1,1.256-1.348c.082-.074.161-.138.22-.2l.066-.069.071-.059a4.877,4.877,0,0,1,3.16-1.35,4.1,4.1,0,0,1,1.884.467h.485l.717.72,1.023,1.021.717.717v.033a32.773,32.773,0,0,0,9.653-1.953q5.329-2.244,5.329-7.762,0-9.533-15.521-9.536a17.723,17.723,0,0,0-4.487.375l2.432-2.524q19.913-.938,30.152-8.6t10.516-21.6H274.793a12.386,12.386,0,0,1-5.049,8.791q-4.487,3.461-12.9,3.458-10.284,0-15.613-4.582T235.9,239.153q0-8.415,5.329-12.994t15.613-4.582a24.846,24.846,0,0,1,9.536,1.634,15.645,15.645,0,0,1,6.031,4.114,10.131,10.131,0,0,1,2.478,5.095H303.5q-.375-14.112-12.155-21.55t-34.4-7.43q-47.494,0-47.5,35.713,0,33.849,42.819,35.622l-5.049,5.14v4.674h.656a40.536,40.536,0,0,1,4.206-.513q2.806-.234,4.954-.232a16.96,16.96,0,0,1,5.143.559,2.008,2.008,0,0,1,0,3.928,16.858,16.858,0,0,1-5.143.561,64.639,64.639,0,0,1-7.759-.421,37.442,37.442,0,0,1-5.038-.978c.061.3.117.587.166.868a24.6,24.6,0,0,1,.1,6.953" transform="translate(55.413 -184.366)" fill="#fff"/>
    <path id="Caminho_132" data-name="Caminho 132" d="M280.248,204.355l-34.031,66.756h26.458l4.768-9.725h37.49l4.676,9.725h26.458l-33.659-66.756Zm4.954,40.951,10.659-21.877h.559l10.659,21.877Z" transform="translate(112.505 -182.945)" fill="#fff"/>
    <path id="Caminho_133" data-name="Caminho 133" d="M271.273,209.571a2.955,2.955,0,0,1,2.29-.7,12.669,12.669,0,0,1,3.226.562q2.006.563,4.158,1.215,3.832,1.218,6.5,1.822a22.73,22.73,0,0,0,5.1.607,14.8,14.8,0,0,0,7.057-1.822,14.523,14.523,0,0,0,5.61-5.47,16.732,16.732,0,0,0,2.2-8.788H292.542a4.211,4.211,0,0,1-.7,2.478,2.959,2.959,0,0,1-2.289.7,12.725,12.725,0,0,1-3.226-.559q-2.014-.563-4.16-1.215-4.024-1.214-6.639-1.822a22.652,22.652,0,0,0-5.141-.61,14.546,14.546,0,0,0-7.014,1.825,14.283,14.283,0,0,0-5.516,5.47,16.986,16.986,0,0,0-2.152,8.785h14.868a4.136,4.136,0,0,1,.7-2.476" transform="translate(127.231 -195.967)" fill="#fff"/>
    <path id="Caminho_134" data-name="Caminho 134" d="M297.025,266.079q12.2,8.79,36.135,8.79,24.025,0,36.229-8.79t12.2-26.925q0-18.136-12.2-26.926t-36.229-8.788q-23.936,0-36.135,8.788t-12.2,26.926q0,18.14,12.2,26.925m19.728-39.968q5.467-4.533,16.407-4.533t16.456,4.533q5.513,4.537,5.516,13.043T349.615,252.2q-5.521,4.537-16.456,4.533T316.752,252.2q-5.471-4.533-5.47-13.043t5.47-13.043" transform="translate(172.439 -184.366)" fill="#fff"/>
  </g>
</svg>
