<svg id="Componente_13_1" data-name="Componente 13 – 1" xmlns="http://www.w3.org/2000/svg" width="127.155" height="110.5" viewBox="0 0 127.155 110.5">
  <path id="Caminho_233" data-name="Caminho 233" d="M206.209,729.7a35.813,35.813,0,0,1-11.6,0l-3.561-.667v20.389a7.315,7.315,0,0,0,5.968,7.188l3.394.635,3.393-.635a7.314,7.314,0,0,0,5.966-7.187V729.032Z" transform="translate(-137.91 -646.744)" fill="#ec6600"/>
  <path id="Caminho_234" data-name="Caminho 234" d="M239.874,674.25v56.092c-7.787,8.859-16.1,14.122-24.169,16.549-3.68,1.107-7.312-7.173-10.822-7.171-4.152,0-8.136,8.073-11.831,6.745a35.092,35.092,0,0,1-16.505-12.407c-.232-.338-.462-.656-.692-.991a33.376,33.376,0,0,1-2.158-3.682,34.618,34.618,0,0,1-3.8-15.871c0-.813.034-1.611.088-2.406h-.088V674.25Z" transform="translate(-142.743 -659.257)" fill="#fffdfe"/>
  <path id="Caminho_235" data-name="Caminho 235" d="M169.888,715.956v32.126h17.678c9.763,0,17.676-6.955,17.676-15.536v-16.59Z" transform="translate(-142.744 -649.73)" fill="#fffdfe"/>
  <path id="Caminho_236" data-name="Caminho 236" d="M233.44,715.956v32.126H215.762c-9.764,0-17.677-6.955-17.677-15.536v-16.59Z" transform="translate(-136.303 -649.73)" fill="#fffdfe"/>
  <path id="Caminho_237" data-name="Caminho 237" d="M207.994,724.4a8.109,8.109,0,1,1-8.11-8.109,8.109,8.109,0,0,1,8.11,8.109" transform="translate(-137.744 -649.654)" fill="#0091a2"/>
  <path id="Caminho_238" data-name="Caminho 238" d="M206,675.668v25.8a28.2,28.2,0,0,1-23.021,27.727l-8.546,1.609-4.548.851V668.042h24.524a38.828,38.828,0,0,1-.759,7.626Z" transform="translate(-142.744 -660.675)" fill="#e54700"/>
  <path id="Caminho_239" data-name="Caminho 239" d="M202.446,662.045v39.4H147.791l2.808-14.994a29.9,29.9,0,0,1,27.934-24.34l-.016-.069Z" transform="translate(-147.791 -662.045)" fill="#e54700"/>
  <path id="Caminho_240" data-name="Caminho 240" d="M206.81,662.045v39.4h54.655l-2.807-14.994a29.9,29.9,0,0,0-27.934-24.34l.016-.069Z" transform="translate(-134.31 -662.045)" fill="#fffdfe"/>
</svg>
