<svg xmlns="http://www.w3.org/2000/svg" width="347.157" height="142.671" viewBox="0 0 347.157 142.671">
  <g id="Grupo_51" data-name="Grupo 51" transform="translate(0 0)">
    <g id="Grupo_48" data-name="Grupo 48">
      <path id="Caminho_146" data-name="Caminho 146" d="M696.4,378.085H664.221l18.859-97.368h-45.1l4.3-22.753H650.9q18.241,0,28.9-5.637A39.316,39.316,0,0,0,696.4,235.414h27.672Z" transform="translate(-637.984 -235.414)" fill="#fff"/>
    </g>
    <g id="Grupo_49" data-name="Grupo 49" transform="translate(93.971 28.355)">
      <path id="Caminho_147" data-name="Caminho 147" d="M749.392,298.111h-14.9l-6.479-10.716H714.9v10.716H702.045V262.525h32.1q7.675,0,11.015,2.94t3.339,8.972q0,4.586-1.992,6.928a10.172,10.172,0,0,1-5.683,3.189V285Zm-16.1-20.06a3.956,3.956,0,0,0,0-5.134,4.5,4.5,0,0,0-2.991-.823H714.9v6.779h15.4A4.507,4.507,0,0,0,733.294,278.051Z" transform="translate(-702.045 -251.111)" fill="#fff"/>
      <path id="Caminho_148" data-name="Caminho 148" d="M771.462,292.927H751.477l-2.541,5.184H734.831l18.141-35.586h17.145l17.942,35.586h-14.1Zm-4.187-8.571-5.681-11.663h-.3l-5.681,11.663Z" transform="translate(-686.737 -251.111)" fill="#fff"/>
      <path id="Caminho_149" data-name="Caminho 149" d="M814.934,295.069q-5.457,4.086-16.073,4.584l-1.3,1.347a9.5,9.5,0,0,1,2.392-.2q8.271,0,8.273,5.086a4.2,4.2,0,0,1-2.841,4.137q-2.84,1.195-9.269,1.2a35.357,35.357,0,0,1-8.672-.9v-4.137h.348a20.687,20.687,0,0,0,3.739.823,34.734,34.734,0,0,0,4.135.226,8.945,8.945,0,0,0,2.742-.3,1.069,1.069,0,0,0,0-2.092,8.948,8.948,0,0,0-2.742-.3q-1.144,0-2.64.126a21.886,21.886,0,0,0-2.243.271h-.349v-2.489l2.692-2.743q-22.826-.948-22.826-18.988,0-19.04,25.319-19.04,12.06,0,18.341,3.962a13.228,13.228,0,0,1,6.479,11.49H805.19a5.394,5.394,0,0,0-1.32-2.718,8.334,8.334,0,0,0-3.215-2.193,13.225,13.225,0,0,0-5.083-.871q-5.486,0-8.323,2.442a9.865,9.865,0,0,0,0,13.855q2.841,2.442,8.323,2.441,4.484,0,6.877-1.842a6.6,6.6,0,0,0,2.692-4.685h15.4Q820.392,290.982,814.934,295.069Z" transform="translate(-670.175 -251.508)" fill="#fff"/>
      <path id="Caminho_150" data-name="Caminho 150" d="M840.672,296.559H820.687l-2.541,5.184H804.041l18.143-35.586h17.144l17.942,35.586h-14.1Zm-6.8-33.018q-1.419-.324-3.463-.971-1.146-.35-2.218-.648a6.762,6.762,0,0,0-1.719-.3,1.573,1.573,0,0,0-1.222.374,2.225,2.225,0,0,0-.373,1.32H816.95a9.073,9.073,0,0,1,1.146-4.685,7.617,7.617,0,0,1,2.941-2.915,7.739,7.739,0,0,1,3.738-.973,12.114,12.114,0,0,1,2.74.324q1.4.326,3.54.971,1.146.35,2.218.648a6.756,6.756,0,0,0,1.719.3,1.579,1.579,0,0,0,1.222-.374,2.26,2.26,0,0,0,.374-1.32h7.923a8.9,8.9,0,0,1-1.171,4.684,7.73,7.73,0,0,1-2.991,2.916,7.879,7.879,0,0,1-3.761.973A12.16,12.16,0,0,1,833.869,263.541Zm2.617,24.447L830.8,276.325h-.3l-5.681,11.663Z" transform="translate(-654.423 -254.744)" fill="#fff"/>
      <path id="Caminho_151" data-name="Caminho 151" d="M884.559,266.36q6.5,4.687,6.5,14.355t-6.5,14.354q-6.5,4.685-19.313,4.684-12.76,0-19.263-4.684t-6.5-14.354q0-9.671,6.5-14.355t19.263-4.685Q878.056,261.675,884.559,266.36Zm-10.541,21.307a9.69,9.69,0,0,0,0-13.906q-2.942-2.416-8.772-2.416t-8.747,2.416a9.751,9.751,0,0,0,0,13.906q2.918,2.418,8.747,2.416T874.017,287.667Z" transform="translate(-637.877 -251.508)" fill="#fff"/>
    </g>
    <g id="Grupo_50" data-name="Grupo 50" transform="translate(96.523 94.382)">
      <path id="Caminho_152" data-name="Caminho 152" d="M717.009,303.783a7,7,0,0,0-2.756-.427,7.111,7.111,0,0,0-2.635.349,1.113,1.113,0,0,0-.788,1.024.83.83,0,0,0,.472.788,4.831,4.831,0,0,0,1.622.359l6.55.54a8.374,8.374,0,0,1,4.468,1.419,4.214,4.214,0,0,1,1.5,3.534,4.687,4.687,0,0,1-1.2,3.444,6.669,6.669,0,0,1-3.534,1.678,33.142,33.142,0,0,1-6.157.461,28.855,28.855,0,0,1-5.941-.5,6.64,6.64,0,0,1-3.5-1.778,5.343,5.343,0,0,1-1.319-3.623h6.754a2.306,2.306,0,0,0,1.248,1.768,7.154,7.154,0,0,0,2.984.483,8.205,8.205,0,0,0,2.915-.371,1.228,1.228,0,0,0,.888-1.159,1,1,0,0,0-.516-.946,3.951,3.951,0,0,0-1.553-.383l-6.3-.607a9.319,9.319,0,0,1-4.5-1.373,3.947,3.947,0,0,1-1.508-3.444,4.176,4.176,0,0,1,1.2-3.161,6.893,6.893,0,0,1,3.444-1.631,27.812,27.812,0,0,1,5.615-.474,27.01,27.01,0,0,1,5.581.483,7.118,7.118,0,0,1,3.478,1.678,4.509,4.509,0,0,1,1.316,3.264h-6.685A1.834,1.834,0,0,0,717.009,303.783Z" transform="translate(-703.785 -299.755)" fill="#fff"/>
      <path id="Caminho_153" data-name="Caminho 153" d="M725.995,306.237H737.9v3.49H725.995v2.589h12.671v3.893H720.189V300.138h18.253v3.805H725.995Z" transform="translate(-696.126 -299.576)" fill="#fff"/>
      <path id="Caminho_154" data-name="Caminho 154" d="M749.249,305.505a3.762,3.762,0,0,0-1.451-.99,6,6,0,0,0-2.3-.393,5.619,5.619,0,0,0-3.758,1.1,4.457,4.457,0,0,0,0,6.256,5.619,5.619,0,0,0,3.758,1.1,5.009,5.009,0,0,0,3.108-.833,2.986,2.986,0,0,0,1.215-2.115h6.955a6.306,6.306,0,0,1-2.925,5.469q-2.836,1.846-8.329,1.847-11.433,0-11.434-8.6t11.434-8.6q5.448,0,8.282,1.79a5.969,5.969,0,0,1,2.928,5.187h-6.889A2.43,2.43,0,0,0,749.249,305.505Z" transform="translate(-689.635 -299.755)" fill="#fff"/>
      <path id="Caminho_155" data-name="Caminho 155" d="M766.209,313.868h-9.026l-1.149,2.341h-6.369l8.193-16.071H765.6l8.1,16.071h-6.371ZM764.319,310l-2.567-5.266h-.135L759.052,310Z" transform="translate(-682.364 -299.576)" fill="#fff"/>
      <path id="Caminho_156" data-name="Caminho 156" d="M783.351,310.134h.135l4.5-10h6.843l-8.012,16.071h-6.752l-8.013-16.071h6.821Z" transform="translate(-671.912 -299.576)" fill="#fff"/>
      <path id="Caminho_157" data-name="Caminho 157" d="M794.506,306.237h11.907v3.49H794.506v2.589h12.671v3.893H788.7V300.138h18.253v3.805H794.506Z" transform="translate(-664.138 -299.576)" fill="#fff"/>
      <path id="Caminho_158" data-name="Caminho 158" d="M823.934,300.138v16.071h-6.751l-8.442-9.611h-.135v9.611h-5.514V300.138h6.841l8.329,9.476h.157v-9.476Z" transform="translate(-657.419 -299.576)" fill="#fff"/>
      <path id="Caminho_159" data-name="Caminho 159" d="M838.16,302.017q2.238,1.881,2.24,6.158t-2.228,6.155q-2.229,1.879-6.821,1.879H819.265V300.138h12.086Q835.919,300.138,838.16,302.017Zm-13.089,2.376v7.562h4.75a4.768,4.768,0,0,0,3.141-.9,4.42,4.42,0,0,0,0-5.762,4.767,4.767,0,0,0-3.141-.9Z" transform="translate(-649.867 -299.576)" fill="#fff"/>
      <path id="Caminho_160" data-name="Caminho 160" d="M835.375,316.209V300.138h5.806v16.071Z" transform="translate(-642.346 -299.576)" fill="#fff"/>
      <path id="Caminho_161" data-name="Caminho 161" d="M860.193,302.017q2.24,1.881,2.24,6.158T860.2,314.33q-2.229,1.879-6.821,1.879H841.3V300.138h12.086Q857.954,300.138,860.193,302.017ZM847.1,304.394v7.562h4.75a4.768,4.768,0,0,0,3.141-.9,4.415,4.415,0,0,0,0-5.762,4.767,4.767,0,0,0-3.141-.9Z" transform="translate(-639.58 -299.576)" fill="#fff"/>
      <path id="Caminho_162" data-name="Caminho 162" d="M872.2,313.868h-9.026l-1.149,2.341h-6.369l8.193-16.071H871.6l8.1,16.071h-6.371ZM870.313,310l-2.567-5.266h-.135L865.046,310Z" transform="translate(-632.875 -299.576)" fill="#fff"/>
    </g>
  </g>
</svg>
