<svg id="Componente_15_1" data-name="Componente 15 – 1" xmlns="http://www.w3.org/2000/svg" width="299.865" height="412.363" viewBox="0 0 299.865 412.363">
  <path id="Caminho_187" data-name="Caminho 187" d="M701.813,629.05h-5.058V468.6a62.526,62.526,0,0,1,62.451-62.459h94.346a57.461,57.461,0,0,0,57.4-57.4V218.457h5.058V348.746A62.526,62.526,0,0,1,853.552,411.2H759.206a57.461,57.461,0,0,0-57.393,57.4Z" transform="translate(-653.178 -218.457)" fill="#61bcc3"/>
  <path id="Caminho_188" data-name="Caminho 188" d="M875.265,630.82h-5.058a60.921,60.921,0,0,0-60.85-60.852H801.6a65.987,65.987,0,0,1-65.91-65.912v-285.6h5.058v285.6A60.923,60.923,0,0,0,801.6,564.907h7.752A65.985,65.985,0,0,1,875.265,630.82Z" transform="translate(-607.658 -218.457)" fill="#61bcc3"/>
  <path id="Caminho_189" data-name="Caminho 189" d="M703.123,364.528l-17.445-18.064a11.972,11.972,0,0,1-1.148-15.253l1.939-2.729,1.594-2.247,17.248,17.86a12.315,12.315,0,0,1,1.18,15.693Z" transform="translate(-670.057 -92.46)" fill="#61bcc3"/>
  <path id="Caminho_190" data-name="Caminho 190" d="M707.262,395.7l-25.634-26.542a17.6,17.6,0,0,1-1.687-22.413l2.85-4.008,2.345-3.3,25.343,26.241a18.1,18.1,0,0,1,1.733,23.057Z" transform="translate(-676.635 -77.032)" fill="#61bcc3"/>
  <path id="Caminho_191" data-name="Caminho 191" d="M709.044,400.646l21.929-22.705a15.054,15.054,0,0,0,1.443-19.174l-2.438-3.429-2-2.822-21.68,22.449a15.474,15.474,0,0,0-1.483,19.723Z" transform="translate(-647.109 -61.739)" fill="#61bcc3"/>
  <path id="Caminho_192" data-name="Caminho 192" d="M706.711,373.192,721.43,357.95a10.1,10.1,0,0,0,.967-12.867l-1.635-2.3-1.347-1.894-14.55,15.068a10.391,10.391,0,0,0-1,13.24Z" transform="translate(-647.108 -75.334)" fill="#61bcc3"/>
  <path id="Caminho_193" data-name="Caminho 193" d="M748.234,387.032l21.929-22.705a15.054,15.054,0,0,0,1.443-19.174l-2.438-3.429-2-2.822-21.68,22.45A15.479,15.479,0,0,0,744,381.076Z" transform="translate(-601.294 -77.654)" fill="#61bcc3"/>
  <path id="Caminho_194" data-name="Caminho 194" d="M745.9,360.388l14.719-15.242a10.1,10.1,0,0,0,.967-12.867l-1.636-2.3-1.347-1.894-14.55,15.068a10.391,10.391,0,0,0-1,13.24Z" transform="translate(-601.295 -90.302)" fill="#61bcc3"/>
  <path id="Caminho_195" data-name="Caminho 195" d="M806.653,292.244l21.929-22.705a15.054,15.054,0,0,0,1.44-19.174l-2.438-3.429-2-2.822L803.9,266.562a15.476,15.476,0,0,0-1.486,19.725Z" transform="translate(-533.001 -188.464)" fill="#61bcc3"/>
  <path id="Caminho_196" data-name="Caminho 196" d="M804.319,265.6l14.719-15.242a10.1,10.1,0,0,0,.967-12.867l-1.635-2.3-1.347-1.894-14.55,15.068a10.391,10.391,0,0,0-1,13.24Z" transform="translate(-533.001 -201.112)" fill="#61bcc3"/>
  <path id="Caminho_197" data-name="Caminho 197" d="M748.234,290.633l21.929-22.705a15.054,15.054,0,0,0,1.443-19.174l-2.438-3.429-2-2.822-21.68,22.449A15.479,15.479,0,0,0,744,284.677Z" transform="translate(-601.294 -190.348)" fill="#61bcc3"/>
  <path id="Caminho_198" data-name="Caminho 198" d="M745.9,263.989l14.719-15.242a10.1,10.1,0,0,0,.967-12.867l-1.636-2.3-1.347-1.894-14.55,15.068a10.391,10.391,0,0,0-1,13.24Z" transform="translate(-601.295 -202.995)" fill="#61bcc3"/>
  <rect id="Retângulo_14" data-name="Retângulo 14" width="5.06" height="178.197" transform="translate(37.557 2.293)" fill="#61bcc3"/>
  <path id="Caminho_199" data-name="Caminho 199" d="M705.489,291.69l21.927-22.705a15.052,15.052,0,0,0,1.445-19.174l-2.438-3.429-2-2.822-21.68,22.449a15.479,15.479,0,0,0-1.484,19.725Z" transform="translate(-651.264 -189.112)" fill="#61bcc3"/>
  <path id="Caminho_200" data-name="Caminho 200" d="M703.155,265.046,717.874,249.8a10.1,10.1,0,0,0,.967-12.867l-1.635-2.3-1.347-1.894-14.55,15.068a10.391,10.391,0,0,0-1,13.24Z" transform="translate(-651.265 -201.76)" fill="#61bcc3"/>
  <path id="Caminho_201" data-name="Caminho 201" d="M702.817,302.006,680.889,279.3a15.054,15.054,0,0,1-1.442-19.174l2.438-3.429,2-2.822,21.68,22.449a15.478,15.478,0,0,1,1.484,19.725Z" transform="translate(-676.665 -177.052)" fill="#61bcc3"/>
  <path id="Caminho_202" data-name="Caminho 202" d="M699.259,275.359,684.54,260.12a10.1,10.1,0,0,1-.968-12.867l1.635-2.306,1.347-1.891,14.55,15.068a10.39,10.39,0,0,1,1,13.24Z" transform="translate(-670.773 -189.7)" fill="#61bcc3"/>
  <rect id="Retângulo_15" data-name="Retângulo 15" width="5.058" height="141.69" transform="translate(257.048 197.216)" fill="#61bcc3"/>
  <path id="Caminho_203" data-name="Caminho 203" d="M806.681,373.788l21.927-22.705a15.052,15.052,0,0,0,1.444-19.174l-2.438-3.429-2-2.822-21.679,22.449a15.479,15.479,0,0,0-1.484,19.725Z" transform="translate(-532.968 -93.137)" fill="#61bcc3"/>
  <path id="Caminho_204" data-name="Caminho 204" d="M804.348,347.143,819.068,331.9a10.1,10.1,0,0,0,.967-12.867l-1.635-2.3-1.347-1.894L802.5,329.906a10.391,10.391,0,0,0-1,13.24Z" transform="translate(-532.967 -105.785)" fill="#61bcc3"/>
  <path id="Caminho_205" data-name="Caminho 205" d="M804.009,384.1,782.081,361.4a15.054,15.054,0,0,1-1.443-19.174l2.438-3.429,2-2.822,21.679,22.45a15.479,15.479,0,0,1,1.484,19.725Z" transform="translate(-558.368 -81.078)" fill="#61bcc3"/>
  <path id="Caminho_206" data-name="Caminho 206" d="M800.451,357.458l-14.719-15.242a10.1,10.1,0,0,1-.967-12.867l1.635-2.3,1.347-1.894,14.55,15.068a10.391,10.391,0,0,1,1,13.24Z" transform="translate(-552.476 -93.726)" fill="#61bcc3"/>
  <path id="Caminho_207" data-name="Caminho 207" d="M804.871,286.558l-21.929-22.705a15.054,15.054,0,0,1-1.443-19.174l2.438-3.429,2-2.822,21.679,22.449a15.479,15.479,0,0,1,1.484,19.725Z" transform="translate(-557.36 -195.112)" fill="#61bcc3"/>
  <path id="Caminho_208" data-name="Caminho 208" d="M801.313,259.914l-14.719-15.24a10.1,10.1,0,0,1-.967-12.869l1.635-2.3,1.347-1.894,14.55,15.068a10.391,10.391,0,0,1,1,13.24Z" transform="translate(-551.468 -207.759)" fill="#61bcc3"/>
  <path id="Caminho_209" data-name="Caminho 209" d="M742.158,317.123l22.708,21.929a15.051,15.051,0,0,0,19.172,1.442l3.429-2.438,2.822-2-22.45-21.679a15.475,15.475,0,0,0-19.723-1.484Z" transform="translate(-600.101 -111.41)" fill="#61bcc3"/>
  <path id="Caminho_210" data-name="Caminho 210" d="M761.541,314.789l15.242,14.719a10.1,10.1,0,0,0,12.867.967l2.3-1.635,1.894-1.347-15.068-14.55a10.387,10.387,0,0,0-13.237-1Z" transform="translate(-577.442 -111.41)" fill="#61bcc3"/>
  <path id="Caminho_211" data-name="Caminho 211" d="M717.237,314.789l15.24,14.719a10.1,10.1,0,0,0,12.869.967l2.3-1.635,1.893-1.347-15.068-14.55a10.391,10.391,0,0,0-13.24-1Z" transform="translate(-629.234 -111.41)" fill="#61bcc3"/>
  <path id="Caminho_212" data-name="Caminho 212" d="M757.893,313.138,780.6,291.21a15.054,15.054,0,0,1,19.174-1.442l3.429,2.438,2.822,2-22.45,21.679a15.479,15.479,0,0,1-19.725,1.484Z" transform="translate(-581.706 -138.345)" fill="#61bcc3"/>
  <path id="Caminho_213" data-name="Caminho 213" d="M742.158,309.58,757.4,294.861a10.1,10.1,0,0,1,12.867-.967l2.3,1.635,1.894,1.347L759.4,311.426a10.387,10.387,0,0,1-13.238,1Z" transform="translate(-600.101 -132.453)" fill="#61bcc3"/>
</svg>
