<svg id="Componente_17_1" data-name="Componente 17 – 1" xmlns="http://www.w3.org/2000/svg" width="99.903" height="151.939" viewBox="0 0 99.903 151.939">
  <path id="Caminho_222" data-name="Caminho 222" d="M1156.593,702.083l-14.962,2.8a29.848,29.848,0,0,0-24.306,27.884l-.066-.011v47.793l.066-.012a29.849,29.849,0,0,0,24.306,27.886l14.962,2.8Z" transform="translate(-1064.78 -702.083)" fill="#ef7d00"/>
  <path id="Caminho_223" data-name="Caminho 223" d="M1085.455,702.083l14.963,2.8a29.848,29.848,0,0,1,24.306,27.884l.066-.011v47.793l-.066-.012a29.849,29.849,0,0,1-24.306,27.886l-14.963,2.8Z" transform="translate(-1077.367 -702.083)" fill="#ef7d00"/>
  <path id="Caminho_224" data-name="Caminho 224" d="M1179.557,741.274V838.5l-99.9.01v-.01Z" transform="translate(-1079.66 -686.573)" fill="#e54700"/>
  <path id="Caminho_225" data-name="Caminho 225" d="M1134.143,707.7h-9.064a45.419,45.419,0,0,0-45.419,45.419h99.9a45.419,45.419,0,0,0-45.419-45.419" transform="translate(-1079.66 -699.858)" fill="#fff"/>
  <path id="Caminho_226" data-name="Caminho 226" d="M1132.361,733.344a3.95,3.95,0,1,1-3.95-3.95,3.95,3.95,0,0,1,3.95,3.95" transform="translate(-1061.93 -691.275)" fill="#0091a2"/>
  <path id="Caminho_227" data-name="Caminho 227" d="M1108.676,733.344a3.951,3.951,0,1,1-3.95-3.95,3.95,3.95,0,0,1,3.95,3.95" transform="translate(-1071.304 -691.275)" fill="#0091a2"/>
  <path id="Caminho_228" data-name="Caminho 228" d="M1179.557,740.238v1.446l-99.9,97.227V740.238Z" transform="translate(-1079.66 -686.983)" fill="#ef7d00"/>
  <path id="Caminho_229" data-name="Caminho 229" d="M1120.555,740.241v.17a8.237,8.237,0,0,1-.593,3.1,8.932,8.932,0,0,1-.553,1.1,8.25,8.25,0,0,1-15.365-4.2v-.17Z" transform="translate(-1070.01 -686.982)" fill="#fff"/>
  <path id="Caminho_230" data-name="Caminho 230" d="M1131.532,740.241v.17a8.25,8.25,0,0,1-15.365,4.2,8.925,8.925,0,0,1-.551-1.1,8.236,8.236,0,0,1-.595-3.1v-.17Z" transform="translate(-1065.665 -686.982)" fill="#fff"/>
  <path id="Caminho_231" data-name="Caminho 231" d="M1097.032,755.827h0a11.731,11.731,0,0,1-11.73-11.73v-3.9h23.46v3.9a11.731,11.731,0,0,1-11.73,11.73" transform="translate(-1077.427 -687.001)" fill="#e54700"/>
  <path id="Caminho_232" data-name="Caminho 232" d="M1140.515,755.827h0a11.731,11.731,0,0,1-11.73-11.73v-3.9h23.46v3.9a11.731,11.731,0,0,1-11.73,11.73" transform="translate(-1060.219 -687.001)" fill="#e54700"/>
</svg>
