<svg id="Componente_72_1" data-name="Componente 72 – 1" xmlns="http://www.w3.org/2000/svg" width="333.333" height="324.661" viewBox="0 0 333.333 324.661">
  <g id="Componente_9_1" data-name="Componente 9 – 1" transform="translate(0 214.661)">
    <path id="Caminho_28" data-name="Caminho 28" d="M915.583,726.131h-303v110h195.55c31-.006,59.206-12.13,77.772-31.549A80.891,80.891,0,0,0,906.868,766Z" transform="translate(-612.583 -726.131)" fill="#ee5a23"/>
  </g>
  <g id="Componente_2_1" data-name="Componente 2 – 1" transform="translate(114.015)">
    <path id="Caminho_8" data-name="Caminho 8" d="M461.834,784.727a39.886,39.886,0,0,0,25.435,11.626,40.048,40.048,0,0,0-37.061-37.061,39.886,39.886,0,0,0,11.626,25.435" transform="translate(-439.852 -652.154)" fill="#ef7d00"/>
    <path id="Caminho_9" data-name="Caminho 9" d="M494.669,784.727a39.886,39.886,0,0,1-25.435,11.626A40.048,40.048,0,0,1,506.3,759.292a39.886,39.886,0,0,1-11.626,25.435" transform="translate(-421.815 -652.154)" fill="#ef7d00"/>
    <path id="Caminho_10" data-name="Caminho 10" d="M461.834,764.408a39.885,39.885,0,0,0,25.435,11.626,40.047,40.047,0,0,0-37.061-37.061,39.886,39.886,0,0,0,11.626,25.435" transform="translate(-439.852 -671.417)" fill="#ef7d00"/>
    <path id="Caminho_11" data-name="Caminho 11" d="M494.669,764.408a39.885,39.885,0,0,1-25.435,11.626A40.048,40.048,0,0,1,506.3,738.973a39.886,39.886,0,0,1-11.626,25.435" transform="translate(-421.815 -671.417)" fill="#ef7d00"/>
    <path id="Caminho_12" data-name="Caminho 12" d="M461.834,805.045a39.886,39.886,0,0,0,25.435,11.626,40.048,40.048,0,0,0-37.061-37.061,39.886,39.886,0,0,0,11.626,25.435" transform="translate(-439.852 -632.892)" fill="#ef7d00"/>
    <path id="Caminho_13" data-name="Caminho 13" d="M494.669,805.045a39.886,39.886,0,0,1-25.435,11.626A40.048,40.048,0,0,1,506.3,779.61a39.886,39.886,0,0,1-11.626,25.435" transform="translate(-421.815 -632.892)" fill="#ef7d00"/>
    <path id="Caminho_14" data-name="Caminho 14" d="M471.392,749.8h0a4.4,4.4,0,0,1-4.4-4.4v-21.6a4.4,4.4,0,1,1,8.805,0v21.6a4.4,4.4,0,0,1-4.4,4.4" transform="translate(-423.943 -689.982)" fill="#fff"/>
    <path id="Caminho_15" data-name="Caminho 15" d="M486.709,745.287h0a4.4,4.4,0,0,1-6.084-1.313l-11.708-18.156a4.4,4.4,0,1,1,7.4-4.771L488.022,739.2a4.4,4.4,0,0,1-1.313,6.084" transform="translate(-422.782 -690.323)" fill="#fff"/>
    <path id="Caminho_16" data-name="Caminho 16" d="M497.138,733.2h0a4.4,4.4,0,0,1-5.827,2.193l-19.677-8.914a4.4,4.4,0,1,1,3.633-8.018l19.677,8.912a4.4,4.4,0,0,1,2.194,5.827" transform="translate(-421.992 -691.24)" fill="#fff"/>
    <path id="Caminho_17" data-name="Caminho 17" d="M499.348,718.926h0a4.4,4.4,0,0,1-3.707,5l-21.37,3.172a4.4,4.4,0,0,1-1.292-8.708l21.368-3.171a4.4,4.4,0,0,1,5,3.707" transform="translate(-421.825 -693.983)" fill="#fff"/>
    <path id="Caminho_18" data-name="Caminho 18" d="M492.637,709.826h0a4.4,4.4,0,0,1-.405,6.212l-16.241,14.246a4.4,4.4,0,0,1-5.805-6.617l16.239-14.246a4.4,4.4,0,0,1,6.212.405" transform="translate(-422.333 -700.469)" fill="#fff"/>
    <path id="Caminho_19" data-name="Caminho 19" d="M479.147,704.464h0a4.4,4.4,0,0,1,3.025,5.441l-5.928,20.774a4.4,4.4,0,0,1-8.466-2.416l5.928-20.774a4.4,4.4,0,0,1,5.441-3.025" transform="translate(-423.356 -704.294)" fill="#fff"/>
    <path id="Caminho_20" data-name="Caminho 20" d="M466.234,704.548h0a4.4,4.4,0,0,1,5.492,2.934L478,728.153a4.4,4.4,0,0,1-8.423,2.558L463.3,710.04a4.4,4.4,0,0,1,2.934-5.491" transform="translate(-427.621 -704.234)" fill="#fff"/>
    <path id="Caminho_21" data-name="Caminho 21" d="M457.852,710.053h0a4.4,4.4,0,0,1,6.2-.51l16.477,13.971a4.4,4.4,0,1,1-5.694,6.715l-16.477-13.971a4.4,4.4,0,0,1-.51-6.2" transform="translate(-433.596 -700.308)" fill="#fff"/>
    <path id="Caminho_22" data-name="Caminho 22" d="M453.791,719.222h0a4.4,4.4,0,0,1,4.936-3.791l21.421,2.813A4.4,4.4,0,1,1,479,726.972l-21.419-2.813a4.4,4.4,0,0,1-3.791-4.936" transform="translate(-436.491 -693.771)" fill="#fff"/>
    <path id="Caminho_23" data-name="Caminho 23" d="M455.347,733.628h0a4.4,4.4,0,0,1,2.094-5.862l19.525-9.243a4.4,4.4,0,1,1,3.767,7.956l-19.525,9.243a4.4,4.4,0,0,1-5.862-2.094" transform="translate(-435.382 -691.207)" fill="#fff"/>
    <path id="Caminho_24" data-name="Caminho 24" d="M462.024,745.542h0a4.4,4.4,0,0,1-1.416-6.062l11.4-18.35a4.4,4.4,0,0,1,7.479,4.646l-11.4,18.35a4.4,4.4,0,0,1-6.062,1.416" transform="translate(-430.622 -690.305)" fill="#fff"/>
    <path id="Caminho_25" data-name="Caminho 25" d="M484.448,724.627a10.234,10.234,0,1,1-10.235-10.233,10.235,10.235,0,0,1,10.235,10.233" transform="translate(-426.796 -694.719)" fill="#ef7d00"/>
    <g id="Grupo_2" data-name="Grupo 2" transform="translate(0 186.298)">
      <path id="Caminho_26" data-name="Caminho 26" d="M530.013,810.7a29.263,29.263,0,0,0-14.48-9.46l-.288-.076h-.023l-43.677.006-1.029.271c-14.873,3.875-25.624,22.093-25.624,43.276v92.393h96.985V845.779c0-13.989-4.551-26.721-11.864-35.074" transform="translate(-444.892 -798.752)" fill="#fff"/>
      <path id="Caminho_27" data-name="Caminho 27" d="M458.574,802.351s21.487-5.449,43.677-.006" transform="translate(-431.921 -799.928)" fill="#fff"/>
    </g>
  </g>
  <g id="Componente_10_1" data-name="Componente 10 – 1" transform="translate(210 122.661)">
    <rect id="Retângulo_3" data-name="Retângulo 3" width="93" height="92" fill="#fd8704"/>
    <g id="Grupo_6" data-name="Grupo 6" transform="translate(0 4.352)">
      <g id="Grupo_4" data-name="Grupo 4">
        <path id="Caminho_29" data-name="Caminho 29" d="M-323.362,698.283c-3.038,0-4.564-2.1-5.791-3.785-1.2-1.648-2.011-2.657-3.576-2.657s-2.378,1.009-3.576,2.657c-1.226,1.686-2.752,3.785-5.794,3.785s-4.564-2.1-5.791-3.785c-1.2-1.648-2.011-2.657-3.574-2.657s-2.38,1.009-3.578,2.657c-1.228,1.686-2.754,3.785-5.795,3.785s-4.567-2.1-5.795-3.785c-1.2-1.648-2.012-2.657-3.577-2.657V689.1c3.04,0,4.567,2.1,5.793,3.785,1.2,1.648,2.012,2.658,3.578,2.658s2.38-1.01,3.58-2.658c1.226-1.686,2.752-3.785,5.794-3.785s4.564,2.1,5.791,3.785c1.2,1.648,2.011,2.658,3.574,2.658s2.379-1.01,3.577-2.658c1.226-1.686,2.752-3.785,5.792-3.785s4.566,2.1,5.792,3.785c1.2,1.648,2.011,2.658,3.574,2.658Z" transform="translate(370.208 -629.108)" fill="#0091a2"/>
        <path id="Caminho_30" data-name="Caminho 30" d="M-323.362,689.351c-3.038,0-4.564-2.1-5.791-3.785-1.2-1.648-2.011-2.657-3.576-2.657s-2.378,1.009-3.576,2.657c-1.226,1.686-2.752,3.785-5.794,3.785s-4.564-2.1-5.791-3.785c-1.2-1.648-2.011-2.657-3.574-2.657s-2.38,1.009-3.578,2.657c-1.228,1.686-2.754,3.785-5.795,3.785s-4.567-2.1-5.795-3.785c-1.2-1.648-2.012-2.657-3.577-2.657v-2.74c3.04,0,4.567,2.1,5.793,3.785,1.2,1.648,2.012,2.658,3.578,2.658s2.38-1.01,3.58-2.658c1.226-1.686,2.752-3.785,5.794-3.785s4.564,2.1,5.791,3.785c1.2,1.648,2.011,2.658,3.574,2.658s2.379-1.01,3.577-2.658c1.226-1.686,2.752-3.785,5.792-3.785s4.566,2.1,5.792,3.785c1.2,1.648,2.011,2.658,3.574,2.658Z" transform="translate(370.208 -632.175)" fill="#0091a2"/>
        <path id="Caminho_31" data-name="Caminho 31" d="M-323.362,680.418c-3.038,0-4.564-2.1-5.791-3.785-1.2-1.648-2.011-2.657-3.576-2.657s-2.378,1.009-3.576,2.657c-1.226,1.686-2.752,3.785-5.794,3.785s-4.564-2.1-5.791-3.785c-1.2-1.648-2.011-2.657-3.574-2.657s-2.38,1.009-3.578,2.657c-1.228,1.686-2.754,3.785-5.795,3.785s-4.567-2.1-5.795-3.785c-1.2-1.648-2.012-2.657-3.577-2.657v-2.74c3.04,0,4.567,2.1,5.793,3.785,1.2,1.648,2.012,2.658,3.578,2.658s2.38-1.01,3.58-2.658c1.226-1.686,2.752-3.785,5.794-3.785s4.564,2.1,5.791,3.785c1.2,1.648,2.011,2.658,3.574,2.658s2.379-1.01,3.577-2.658c1.226-1.686,2.752-3.785,5.792-3.785s4.566,2.1,5.792,3.785c1.2,1.648,2.011,2.658,3.574,2.658Z" transform="translate(370.208 -635.24)" fill="#0091a2"/>
        <path id="Caminho_32" data-name="Caminho 32" d="M-323.362,671.487c-3.038,0-4.564-2.1-5.791-3.785-1.2-1.648-2.011-2.657-3.576-2.657s-2.378,1.009-3.576,2.657c-1.226,1.686-2.752,3.785-5.794,3.785s-4.564-2.1-5.791-3.785c-1.2-1.648-2.011-2.657-3.574-2.657s-2.38,1.009-3.578,2.657c-1.228,1.686-2.754,3.785-5.795,3.785s-4.567-2.1-5.795-3.785c-1.2-1.648-2.012-2.657-3.577-2.657V662.3c3.04,0,4.567,2.1,5.793,3.785,1.2,1.648,2.012,2.658,3.578,2.658s2.38-1.01,3.58-2.658c1.226-1.686,2.752-3.785,5.794-3.785s4.564,2.1,5.791,3.785c1.2,1.648,2.011,2.658,3.574,2.658s2.379-1.01,3.577-2.658c1.226-1.686,2.752-3.785,5.792-3.785s4.566,2.1,5.792,3.785c1.2,1.648,2.011,2.658,3.574,2.658Z" transform="translate(370.208 -638.307)" fill="#0091a2"/>
        <path id="Caminho_33" data-name="Caminho 33" d="M-323.362,662.555c-3.038,0-4.564-2.1-5.791-3.785-1.2-1.648-2.011-2.657-3.576-2.657s-2.378,1.009-3.576,2.657c-1.226,1.686-2.752,3.785-5.794,3.785s-4.564-2.1-5.791-3.785c-1.2-1.648-2.011-2.657-3.574-2.657s-2.38,1.009-3.578,2.657c-1.228,1.686-2.754,3.785-5.795,3.785s-4.567-2.1-5.795-3.785c-1.2-1.648-2.012-2.657-3.577-2.657v-2.74c3.04,0,4.567,2.1,5.793,3.785,1.2,1.648,2.012,2.658,3.578,2.658s2.38-1.01,3.58-2.658c1.226-1.686,2.752-3.785,5.794-3.785s4.564,2.1,5.791,3.785c1.2,1.648,2.011,2.658,3.574,2.658s2.379-1.01,3.577-2.658c1.226-1.686,2.752-3.785,5.792-3.785s4.566,2.1,5.792,3.785c1.2,1.648,2.011,2.658,3.574,2.658Z" transform="translate(370.208 -641.373)" fill="#0091a2"/>
        <path id="Caminho_34" data-name="Caminho 34" d="M-323.362,653.622c-3.038,0-4.564-2.1-5.791-3.784-1.2-1.65-2.011-2.657-3.576-2.657s-2.378,1.007-3.576,2.657c-1.226,1.686-2.752,3.784-5.794,3.784s-4.564-2.1-5.791-3.784c-1.2-1.65-2.011-2.657-3.574-2.657s-2.38,1.007-3.578,2.657c-1.228,1.686-2.754,3.784-5.795,3.784s-4.567-2.1-5.795-3.784c-1.2-1.65-2.012-2.657-3.577-2.657v-2.742c3.04,0,4.567,2.1,5.793,3.787,1.2,1.648,2.012,2.658,3.578,2.658s2.38-1.01,3.58-2.658c1.226-1.686,2.752-3.787,5.794-3.787s4.564,2.1,5.791,3.787c1.2,1.648,2.011,2.658,3.574,2.658s2.379-1.01,3.577-2.658c1.226-1.686,2.752-3.787,5.792-3.787s4.566,2.1,5.792,3.787c1.2,1.648,2.011,2.658,3.574,2.658Z" transform="translate(370.208 -644.439)" fill="#0091a2"/>
      </g>
      <g id="Grupo_5" data-name="Grupo 5" transform="translate(46.154)">
        <path id="Caminho_29-2" data-name="Caminho 29" d="M-370.208,698.283c3.038,0,4.564-2.1,5.791-3.785,1.2-1.648,2.011-2.657,3.576-2.657s2.378,1.009,3.576,2.657c1.226,1.686,2.752,3.785,5.793,3.785s4.564-2.1,5.791-3.785c1.2-1.648,2.011-2.657,3.574-2.657s2.38,1.009,3.578,2.657c1.228,1.686,2.754,3.785,5.795,3.785s4.567-2.1,5.795-3.785c1.2-1.648,2.012-2.657,3.577-2.657V689.1c-3.04,0-4.567,2.1-5.793,3.785-1.2,1.648-2.012,2.658-3.578,2.658s-2.38-1.01-3.58-2.658c-1.226-1.686-2.752-3.785-5.794-3.785s-4.564,2.1-5.791,3.785c-1.2,1.648-2.011,2.658-3.574,2.658s-2.379-1.01-3.577-2.658c-1.226-1.686-2.752-3.785-5.792-3.785s-4.566,2.1-5.792,3.785c-1.2,1.648-2.011,2.658-3.574,2.658Z" transform="translate(370.208 -629.108)" fill="#0091a2"/>
        <path id="Caminho_30-2" data-name="Caminho 30" d="M-370.208,689.351c3.038,0,4.564-2.1,5.791-3.785,1.2-1.648,2.011-2.657,3.576-2.657s2.378,1.009,3.576,2.657c1.226,1.686,2.752,3.785,5.793,3.785s4.564-2.1,5.791-3.785c1.2-1.648,2.011-2.657,3.574-2.657s2.38,1.009,3.578,2.657c1.228,1.686,2.754,3.785,5.795,3.785s4.567-2.1,5.795-3.785c1.2-1.648,2.012-2.657,3.577-2.657v-2.74c-3.04,0-4.567,2.1-5.793,3.785-1.2,1.648-2.012,2.658-3.578,2.658s-2.38-1.01-3.58-2.658c-1.226-1.686-2.752-3.785-5.794-3.785s-4.564,2.1-5.791,3.785c-1.2,1.648-2.011,2.658-3.574,2.658s-2.379-1.01-3.577-2.658c-1.226-1.686-2.752-3.785-5.792-3.785s-4.566,2.1-5.792,3.785c-1.2,1.648-2.011,2.658-3.574,2.658Z" transform="translate(370.208 -632.175)" fill="#0091a2"/>
        <path id="Caminho_31-2" data-name="Caminho 31" d="M-370.208,680.418c3.038,0,4.564-2.1,5.791-3.785,1.2-1.648,2.011-2.657,3.576-2.657s2.378,1.009,3.576,2.657c1.226,1.686,2.752,3.785,5.793,3.785s4.564-2.1,5.791-3.785c1.2-1.648,2.011-2.657,3.574-2.657s2.38,1.009,3.578,2.657c1.228,1.686,2.754,3.785,5.795,3.785s4.567-2.1,5.795-3.785c1.2-1.648,2.012-2.657,3.577-2.657v-2.74c-3.04,0-4.567,2.1-5.793,3.785-1.2,1.648-2.012,2.658-3.578,2.658s-2.38-1.01-3.58-2.658c-1.226-1.686-2.752-3.785-5.794-3.785s-4.564,2.1-5.791,3.785c-1.2,1.648-2.011,2.658-3.574,2.658s-2.379-1.01-3.577-2.658c-1.226-1.686-2.752-3.785-5.792-3.785s-4.566,2.1-5.792,3.785c-1.2,1.648-2.011,2.658-3.574,2.658Z" transform="translate(370.208 -635.24)" fill="#0091a2"/>
        <path id="Caminho_32-2" data-name="Caminho 32" d="M-370.208,671.487c3.038,0,4.564-2.1,5.791-3.785,1.2-1.648,2.011-2.657,3.576-2.657s2.378,1.009,3.576,2.657c1.226,1.686,2.752,3.785,5.793,3.785s4.564-2.1,5.791-3.785c1.2-1.648,2.011-2.657,3.574-2.657s2.38,1.009,3.578,2.657c1.228,1.686,2.754,3.785,5.795,3.785s4.567-2.1,5.795-3.785c1.2-1.648,2.012-2.657,3.577-2.657V662.3c-3.04,0-4.567,2.1-5.793,3.785-1.2,1.648-2.012,2.658-3.578,2.658s-2.38-1.01-3.58-2.658c-1.226-1.686-2.752-3.785-5.794-3.785s-4.564,2.1-5.791,3.785c-1.2,1.648-2.011,2.658-3.574,2.658s-2.379-1.01-3.577-2.658c-1.226-1.686-2.752-3.785-5.792-3.785s-4.566,2.1-5.792,3.785c-1.2,1.648-2.011,2.658-3.574,2.658Z" transform="translate(370.208 -638.307)" fill="#0091a2"/>
        <path id="Caminho_33-2" data-name="Caminho 33" d="M-370.208,662.555c3.038,0,4.564-2.1,5.791-3.785,1.2-1.648,2.011-2.657,3.576-2.657s2.378,1.009,3.576,2.657c1.226,1.686,2.752,3.785,5.793,3.785s4.564-2.1,5.791-3.785c1.2-1.648,2.011-2.657,3.574-2.657s2.38,1.009,3.578,2.657c1.228,1.686,2.754,3.785,5.795,3.785s4.567-2.1,5.795-3.785c1.2-1.648,2.012-2.657,3.577-2.657v-2.74c-3.04,0-4.567,2.1-5.793,3.785-1.2,1.648-2.012,2.658-3.578,2.658s-2.38-1.01-3.58-2.658c-1.226-1.686-2.752-3.785-5.794-3.785s-4.564,2.1-5.791,3.785c-1.2,1.648-2.011,2.658-3.574,2.658s-2.379-1.01-3.577-2.658c-1.226-1.686-2.752-3.785-5.792-3.785s-4.566,2.1-5.792,3.785c-1.2,1.648-2.011,2.658-3.574,2.658Z" transform="translate(370.208 -641.373)" fill="#0091a2"/>
        <path id="Caminho_34-2" data-name="Caminho 34" d="M-370.208,653.622c3.038,0,4.564-2.1,5.791-3.784,1.2-1.65,2.011-2.657,3.576-2.657s2.378,1.007,3.576,2.657c1.226,1.686,2.752,3.784,5.793,3.784s4.564-2.1,5.791-3.784c1.2-1.65,2.011-2.657,3.574-2.657s2.38,1.007,3.578,2.657c1.228,1.686,2.754,3.784,5.795,3.784s4.567-2.1,5.795-3.784c1.2-1.65,2.012-2.657,3.577-2.657v-2.742c-3.04,0-4.567,2.1-5.793,3.787-1.2,1.648-2.012,2.658-3.578,2.658s-2.38-1.01-3.58-2.658c-1.226-1.686-2.752-3.787-5.794-3.787s-4.564,2.1-5.791,3.787c-1.2,1.648-2.011,2.658-3.574,2.658s-2.379-1.01-3.577-2.658c-1.226-1.686-2.752-3.787-5.792-3.787s-4.566,2.1-5.792,3.787c-1.2,1.648-2.011,2.658-3.574,2.658Z" transform="translate(370.208 -644.439)" fill="#0091a2"/>
      </g>
    </g>
    <g id="Grupo_7" data-name="Grupo 7" transform="translate(0 76.957)">
      <g id="Grupo_4-2" data-name="Grupo 4">
        <path id="Caminho_34-3" data-name="Caminho 34" d="M-323.362,653.622c-3.038,0-4.564-2.1-5.791-3.784-1.2-1.65-2.011-2.657-3.576-2.657s-2.378,1.007-3.576,2.657c-1.226,1.686-2.752,3.784-5.794,3.784s-4.564-2.1-5.791-3.784c-1.2-1.65-2.011-2.657-3.574-2.657s-2.38,1.007-3.578,2.657c-1.228,1.686-2.754,3.784-5.795,3.784s-4.567-2.1-5.795-3.784c-1.2-1.65-2.012-2.657-3.577-2.657v-2.742c3.04,0,4.567,2.1,5.793,3.787,1.2,1.648,2.012,2.658,3.578,2.658s2.38-1.01,3.58-2.658c1.226-1.686,2.752-3.787,5.794-3.787s4.564,2.1,5.791,3.787c1.2,1.648,2.011,2.658,3.574,2.658s2.379-1.01,3.577-2.658c1.226-1.686,2.752-3.787,5.792-3.787s4.566,2.1,5.792,3.787c1.2,1.648,2.011,2.658,3.574,2.658Z" transform="translate(370.208 -644.439)" fill="#0091a2"/>
      </g>
      <g id="Grupo_5-2" data-name="Grupo 5" transform="translate(46.154)">
        <path id="Caminho_34-4" data-name="Caminho 34" d="M-370.208,653.622c3.038,0,4.564-2.1,5.791-3.784,1.2-1.65,2.011-2.657,3.576-2.657s2.378,1.007,3.576,2.657c1.226,1.686,2.752,3.784,5.793,3.784s4.564-2.1,5.791-3.784c1.2-1.65,2.011-2.657,3.574-2.657s2.38,1.007,3.578,2.657c1.228,1.686,2.754,3.784,5.795,3.784s4.567-2.1,5.795-3.784c1.2-1.65,2.012-2.657,3.577-2.657v-2.742c-3.04,0-4.567,2.1-5.793,3.787-1.2,1.648-2.012,2.658-3.578,2.658s-2.38-1.01-3.58-2.658c-1.226-1.686-2.752-3.787-5.794-3.787s-4.564,2.1-5.791,3.787c-1.2,1.648-2.011,2.658-3.574,2.658s-2.379-1.01-3.577-2.658c-1.226-1.686-2.752-3.787-5.792-3.787s-4.566,2.1-5.792,3.787c-1.2,1.648-2.011,2.658-3.574,2.658Z" transform="translate(370.208 -644.439)" fill="#0091a2"/>
      </g>
    </g>
  </g>
  <g id="Componente_11_1" data-name="Componente 11 – 1" transform="translate(227.288 47.328)">
    <path id="Caminho_35" data-name="Caminho 35" d="M871.008,734.174H827.056a1.489,1.489,0,0,1-1.49-1.489,30.894,30.894,0,0,1,30.894-30.894h43.952v2.979a29.4,29.4,0,0,1-29.4,29.4" transform="translate(-798.99 -683.062)" fill="#fff"/>
    <path id="Caminho_36" data-name="Caminho 36" d="M823.858,715.059V683.688a1.865,1.865,0,0,1,1.865-1.865h4.4A38.682,38.682,0,0,1,868.808,720.5v31.372h-8.133a36.818,36.818,0,0,1-36.818-36.818" transform="translate(-798.884 -681.823)" fill="#fff"/>
    <path id="Caminho_37" data-name="Caminho 37" d="M797.231,709.805v45.351h2.834a27.982,27.982,0,0,0,27.982-27.982V681.823h-2.834a27.982,27.982,0,0,0-27.982,27.982" transform="translate(-797.231 -681.823)" fill="#e44118"/>
    <path id="Caminho_38" data-name="Caminho 38" d="M909.682,701.485a4.623,4.623,0,1,1-4.622-4.622,4.622,4.622,0,0,1,4.622,4.622" transform="translate(-803.637 -682.756)" fill="#e44118"/>
  </g>
</svg>
