<svg id="Componente_6_1" data-name="Componente 6 – 1" xmlns="http://www.w3.org/2000/svg" width="274.949" height="239.283" viewBox="0 0 274.949 239.283">
  <g id="Grupo_62" data-name="Grupo 62" transform="matrix(-0.259, -0.966, 0.966, -0.259, -65.598, 678.069)">
    <path id="Caminho_214" data-name="Caminho 214" d="M495,457.485a52.517,52.517,0,0,1-18.686-.12c-27.051-4.456-109.565-60.956-72.352-102.24L429.807,380c23.724-26.313-49.585-31.3-4.889-87.526l28.684,28.71c19.567-22.029-36.49-26.765-5.7-63.4l14.539-12.952,24.394-21.72,38.672,34.672c30.958,37.794-24.332,39.707-5.692,63.4l28.681-28.71c45.2,52.821-29.943,62.813-4.888,87.526l25.848-24.875c4.342,5.412,10.314,16.464,9.507,19.883,3.877,26.127-42.094,75.706-83.967,82.478" transform="translate(0 0)" fill="#4cb4bb"/>
    <path id="Caminho_215" data-name="Caminho 215" d="M495,442.443a52.517,52.517,0,0,1-18.686-.12c-27.051-4.456-109.565-60.956-72.352-102.24l25.845,24.875c23.724-26.313-49.585-31.3-4.889-87.526l28.684,28.71c19.567-22.029-36.49-26.765-5.7-63.4l14.539-12.952,10.392,9.312c36.045,44.017-28.343,46.241-6.635,73.836l33.4-33.43c52.639,61.512-34.87,73.149-5.7,101.931l30.1-28.974c5.061,6.307,12.012,19.177,11.075,23.155,2.677,18.035-15.046,45.672-40.084,66.826" transform="translate(0 15.042)" fill="#027a88"/>
  </g>
</svg>
