<svg xmlns="http://www.w3.org/2000/svg" width="322.746" height="102.713" viewBox="0 0 322.746 102.713">
  <g id="Grupo_89" data-name="Grupo 89" transform="translate(-153.127 -84.981)">
    <g id="Grupo_46" data-name="Grupo 46" transform="translate(153.127 86.481)">
      <path id="Caminho_142" data-name="Caminho 142" d="M318.614,329.562a14.141,14.141,0,0,1-6.552-1.715,12.937,12.937,0,0,1-2.861-1.909,9.319,9.319,0,0,0-1.34-1.08,7.779,7.779,0,0,1-3.892-5.666c-.069-.475-.171-.914-.273-1.355-.112-.488-.225-.978-.3-1.5l-.087-.352c-.533-2.113-.809-3.224-.518-4.431a9.457,9.457,0,0,1,2.177-6.458l.092-.112.117-.089a5.31,5.31,0,0,0,.886-1.029c.161-.214.324-.436.5-.659l.25-.319a12.453,12.453,0,0,1,4.071-3.79l.092-.051.1-.033a7.381,7.381,0,0,0,.722-.886l.36-.436a5.166,5.166,0,0,1,1.58-1.478q.869-.643,1.738-1.291c4.362-3.252,8.875-6.616,14.449-8.472a50.758,50.758,0,0,0,9.219-5.8l-.048-.048.082-.6a.962.962,0,0,0-.293-.8,4.474,4.474,0,0,0-3.193-1.144,5.648,5.648,0,0,0-1.062.1c-.824.181-1.327.753-2.131,1.96l-.069.1-.084.087a6.389,6.389,0,0,0-.87.983l-.066.1-.087.087a6.055,6.055,0,0,1-4.383,1.764,9.011,9.011,0,0,1-2.69-.439,4,4,0,0,1-2.3-2.5,3.885,3.885,0,0,1,0-3.216,12.079,12.079,0,0,1,4.474-4.941l1.3-1.021.071-.038a9.364,9.364,0,0,0,2.892-2.356l.094-.115.117-.087c2.644-1.95,4.074-3.1,5.135-5.881l.049-.11a4.266,4.266,0,0,0,.467-2.346l-.013-.089V260a1.972,1.972,0,0,0-2.09-2.118,3.445,3.445,0,0,0-.786.1,7.518,7.518,0,0,0-3.862,2.652l-.1.12-.125.092a14.893,14.893,0,0,0-4.112,5.043l-.089.151-1.44,2.157-.01.049a1.37,1.37,0,0,1-.145.447,1.709,1.709,0,0,1-.434.876,4.211,4.211,0,0,1-1,1.6l-1.136,1.593c-1.537,2.157-2.644,3.716-3.954,5.386a12.2,12.2,0,0,1-4.541,3.933,2.054,2.054,0,0,1-.546.263l-.069.041a15.7,15.7,0,0,1-6.728,2.5c-.674.138-1.355.273-2.33.554a2.987,2.987,0,0,1-.893.11c-.248,0-.523-.018-.789-.036-.2-.013-.388-.028-.551-.028h-.2l-.189-.061a2.1,2.1,0,0,0-.635-.084h-.087l-.087-.013c-4.4-.628-6.583-2.108-9.171-6.279l-1.011.779c-.447.319-.758.564-1.034.778a11.865,11.865,0,0,1-1.276.909,1.919,1.919,0,0,0-.493.4l-.115.112-1.889,1.1a8.687,8.687,0,0,1-10.73-.687,5.483,5.483,0,0,1-2.412-3.05c-.3.158-.572.3-.8.416a4.243,4.243,0,0,0-2.034,1.514l-.14.194-.2.13a11.072,11.072,0,0,1-6.361,1.9l-.648.036a13.656,13.656,0,0,1-4,.659,9.079,9.079,0,0,1-5.046-1.465,6.726,6.726,0,0,1-4.7-3.7l-.125-.291c-.906-2.1-1.932-4.487-1.1-7.157L248.3,265.8l1.021-1.169c-.1-.038-.414-.14-.414-.14l-.077-.038c-.043-.015-.125-.026-.2-.041a3.148,3.148,0,0,1-.819-.253l-.071-.033-.294-.194a12.848,12.848,0,0,1-1.48-1.1,12.416,12.416,0,0,0-1.279-.934,5.088,5.088,0,0,0-.837,1.751l-.059.225-.133.189c-1.463,2.045-2.333,3.354-3.778,5.521l-.066.1-.02.02v.156l-.207.306a9.083,9.083,0,0,1-2.256,2.517c-.416.475-.873,1.006-1.337,1.547-.493.5-.84.865-1.146,1.19a15.193,15.193,0,0,1-1.5,1.455,23.867,23.867,0,0,1-5.587,3.918l-2.32,1.3a22.677,22.677,0,0,1-6.853,2.907l-.406.12a19.051,19.051,0,0,1-4.936.7,14.207,14.207,0,0,1-7.246-1.965c-.227-.115-.439-.242-.623-.355-.051-.033-.1-.064-.146-.089l-.115-.028a3.916,3.916,0,0,1-2.126-1.45.991.991,0,0,1-.079-.1c-2.307-1.179-3.4-5.036-3.249-8.313a32.316,32.316,0,0,1,1.674-11.448,9.34,9.34,0,0,1,.791-1.9,8.342,8.342,0,0,0,.454-1.113,5.324,5.324,0,0,1,.419-2.537l.056-.11.074-.1a8.555,8.555,0,0,0,1.445-3.2l.1-.339.015-.1c.066-.345.143-.73.253-1.154a2.385,2.385,0,0,1-.406-.107l-.036-.005a1.79,1.79,0,0,0-.2-.013,8.087,8.087,0,0,0-1.3.163l-.107.02H201.31c-.268,0-.539.013-.807.028-.319.018-.63.036-.944.036a6.655,6.655,0,0,1-1.08-.082l-.069-.013-.064-.018a3.372,3.372,0,0,1-2.642-3.1,2.274,2.274,0,0,1,1.312-2.476v-.048l.727-.322a11.343,11.343,0,0,1,4.388-.873c.311,0,.618.013.906.041.6.056,1.011.092,1.314.092a.815.815,0,0,0,.5-.115l.26-.128h.288a2.245,2.245,0,0,0,.3-.059,9.751,9.751,0,0,1,1.774-.227,5.4,5.4,0,0,0,.452-.87l.143-.337.227-.153a2.329,2.329,0,0,0,.281-.707l-.008-.049a4.258,4.258,0,0,1,.947-3.512l.059-.084.071-.071c.074-.074.12-.128.151-.163l-.133-.528,2.348-5.633a3.919,3.919,0,0,1,3.507-2.361,4.531,4.531,0,0,1,2.749,1.011,1.562,1.562,0,0,1,.579.513,1.712,1.712,0,0,0,.128.153l.089.1.14.176a3.368,3.368,0,0,1,1.006,2.341v1.172a8.7,8.7,0,0,1-.184,2.341l-.028.1-.041.1a11.338,11.338,0,0,0-.934,2.772,10.546,10.546,0,0,1-1,3.122,23.965,23.965,0,0,1,6.838-.891c1.072,0,2.154.046,3.3.094l1.251.049a4.114,4.114,0,0,1,2.254.727h.253l.362.546c.069.1.138.194.2.278a2.389,2.389,0,0,1,.592,1.424,3.437,3.437,0,0,1-1.6,2.792,5.124,5.124,0,0,1-2.838.768,9.857,9.857,0,0,0-1.008.074c-.34.036-.664.066-.955.071l-.219.025a25.378,25.378,0,0,1-3.52.268h-.166l-.26.13-.3.015h-.584a16.724,16.724,0,0,0-2.721.13l-.1.015h-.1c-.378,0-.789.031-1.225.064-.549.038-1.136.079-1.766.082l-.276.033c-.013.087-.059.47-.059.47l-.041.123a10.761,10.761,0,0,1-1.644,3.124,3.852,3.852,0,0,0-.776,2.624,5.706,5.706,0,0,1-.863,2.3l-.049.1s-.212.283-.26.35l-.12.265c-3.683,7.652-3.816,10.424-3.244,15.848l.005.128a.741.741,0,0,0,.008.128,3.332,3.332,0,0,0,.577.541l.069.059.061.069a5.135,5.135,0,0,0,3.992,2.06,8.6,8.6,0,0,0,2.989-.641l1.09-.375c2.328-.789,4.168-1.414,5.751-3.111a7.533,7.533,0,0,1,2.92-1.907,9.393,9.393,0,0,0,1.3-.513,11.028,11.028,0,0,0,2.848-2.593l.054-.069.061-.061c.4-.4.99-1.141,1.516-1.8a20.3,20.3,0,0,1,1.281-1.613,7.6,7.6,0,0,1,1.437-2.141,16.882,16.882,0,0,0,2.43-3.966l.265-.536a16.691,16.691,0,0,1,1.537-2.91,4.21,4.21,0,0,0-.288-2.731,5.287,5.287,0,0,1,.87-4.862l.069-.1.087-.087a10.4,10.4,0,0,0,1.131-1.662,5.388,5.388,0,0,1,.771-.97,6.188,6.188,0,0,1,4.875-2.3,8.838,8.838,0,0,1,2.466.383,4.308,4.308,0,0,1,2.782,2.823,3.6,3.6,0,0,1-.707,3.208,22.526,22.526,0,0,0-2.491,4.311,1.252,1.252,0,0,0,.145,1.095c.96,1.552,3.385,2.823,5.212,3.311l2.991.944.146.1a4.524,4.524,0,0,0,.674.342c.135.056.258.115.365.166l.066.033.064.043a3.482,3.482,0,0,1,1.115,4.546l-1.189,1.935-1.378,1.845a6.832,6.832,0,0,0-1.1,5.853c.388,2.3.615,2.318,2.1,2.417h.138a7.326,7.326,0,0,1,1.47.13,10.29,10.29,0,0,0,3.818-.914,5.821,5.821,0,0,1,2.142-1.493,2.948,2.948,0,0,0,1.713-1.018l.061-.061.069-.054c.168-.125.319-.25.47-.373a7.316,7.316,0,0,1,1.325-.911,6.162,6.162,0,0,0,2.261-2.432,7.53,7.53,0,0,1,1.363-1.866l.143-.14.176-.092a.862.862,0,0,0,.276-.217c.028-.054.056-.11.084-.166v-.061a3.187,3.187,0,0,1,.2-1.718c.043-.13.084-.265.117-.4l.059-.23.14-.191a63.343,63.343,0,0,0,3.576-5.873,10.49,10.49,0,0,1,4.811-4.459,7.528,7.528,0,0,1,2.282-1.588l.117-.059.133-.033a1.616,1.616,0,0,0,.613-.337c.1-.074.209-.148.319-.222a7.14,7.14,0,0,1,4.311-1.4c.237,0,.475.013.717.033,4.916.842,7.9,2.93,9.485,6.575a1.052,1.052,0,0,1,.071.12,11.541,11.541,0,0,1,1.2,3.29l-.005.123a4.024,4.024,0,0,1-3.566,3.724c-.2.015-.36.023-.518.023a5.814,5.814,0,0,1-.906-.072,2.954,2.954,0,0,1,1.34,2.2,6.384,6.384,0,0,1-.056,3.591,7.066,7.066,0,0,0,.743,5.968,4.291,4.291,0,0,0,2.361,1.743,15.749,15.749,0,0,0,1.919-.49l.1-.033.62-.092a9.044,9.044,0,0,0,6.213-3.04,19.605,19.605,0,0,1,2.218-1.912,8.7,8.7,0,0,0,2.221-2.216,16.139,16.139,0,0,0,.781-1.445,23.441,23.441,0,0,1,1.83-2.624,3.632,3.632,0,0,1,.189-.539l.847-1.534.092-.1a25.491,25.491,0,0,0,2.923-4.181l.077-.115a6.382,6.382,0,0,0,.426-.676,8.592,8.592,0,0,1,.551-.873,17.583,17.583,0,0,1,3.8-3.956,17.061,17.061,0,0,1,7.953-3.584,8.74,8.74,0,0,1,1.8-.186,12.1,12.1,0,0,1,5.4,1.463c2.1,1.052,3.216,2.805,3.729,5.863a23.54,23.54,0,0,1,0,7.392l-.01.082-.023.077a8.778,8.778,0,0,1-1.4,2.583c-.125.179-.25.357-.368.533l-.069.1-.087.087c-.168.169-.337.319-.5.462a3.23,3.23,0,0,0-.516.518l-.092.14-.128.11c-.288.245-.541.447-.776.633-.209.166-.388.311-.564.462a9.423,9.423,0,0,1,6.409,4.645,4.111,4.111,0,0,0,.638.934,3.448,3.448,0,0,0,.636-.276,7.592,7.592,0,0,1,3.1-2.5l.171-.082a2.851,2.851,0,0,0,1.812-1.547,3.432,3.432,0,0,1,1.746-1.7c1.225-.638,2.509-2.088,3.821-4.319a5.892,5.892,0,0,1,1.082-1.164c.1-.092.2-.176.273-.25a3.776,3.776,0,0,1,2.435-1.118,3.047,3.047,0,0,1,1.57.47h.291l1.741,1.738v.327a2.655,2.655,0,0,1-.046,2.887,14,14,0,0,1-2.5,3.122,5.569,5.569,0,0,0-1.608,2.448l-.107.322-.258.222c-.99.847-1.7,1.557-2.124,1.981-1.126,1.292-1.879,1.963-4.6,3.175a6.03,6.03,0,0,0-1.531,1.062l-.061.061-.278.209a14.953,14.953,0,0,1-4.339,2.466c-.02.089-.046.181-.074.276v.066a44.95,44.95,0,0,1-.439,6.366v.852l-.02.2a17.038,17.038,0,0,1-.944,4.727,20.285,20.285,0,0,0-2.113,6.417,9.253,9.253,0,0,1-.98,3.152,22.925,22.925,0,0,1-1.8,4.023l-1.1,2.341a15.946,15.946,0,0,1-4.867,7.185l-1.537,1.544a13.577,13.577,0,0,1-2.121,2l-.174.135a33.5,33.5,0,0,1-8.732,5.273,11.949,11.949,0,0,1-4.308.809m-3.175-8.4a2.339,2.339,0,0,1,.572.125,9.108,9.108,0,0,1,2.027.339l.1.026.1.044a1.371,1.371,0,0,0,.549.135,4.405,4.405,0,0,0,1.639-.625l.355-.184a6.513,6.513,0,0,1,1.536-.681l.414-.161.135-.265.48-.158a5.255,5.255,0,0,0,1.018-.59l.214-.148a12.219,12.219,0,0,0,3.265-2.894,7.227,7.227,0,0,1,2.144-2.2l.168-.125c1.09-.687,1.24-.878,1.44-1.769a5.987,5.987,0,0,1,1.58-2.874c.26-.352.332-.49.444-1.4a24.209,24.209,0,0,1,1.991-6.465l.311-.689a22.072,22.072,0,0,0,1.524-3.949c.5-2.384.9-4.8,1.248-7.106-.962.518-2.187,1.235-3.2,1.825-.789.462-1.588.929-2.341,1.355-.753.533-1.5.988-2.279,1.468l-.944.579a31.674,31.674,0,0,1-7.07,3.9l-.214.082h-.061c-.005.013-.169.253-.169.253l-.6.388c-2.948,1.871-5.493,3.487-6.746,6.368l-.092.212s-.888.886-1.2,1.192c-2.517,2.476-2.517,2.476-2.4,6.547l.005.166-.041.166c-.329,1.314-.207,2.131,1.2,4.658a9.427,9.427,0,0,0,2.907,2.448m-35.486-44.79a3.9,3.9,0,0,1,.283,1.023,6.751,6.751,0,0,0,2.634-1.774,12.055,12.055,0,0,1,2.7-2.848,4.848,4.848,0,0,0,1.942-2.938l.043-.128.881-1.47a7.3,7.3,0,0,1,.467-.952c.089-.163.186-.339.283-.533a5.16,5.16,0,0,1,3.188-2.461,2.755,2.755,0,0,1,1.389-.357c.1,0,.2.005.3.013a3.2,3.2,0,0,1-1.46-1.993l-.293-.684a3.7,3.7,0,0,1-.855-1.47c-.217-.656-.222-.669-1.233-.771a3.649,3.649,0,0,0-3.111,1.338,15.955,15.955,0,0,1-1.743,1.6c-.163.163-.314.306-.452.439a5.3,5.3,0,0,0-1.169,1.417,5.588,5.588,0,0,1-.853,1.2c-.5.707-.74,1.067-.74,1.261a3.76,3.76,0,0,1-.83,2.486,6.236,6.236,0,0,0-1.36,4.525,7.879,7.879,0,0,1-.079.988,8.019,8.019,0,0,0-.069.911,2.972,2.972,0,0,0,.051.436,6.94,6.94,0,0,1,.087.745" transform="translate(-119.094 -229.849)" fill="#fff"/>
      <path id="Caminho_143" data-name="Caminho 143" d="M168.665,245.36c-2.866-.567-4.3-2.034-1.432-2.711a30.473,30.473,0,0,1,10.041-.9,30.652,30.652,0,0,0,7.89,0c3.589-.227,7.175-.227,10.761-.112,2.154.112,9.686-.115,14.347-.452,2.871-.227,5.738-.115,8.249-.115,1.437.115,2.869.115,3.946.115,2.152,0,5.38,0,6.812.789,1.077.227,2.154.679,2.154,1.016.717.791-.717,1.243-3.946,1.919v-.112h-1.077c-3.226,0-6.453.227-10.041.34l-9.684.339c-2.512,0-3.946,0-5.378-.112-2.154-.115-5.026-.227-13.632-.115-1.434,0-2.869.115-4.3.227-1.792.112-3.589.112-5.381.225a44.46,44.46,0,0,1-9.327-.337" transform="translate(-165.668 -212.477)" fill="#fec490"/>
      <path id="Caminho_144" data-name="Caminho 144" d="M269.275,246.345c-2.869-.564-4.3-2.032-1.432-2.708a30.474,30.474,0,0,1,10.041-.9,30.649,30.649,0,0,0,7.889,0c3.586-.227,7.175-.227,10.761-.115,2.152.115,9.684-.112,14.345-.452,2.871-.225,5.74-.112,8.249-.112,1.437.112,2.871.112,3.949.112,2.152,0,5.38,0,6.812.791,1.077.227,2.154.679,2.154,1.016.717.791-.72,1.243-3.946,1.919v-.112h-1.077c-3.226,0-6.455.227-10.041.34l-9.686.337c-2.509,0-3.946,0-5.378-.112-2.152-.112-5.023-.225-13.63-.112-1.434,0-2.869.112-4.3.225-1.794.115-3.589.115-5.38.227a44.648,44.648,0,0,1-9.326-.339" transform="translate(-9.48 -210.945)" fill="#fec490"/>
    </g>
    <path id="Caminho_145" data-name="Caminho 145" d="M318.614,329.562a14.141,14.141,0,0,1-6.552-1.715,12.937,12.937,0,0,1-2.861-1.909,9.319,9.319,0,0,0-1.34-1.08,7.779,7.779,0,0,1-3.892-5.666c-.069-.475-.171-.914-.273-1.355-.112-.488-.225-.978-.3-1.5l-.087-.352c-.533-2.113-.809-3.224-.518-4.431a9.457,9.457,0,0,1,2.177-6.458l.092-.112.117-.089a5.31,5.31,0,0,0,.886-1.029c.161-.214.324-.436.5-.659l.25-.319a12.453,12.453,0,0,1,4.071-3.79l.092-.051.1-.033a7.381,7.381,0,0,0,.722-.886l.36-.436a5.166,5.166,0,0,1,1.58-1.478q.869-.643,1.738-1.291c4.362-3.252,8.875-6.616,14.449-8.472a50.758,50.758,0,0,0,9.219-5.8l-.048-.048.082-.6a.962.962,0,0,0-.293-.8,4.474,4.474,0,0,0-3.193-1.144,5.648,5.648,0,0,0-1.062.1c-.824.181-1.327.753-2.131,1.96l-.069.1-.084.087a6.389,6.389,0,0,0-.87.983l-.066.1-.087.087a6.055,6.055,0,0,1-4.383,1.764,9.011,9.011,0,0,1-2.69-.439,4,4,0,0,1-2.3-2.5,3.885,3.885,0,0,1,0-3.216,12.079,12.079,0,0,1,4.474-4.941l1.3-1.021.071-.038a9.364,9.364,0,0,0,2.892-2.356l.094-.115.117-.087c2.644-1.95,4.074-3.1,5.135-5.881l.049-.11a4.266,4.266,0,0,0,.467-2.346l-.013-.089V260a1.972,1.972,0,0,0-2.09-2.118,3.445,3.445,0,0,0-.786.1,7.518,7.518,0,0,0-3.862,2.652l-.1.12-.125.092a14.893,14.893,0,0,0-4.112,5.043l-.089.151-1.44,2.157-.01.049a1.37,1.37,0,0,1-.145.447,1.709,1.709,0,0,1-.434.876,4.211,4.211,0,0,1-1,1.6l-1.136,1.593c-1.537,2.157-2.644,3.716-3.954,5.386a12.2,12.2,0,0,1-4.541,3.933,2.054,2.054,0,0,1-.546.263l-.069.041a15.7,15.7,0,0,1-6.728,2.5c-.674.138-1.355.273-2.33.554a2.987,2.987,0,0,1-.893.11c-.248,0-.523-.018-.789-.036-.2-.013-.388-.028-.551-.028h-.2l-.189-.061a2.1,2.1,0,0,0-.635-.084h-.087l-.087-.013c-4.4-.628-6.583-2.108-9.171-6.279l-1.011.779c-.447.319-.758.564-1.034.778a11.865,11.865,0,0,1-1.276.909,1.919,1.919,0,0,0-.493.4l-.115.112-1.889,1.1a8.687,8.687,0,0,1-10.73-.687,5.483,5.483,0,0,1-2.412-3.05c-.3.158-.572.3-.8.416a4.243,4.243,0,0,0-2.034,1.514l-.14.194-.2.13a11.072,11.072,0,0,1-6.361,1.9l-.648.036a13.656,13.656,0,0,1-4,.659,9.079,9.079,0,0,1-5.046-1.465,6.726,6.726,0,0,1-4.7-3.7l-.125-.291c-.906-2.1-1.932-4.487-1.1-7.157L248.3,265.8l1.021-1.169c-.1-.038-.414-.14-.414-.14l-.077-.038c-.043-.015-.125-.026-.2-.041a3.148,3.148,0,0,1-.819-.253l-.071-.033-.294-.194a12.848,12.848,0,0,1-1.48-1.1,12.416,12.416,0,0,0-1.279-.934,5.088,5.088,0,0,0-.837,1.751l-.059.225-.133.189c-1.463,2.045-2.333,3.354-3.778,5.521l-.066.1-.02.02v.156l-.207.306a9.083,9.083,0,0,1-2.256,2.517c-.416.475-.873,1.006-1.337,1.547-.493.5-.84.865-1.146,1.19a15.193,15.193,0,0,1-1.5,1.455,23.867,23.867,0,0,1-5.587,3.918l-2.32,1.3a22.677,22.677,0,0,1-6.853,2.907l-.406.12a19.051,19.051,0,0,1-4.936.7,14.207,14.207,0,0,1-7.246-1.965c-.227-.115-.439-.242-.623-.355-.051-.033-.1-.064-.146-.089l-.115-.028a3.916,3.916,0,0,1-2.126-1.45.991.991,0,0,1-.079-.1c-2.307-1.179-3.4-5.036-3.249-8.313a32.316,32.316,0,0,1,1.674-11.448,9.34,9.34,0,0,1,.791-1.9,8.342,8.342,0,0,0,.454-1.113,5.324,5.324,0,0,1,.419-2.537l.056-.11.074-.1a8.555,8.555,0,0,0,1.445-3.2l.1-.339.015-.1c.066-.345.143-.73.253-1.154a2.385,2.385,0,0,1-.406-.107l-.036-.005a1.79,1.79,0,0,0-.2-.013,8.087,8.087,0,0,0-1.3.163l-.107.02H201.31c-.268,0-.539.013-.807.028-.319.018-.63.036-.944.036a6.655,6.655,0,0,1-1.08-.082l-.069-.013-.064-.018a3.372,3.372,0,0,1-2.642-3.1,2.274,2.274,0,0,1,1.312-2.476v-.048l.727-.322a11.343,11.343,0,0,1,4.388-.873c.311,0,.618.013.906.041.6.056,1.011.092,1.314.092a.815.815,0,0,0,.5-.115l.26-.128h.288a2.245,2.245,0,0,0,.3-.059,9.751,9.751,0,0,1,1.774-.227,5.4,5.4,0,0,0,.452-.87l.143-.337.227-.153a2.329,2.329,0,0,0,.281-.707l-.008-.049a4.258,4.258,0,0,1,.947-3.512l.059-.084.071-.071c.074-.074.12-.128.151-.163l-.133-.528,2.348-5.633a3.919,3.919,0,0,1,3.507-2.361,4.531,4.531,0,0,1,2.749,1.011,1.562,1.562,0,0,1,.579.513,1.712,1.712,0,0,0,.128.153l.089.1.14.176a3.368,3.368,0,0,1,1.006,2.341v1.172a8.7,8.7,0,0,1-.184,2.341l-.028.1-.041.1a11.338,11.338,0,0,0-.934,2.772,10.546,10.546,0,0,1-1,3.122,23.965,23.965,0,0,1,6.838-.891c1.072,0,2.154.046,3.3.094l1.251.049a4.114,4.114,0,0,1,2.254.727h.253l.362.546c.069.1.138.194.2.278a2.389,2.389,0,0,1,.592,1.424,3.437,3.437,0,0,1-1.6,2.792,5.124,5.124,0,0,1-2.838.768,9.857,9.857,0,0,0-1.008.074c-.34.036-.664.066-.955.071l-.219.025a25.378,25.378,0,0,1-3.52.268h-.166l-.26.13-.3.015h-.584a16.724,16.724,0,0,0-2.721.13l-.1.015h-.1c-.378,0-.789.031-1.225.064-.549.038-1.136.079-1.766.082l-.276.033c-.013.087-.059.47-.059.47l-.041.123a10.761,10.761,0,0,1-1.644,3.124,3.852,3.852,0,0,0-.776,2.624,5.706,5.706,0,0,1-.863,2.3l-.049.1s-.212.283-.26.35l-.12.265c-3.683,7.652-3.816,10.424-3.244,15.848l.005.128a.741.741,0,0,0,.008.128,3.332,3.332,0,0,0,.577.541l.069.059.061.069a5.135,5.135,0,0,0,3.992,2.06,8.6,8.6,0,0,0,2.989-.641l1.09-.375c2.328-.789,4.168-1.414,5.751-3.111a7.533,7.533,0,0,1,2.92-1.907,9.393,9.393,0,0,0,1.3-.513,11.028,11.028,0,0,0,2.848-2.593l.054-.069.061-.061c.4-.4.99-1.141,1.516-1.8a20.3,20.3,0,0,1,1.281-1.613,7.6,7.6,0,0,1,1.437-2.141,16.882,16.882,0,0,0,2.43-3.966l.265-.536a16.691,16.691,0,0,1,1.537-2.91,4.21,4.21,0,0,0-.288-2.731,5.287,5.287,0,0,1,.87-4.862l.069-.1.087-.087a10.4,10.4,0,0,0,1.131-1.662,5.388,5.388,0,0,1,.771-.97,6.188,6.188,0,0,1,4.875-2.3,8.838,8.838,0,0,1,2.466.383,4.308,4.308,0,0,1,2.782,2.823,3.6,3.6,0,0,1-.707,3.208,22.526,22.526,0,0,0-2.491,4.311,1.252,1.252,0,0,0,.145,1.095c.96,1.552,3.385,2.823,5.212,3.311l2.991.944.146.1a4.524,4.524,0,0,0,.674.342c.135.056.258.115.365.166l.066.033.064.043a3.482,3.482,0,0,1,1.115,4.546l-1.189,1.935-1.378,1.845a6.832,6.832,0,0,0-1.1,5.853c.388,2.3.615,2.318,2.1,2.417h.138a7.326,7.326,0,0,1,1.47.13,10.29,10.29,0,0,0,3.818-.914,5.821,5.821,0,0,1,2.142-1.493,2.948,2.948,0,0,0,1.713-1.018l.061-.061.069-.054c.168-.125.319-.25.47-.373a7.316,7.316,0,0,1,1.325-.911,6.162,6.162,0,0,0,2.261-2.432,7.53,7.53,0,0,1,1.363-1.866l.143-.14.176-.092a.862.862,0,0,0,.276-.217c.028-.054.056-.11.084-.166v-.061a3.187,3.187,0,0,1,.2-1.718c.043-.13.084-.265.117-.4l.059-.23.14-.191a63.343,63.343,0,0,0,3.576-5.873,10.49,10.49,0,0,1,4.811-4.459,7.528,7.528,0,0,1,2.282-1.588l.117-.059.133-.033a1.616,1.616,0,0,0,.613-.337c.1-.074.209-.148.319-.222a7.14,7.14,0,0,1,4.311-1.4c.237,0,.475.013.717.033,4.916.842,7.9,2.93,9.485,6.575a1.052,1.052,0,0,1,.071.12,11.541,11.541,0,0,1,1.2,3.29l-.005.123a4.024,4.024,0,0,1-3.566,3.724c-.2.015-.36.023-.518.023a5.814,5.814,0,0,1-.906-.072,2.954,2.954,0,0,1,1.34,2.2,6.384,6.384,0,0,1-.056,3.591,7.066,7.066,0,0,0,.743,5.968,4.291,4.291,0,0,0,2.361,1.743,15.749,15.749,0,0,0,1.919-.49l.1-.033.62-.092a9.044,9.044,0,0,0,6.213-3.04,19.605,19.605,0,0,1,2.218-1.912,8.7,8.7,0,0,0,2.221-2.216,16.139,16.139,0,0,0,.781-1.445,23.441,23.441,0,0,1,1.83-2.624,3.632,3.632,0,0,1,.189-.539l.847-1.534.092-.1a25.491,25.491,0,0,0,2.923-4.181l.077-.115a6.382,6.382,0,0,0,.426-.676,8.592,8.592,0,0,1,.551-.873,17.583,17.583,0,0,1,3.8-3.956,17.061,17.061,0,0,1,7.953-3.584,8.74,8.74,0,0,1,1.8-.186,12.1,12.1,0,0,1,5.4,1.463c2.1,1.052,3.216,2.805,3.729,5.863a23.54,23.54,0,0,1,0,7.392l-.01.082-.023.077a8.778,8.778,0,0,1-1.4,2.583c-.125.179-.25.357-.368.533l-.069.1-.087.087c-.168.169-.337.319-.5.462a3.23,3.23,0,0,0-.516.518l-.092.14-.128.11c-.288.245-.541.447-.776.633-.209.166-.388.311-.564.462a9.423,9.423,0,0,1,6.409,4.645,4.111,4.111,0,0,0,.638.934,3.448,3.448,0,0,0,.636-.276,7.592,7.592,0,0,1,3.1-2.5l.171-.082a2.851,2.851,0,0,0,1.812-1.547,3.432,3.432,0,0,1,1.746-1.7c1.225-.638,2.509-2.088,3.821-4.319a5.892,5.892,0,0,1,1.082-1.164c.1-.092.2-.176.273-.25a3.776,3.776,0,0,1,2.435-1.118,3.047,3.047,0,0,1,1.57.47h.291l1.741,1.738v.327a2.655,2.655,0,0,1-.046,2.887,14,14,0,0,1-2.5,3.122,5.569,5.569,0,0,0-1.608,2.448l-.107.322-.258.222c-.99.847-1.7,1.557-2.124,1.981-1.126,1.292-1.879,1.963-4.6,3.175a6.03,6.03,0,0,0-1.531,1.062l-.061.061-.278.209a14.953,14.953,0,0,1-4.339,2.466c-.02.089-.046.181-.074.276v.066a44.95,44.95,0,0,1-.439,6.366v.852l-.02.2a17.038,17.038,0,0,1-.944,4.727,20.285,20.285,0,0,0-2.113,6.417,9.253,9.253,0,0,1-.98,3.152,22.925,22.925,0,0,1-1.8,4.023l-1.1,2.341a15.946,15.946,0,0,1-4.867,7.185l-1.537,1.544a13.577,13.577,0,0,1-2.121,2l-.174.135a33.5,33.5,0,0,1-8.732,5.273,11.949,11.949,0,0,1-4.308.809m-3.175-8.4a2.339,2.339,0,0,1,.572.125,9.108,9.108,0,0,1,2.027.339l.1.026.1.044a1.371,1.371,0,0,0,.549.135,4.405,4.405,0,0,0,1.639-.625l.355-.184a6.513,6.513,0,0,1,1.536-.681l.414-.161.135-.265.48-.158a5.255,5.255,0,0,0,1.018-.59l.214-.148a12.219,12.219,0,0,0,3.265-2.894,7.227,7.227,0,0,1,2.144-2.2l.168-.125c1.09-.687,1.24-.878,1.44-1.769a5.987,5.987,0,0,1,1.58-2.874c.26-.352.332-.49.444-1.4a24.209,24.209,0,0,1,1.991-6.465l.311-.689a22.072,22.072,0,0,0,1.524-3.949c.5-2.384.9-4.8,1.248-7.106-.962.518-2.187,1.235-3.2,1.825-.789.462-1.588.929-2.341,1.355-.753.533-1.5.988-2.279,1.468l-.944.579a31.674,31.674,0,0,1-7.07,3.9l-.214.082h-.061c-.005.013-.169.253-.169.253l-.6.388c-2.948,1.871-5.493,3.487-6.746,6.368l-.092.212s-.888.886-1.2,1.192c-2.517,2.476-2.517,2.476-2.4,6.547l.005.166-.041.166c-.329,1.314-.207,2.131,1.2,4.658a9.427,9.427,0,0,0,2.907,2.448m-35.486-44.79a3.9,3.9,0,0,1,.283,1.023,6.751,6.751,0,0,0,2.634-1.774,12.055,12.055,0,0,1,2.7-2.848,4.848,4.848,0,0,0,1.942-2.938l.043-.128.881-1.47a7.3,7.3,0,0,1,.467-.952c.089-.163.186-.339.283-.533a5.16,5.16,0,0,1,3.188-2.461,2.755,2.755,0,0,1,1.389-.357c.1,0,.2.005.3.013a3.2,3.2,0,0,1-1.46-1.993l-.293-.684a3.7,3.7,0,0,1-.855-1.47c-.217-.656-.222-.669-1.233-.771a3.649,3.649,0,0,0-3.111,1.338,15.955,15.955,0,0,1-1.743,1.6c-.163.163-.314.306-.452.439a5.3,5.3,0,0,0-1.169,1.417,5.588,5.588,0,0,1-.853,1.2c-.5.707-.74,1.067-.74,1.261a3.76,3.76,0,0,1-.83,2.486,6.236,6.236,0,0,0-1.36,4.525,7.879,7.879,0,0,1-.079.988,8.019,8.019,0,0,0-.069.911,2.972,2.972,0,0,0,.051.436,6.94,6.94,0,0,1,.087.745" transform="translate(34.033 -143.368)" fill="#fec490" stroke="#5ca3af" stroke-miterlimit="10" stroke-width="3"/>
  </g>
</svg>
