<svg id="Componente_1_1" data-name="Componente 1 – 1" xmlns="http://www.w3.org/2000/svg" width="235.336" height="285.426" viewBox="0 0 235.336 285.426">
  <g id="Grupo_14" data-name="Grupo 14">
    <path id="Caminho_85" data-name="Caminho 85" d="M533.243,62.949c-2.985,0-4.469-1.663-5.906-3.27-1.38-1.541-2.682-3-5.3-3s-3.924,1.457-5.3,3c-1.437,1.607-2.924,3.27-5.906,3.27s-4.467-1.663-5.9-3.27c-1.38-1.541-2.682-3-5.3-3s-3.922,1.457-5.3,3c-1.437,1.607-2.921,3.27-5.9,3.27s-4.469-1.663-5.9-3.27c-1.38-1.541-2.682-3-5.3-3s-3.924,1.457-5.3,3c-1.437,1.607-2.921,3.27-5.9,3.27s-4.467-1.663-5.9-3.27c-1.378-1.541-2.682-3-5.3-3s-3.924,1.457-5.3,3c-1.437,1.607-2.921,3.27-5.9,3.27s-4.469-1.663-5.906-3.27c-1.378-1.541-2.679-3-5.3-3s-3.924,1.457-5.3,3c-1.437,1.607-2.921,3.27-5.9,3.27s-4.467-1.663-5.9-3.27c-1.38-1.541-2.682-3-5.3-3s-3.924,1.457-5.3,3c-1.437,1.607-2.921,3.27-5.9,3.27s-4.469-1.663-5.9-3.27c-1.38-1.541-2.682-3-5.3-3s-3.924,1.457-5.3,3c-1.437,1.607-2.924,3.27-5.906,3.27s-4.467-1.663-5.9-3.27c-1.378-1.541-2.679-3-5.3-3s-3.924,1.457-5.3,3c-1.435,1.607-2.921,3.27-5.9,3.27s-4.467-1.663-5.9-3.27c-1.378-1.541-2.679-3-5.3-3s-3.922,1.457-5.3,3c-1.437,1.607-2.921,3.27-5.9,3.27s-4.467-1.663-5.9-3.27c-1.378-1.541-2.682-3-5.3-3s-3.922,1.457-5.3,3c-1.437,1.607-2.924,3.27-5.9,3.27s-4.467-1.663-5.9-3.27c-1.378-1.541-2.682-3-5.3-3v-.808c2.983,0,4.467,1.661,5.9,3.268,1.378,1.543,2.682,3,5.3,3s3.922-1.457,5.3-3c1.437-1.607,2.924-3.268,5.9-3.268s4.467,1.661,5.9,3.268c1.378,1.543,2.682,3,5.3,3s3.922-1.457,5.3-3c1.435-1.607,2.921-3.268,5.9-3.268s4.469,1.661,5.9,3.268c1.38,1.543,2.682,3,5.3,3s3.924-1.457,5.3-3c1.437-1.607,2.924-3.268,5.906-3.268s4.467,1.661,5.9,3.268c1.378,1.543,2.679,3,5.3,3s3.924-1.457,5.3-3c1.435-1.607,2.921-3.268,5.9-3.268s4.467,1.661,5.9,3.268c1.378,1.543,2.679,3,5.3,3s3.922-1.457,5.3-3c1.435-1.607,2.922-3.268,5.9-3.268s4.467,1.661,5.9,3.268c1.378,1.543,2.681,3,5.3,3s3.924-1.457,5.3-3c1.437-1.607,2.921-3.268,5.9-3.268s4.469,1.661,5.9,3.268c1.38,1.543,2.682,3,5.3,3s3.924-1.457,5.3-3c1.437-1.607,2.921-3.268,5.9-3.268s4.467,1.661,5.9,3.268c1.378,1.543,2.682,3,5.3,3s3.924-1.457,5.3-3c1.437-1.607,2.921-3.268,5.9-3.268s4.469,1.661,5.906,3.268c1.378,1.543,2.679,3,5.3,3s3.924-1.457,5.3-3c1.437-1.607,2.921-3.268,5.9-3.268s4.469,1.661,5.906,3.268c1.378,1.543,2.681,3,5.3,3s3.924-1.457,5.3-3c1.437-1.607,2.921-3.268,5.9-3.268h0c2.982,0,4.469,1.661,5.906,3.268,1.378,1.543,2.682,3,5.3,3Z" transform="translate(-297.907 -55.873)" fill="#fff"/>
  </g>
  <g id="Grupo_15" data-name="Grupo 15" transform="translate(0 11.134)">
    <path id="Caminho_86" data-name="Caminho 86" d="M533.243,67.869c-2.985,0-4.469-1.661-5.906-3.27-1.38-1.541-2.682-3-5.3-3s-3.924,1.457-5.3,3c-1.437,1.609-2.924,3.27-5.906,3.27s-4.467-1.661-5.9-3.27c-1.38-1.541-2.682-3-5.3-3s-3.922,1.457-5.3,3c-1.437,1.609-2.921,3.27-5.9,3.27s-4.469-1.661-5.9-3.27c-1.38-1.541-2.682-3-5.3-3s-3.924,1.457-5.3,3c-1.437,1.609-2.921,3.27-5.9,3.27s-4.467-1.661-5.9-3.27c-1.378-1.541-2.682-3-5.3-3s-3.924,1.457-5.3,3c-1.437,1.609-2.921,3.27-5.9,3.27s-4.469-1.661-5.906-3.27c-1.378-1.541-2.679-3-5.3-3s-3.924,1.457-5.3,3c-1.437,1.609-2.921,3.27-5.9,3.27s-4.467-1.661-5.9-3.27c-1.38-1.541-2.682-3-5.3-3s-3.924,1.457-5.3,3c-1.437,1.609-2.921,3.27-5.9,3.27s-4.469-1.661-5.9-3.27c-1.38-1.541-2.682-3-5.3-3s-3.924,1.457-5.3,3c-1.437,1.609-2.924,3.27-5.906,3.27s-4.467-1.661-5.9-3.27c-1.378-1.541-2.679-3-5.3-3s-3.924,1.457-5.3,3c-1.435,1.609-2.921,3.27-5.9,3.27s-4.467-1.661-5.9-3.27c-1.378-1.541-2.679-3-5.3-3s-3.922,1.457-5.3,3c-1.437,1.609-2.921,3.27-5.9,3.27s-4.467-1.661-5.9-3.27c-1.378-1.541-2.682-3-5.3-3s-3.922,1.457-5.3,3c-1.437,1.609-2.924,3.27-5.9,3.27s-4.467-1.661-5.9-3.27c-1.378-1.541-2.682-3-5.3-3v-.808c2.983,0,4.467,1.663,5.9,3.27,1.378,1.541,2.682,3,5.3,3s3.922-1.457,5.3-3c1.437-1.607,2.924-3.27,5.9-3.27s4.467,1.663,5.9,3.27c1.378,1.541,2.682,3,5.3,3s3.922-1.457,5.3-3c1.435-1.607,2.921-3.27,5.9-3.27s4.469,1.663,5.9,3.27c1.38,1.541,2.682,3,5.3,3s3.924-1.457,5.3-3c1.437-1.607,2.924-3.27,5.906-3.27s4.467,1.663,5.9,3.27c1.378,1.541,2.679,3,5.3,3s3.924-1.457,5.3-3c1.435-1.609,2.921-3.27,5.9-3.27s4.467,1.661,5.9,3.27c1.378,1.541,2.679,3,5.3,3s3.922-1.457,5.3-3c1.435-1.607,2.922-3.27,5.9-3.27s4.467,1.663,5.9,3.27c1.378,1.541,2.681,3,5.3,3s3.924-1.457,5.3-3c1.437-1.607,2.921-3.27,5.9-3.27s4.469,1.661,5.9,3.27c1.38,1.541,2.682,3,5.3,3s3.924-1.457,5.3-3c1.437-1.607,2.921-3.27,5.9-3.27s4.467,1.663,5.9,3.27c1.378,1.541,2.682,3,5.3,3s3.924-1.457,5.3-3c1.437-1.607,2.921-3.27,5.9-3.27s4.469,1.663,5.906,3.27c1.378,1.541,2.679,3,5.3,3s3.924-1.457,5.3-3c1.437-1.609,2.921-3.27,5.9-3.27s4.469,1.663,5.906,3.27c1.378,1.541,2.681,3,5.3,3s3.924-1.457,5.3-3c1.437-1.607,2.921-3.27,5.9-3.27h0c2.982,0,4.469,1.663,5.906,3.27,1.378,1.541,2.682,3,5.3,3Z" transform="translate(-297.907 -60.793)" fill="#fff"/>
  </g>
  <g id="Grupo_16" data-name="Grupo 16" transform="translate(0 22.267)">
    <path id="Caminho_87" data-name="Caminho 87" d="M533.243,72.789c-2.985,0-4.469-1.661-5.906-3.268-1.38-1.543-2.682-3-5.3-3s-3.924,1.457-5.3,3c-1.437,1.607-2.924,3.268-5.906,3.268s-4.467-1.661-5.9-3.268c-1.38-1.543-2.682-3-5.3-3s-3.922,1.457-5.3,3c-1.437,1.609-2.921,3.27-5.9,3.27s-4.469-1.661-5.9-3.268c-1.38-1.543-2.682-3-5.3-3s-3.924,1.457-5.3,3c-1.437,1.607-2.921,3.268-5.9,3.268s-4.467-1.661-5.9-3.268c-1.378-1.543-2.682-3-5.3-3s-3.924,1.457-5.3,3c-1.437,1.607-2.921,3.268-5.9,3.268s-4.469-1.661-5.906-3.27c-1.378-1.541-2.679-3-5.3-3s-3.924,1.457-5.3,3c-1.437,1.607-2.921,3.268-5.9,3.268s-4.467-1.661-5.9-3.268c-1.38-1.543-2.682-3-5.3-3s-3.924,1.457-5.3,3c-1.437,1.607-2.921,3.268-5.9,3.268s-4.469-1.661-5.9-3.27c-1.38-1.541-2.682-3-5.3-3s-3.924,1.457-5.3,3c-1.437,1.609-2.924,3.27-5.906,3.27s-4.467-1.661-5.9-3.268c-1.378-1.543-2.679-3-5.3-3s-3.924,1.457-5.3,3c-1.435,1.607-2.921,3.268-5.9,3.268s-4.467-1.661-5.9-3.268c-1.378-1.543-2.679-3-5.3-3s-3.922,1.457-5.3,3c-1.437,1.607-2.921,3.268-5.9,3.268s-4.467-1.661-5.9-3.27c-1.378-1.541-2.682-3-5.3-3s-3.922,1.457-5.3,3c-1.437,1.607-2.924,3.268-5.9,3.268s-4.467-1.661-5.9-3.268c-1.378-1.543-2.682-3-5.3-3v-.808c2.983,0,4.467,1.663,5.9,3.27,1.378,1.541,2.682,3,5.3,3s3.922-1.457,5.3-3c1.437-1.607,2.924-3.27,5.9-3.27s4.467,1.663,5.9,3.27c1.378,1.541,2.682,3,5.3,3s3.922-1.457,5.3-3c1.435-1.607,2.921-3.27,5.9-3.27s4.469,1.663,5.9,3.27c1.38,1.541,2.682,3,5.3,3s3.924-1.457,5.3-3c1.437-1.607,2.924-3.27,5.906-3.27s4.467,1.663,5.9,3.27c1.378,1.541,2.679,3,5.3,3s3.924-1.457,5.3-3c1.435-1.607,2.921-3.27,5.9-3.27s4.467,1.663,5.9,3.27c1.378,1.541,2.679,3,5.3,3s3.922-1.457,5.3-3c1.435-1.607,2.922-3.27,5.9-3.27s4.467,1.663,5.9,3.27c1.378,1.541,2.681,3,5.3,3s3.924-1.457,5.3-3c1.437-1.607,2.921-3.27,5.9-3.27s4.469,1.663,5.9,3.27c1.38,1.541,2.682,3,5.3,3s3.924-1.457,5.3-3c1.437-1.607,2.921-3.27,5.9-3.27s4.467,1.663,5.9,3.27c1.378,1.541,2.682,3,5.3,3s3.924-1.457,5.3-3c1.437-1.607,2.921-3.27,5.9-3.27s4.469,1.663,5.906,3.27c1.378,1.541,2.679,3,5.3,3s3.924-1.457,5.3-3c1.437-1.607,2.921-3.27,5.9-3.27s4.469,1.663,5.906,3.27c1.378,1.541,2.681,3,5.3,3s3.924-1.457,5.3-3c1.437-1.607,2.921-3.27,5.9-3.27h0c2.982,0,4.469,1.663,5.906,3.27,1.378,1.541,2.682,3,5.3,3Z" transform="translate(-297.907 -65.713)" fill="#fff"/>
  </g>
  <g id="Grupo_17" data-name="Grupo 17" transform="translate(0 33.403)">
    <path id="Caminho_88" data-name="Caminho 88" d="M533.243,77.708c-2.985,0-4.469-1.661-5.906-3.268-1.38-1.543-2.682-3-5.3-3s-3.924,1.457-5.3,3c-1.437,1.607-2.924,3.268-5.906,3.268s-4.467-1.661-5.9-3.268c-1.38-1.543-2.682-3-5.3-3s-3.922,1.457-5.3,3c-1.437,1.607-2.921,3.268-5.9,3.268s-4.469-1.661-5.9-3.268c-1.38-1.543-2.682-3-5.3-3s-3.924,1.457-5.3,3c-1.437,1.607-2.921,3.268-5.9,3.268s-4.467-1.661-5.9-3.268c-1.378-1.543-2.682-3-5.3-3s-3.924,1.457-5.3,3c-1.437,1.607-2.921,3.268-5.9,3.268s-4.469-1.661-5.906-3.268c-1.378-1.543-2.679-3-5.3-3s-3.924,1.457-5.3,3c-1.437,1.607-2.921,3.268-5.9,3.268s-4.467-1.661-5.9-3.268c-1.38-1.543-2.682-3-5.3-3s-3.924,1.457-5.3,3c-1.437,1.607-2.921,3.268-5.9,3.268s-4.469-1.661-5.9-3.268c-1.38-1.543-2.682-3-5.3-3s-3.924,1.457-5.3,3c-1.437,1.607-2.924,3.268-5.906,3.268s-4.467-1.661-5.9-3.268c-1.378-1.543-2.679-3-5.3-3s-3.924,1.457-5.3,3c-1.435,1.607-2.921,3.268-5.9,3.268s-4.467-1.661-5.9-3.268c-1.378-1.543-2.679-3-5.3-3s-3.922,1.457-5.3,3c-1.437,1.607-2.921,3.268-5.9,3.268s-4.467-1.661-5.9-3.268c-1.378-1.543-2.682-3-5.3-3s-3.922,1.457-5.3,3c-1.437,1.607-2.924,3.268-5.9,3.268s-4.467-1.661-5.9-3.268c-1.378-1.543-2.682-3-5.3-3v-.806c2.983,0,4.467,1.661,5.9,3.268,1.378,1.543,2.682,3,5.3,3s3.922-1.455,5.3-3c1.437-1.607,2.924-3.268,5.9-3.268s4.467,1.661,5.9,3.268c1.378,1.543,2.682,3,5.3,3s3.922-1.455,5.3-3c1.435-1.607,2.921-3.268,5.9-3.268s4.469,1.661,5.9,3.268c1.38,1.543,2.682,3,5.3,3s3.924-1.455,5.3-3c1.437-1.607,2.924-3.268,5.906-3.268s4.467,1.661,5.9,3.268c1.378,1.543,2.679,3,5.3,3s3.924-1.455,5.3-3c1.435-1.607,2.921-3.268,5.9-3.268s4.467,1.661,5.9,3.268c1.378,1.543,2.679,3,5.3,3s3.922-1.455,5.3-3c1.435-1.607,2.922-3.268,5.9-3.268s4.467,1.661,5.9,3.268c1.378,1.543,2.681,3,5.3,3s3.924-1.455,5.3-3c1.437-1.607,2.921-3.268,5.9-3.268s4.469,1.661,5.9,3.268c1.38,1.543,2.682,3,5.3,3s3.924-1.455,5.3-3c1.437-1.607,2.921-3.268,5.9-3.268s4.467,1.661,5.9,3.268c1.378,1.543,2.682,3,5.3,3s3.924-1.455,5.3-3c1.437-1.607,2.921-3.268,5.9-3.268s4.469,1.661,5.906,3.268c1.378,1.543,2.679,3,5.3,3s3.924-1.455,5.3-3c1.437-1.607,2.921-3.268,5.9-3.268s4.469,1.661,5.906,3.268c1.378,1.543,2.681,3,5.3,3s3.924-1.455,5.3-3c1.437-1.607,2.921-3.268,5.9-3.268h0c2.982,0,4.469,1.661,5.906,3.268,1.378,1.543,2.682,3,5.3,3Z" transform="translate(-297.907 -70.634)" fill="#fff"/>
  </g>
  <g id="Grupo_18" data-name="Grupo 18" transform="translate(0 44.536)">
    <path id="Caminho_89" data-name="Caminho 89" d="M533.243,82.628c-2.985,0-4.469-1.661-5.906-3.268-1.38-1.541-2.682-3-5.3-3s-3.924,1.457-5.3,3c-1.437,1.607-2.924,3.268-5.906,3.268s-4.467-1.661-5.9-3.268c-1.38-1.541-2.682-3-5.3-3s-3.922,1.457-5.3,3c-1.437,1.607-2.921,3.268-5.9,3.268s-4.469-1.661-5.9-3.268c-1.38-1.541-2.682-3-5.3-3s-3.924,1.457-5.3,3c-1.437,1.607-2.921,3.268-5.9,3.268s-4.467-1.661-5.9-3.268c-1.378-1.541-2.682-3-5.3-3s-3.924,1.457-5.3,3c-1.437,1.607-2.921,3.268-5.9,3.268s-4.469-1.661-5.906-3.268c-1.378-1.541-2.679-3-5.3-3s-3.924,1.457-5.3,3c-1.437,1.607-2.921,3.268-5.9,3.268s-4.467-1.661-5.9-3.268c-1.38-1.541-2.682-3-5.3-3s-3.924,1.457-5.3,3c-1.437,1.607-2.921,3.268-5.9,3.268s-4.469-1.661-5.9-3.268c-1.38-1.541-2.682-3-5.3-3s-3.924,1.457-5.3,3c-1.437,1.607-2.924,3.268-5.906,3.268s-4.467-1.661-5.9-3.268c-1.378-1.541-2.679-3-5.3-3s-3.924,1.457-5.3,3c-1.435,1.607-2.921,3.268-5.9,3.268s-4.467-1.661-5.9-3.268c-1.378-1.541-2.679-3-5.3-3s-3.922,1.457-5.3,3c-1.437,1.607-2.921,3.268-5.9,3.268s-4.467-1.661-5.9-3.268c-1.378-1.541-2.682-3-5.3-3s-3.922,1.457-5.3,3c-1.437,1.607-2.924,3.268-5.9,3.268s-4.467-1.661-5.9-3.268c-1.378-1.541-2.682-3-5.3-3v-.808c2.983,0,4.467,1.661,5.9,3.268,1.378,1.543,2.682,3,5.3,3s3.922-1.457,5.3-3c1.437-1.607,2.924-3.268,5.9-3.268s4.467,1.661,5.9,3.268c1.378,1.543,2.682,3,5.3,3s3.922-1.457,5.3-3c1.435-1.607,2.921-3.268,5.9-3.268s4.469,1.661,5.9,3.268c1.38,1.543,2.682,3,5.3,3s3.924-1.457,5.3-3c1.437-1.607,2.924-3.268,5.906-3.268s4.467,1.661,5.9,3.268c1.378,1.543,2.679,3,5.3,3s3.924-1.457,5.3-3c1.435-1.607,2.921-3.268,5.9-3.268s4.467,1.661,5.9,3.268c1.378,1.543,2.679,3,5.3,3s3.922-1.457,5.3-3c1.435-1.607,2.922-3.268,5.9-3.268s4.467,1.661,5.9,3.268c1.378,1.543,2.681,3,5.3,3s3.924-1.457,5.3-3c1.437-1.607,2.921-3.268,5.9-3.268s4.469,1.661,5.9,3.268c1.38,1.543,2.682,3,5.3,3s3.924-1.457,5.3-3c1.437-1.607,2.921-3.268,5.9-3.268s4.467,1.661,5.9,3.268c1.378,1.543,2.682,3,5.3,3s3.924-1.457,5.3-3c1.437-1.607,2.921-3.268,5.9-3.268s4.469,1.661,5.906,3.268c1.378,1.543,2.679,3,5.3,3s3.924-1.457,5.3-3c1.437-1.607,2.921-3.268,5.9-3.268s4.469,1.661,5.906,3.268c1.378,1.543,2.681,3,5.3,3s3.924-1.457,5.3-3c1.437-1.607,2.921-3.268,5.9-3.268h0c2.982,0,4.469,1.661,5.906,3.268,1.378,1.543,2.682,3,5.3,3Z" transform="translate(-297.907 -75.554)" fill="#fff"/>
  </g>
  <g id="Grupo_19" data-name="Grupo 19" transform="translate(0 55.67)">
    <path id="Caminho_90" data-name="Caminho 90" d="M533.243,87.55c-2.985,0-4.469-1.661-5.906-3.27-1.38-1.541-2.682-3-5.3-3s-3.924,1.457-5.3,3c-1.437,1.609-2.924,3.27-5.906,3.27s-4.467-1.661-5.9-3.27c-1.38-1.541-2.682-3-5.3-3s-3.922,1.457-5.3,3c-1.437,1.609-2.921,3.27-5.9,3.27s-4.469-1.661-5.9-3.27c-1.38-1.541-2.682-3-5.3-3s-3.924,1.457-5.3,3c-1.437,1.609-2.921,3.27-5.9,3.27s-4.467-1.661-5.9-3.27c-1.378-1.541-2.682-3-5.3-3s-3.924,1.457-5.3,3c-1.437,1.609-2.921,3.27-5.9,3.27s-4.469-1.661-5.906-3.27c-1.378-1.541-2.679-3-5.3-3s-3.924,1.457-5.3,3c-1.437,1.609-2.921,3.27-5.9,3.27s-4.467-1.661-5.9-3.27c-1.38-1.541-2.682-3-5.3-3s-3.924,1.457-5.3,3c-1.437,1.609-2.921,3.27-5.9,3.27s-4.469-1.661-5.9-3.27c-1.38-1.541-2.682-3-5.3-3s-3.924,1.457-5.3,3c-1.437,1.609-2.924,3.27-5.906,3.27s-4.467-1.661-5.9-3.27c-1.378-1.541-2.679-3-5.3-3s-3.924,1.457-5.3,3c-1.435,1.609-2.921,3.27-5.9,3.27s-4.467-1.661-5.9-3.27c-1.378-1.541-2.679-3-5.3-3s-3.922,1.457-5.3,3c-1.437,1.609-2.921,3.27-5.9,3.27s-4.467-1.661-5.9-3.27c-1.378-1.541-2.682-3-5.3-3s-3.922,1.457-5.3,3c-1.437,1.609-2.924,3.27-5.9,3.27s-4.467-1.661-5.9-3.27c-1.378-1.541-2.682-3-5.3-3v-.808c2.983,0,4.467,1.661,5.9,3.268,1.378,1.543,2.682,3,5.3,3s3.922-1.457,5.3-3c1.437-1.607,2.924-3.268,5.9-3.268s4.467,1.661,5.9,3.268c1.378,1.543,2.682,3,5.3,3s3.922-1.457,5.3-3c1.435-1.607,2.921-3.268,5.9-3.268s4.469,1.661,5.9,3.268c1.38,1.543,2.682,3,5.3,3s3.924-1.457,5.3-3c1.437-1.607,2.924-3.268,5.906-3.268s4.467,1.661,5.9,3.268c1.378,1.543,2.679,3,5.3,3s3.924-1.457,5.3-3c1.435-1.607,2.921-3.268,5.9-3.268s4.467,1.661,5.9,3.268c1.378,1.543,2.679,3,5.3,3s3.922-1.457,5.3-3c1.435-1.607,2.922-3.268,5.9-3.268s4.467,1.661,5.9,3.268c1.378,1.543,2.681,3,5.3,3s3.924-1.457,5.3-3c1.437-1.607,2.921-3.268,5.9-3.268s4.469,1.661,5.9,3.268c1.38,1.543,2.682,3,5.3,3s3.924-1.457,5.3-3c1.437-1.607,2.921-3.268,5.9-3.268s4.467,1.661,5.9,3.268c1.378,1.543,2.682,3,5.3,3s3.924-1.457,5.3-3c1.437-1.607,2.921-3.268,5.9-3.268s4.469,1.661,5.906,3.268c1.378,1.543,2.679,3,5.3,3s3.924-1.457,5.3-3c1.437-1.607,2.921-3.268,5.9-3.268s4.469,1.661,5.906,3.268c1.378,1.543,2.681,3,5.3,3s3.924-1.457,5.3-3c1.437-1.607,2.921-3.268,5.9-3.268h0c2.982,0,4.469,1.661,5.906,3.268,1.378,1.543,2.682,3,5.3,3Z" transform="translate(-297.907 -80.474)" fill="#fff"/>
  </g>
  <g id="Grupo_20" data-name="Grupo 20" transform="translate(0 66.804)">
    <path id="Caminho_91" data-name="Caminho 91" d="M533.243,92.47c-2.985,0-4.469-1.661-5.906-3.268-1.38-1.543-2.682-3-5.3-3s-3.924,1.457-5.3,3c-1.437,1.607-2.924,3.268-5.906,3.268s-4.467-1.661-5.9-3.268c-1.38-1.543-2.682-3-5.3-3s-3.922,1.457-5.3,3c-1.437,1.609-2.921,3.27-5.9,3.27s-4.469-1.661-5.9-3.268c-1.38-1.543-2.682-3-5.3-3s-3.924,1.457-5.3,3c-1.437,1.607-2.921,3.268-5.9,3.268s-4.467-1.661-5.9-3.268c-1.378-1.543-2.682-3-5.3-3s-3.924,1.457-5.3,3c-1.437,1.607-2.921,3.268-5.9,3.268s-4.469-1.661-5.906-3.27c-1.378-1.541-2.679-3-5.3-3s-3.924,1.457-5.3,3c-1.437,1.607-2.921,3.268-5.9,3.268s-4.467-1.661-5.9-3.268c-1.38-1.543-2.682-3-5.3-3s-3.924,1.457-5.3,3c-1.437,1.607-2.921,3.268-5.9,3.268s-4.469-1.661-5.9-3.27c-1.38-1.541-2.682-3-5.3-3s-3.924,1.457-5.3,3c-1.437,1.609-2.924,3.27-5.906,3.27s-4.467-1.661-5.9-3.268c-1.378-1.543-2.679-3-5.3-3s-3.924,1.457-5.3,3c-1.435,1.607-2.921,3.268-5.9,3.268s-4.467-1.661-5.9-3.268c-1.378-1.543-2.679-3-5.3-3s-3.922,1.457-5.3,3c-1.437,1.607-2.921,3.268-5.9,3.268s-4.467-1.661-5.9-3.27c-1.378-1.541-2.682-3-5.3-3s-3.922,1.457-5.3,3c-1.437,1.607-2.924,3.268-5.9,3.268s-4.467-1.661-5.9-3.268c-1.378-1.543-2.682-3-5.3-3v-.808c2.983,0,4.467,1.661,5.9,3.27,1.378,1.541,2.682,3,5.3,3s3.922-1.457,5.3-3c1.437-1.609,2.924-3.27,5.9-3.27s4.467,1.661,5.9,3.27c1.378,1.541,2.682,3,5.3,3s3.922-1.457,5.3-3c1.435-1.609,2.921-3.27,5.9-3.27s4.469,1.661,5.9,3.27c1.38,1.541,2.682,3,5.3,3s3.924-1.457,5.3-3c1.437-1.609,2.924-3.27,5.906-3.27s4.467,1.661,5.9,3.27c1.378,1.541,2.679,3,5.3,3s3.924-1.457,5.3-3c1.435-1.609,2.921-3.27,5.9-3.27s4.467,1.661,5.9,3.27c1.378,1.541,2.679,3,5.3,3s3.922-1.457,5.3-3c1.435-1.609,2.922-3.27,5.9-3.27s4.467,1.661,5.9,3.27c1.378,1.541,2.681,3,5.3,3s3.924-1.457,5.3-3c1.437-1.609,2.921-3.27,5.9-3.27s4.469,1.661,5.9,3.27c1.38,1.541,2.682,3,5.3,3s3.924-1.457,5.3-3c1.437-1.609,2.921-3.27,5.9-3.27s4.467,1.661,5.9,3.27c1.378,1.541,2.682,3,5.3,3s3.924-1.457,5.3-3c1.437-1.609,2.921-3.27,5.9-3.27s4.469,1.661,5.906,3.27c1.378,1.541,2.679,3,5.3,3s3.924-1.457,5.3-3c1.437-1.609,2.921-3.27,5.9-3.27s4.469,1.661,5.906,3.27c1.378,1.541,2.681,3,5.3,3s3.924-1.457,5.3-3c1.437-1.609,2.921-3.27,5.9-3.27h0c2.982,0,4.469,1.661,5.906,3.27,1.378,1.541,2.682,3,5.3,3Z" transform="translate(-297.907 -85.394)" fill="#fff"/>
  </g>
  <g id="Grupo_21" data-name="Grupo 21" transform="translate(0 77.937)">
    <path id="Caminho_92" data-name="Caminho 92" d="M533.243,97.39c-2.985,0-4.469-1.661-5.906-3.268-1.38-1.543-2.682-3-5.3-3s-3.924,1.457-5.3,3c-1.437,1.607-2.924,3.268-5.906,3.268s-4.467-1.661-5.9-3.268c-1.38-1.543-2.682-3-5.3-3s-3.922,1.457-5.3,3c-1.437,1.607-2.921,3.268-5.9,3.268s-4.469-1.661-5.9-3.268c-1.38-1.543-2.682-3-5.3-3s-3.924,1.457-5.3,3c-1.437,1.607-2.921,3.268-5.9,3.268s-4.467-1.661-5.9-3.268c-1.378-1.543-2.682-3-5.3-3s-3.924,1.457-5.3,3c-1.437,1.607-2.921,3.268-5.9,3.268s-4.469-1.661-5.906-3.268c-1.378-1.543-2.679-3-5.3-3s-3.924,1.457-5.3,3c-1.437,1.607-2.921,3.268-5.9,3.268s-4.467-1.661-5.9-3.268c-1.38-1.543-2.682-3-5.3-3s-3.924,1.457-5.3,3c-1.437,1.607-2.921,3.268-5.9,3.268s-4.469-1.661-5.9-3.268c-1.38-1.543-2.682-3-5.3-3s-3.924,1.457-5.3,3c-1.437,1.607-2.924,3.268-5.906,3.268s-4.467-1.661-5.9-3.268c-1.378-1.543-2.679-3-5.3-3s-3.924,1.457-5.3,3c-1.435,1.607-2.921,3.268-5.9,3.268s-4.467-1.661-5.9-3.268c-1.378-1.543-2.679-3-5.3-3s-3.922,1.457-5.3,3c-1.437,1.607-2.921,3.268-5.9,3.268s-4.467-1.661-5.9-3.268c-1.378-1.543-2.682-3-5.3-3s-3.922,1.457-5.3,3c-1.437,1.607-2.924,3.268-5.9,3.268s-4.467-1.661-5.9-3.268c-1.378-1.543-2.682-3-5.3-3v-.808c2.983,0,4.467,1.663,5.9,3.27,1.378,1.541,2.682,3,5.3,3s3.922-1.457,5.3-3c1.437-1.607,2.924-3.27,5.9-3.27s4.467,1.663,5.9,3.27c1.378,1.541,2.682,3,5.3,3s3.922-1.457,5.3-3c1.435-1.607,2.921-3.27,5.9-3.27s4.469,1.663,5.9,3.27c1.38,1.541,2.682,3,5.3,3s3.924-1.457,5.3-3c1.437-1.607,2.924-3.27,5.906-3.27s4.467,1.663,5.9,3.27c1.378,1.541,2.679,3,5.3,3s3.924-1.457,5.3-3c1.435-1.607,2.921-3.27,5.9-3.27s4.467,1.663,5.9,3.27c1.378,1.541,2.679,3,5.3,3s3.922-1.457,5.3-3c1.435-1.607,2.922-3.27,5.9-3.27s4.467,1.663,5.9,3.27c1.378,1.541,2.681,3,5.3,3s3.924-1.457,5.3-3c1.437-1.607,2.921-3.27,5.9-3.27s4.469,1.663,5.9,3.27c1.38,1.541,2.682,3,5.3,3s3.924-1.457,5.3-3c1.437-1.607,2.921-3.27,5.9-3.27s4.467,1.663,5.9,3.27c1.378,1.541,2.682,3,5.3,3s3.924-1.457,5.3-3c1.437-1.607,2.921-3.27,5.9-3.27s4.469,1.663,5.906,3.27c1.378,1.541,2.679,3,5.3,3s3.924-1.457,5.3-3c1.437-1.607,2.921-3.27,5.9-3.27s4.469,1.663,5.906,3.27c1.378,1.541,2.681,3,5.3,3s3.924-1.457,5.3-3c1.437-1.607,2.921-3.27,5.9-3.27h0c2.982,0,4.469,1.663,5.906,3.27,1.378,1.541,2.682,3,5.3,3Z" transform="translate(-297.907 -90.314)" fill="#fff"/>
  </g>
  <g id="Grupo_22" data-name="Grupo 22" transform="translate(0 89.073)">
    <path id="Caminho_93" data-name="Caminho 93" d="M533.243,102.309c-2.985,0-4.469-1.661-5.906-3.268-1.38-1.543-2.682-3-5.3-3s-3.924,1.455-5.3,3c-1.437,1.607-2.924,3.268-5.906,3.268s-4.467-1.661-5.9-3.268c-1.38-1.543-2.682-3-5.3-3s-3.922,1.455-5.3,3c-1.437,1.607-2.921,3.268-5.9,3.268s-4.469-1.661-5.9-3.268c-1.38-1.543-2.682-3-5.3-3s-3.924,1.455-5.3,3c-1.437,1.607-2.921,3.268-5.9,3.268s-4.467-1.661-5.9-3.268c-1.378-1.543-2.682-3-5.3-3s-3.924,1.455-5.3,3c-1.437,1.607-2.921,3.268-5.9,3.268s-4.469-1.661-5.906-3.268c-1.378-1.543-2.679-3-5.3-3s-3.924,1.455-5.3,3c-1.437,1.607-2.921,3.268-5.9,3.268s-4.467-1.661-5.9-3.268c-1.38-1.543-2.682-3-5.3-3s-3.924,1.455-5.3,3c-1.437,1.607-2.921,3.268-5.9,3.268s-4.469-1.661-5.9-3.268c-1.38-1.543-2.682-3-5.3-3s-3.924,1.455-5.3,3c-1.437,1.607-2.924,3.268-5.906,3.268s-4.467-1.661-5.9-3.268c-1.378-1.543-2.679-3-5.3-3s-3.924,1.455-5.3,3c-1.435,1.607-2.921,3.268-5.9,3.268s-4.467-1.661-5.9-3.268c-1.378-1.543-2.679-3-5.3-3s-3.922,1.455-5.3,3c-1.437,1.607-2.921,3.268-5.9,3.268s-4.467-1.661-5.9-3.268c-1.378-1.543-2.682-3-5.3-3s-3.922,1.455-5.3,3c-1.437,1.607-2.924,3.268-5.9,3.268s-4.467-1.661-5.9-3.268c-1.378-1.543-2.682-3-5.3-3v-.808c2.983,0,4.467,1.661,5.9,3.268,1.378,1.543,2.682,3,5.3,3s3.922-1.457,5.3-3c1.437-1.607,2.924-3.268,5.9-3.268s4.467,1.661,5.9,3.268c1.378,1.543,2.682,3,5.3,3s3.922-1.457,5.3-3c1.435-1.607,2.921-3.268,5.9-3.268s4.469,1.661,5.9,3.268c1.38,1.543,2.682,3,5.3,3s3.924-1.457,5.3-3c1.437-1.607,2.924-3.268,5.906-3.268s4.467,1.661,5.9,3.268c1.378,1.543,2.679,3,5.3,3s3.924-1.457,5.3-3c1.435-1.607,2.921-3.268,5.9-3.268s4.467,1.661,5.9,3.268c1.378,1.543,2.679,3,5.3,3s3.922-1.457,5.3-3c1.435-1.607,2.922-3.268,5.9-3.268s4.467,1.661,5.9,3.268c1.378,1.543,2.681,3,5.3,3s3.924-1.457,5.3-3c1.437-1.607,2.921-3.268,5.9-3.268s4.469,1.661,5.9,3.268c1.38,1.543,2.682,3,5.3,3s3.924-1.457,5.3-3c1.437-1.607,2.921-3.268,5.9-3.268s4.467,1.661,5.9,3.268c1.378,1.543,2.682,3,5.3,3s3.924-1.457,5.3-3c1.437-1.607,2.921-3.268,5.9-3.268s4.469,1.661,5.906,3.268c1.378,1.543,2.679,3,5.3,3s3.924-1.457,5.3-3c1.437-1.607,2.921-3.268,5.9-3.268s4.469,1.661,5.906,3.268c1.378,1.543,2.681,3,5.3,3s3.924-1.457,5.3-3c1.437-1.607,2.921-3.268,5.9-3.268h0c2.982,0,4.469,1.661,5.906,3.268,1.378,1.543,2.682,3,5.3,3Z" transform="translate(-297.907 -95.235)" fill="#fff"/>
  </g>
  <g id="Grupo_23" data-name="Grupo 23" transform="translate(0 100.206)">
    <path id="Caminho_94" data-name="Caminho 94" d="M533.243,107.231c-2.985,0-4.469-1.663-5.906-3.27-1.38-1.543-2.682-3-5.3-3s-3.924,1.455-5.3,3c-1.437,1.607-2.924,3.27-5.906,3.27s-4.467-1.663-5.9-3.27c-1.38-1.543-2.682-3-5.3-3s-3.922,1.455-5.3,3c-1.437,1.607-2.921,3.27-5.9,3.27s-4.469-1.663-5.9-3.27c-1.38-1.541-2.682-3-5.3-3s-3.924,1.455-5.3,3c-1.437,1.607-2.921,3.27-5.9,3.27s-4.467-1.663-5.9-3.27c-1.378-1.543-2.682-3-5.3-3s-3.924,1.455-5.3,3c-1.437,1.607-2.921,3.27-5.9,3.27s-4.469-1.663-5.906-3.27c-1.378-1.543-2.679-3-5.3-3s-3.924,1.457-5.3,3c-1.437,1.607-2.921,3.27-5.9,3.27s-4.467-1.663-5.9-3.27c-1.38-1.543-2.682-3-5.3-3s-3.924,1.455-5.3,3c-1.437,1.607-2.921,3.27-5.9,3.27s-4.469-1.663-5.9-3.27c-1.38-1.543-2.682-3-5.3-3s-3.924,1.455-5.3,3c-1.437,1.607-2.924,3.27-5.906,3.27s-4.467-1.663-5.9-3.27c-1.378-1.543-2.679-3-5.3-3s-3.924,1.455-5.3,3c-1.435,1.607-2.921,3.27-5.9,3.27s-4.467-1.663-5.9-3.27c-1.378-1.543-2.679-3-5.3-3s-3.922,1.455-5.3,3c-1.437,1.607-2.921,3.27-5.9,3.27s-4.467-1.663-5.9-3.27c-1.378-1.543-2.682-3-5.3-3s-3.922,1.457-5.3,3c-1.437,1.607-2.924,3.27-5.9,3.27s-4.467-1.663-5.9-3.27c-1.378-1.543-2.682-3-5.3-3v-.808c2.983,0,4.467,1.661,5.9,3.268,1.378,1.543,2.682,3,5.3,3s3.922-1.457,5.3-3c1.437-1.607,2.924-3.268,5.9-3.268s4.467,1.661,5.9,3.268c1.378,1.543,2.682,3,5.3,3s3.922-1.457,5.3-3c1.435-1.607,2.921-3.268,5.9-3.268s4.469,1.661,5.9,3.268c1.38,1.543,2.682,3,5.3,3s3.924-1.457,5.3-3c1.437-1.607,2.924-3.268,5.906-3.268s4.467,1.661,5.9,3.268c1.378,1.543,2.679,3,5.3,3s3.924-1.457,5.3-3c1.435-1.607,2.921-3.268,5.9-3.268s4.467,1.661,5.9,3.268c1.378,1.543,2.679,3,5.3,3s3.922-1.457,5.3-3c1.435-1.607,2.922-3.268,5.9-3.268s4.467,1.661,5.9,3.268c1.378,1.543,2.681,3,5.3,3s3.924-1.457,5.3-3c1.437-1.607,2.921-3.268,5.9-3.268s4.469,1.661,5.9,3.268c1.38,1.543,2.682,3,5.3,3s3.924-1.457,5.3-3c1.437-1.607,2.921-3.268,5.9-3.268s4.467,1.661,5.9,3.268c1.378,1.543,2.682,3,5.3,3s3.924-1.457,5.3-3c1.437-1.607,2.921-3.268,5.9-3.268s4.469,1.661,5.906,3.268c1.378,1.543,2.679,3,5.3,3s3.924-1.457,5.3-3c1.437-1.607,2.921-3.268,5.9-3.268s4.469,1.661,5.906,3.268c1.378,1.543,2.681,3,5.3,3s3.924-1.457,5.3-3c1.437-1.607,2.921-3.268,5.9-3.268h0c2.982,0,4.469,1.661,5.906,3.268,1.378,1.543,2.682,3,5.3,3Z" transform="translate(-297.907 -100.155)" fill="#fff"/>
  </g>
  <g id="Grupo_24" data-name="Grupo 24" transform="translate(0 111.34)">
    <path id="Caminho_95" data-name="Caminho 95" d="M533.243,112.151c-2.985,0-4.469-1.663-5.906-3.27-1.38-1.541-2.682-3-5.3-3s-3.924,1.457-5.3,3c-1.437,1.607-2.924,3.27-5.906,3.27s-4.467-1.663-5.9-3.27c-1.38-1.541-2.682-3-5.3-3s-3.922,1.457-5.3,3c-1.437,1.607-2.921,3.27-5.9,3.27s-4.469-1.663-5.9-3.27c-1.38-1.541-2.682-3-5.3-3s-3.924,1.457-5.3,3c-1.437,1.607-2.921,3.27-5.9,3.27s-4.467-1.663-5.9-3.27c-1.378-1.541-2.682-3-5.3-3s-3.924,1.457-5.3,3c-1.437,1.607-2.921,3.27-5.9,3.27s-4.469-1.663-5.906-3.27c-1.378-1.541-2.679-3-5.3-3s-3.924,1.457-5.3,3c-1.437,1.607-2.921,3.27-5.9,3.27s-4.467-1.663-5.9-3.27c-1.38-1.541-2.682-3-5.3-3s-3.924,1.457-5.3,3c-1.437,1.607-2.921,3.27-5.9,3.27s-4.469-1.663-5.9-3.27c-1.38-1.541-2.682-3-5.3-3s-3.924,1.457-5.3,3c-1.437,1.607-2.924,3.27-5.906,3.27s-4.467-1.663-5.9-3.27c-1.378-1.541-2.679-3-5.3-3s-3.924,1.457-5.3,3c-1.435,1.607-2.921,3.27-5.9,3.27s-4.467-1.663-5.9-3.27c-1.378-1.541-2.679-3-5.3-3s-3.922,1.457-5.3,3c-1.437,1.607-2.921,3.27-5.9,3.27s-4.467-1.663-5.9-3.27c-1.378-1.541-2.682-3-5.3-3s-3.922,1.457-5.3,3c-1.437,1.607-2.924,3.27-5.9,3.27s-4.467-1.663-5.9-3.27c-1.378-1.541-2.682-3-5.3-3v-.808c2.983,0,4.467,1.661,5.9,3.268,1.378,1.543,2.682,3,5.3,3s3.922-1.457,5.3-3c1.437-1.607,2.924-3.268,5.9-3.268s4.467,1.661,5.9,3.268c1.378,1.543,2.682,3,5.3,3s3.922-1.457,5.3-3c1.435-1.607,2.921-3.268,5.9-3.268s4.469,1.661,5.9,3.268c1.38,1.543,2.682,3,5.3,3s3.924-1.457,5.3-3c1.437-1.607,2.924-3.268,5.906-3.268s4.467,1.661,5.9,3.268c1.378,1.543,2.679,3,5.3,3s3.924-1.457,5.3-3c1.435-1.607,2.921-3.268,5.9-3.268s4.467,1.661,5.9,3.268c1.378,1.543,2.679,3,5.3,3s3.922-1.457,5.3-3c1.435-1.607,2.922-3.268,5.9-3.268s4.467,1.661,5.9,3.268c1.378,1.543,2.681,3,5.3,3s3.924-1.457,5.3-3c1.437-1.607,2.921-3.268,5.9-3.268s4.469,1.661,5.9,3.268c1.38,1.543,2.682,3,5.3,3s3.924-1.457,5.3-3c1.437-1.607,2.921-3.268,5.9-3.268s4.467,1.661,5.9,3.268c1.378,1.543,2.682,3,5.3,3s3.924-1.457,5.3-3c1.437-1.607,2.921-3.268,5.9-3.268s4.469,1.661,5.906,3.268c1.378,1.543,2.679,3,5.3,3s3.924-1.457,5.3-3c1.437-1.607,2.921-3.268,5.9-3.268s4.469,1.661,5.906,3.268c1.378,1.543,2.681,3,5.3,3s3.924-1.457,5.3-3c1.437-1.607,2.921-3.268,5.9-3.268h0c2.982,0,4.469,1.661,5.906,3.268,1.378,1.543,2.682,3,5.3,3Z" transform="translate(-297.907 -105.075)" fill="#fff"/>
  </g>
  <g id="Grupo_25" data-name="Grupo 25" transform="translate(0 122.474)">
    <path id="Caminho_96" data-name="Caminho 96" d="M533.243,117.071c-2.985,0-4.469-1.661-5.906-3.268-1.38-1.543-2.682-3-5.3-3s-3.924,1.457-5.3,3c-1.437,1.607-2.924,3.268-5.906,3.268s-4.467-1.661-5.9-3.268c-1.38-1.543-2.682-3-5.3-3s-3.922,1.457-5.3,3c-1.437,1.607-2.921,3.268-5.9,3.268s-4.469-1.661-5.9-3.268c-1.38-1.543-2.682-3-5.3-3s-3.924,1.457-5.3,3c-1.437,1.607-2.921,3.268-5.9,3.268s-4.467-1.661-5.9-3.268c-1.378-1.543-2.682-3-5.3-3s-3.924,1.457-5.3,3c-1.437,1.607-2.921,3.268-5.9,3.268s-4.469-1.661-5.906-3.268c-1.378-1.543-2.679-3-5.3-3s-3.924,1.457-5.3,3c-1.437,1.607-2.921,3.268-5.9,3.268s-4.467-1.661-5.9-3.268c-1.38-1.543-2.682-3-5.3-3s-3.924,1.457-5.3,3c-1.437,1.607-2.921,3.268-5.9,3.268s-4.469-1.661-5.9-3.268c-1.38-1.543-2.682-3-5.3-3s-3.924,1.457-5.3,3c-1.437,1.607-2.924,3.268-5.906,3.268s-4.467-1.661-5.9-3.268c-1.378-1.543-2.679-3-5.3-3s-3.924,1.457-5.3,3c-1.435,1.607-2.921,3.268-5.9,3.268s-4.467-1.661-5.9-3.268c-1.378-1.543-2.679-3-5.3-3s-3.922,1.457-5.3,3c-1.437,1.607-2.921,3.268-5.9,3.268s-4.467-1.661-5.9-3.268c-1.378-1.543-2.682-3-5.3-3s-3.922,1.457-5.3,3c-1.437,1.607-2.924,3.268-5.9,3.268s-4.467-1.661-5.9-3.268c-1.378-1.543-2.682-3-5.3-3V110c2.983,0,4.467,1.663,5.9,3.27,1.378,1.541,2.682,3,5.3,3s3.922-1.457,5.3-3c1.437-1.607,2.924-3.27,5.9-3.27s4.467,1.663,5.9,3.27c1.378,1.541,2.682,3,5.3,3s3.922-1.457,5.3-3c1.435-1.607,2.921-3.27,5.9-3.27s4.469,1.663,5.9,3.27c1.38,1.541,2.682,3,5.3,3s3.924-1.457,5.3-3c1.437-1.607,2.924-3.27,5.906-3.27s4.467,1.663,5.9,3.27c1.378,1.541,2.679,3,5.3,3s3.924-1.457,5.3-3c1.435-1.607,2.921-3.27,5.9-3.27s4.467,1.663,5.9,3.27c1.378,1.541,2.679,3,5.3,3s3.922-1.457,5.3-3c1.435-1.607,2.922-3.27,5.9-3.27s4.467,1.663,5.9,3.27c1.378,1.541,2.681,3,5.3,3s3.924-1.457,5.3-3c1.437-1.607,2.921-3.27,5.9-3.27s4.469,1.663,5.9,3.27c1.38,1.541,2.682,3,5.3,3s3.924-1.457,5.3-3c1.437-1.607,2.921-3.27,5.9-3.27s4.467,1.663,5.9,3.27c1.378,1.541,2.682,3,5.3,3s3.924-1.457,5.3-3c1.437-1.607,2.921-3.27,5.9-3.27s4.469,1.663,5.906,3.27c1.378,1.541,2.679,3,5.3,3s3.924-1.457,5.3-3c1.437-1.607,2.921-3.27,5.9-3.27s4.469,1.663,5.906,3.27c1.378,1.541,2.681,3,5.3,3s3.924-1.457,5.3-3c1.437-1.607,2.921-3.27,5.9-3.27h0c2.982,0,4.469,1.663,5.906,3.27,1.378,1.541,2.682,3,5.3,3Z" transform="translate(-297.907 -109.995)" fill="#fff"/>
  </g>
  <g id="Grupo_26" data-name="Grupo 26" transform="translate(0 133.609)">
    <path id="Caminho_97" data-name="Caminho 97" d="M533.243,121.99c-2.985,0-4.469-1.661-5.906-3.268-1.38-1.543-2.682-3-5.3-3s-3.924,1.455-5.3,3c-1.437,1.607-2.924,3.268-5.906,3.268s-4.467-1.661-5.9-3.268c-1.38-1.543-2.682-3-5.3-3s-3.922,1.455-5.3,3c-1.437,1.607-2.921,3.268-5.9,3.268s-4.469-1.661-5.9-3.268c-1.38-1.543-2.682-3-5.3-3s-3.924,1.455-5.3,3c-1.437,1.607-2.921,3.268-5.9,3.268s-4.467-1.661-5.9-3.268c-1.378-1.543-2.682-3-5.3-3s-3.924,1.455-5.3,3c-1.437,1.607-2.921,3.268-5.9,3.268s-4.469-1.661-5.906-3.268c-1.378-1.543-2.679-3-5.3-3s-3.924,1.455-5.3,3c-1.437,1.607-2.921,3.268-5.9,3.268s-4.467-1.661-5.9-3.268c-1.38-1.543-2.682-3-5.3-3s-3.924,1.455-5.3,3c-1.437,1.607-2.921,3.268-5.9,3.268s-4.469-1.661-5.9-3.268c-1.38-1.543-2.682-3-5.3-3s-3.924,1.455-5.3,3c-1.437,1.607-2.924,3.268-5.906,3.268s-4.467-1.661-5.9-3.268c-1.378-1.543-2.679-3-5.3-3s-3.924,1.455-5.3,3c-1.435,1.607-2.921,3.268-5.9,3.268s-4.467-1.661-5.9-3.268c-1.378-1.543-2.679-3-5.3-3s-3.922,1.455-5.3,3c-1.437,1.607-2.921,3.268-5.9,3.268s-4.467-1.661-5.9-3.268c-1.378-1.543-2.682-3-5.3-3s-3.922,1.455-5.3,3c-1.437,1.607-2.924,3.268-5.9,3.268s-4.467-1.661-5.9-3.268c-1.378-1.543-2.682-3-5.3-3v-.808c2.983,0,4.467,1.661,5.9,3.268,1.378,1.541,2.682,3,5.3,3s3.922-1.457,5.3-3c1.437-1.607,2.924-3.268,5.9-3.268s4.467,1.661,5.9,3.268c1.378,1.541,2.682,3,5.3,3s3.922-1.457,5.3-3c1.435-1.607,2.921-3.268,5.9-3.268s4.469,1.661,5.9,3.268c1.38,1.541,2.682,3,5.3,3s3.924-1.457,5.3-3c1.437-1.607,2.924-3.268,5.906-3.268s4.467,1.661,5.9,3.268c1.378,1.541,2.679,3,5.3,3s3.924-1.457,5.3-3c1.435-1.607,2.921-3.268,5.9-3.268s4.467,1.661,5.9,3.268c1.378,1.541,2.679,3,5.3,3s3.922-1.457,5.3-3c1.435-1.607,2.922-3.268,5.9-3.268s4.467,1.661,5.9,3.268c1.378,1.541,2.681,3,5.3,3s3.924-1.457,5.3-3c1.437-1.607,2.921-3.268,5.9-3.268s4.469,1.661,5.9,3.268c1.38,1.541,2.682,3,5.3,3s3.924-1.457,5.3-3c1.437-1.607,2.921-3.268,5.9-3.268s4.467,1.661,5.9,3.268c1.378,1.541,2.682,3,5.3,3s3.924-1.457,5.3-3c1.437-1.607,2.921-3.268,5.9-3.268s4.469,1.661,5.906,3.268c1.378,1.541,2.679,3,5.3,3s3.924-1.457,5.3-3c1.437-1.607,2.921-3.268,5.9-3.268s4.469,1.661,5.906,3.268c1.378,1.541,2.681,3,5.3,3s3.924-1.457,5.3-3c1.437-1.607,2.921-3.268,5.9-3.268h0c2.982,0,4.469,1.661,5.906,3.268,1.378,1.541,2.682,3,5.3,3Z" transform="translate(-297.907 -114.916)" fill="#fff"/>
  </g>
  <g id="Grupo_27" data-name="Grupo 27" transform="translate(0 144.743)">
    <path id="Caminho_98" data-name="Caminho 98" d="M533.243,126.91c-2.985,0-4.469-1.661-5.906-3.268-1.38-1.543-2.682-3-5.3-3s-3.924,1.455-5.3,3c-1.437,1.607-2.924,3.268-5.906,3.268s-4.467-1.661-5.9-3.268c-1.38-1.543-2.682-3-5.3-3s-3.922,1.455-5.3,3c-1.437,1.607-2.921,3.268-5.9,3.268s-4.469-1.661-5.9-3.268c-1.38-1.543-2.682-3-5.3-3s-3.924,1.455-5.3,3c-1.437,1.607-2.921,3.268-5.9,3.268s-4.467-1.661-5.9-3.268c-1.378-1.543-2.682-3-5.3-3s-3.924,1.455-5.3,3c-1.437,1.607-2.921,3.268-5.9,3.268s-4.469-1.661-5.906-3.268c-1.378-1.543-2.679-3-5.3-3s-3.924,1.455-5.3,3c-1.437,1.607-2.921,3.268-5.9,3.268s-4.467-1.661-5.9-3.268c-1.38-1.543-2.682-3-5.3-3s-3.924,1.455-5.3,3c-1.437,1.607-2.921,3.268-5.9,3.268s-4.469-1.661-5.9-3.268c-1.38-1.543-2.682-3-5.3-3s-3.924,1.455-5.3,3c-1.437,1.607-2.924,3.268-5.906,3.268s-4.467-1.661-5.9-3.268c-1.378-1.543-2.679-3-5.3-3s-3.924,1.455-5.3,3c-1.435,1.607-2.921,3.268-5.9,3.268s-4.467-1.661-5.9-3.268c-1.378-1.543-2.679-3-5.3-3s-3.922,1.455-5.3,3c-1.437,1.607-2.921,3.268-5.9,3.268s-4.467-1.661-5.9-3.268c-1.378-1.543-2.682-3-5.3-3s-3.922,1.455-5.3,3c-1.437,1.607-2.924,3.268-5.9,3.268s-4.467-1.661-5.9-3.268c-1.378-1.543-2.682-3-5.3-3v-.808c2.983,0,4.467,1.661,5.9,3.268,1.378,1.543,2.682,3,5.3,3s3.922-1.457,5.3-3c1.437-1.607,2.924-3.268,5.9-3.268s4.467,1.661,5.9,3.268c1.378,1.543,2.682,3,5.3,3s3.922-1.457,5.3-3c1.435-1.607,2.921-3.268,5.9-3.268s4.469,1.661,5.9,3.268c1.38,1.543,2.682,3,5.3,3s3.924-1.457,5.3-3c1.437-1.607,2.924-3.268,5.906-3.268s4.467,1.661,5.9,3.268c1.378,1.543,2.679,3,5.3,3s3.924-1.457,5.3-3c1.435-1.607,2.921-3.268,5.9-3.268s4.467,1.661,5.9,3.268c1.378,1.543,2.679,3,5.3,3s3.922-1.457,5.3-3c1.435-1.607,2.922-3.268,5.9-3.268s4.467,1.661,5.9,3.268c1.378,1.543,2.681,3,5.3,3s3.924-1.457,5.3-3c1.437-1.607,2.921-3.268,5.9-3.268s4.469,1.661,5.9,3.268c1.38,1.543,2.682,3,5.3,3s3.924-1.457,5.3-3c1.437-1.607,2.921-3.268,5.9-3.268s4.467,1.661,5.9,3.268c1.378,1.543,2.682,3,5.3,3s3.924-1.457,5.3-3c1.437-1.607,2.921-3.268,5.9-3.268s4.469,1.661,5.906,3.268c1.378,1.543,2.679,3,5.3,3s3.924-1.457,5.3-3c1.437-1.607,2.921-3.268,5.9-3.268s4.469,1.661,5.906,3.268c1.378,1.543,2.681,3,5.3,3s3.924-1.457,5.3-3c1.437-1.607,2.921-3.268,5.9-3.268h0c2.982,0,4.469,1.661,5.906,3.268,1.378,1.543,2.682,3,5.3,3Z" transform="translate(-297.907 -119.836)" fill="#fff"/>
  </g>
  <g id="Grupo_28" data-name="Grupo 28" transform="translate(0 155.876)">
    <path id="Caminho_99" data-name="Caminho 99" d="M533.243,131.832c-2.985,0-4.469-1.663-5.906-3.27-1.38-1.541-2.682-3-5.3-3s-3.924,1.457-5.3,3c-1.437,1.607-2.924,3.27-5.906,3.27s-4.467-1.663-5.9-3.27c-1.38-1.541-2.682-3-5.3-3s-3.922,1.457-5.3,3c-1.437,1.607-2.921,3.27-5.9,3.27s-4.469-1.663-5.9-3.27c-1.38-1.541-2.682-3-5.3-3s-3.924,1.457-5.3,3c-1.437,1.607-2.921,3.27-5.9,3.27s-4.467-1.663-5.9-3.27c-1.378-1.541-2.682-3-5.3-3s-3.924,1.457-5.3,3c-1.437,1.607-2.921,3.27-5.9,3.27s-4.469-1.663-5.906-3.27c-1.378-1.541-2.679-3-5.3-3s-3.924,1.457-5.3,3c-1.437,1.607-2.921,3.27-5.9,3.27s-4.467-1.663-5.9-3.27c-1.38-1.541-2.682-3-5.3-3s-3.924,1.457-5.3,3c-1.437,1.607-2.921,3.27-5.9,3.27s-4.469-1.663-5.9-3.27c-1.38-1.541-2.682-3-5.3-3s-3.924,1.457-5.3,3c-1.437,1.607-2.924,3.27-5.906,3.27s-4.467-1.663-5.9-3.27c-1.378-1.541-2.679-3-5.3-3s-3.924,1.457-5.3,3c-1.435,1.607-2.921,3.27-5.9,3.27s-4.467-1.663-5.9-3.27c-1.378-1.541-2.679-3-5.3-3s-3.922,1.457-5.3,3c-1.437,1.607-2.921,3.27-5.9,3.27s-4.467-1.663-5.9-3.27c-1.378-1.541-2.682-3-5.3-3s-3.922,1.457-5.3,3c-1.437,1.607-2.924,3.27-5.9,3.27s-4.467-1.663-5.9-3.27c-1.378-1.541-2.682-3-5.3-3v-.808c2.983,0,4.467,1.661,5.9,3.268,1.378,1.543,2.682,3,5.3,3s3.922-1.457,5.3-3c1.437-1.607,2.924-3.268,5.9-3.268s4.467,1.661,5.9,3.268c1.378,1.543,2.682,3,5.3,3s3.922-1.457,5.3-3c1.435-1.607,2.921-3.268,5.9-3.268s4.469,1.661,5.9,3.268c1.38,1.543,2.682,3,5.3,3s3.924-1.457,5.3-3c1.437-1.607,2.924-3.268,5.906-3.268s4.467,1.661,5.9,3.268c1.378,1.543,2.679,3,5.3,3s3.924-1.457,5.3-3c1.435-1.607,2.921-3.268,5.9-3.268s4.467,1.661,5.9,3.268c1.378,1.543,2.679,3,5.3,3s3.922-1.457,5.3-3c1.435-1.607,2.922-3.268,5.9-3.268s4.467,1.661,5.9,3.268c1.378,1.543,2.681,3,5.3,3s3.924-1.457,5.3-3c1.437-1.607,2.921-3.268,5.9-3.268s4.469,1.661,5.9,3.268c1.38,1.543,2.682,3,5.3,3s3.924-1.457,5.3-3c1.437-1.607,2.921-3.268,5.9-3.268s4.467,1.661,5.9,3.268c1.378,1.543,2.682,3,5.3,3s3.924-1.457,5.3-3c1.437-1.607,2.921-3.268,5.9-3.268s4.469,1.661,5.906,3.268c1.378,1.543,2.679,3,5.3,3s3.924-1.457,5.3-3c1.437-1.607,2.921-3.268,5.9-3.268s4.469,1.661,5.906,3.268c1.378,1.543,2.681,3,5.3,3s3.924-1.457,5.3-3c1.437-1.607,2.921-3.268,5.9-3.268h0c2.982,0,4.469,1.661,5.906,3.268,1.378,1.543,2.682,3,5.3,3Z" transform="translate(-297.907 -124.756)" fill="#fff"/>
  </g>
  <g id="Grupo_29" data-name="Grupo 29" transform="translate(0 167.01)">
    <path id="Caminho_100" data-name="Caminho 100" d="M533.243,136.752c-2.985,0-4.469-1.661-5.906-3.268-1.38-1.543-2.682-3-5.3-3s-3.924,1.457-5.3,3c-1.437,1.609-2.924,3.27-5.906,3.27s-4.467-1.661-5.9-3.27c-1.38-1.541-2.682-3-5.3-3s-3.922,1.457-5.3,3c-1.437,1.609-2.921,3.27-5.9,3.27s-4.469-1.661-5.9-3.268c-1.38-1.543-2.682-3-5.3-3s-3.924,1.457-5.3,3c-1.437,1.609-2.921,3.27-5.9,3.27s-4.467-1.661-5.9-3.27c-1.378-1.541-2.682-3-5.3-3s-3.924,1.457-5.3,3c-1.437,1.609-2.921,3.27-5.9,3.27s-4.469-1.661-5.906-3.27c-1.378-1.541-2.679-3-5.3-3s-3.924,1.457-5.3,3c-1.437,1.607-2.921,3.268-5.9,3.268s-4.467-1.661-5.9-3.27c-1.38-1.541-2.682-3-5.3-3s-3.924,1.457-5.3,3c-1.437,1.609-2.921,3.27-5.9,3.27s-4.469-1.661-5.9-3.27c-1.38-1.541-2.682-3-5.3-3s-3.924,1.457-5.3,3c-1.437,1.609-2.924,3.27-5.906,3.27s-4.467-1.661-5.9-3.27c-1.378-1.541-2.679-3-5.3-3s-3.924,1.457-5.3,3c-1.435,1.609-2.921,3.27-5.9,3.27s-4.467-1.661-5.9-3.27c-1.378-1.541-2.679-3-5.3-3s-3.922,1.457-5.3,3c-1.437,1.609-2.921,3.27-5.9,3.27s-4.467-1.661-5.9-3.27c-1.378-1.541-2.682-3-5.3-3s-3.922,1.457-5.3,3c-1.437,1.607-2.924,3.268-5.9,3.268s-4.467-1.661-5.9-3.27c-1.378-1.541-2.682-3-5.3-3v-.808c2.983,0,4.467,1.661,5.9,3.27,1.378,1.541,2.682,3,5.3,3s3.922-1.457,5.3-3c1.437-1.609,2.924-3.27,5.9-3.27s4.467,1.661,5.9,3.268c1.378,1.543,2.682,3,5.3,3s3.922-1.457,5.3-3c1.435-1.609,2.921-3.27,5.9-3.27s4.469,1.661,5.9,3.27c1.38,1.541,2.682,3,5.3,3s3.924-1.457,5.3-3c1.437-1.609,2.924-3.27,5.906-3.27s4.467,1.661,5.9,3.27c1.378,1.541,2.679,3,5.3,3s3.924-1.457,5.3-3c1.435-1.607,2.921-3.268,5.9-3.268s4.467,1.661,5.9,3.268c1.378,1.543,2.679,3,5.3,3s3.922-1.457,5.3-3c1.435-1.609,2.922-3.27,5.9-3.27s4.467,1.661,5.9,3.27c1.378,1.541,2.681,3,5.3,3s3.924-1.457,5.3-3c1.437-1.609,2.921-3.27,5.9-3.27s4.469,1.661,5.9,3.268c1.38,1.543,2.682,3,5.3,3s3.924-1.457,5.3-3c1.437-1.609,2.921-3.27,5.9-3.27s4.467,1.661,5.9,3.27c1.378,1.541,2.682,3,5.3,3s3.924-1.457,5.3-3c1.437-1.609,2.921-3.27,5.9-3.27s4.469,1.661,5.906,3.27c1.378,1.541,2.679,3,5.3,3s3.924-1.457,5.3-3c1.437-1.607,2.921-3.268,5.9-3.268s4.469,1.661,5.906,3.27c1.378,1.541,2.681,3,5.3,3s3.924-1.457,5.3-3c1.437-1.607,2.921-3.268,5.9-3.268h0c2.982,0,4.469,1.661,5.906,3.268,1.378,1.543,2.682,3,5.3,3Z" transform="translate(-297.907 -129.676)" fill="#fff"/>
  </g>
  <g id="Grupo_30" data-name="Grupo 30" transform="translate(0 178.143)">
    <path id="Caminho_101" data-name="Caminho 101" d="M533.243,141.672c-2.985,0-4.469-1.661-5.906-3.268-1.38-1.543-2.682-3-5.3-3s-3.924,1.457-5.3,3c-1.437,1.607-2.924,3.268-5.906,3.268s-4.467-1.661-5.9-3.268c-1.38-1.543-2.682-3-5.3-3s-3.922,1.457-5.3,3c-1.437,1.607-2.921,3.268-5.9,3.268s-4.469-1.661-5.9-3.268c-1.38-1.543-2.682-3-5.3-3s-3.924,1.457-5.3,3c-1.437,1.607-2.921,3.268-5.9,3.268s-4.467-1.661-5.9-3.268c-1.378-1.543-2.682-3-5.3-3s-3.924,1.457-5.3,3c-1.437,1.607-2.921,3.268-5.9,3.268s-4.469-1.661-5.906-3.268c-1.378-1.543-2.679-3-5.3-3s-3.924,1.457-5.3,3c-1.437,1.607-2.921,3.268-5.9,3.268s-4.467-1.661-5.9-3.268c-1.38-1.543-2.682-3-5.3-3s-3.924,1.457-5.3,3c-1.437,1.607-2.921,3.268-5.9,3.268s-4.469-1.661-5.9-3.268c-1.38-1.543-2.682-3-5.3-3s-3.924,1.457-5.3,3c-1.437,1.607-2.924,3.268-5.906,3.268s-4.467-1.661-5.9-3.268c-1.378-1.543-2.679-3-5.3-3s-3.924,1.457-5.3,3c-1.435,1.607-2.921,3.268-5.9,3.268s-4.467-1.661-5.9-3.268c-1.378-1.543-2.679-3-5.3-3s-3.922,1.457-5.3,3c-1.437,1.607-2.921,3.268-5.9,3.268s-4.467-1.661-5.9-3.268c-1.378-1.543-2.682-3-5.3-3s-3.922,1.457-5.3,3c-1.437,1.607-2.924,3.268-5.9,3.268s-4.467-1.661-5.9-3.268c-1.378-1.543-2.682-3-5.3-3V134.6c2.983,0,4.467,1.663,5.9,3.27,1.378,1.541,2.682,3,5.3,3s3.922-1.457,5.3-3c1.437-1.607,2.924-3.27,5.9-3.27s4.467,1.663,5.9,3.27c1.378,1.541,2.682,3,5.3,3s3.922-1.457,5.3-3c1.435-1.607,2.921-3.27,5.9-3.27s4.469,1.663,5.9,3.27c1.38,1.541,2.682,3,5.3,3s3.924-1.457,5.3-3c1.437-1.607,2.924-3.27,5.906-3.27s4.467,1.663,5.9,3.27c1.378,1.541,2.679,3,5.3,3s3.924-1.457,5.3-3c1.435-1.607,2.921-3.27,5.9-3.27s4.467,1.663,5.9,3.27c1.378,1.541,2.679,3,5.3,3s3.922-1.457,5.3-3c1.435-1.607,2.922-3.27,5.9-3.27s4.467,1.663,5.9,3.27c1.378,1.541,2.681,3,5.3,3s3.924-1.457,5.3-3c1.437-1.607,2.921-3.27,5.9-3.27s4.469,1.663,5.9,3.27c1.38,1.541,2.682,3,5.3,3s3.924-1.457,5.3-3c1.437-1.607,2.921-3.27,5.9-3.27s4.467,1.663,5.9,3.27c1.378,1.541,2.682,3,5.3,3s3.924-1.457,5.3-3c1.437-1.607,2.921-3.27,5.9-3.27s4.469,1.663,5.906,3.27c1.378,1.541,2.679,3,5.3,3s3.924-1.457,5.3-3c1.437-1.607,2.921-3.27,5.9-3.27s4.469,1.663,5.906,3.27c1.378,1.541,2.681,3,5.3,3s3.924-1.457,5.3-3c1.437-1.607,2.921-3.27,5.9-3.27h0c2.982,0,4.469,1.663,5.906,3.27,1.378,1.541,2.682,3,5.3,3Z" transform="translate(-297.907 -134.596)" fill="#fff"/>
  </g>
  <g id="Grupo_31" data-name="Grupo 31" transform="translate(0 189.279)">
    <path id="Caminho_102" data-name="Caminho 102" d="M533.243,146.591c-2.985,0-4.469-1.661-5.906-3.268-1.38-1.543-2.682-3-5.3-3s-3.924,1.455-5.3,3c-1.437,1.607-2.924,3.268-5.906,3.268s-4.467-1.661-5.9-3.268c-1.38-1.543-2.682-3-5.3-3s-3.922,1.455-5.3,3c-1.437,1.607-2.921,3.268-5.9,3.268s-4.469-1.661-5.9-3.268c-1.38-1.543-2.682-3-5.3-3s-3.924,1.455-5.3,3c-1.437,1.607-2.921,3.268-5.9,3.268s-4.467-1.661-5.9-3.268c-1.378-1.543-2.682-3-5.3-3s-3.924,1.455-5.3,3c-1.437,1.607-2.921,3.268-5.9,3.268s-4.469-1.661-5.906-3.268c-1.378-1.543-2.679-3-5.3-3s-3.924,1.455-5.3,3c-1.437,1.607-2.921,3.268-5.9,3.268s-4.467-1.661-5.9-3.268c-1.38-1.543-2.682-3-5.3-3s-3.924,1.455-5.3,3c-1.437,1.607-2.921,3.268-5.9,3.268s-4.469-1.661-5.9-3.268c-1.38-1.543-2.682-3-5.3-3s-3.924,1.455-5.3,3c-1.437,1.607-2.924,3.268-5.906,3.268s-4.467-1.661-5.9-3.268c-1.378-1.543-2.679-3-5.3-3s-3.924,1.455-5.3,3c-1.435,1.607-2.921,3.268-5.9,3.268s-4.467-1.661-5.9-3.268c-1.378-1.543-2.679-3-5.3-3s-3.922,1.455-5.3,3c-1.437,1.607-2.921,3.268-5.9,3.268s-4.467-1.661-5.9-3.268c-1.378-1.543-2.682-3-5.3-3s-3.922,1.455-5.3,3c-1.437,1.607-2.924,3.268-5.9,3.268s-4.467-1.661-5.9-3.268c-1.378-1.543-2.682-3-5.3-3v-.808c2.983,0,4.467,1.661,5.9,3.268,1.378,1.543,2.682,3,5.3,3s3.922-1.457,5.3-3c1.437-1.607,2.924-3.268,5.9-3.268s4.467,1.661,5.9,3.268c1.378,1.543,2.682,3,5.3,3s3.922-1.457,5.3-3c1.435-1.607,2.921-3.268,5.9-3.268s4.469,1.661,5.9,3.268c1.38,1.543,2.682,3,5.3,3s3.924-1.457,5.3-3c1.437-1.607,2.924-3.268,5.906-3.268s4.467,1.661,5.9,3.268c1.378,1.543,2.679,3,5.3,3s3.924-1.457,5.3-3c1.435-1.607,2.921-3.268,5.9-3.268s4.467,1.661,5.9,3.268c1.378,1.543,2.679,3,5.3,3s3.922-1.457,5.3-3c1.435-1.607,2.922-3.268,5.9-3.268s4.467,1.661,5.9,3.268c1.378,1.543,2.681,3,5.3,3s3.924-1.457,5.3-3c1.437-1.607,2.921-3.268,5.9-3.268s4.469,1.661,5.9,3.268c1.38,1.543,2.682,3,5.3,3s3.924-1.457,5.3-3c1.437-1.607,2.921-3.268,5.9-3.268s4.467,1.661,5.9,3.268c1.378,1.543,2.682,3,5.3,3s3.924-1.457,5.3-3c1.437-1.607,2.921-3.268,5.9-3.268s4.469,1.661,5.906,3.268c1.378,1.543,2.679,3,5.3,3s3.924-1.457,5.3-3c1.437-1.607,2.921-3.268,5.9-3.268s4.469,1.661,5.906,3.268c1.378,1.543,2.681,3,5.3,3s3.924-1.457,5.3-3c1.437-1.607,2.921-3.268,5.9-3.268h0c2.982,0,4.469,1.661,5.906,3.268,1.378,1.543,2.682,3,5.3,3Z" transform="translate(-297.907 -139.517)" fill="#fff"/>
  </g>
  <g id="Grupo_32" data-name="Grupo 32" transform="translate(0 200.413)">
    <path id="Caminho_103" data-name="Caminho 103" d="M533.243,151.513c-2.985,0-4.469-1.663-5.906-3.27-1.38-1.541-2.682-3-5.3-3s-3.924,1.457-5.3,3c-1.437,1.607-2.924,3.27-5.906,3.27s-4.467-1.663-5.9-3.27c-1.38-1.541-2.682-3-5.3-3s-3.922,1.457-5.3,3c-1.437,1.607-2.921,3.27-5.9,3.27s-4.469-1.663-5.9-3.27c-1.38-1.541-2.682-3-5.3-3s-3.924,1.457-5.3,3c-1.437,1.607-2.921,3.27-5.9,3.27s-4.467-1.663-5.9-3.27c-1.378-1.541-2.682-3-5.3-3s-3.924,1.457-5.3,3c-1.437,1.607-2.921,3.27-5.9,3.27s-4.469-1.663-5.906-3.27c-1.378-1.541-2.679-3-5.3-3s-3.924,1.457-5.3,3c-1.437,1.607-2.921,3.27-5.9,3.27s-4.467-1.663-5.9-3.27c-1.38-1.541-2.682-3-5.3-3s-3.924,1.457-5.3,3c-1.437,1.607-2.921,3.27-5.9,3.27s-4.469-1.663-5.9-3.27c-1.38-1.541-2.682-3-5.3-3s-3.924,1.457-5.3,3c-1.437,1.607-2.924,3.268-5.906,3.27s-4.467-1.663-5.9-3.27c-1.378-1.541-2.679-3-5.3-3s-3.924,1.457-5.3,3c-1.435,1.607-2.921,3.27-5.9,3.27s-4.467-1.663-5.9-3.27c-1.378-1.541-2.679-3-5.3-3s-3.922,1.457-5.3,3c-1.437,1.607-2.921,3.27-5.9,3.27s-4.467-1.663-5.9-3.27c-1.378-1.541-2.682-3-5.3-3s-3.922,1.457-5.3,3c-1.437,1.607-2.924,3.27-5.9,3.27s-4.467-1.663-5.9-3.27c-1.378-1.541-2.682-3-5.3-3v-.808c2.983,0,4.467,1.661,5.9,3.268,1.378,1.543,2.682,3,5.3,3s3.922-1.457,5.3-3c1.437-1.607,2.924-3.268,5.9-3.268s4.467,1.661,5.9,3.268c1.378,1.543,2.682,3,5.3,3s3.922-1.457,5.3-3c1.435-1.607,2.921-3.268,5.9-3.268s4.469,1.661,5.9,3.268c1.38,1.543,2.682,3,5.3,3s3.924-1.457,5.3-3c1.437-1.607,2.924-3.268,5.906-3.268s4.467,1.661,5.9,3.268c1.378,1.543,2.679,3,5.3,3s3.924-1.457,5.3-3c1.435-1.607,2.921-3.268,5.9-3.268s4.467,1.661,5.9,3.268c1.378,1.543,2.679,3,5.3,3s3.922-1.457,5.3-3c1.435-1.607,2.922-3.268,5.9-3.268s4.467,1.661,5.9,3.268c1.378,1.543,2.681,3,5.3,3s3.924-1.457,5.3-3c1.437-1.607,2.921-3.268,5.9-3.268s4.469,1.661,5.9,3.268c1.38,1.543,2.682,3,5.3,3s3.924-1.457,5.3-3c1.437-1.607,2.921-3.268,5.9-3.268s4.467,1.661,5.9,3.268c1.378,1.543,2.682,3,5.3,3s3.924-1.457,5.3-3c1.437-1.607,2.921-3.268,5.9-3.268s4.469,1.661,5.906,3.268c1.378,1.543,2.679,3,5.3,3s3.924-1.457,5.3-3c1.437-1.607,2.921-3.268,5.9-3.268s4.469,1.661,5.906,3.268c1.378,1.543,2.681,3,5.3,3s3.924-1.457,5.3-3c1.437-1.607,2.921-3.268,5.9-3.268h0c2.982,0,4.469,1.661,5.906,3.268,1.378,1.543,2.682,3,5.3,3Z" transform="translate(-297.907 -144.437)" fill="#fff"/>
  </g>
  <g id="Grupo_33" data-name="Grupo 33" transform="translate(0 211.546)">
    <path id="Caminho_104" data-name="Caminho 104" d="M533.243,156.433c-2.985,0-4.469-1.663-5.906-3.27-1.38-1.541-2.682-3-5.3-3s-3.924,1.457-5.3,3c-1.437,1.607-2.924,3.27-5.906,3.27s-4.467-1.663-5.9-3.27c-1.38-1.541-2.682-3-5.3-3s-3.922,1.457-5.3,3c-1.437,1.607-2.921,3.27-5.9,3.27s-4.469-1.663-5.9-3.27c-1.38-1.541-2.682-3-5.3-3s-3.924,1.457-5.3,3c-1.437,1.607-2.921,3.27-5.9,3.27s-4.467-1.663-5.9-3.27c-1.378-1.541-2.682-3-5.3-3s-3.924,1.457-5.3,3c-1.437,1.607-2.921,3.27-5.9,3.27s-4.469-1.663-5.906-3.27c-1.378-1.541-2.679-3-5.3-3s-3.924,1.457-5.3,3c-1.437,1.607-2.921,3.27-5.9,3.27s-4.467-1.663-5.9-3.27c-1.38-1.541-2.682-3-5.3-3s-3.924,1.457-5.3,3c-1.437,1.607-2.921,3.27-5.9,3.27s-4.469-1.663-5.9-3.27c-1.38-1.541-2.682-3-5.3-3s-3.924,1.457-5.3,3c-1.437,1.607-2.924,3.27-5.906,3.27s-4.467-1.663-5.9-3.27c-1.378-1.541-2.679-3-5.3-3s-3.924,1.457-5.3,3c-1.435,1.607-2.921,3.27-5.9,3.27s-4.467-1.663-5.9-3.27c-1.378-1.541-2.679-3-5.3-3s-3.922,1.457-5.3,3c-1.437,1.607-2.921,3.27-5.9,3.27s-4.467-1.663-5.9-3.27c-1.378-1.541-2.682-3-5.3-3s-3.922,1.457-5.3,3c-1.437,1.607-2.924,3.27-5.9,3.27s-4.467-1.663-5.9-3.27c-1.378-1.541-2.682-3-5.3-3v-.808c2.983,0,4.467,1.661,5.9,3.268,1.378,1.543,2.682,3,5.3,3s3.922-1.457,5.3-3c1.437-1.607,2.924-3.268,5.9-3.268s4.467,1.661,5.9,3.268c1.378,1.543,2.682,3,5.3,3s3.922-1.457,5.3-3c1.435-1.607,2.921-3.268,5.9-3.268s4.469,1.661,5.9,3.268c1.38,1.543,2.682,3,5.3,3s3.924-1.457,5.3-3c1.437-1.607,2.924-3.268,5.906-3.268s4.467,1.661,5.9,3.268c1.378,1.543,2.679,3,5.3,3s3.924-1.457,5.3-3c1.435-1.607,2.921-3.268,5.9-3.268s4.467,1.661,5.9,3.268c1.378,1.543,2.679,3,5.3,3s3.922-1.457,5.3-3c1.435-1.607,2.922-3.268,5.9-3.268s4.467,1.661,5.9,3.268c1.378,1.543,2.681,3,5.3,3s3.924-1.457,5.3-3c1.437-1.607,2.921-3.268,5.9-3.268s4.469,1.661,5.9,3.268c1.38,1.543,2.682,3,5.3,3s3.924-1.457,5.3-3c1.437-1.607,2.921-3.268,5.9-3.268s4.467,1.661,5.9,3.268c1.378,1.543,2.682,3,5.3,3s3.924-1.457,5.3-3c1.437-1.607,2.921-3.268,5.9-3.268s4.469,1.661,5.906,3.268c1.378,1.543,2.679,3,5.3,3s3.924-1.457,5.3-3c1.437-1.607,2.921-3.268,5.9-3.268s4.469,1.661,5.906,3.268c1.378,1.543,2.681,3,5.3,3s3.924-1.457,5.3-3c1.437-1.607,2.921-3.268,5.9-3.268h0c2.982,0,4.469,1.661,5.906,3.268,1.378,1.543,2.682,3,5.3,3Z" transform="translate(-297.907 -149.357)" fill="#fff"/>
  </g>
  <g id="Grupo_34" data-name="Grupo 34" transform="translate(0 222.68)">
    <path id="Caminho_105" data-name="Caminho 105" d="M533.243,161.353c-2.985,0-4.469-1.661-5.906-3.268-1.38-1.543-2.682-3-5.3-3s-3.924,1.457-5.3,3c-1.437,1.609-2.924,3.27-5.906,3.27s-4.467-1.661-5.9-3.27c-1.38-1.541-2.682-3-5.3-3s-3.922,1.457-5.3,3c-1.437,1.609-2.921,3.27-5.9,3.27s-4.469-1.661-5.9-3.268c-1.38-1.543-2.682-3-5.3-3s-3.924,1.457-5.3,3c-1.437,1.609-2.921,3.27-5.9,3.27s-4.467-1.661-5.9-3.27c-1.378-1.541-2.682-3-5.3-3s-3.924,1.457-5.3,3c-1.437,1.609-2.921,3.27-5.9,3.27s-4.469-1.661-5.906-3.27c-1.378-1.541-2.679-3-5.3-3s-3.924,1.457-5.3,3c-1.437,1.607-2.921,3.268-5.9,3.268s-4.467-1.661-5.9-3.27c-1.38-1.541-2.682-3-5.3-3s-3.924,1.457-5.3,3c-1.437,1.609-2.921,3.27-5.9,3.27s-4.469-1.661-5.9-3.27c-1.38-1.541-2.682-3-5.3-3s-3.924,1.457-5.3,3c-1.437,1.609-2.924,3.27-5.906,3.27s-4.467-1.661-5.9-3.27c-1.378-1.541-2.679-3-5.3-3s-3.924,1.457-5.3,3c-1.435,1.609-2.921,3.27-5.9,3.27s-4.467-1.661-5.9-3.27c-1.378-1.541-2.679-3-5.3-3s-3.922,1.457-5.3,3c-1.437,1.609-2.921,3.27-5.9,3.27s-4.467-1.661-5.9-3.27c-1.378-1.541-2.682-3-5.3-3s-3.922,1.457-5.3,3c-1.437,1.607-2.924,3.268-5.9,3.268s-4.467-1.661-5.9-3.27c-1.378-1.541-2.682-3-5.3-3v-.808c2.983,0,4.467,1.663,5.9,3.27,1.378,1.541,2.682,3,5.3,3s3.922-1.457,5.3-3c1.437-1.607,2.924-3.27,5.9-3.27s4.467,1.663,5.9,3.27c1.378,1.541,2.682,3,5.3,3s3.922-1.457,5.3-3c1.435-1.607,2.921-3.27,5.9-3.27s4.469,1.663,5.9,3.27c1.38,1.541,2.682,3,5.3,3s3.924-1.457,5.3-3c1.437-1.607,2.924-3.27,5.906-3.27s4.467,1.663,5.9,3.27c1.378,1.541,2.679,3,5.3,3s3.924-1.457,5.3-3c1.435-1.607,2.921-3.27,5.9-3.27s4.467,1.663,5.9,3.27c1.378,1.541,2.679,3,5.3,3s3.922-1.457,5.3-3c1.435-1.607,2.922-3.27,5.9-3.27s4.467,1.663,5.9,3.27c1.378,1.541,2.681,3,5.3,3s3.924-1.457,5.3-3c1.437-1.607,2.921-3.27,5.9-3.27s4.469,1.663,5.9,3.27c1.38,1.541,2.682,3,5.3,3s3.924-1.457,5.3-3c1.437-1.607,2.921-3.27,5.9-3.27s4.467,1.663,5.9,3.27c1.378,1.541,2.682,3,5.3,3s3.924-1.457,5.3-3c1.437-1.607,2.921-3.27,5.9-3.27s4.469,1.663,5.906,3.27c1.378,1.541,2.679,3,5.3,3s3.924-1.457,5.3-3c1.437-1.607,2.921-3.27,5.9-3.27s4.469,1.663,5.906,3.27c1.378,1.541,2.681,3,5.3,3s3.924-1.457,5.3-3c1.437-1.607,2.921-3.27,5.9-3.27h0c2.982,0,4.469,1.663,5.906,3.27,1.378,1.541,2.682,3,5.3,3Z" transform="translate(-297.907 -154.277)" fill="#fff"/>
  </g>
  <g id="Grupo_35" data-name="Grupo 35" transform="translate(0 233.816)">
    <path id="Caminho_106" data-name="Caminho 106" d="M533.243,166.272c-2.985,0-4.469-1.661-5.906-3.268-1.38-1.543-2.682-3-5.3-3s-3.924,1.457-5.3,3c-1.437,1.607-2.924,3.268-5.906,3.268s-4.467-1.661-5.9-3.268c-1.38-1.543-2.682-3-5.3-3s-3.922,1.457-5.3,3c-1.437,1.607-2.921,3.268-5.9,3.268s-4.469-1.661-5.9-3.268c-1.38-1.543-2.682-3-5.3-3s-3.924,1.457-5.3,3c-1.437,1.607-2.921,3.268-5.9,3.268s-4.467-1.661-5.9-3.268c-1.378-1.543-2.682-3-5.3-3s-3.924,1.457-5.3,3c-1.437,1.607-2.921,3.268-5.9,3.268s-4.469-1.661-5.906-3.268c-1.378-1.543-2.679-3-5.3-3s-3.924,1.457-5.3,3c-1.437,1.607-2.921,3.268-5.9,3.268s-4.467-1.661-5.9-3.268c-1.38-1.543-2.682-3-5.3-3s-3.924,1.457-5.3,3c-1.437,1.607-2.921,3.268-5.9,3.268s-4.469-1.661-5.9-3.268c-1.38-1.543-2.682-3-5.3-3s-3.924,1.457-5.3,3c-1.437,1.607-2.924,3.268-5.906,3.268s-4.467-1.661-5.9-3.268c-1.378-1.543-2.679-3-5.3-3s-3.924,1.457-5.3,3c-1.435,1.607-2.921,3.268-5.9,3.268s-4.467-1.661-5.9-3.268c-1.378-1.543-2.679-3-5.3-3s-3.922,1.457-5.3,3c-1.437,1.607-2.921,3.268-5.9,3.268s-4.467-1.661-5.9-3.268c-1.378-1.543-2.682-3-5.3-3s-3.922,1.457-5.3,3c-1.437,1.607-2.924,3.268-5.9,3.268s-4.467-1.661-5.9-3.268c-1.378-1.543-2.682-3-5.3-3V159.2c2.983,0,4.467,1.661,5.9,3.268,1.378,1.541,2.682,3,5.3,3s3.922-1.457,5.3-3c1.437-1.607,2.924-3.268,5.9-3.268s4.467,1.661,5.9,3.268c1.378,1.541,2.682,3,5.3,3s3.922-1.457,5.3-3c1.435-1.607,2.921-3.268,5.9-3.268s4.469,1.661,5.9,3.268c1.38,1.541,2.682,3,5.3,3s3.924-1.457,5.3-3c1.437-1.607,2.924-3.268,5.906-3.268s4.467,1.661,5.9,3.268c1.378,1.541,2.679,3,5.3,3s3.924-1.457,5.3-3c1.435-1.607,2.921-3.268,5.9-3.268s4.467,1.661,5.9,3.268c1.378,1.541,2.679,3,5.3,3s3.922-1.457,5.3-3c1.435-1.607,2.922-3.268,5.9-3.268s4.467,1.661,5.9,3.268c1.378,1.541,2.681,3,5.3,3s3.924-1.457,5.3-3c1.437-1.607,2.921-3.268,5.9-3.268s4.469,1.661,5.9,3.268c1.38,1.541,2.682,3,5.3,3s3.924-1.457,5.3-3c1.437-1.607,2.921-3.268,5.9-3.268s4.467,1.661,5.9,3.268c1.378,1.541,2.682,3,5.3,3s3.924-1.457,5.3-3c1.437-1.607,2.921-3.268,5.9-3.268s4.469,1.661,5.906,3.268c1.378,1.541,2.679,3,5.3,3s3.924-1.457,5.3-3c1.437-1.607,2.921-3.268,5.9-3.268s4.469,1.661,5.906,3.268c1.378,1.541,2.681,3,5.3,3s3.924-1.457,5.3-3c1.437-1.607,2.921-3.268,5.9-3.268h0c2.982,0,4.469,1.661,5.906,3.268,1.378,1.541,2.682,3,5.3,3Z" transform="translate(-297.907 -159.198)" fill="#fff"/>
  </g>
  <g id="Grupo_36" data-name="Grupo 36" transform="translate(0 244.949)">
    <path id="Caminho_107" data-name="Caminho 107" d="M533.243,171.192c-2.985,0-4.469-1.661-5.906-3.268-1.38-1.543-2.682-3-5.3-3s-3.924,1.455-5.3,3c-1.437,1.607-2.924,3.268-5.906,3.268s-4.467-1.661-5.9-3.268c-1.38-1.543-2.682-3-5.3-3s-3.922,1.455-5.3,3c-1.437,1.607-2.921,3.268-5.9,3.268s-4.469-1.661-5.9-3.268c-1.38-1.543-2.682-3-5.3-3s-3.924,1.455-5.3,3c-1.437,1.607-2.921,3.268-5.9,3.268s-4.467-1.661-5.9-3.268c-1.378-1.543-2.682-3-5.3-3s-3.924,1.455-5.3,3c-1.437,1.607-2.921,3.268-5.9,3.268s-4.469-1.661-5.906-3.268c-1.378-1.543-2.679-3-5.3-3s-3.924,1.455-5.3,3c-1.437,1.607-2.921,3.268-5.9,3.268s-4.467-1.661-5.9-3.268c-1.38-1.543-2.682-3-5.3-3s-3.924,1.455-5.3,3c-1.437,1.607-2.921,3.268-5.9,3.268s-4.469-1.661-5.9-3.268c-1.38-1.543-2.682-3-5.3-3s-3.924,1.455-5.3,3c-1.437,1.607-2.924,3.268-5.906,3.268s-4.467-1.661-5.9-3.268c-1.378-1.543-2.679-3-5.3-3s-3.924,1.455-5.3,3c-1.435,1.607-2.921,3.268-5.9,3.268s-4.467-1.661-5.9-3.268c-1.378-1.543-2.679-3-5.3-3s-3.922,1.455-5.3,3c-1.437,1.607-2.921,3.268-5.9,3.268s-4.467-1.661-5.9-3.268c-1.378-1.543-2.682-3-5.3-3s-3.922,1.455-5.3,3c-1.437,1.607-2.924,3.268-5.9,3.268s-4.467-1.661-5.9-3.268c-1.378-1.543-2.682-3-5.3-3v-.808c2.983,0,4.467,1.661,5.9,3.268,1.378,1.543,2.682,3,5.3,3s3.922-1.455,5.3-3c1.437-1.607,2.924-3.268,5.9-3.268s4.467,1.661,5.9,3.268c1.378,1.543,2.682,3,5.3,3s3.922-1.455,5.3-3c1.435-1.607,2.921-3.268,5.9-3.268s4.469,1.661,5.9,3.268c1.38,1.543,2.682,3,5.3,3s3.924-1.455,5.3-3c1.437-1.607,2.924-3.268,5.906-3.268s4.467,1.661,5.9,3.268c1.378,1.543,2.679,3,5.3,3s3.924-1.455,5.3-3c1.435-1.607,2.921-3.268,5.9-3.268s4.467,1.661,5.9,3.268c1.378,1.543,2.679,3,5.3,3s3.922-1.455,5.3-3c1.435-1.607,2.922-3.268,5.9-3.268s4.467,1.661,5.9,3.268c1.378,1.543,2.681,3,5.3,3s3.924-1.455,5.3-3c1.437-1.607,2.921-3.268,5.9-3.268s4.469,1.661,5.9,3.268c1.38,1.543,2.682,3,5.3,3s3.924-1.455,5.3-3c1.437-1.607,2.921-3.268,5.9-3.268s4.467,1.661,5.9,3.268c1.378,1.543,2.682,3,5.3,3s3.924-1.455,5.3-3c1.437-1.607,2.921-3.268,5.9-3.268s4.469,1.661,5.906,3.268c1.378,1.543,2.679,3,5.3,3s3.924-1.455,5.3-3c1.437-1.607,2.921-3.268,5.9-3.268s4.469,1.661,5.906,3.268c1.378,1.543,2.681,3,5.3,3s3.924-1.455,5.3-3c1.437-1.607,2.921-3.268,5.9-3.268h0c2.982,0,4.469,1.661,5.906,3.268,1.378,1.543,2.682,3,5.3,3Z" transform="translate(-297.907 -164.118)" fill="#fff"/>
  </g>
  <g id="Grupo_37" data-name="Grupo 37" transform="translate(0 256.083)">
    <path id="Caminho_108" data-name="Caminho 108" d="M533.243,176.114c-2.985,0-4.469-1.663-5.906-3.27-1.38-1.541-2.682-3-5.3-3s-3.924,1.457-5.3,3c-1.437,1.607-2.924,3.27-5.906,3.27s-4.467-1.663-5.9-3.27c-1.38-1.541-2.682-3-5.3-3s-3.922,1.457-5.3,3c-1.437,1.607-2.921,3.27-5.9,3.27s-4.469-1.663-5.9-3.27c-1.38-1.541-2.682-3-5.3-3s-3.924,1.457-5.3,3c-1.437,1.607-2.921,3.27-5.9,3.27s-4.467-1.663-5.9-3.27c-1.378-1.541-2.682-3-5.3-3s-3.924,1.457-5.3,3c-1.437,1.607-2.921,3.27-5.9,3.27s-4.469-1.663-5.906-3.27c-1.378-1.541-2.679-3-5.3-3s-3.924,1.457-5.3,3c-1.437,1.607-2.921,3.27-5.9,3.27s-4.467-1.663-5.9-3.27c-1.38-1.541-2.682-3-5.3-3s-3.924,1.457-5.3,3c-1.437,1.607-2.921,3.27-5.9,3.27s-4.469-1.663-5.9-3.27c-1.38-1.541-2.682-3-5.3-3s-3.924,1.457-5.3,3c-1.437,1.607-2.924,3.268-5.906,3.27s-4.467-1.663-5.9-3.27c-1.378-1.541-2.679-3-5.3-3s-3.924,1.457-5.3,3c-1.435,1.607-2.921,3.27-5.9,3.27s-4.467-1.663-5.9-3.27c-1.378-1.541-2.679-3-5.3-3s-3.922,1.457-5.3,3c-1.437,1.607-2.921,3.27-5.9,3.27s-4.467-1.663-5.9-3.27c-1.378-1.541-2.682-3-5.3-3s-3.922,1.457-5.3,3c-1.437,1.607-2.924,3.27-5.9,3.27s-4.467-1.663-5.9-3.27c-1.378-1.541-2.682-3-5.3-3v-.808c2.983,0,4.467,1.661,5.9,3.268,1.378,1.543,2.682,3,5.3,3s3.922-1.457,5.3-3c1.437-1.607,2.924-3.268,5.9-3.268s4.467,1.661,5.9,3.268c1.378,1.543,2.682,3,5.3,3s3.922-1.457,5.3-3c1.435-1.607,2.921-3.268,5.9-3.268s4.469,1.661,5.9,3.268c1.38,1.543,2.682,3,5.3,3s3.924-1.457,5.3-3c1.437-1.607,2.924-3.268,5.906-3.268s4.467,1.661,5.9,3.268c1.378,1.543,2.679,3,5.3,3s3.924-1.457,5.3-3c1.435-1.607,2.921-3.268,5.9-3.268s4.467,1.661,5.9,3.268c1.378,1.543,2.679,3,5.3,3s3.922-1.457,5.3-3c1.435-1.607,2.922-3.268,5.9-3.268s4.467,1.661,5.9,3.268c1.378,1.543,2.681,3,5.3,3s3.924-1.457,5.3-3c1.437-1.607,2.921-3.268,5.9-3.268s4.469,1.661,5.9,3.268c1.38,1.543,2.682,3,5.3,3s3.924-1.457,5.3-3c1.437-1.607,2.921-3.268,5.9-3.268s4.467,1.661,5.9,3.268c1.378,1.543,2.682,3,5.3,3s3.924-1.457,5.3-3c1.437-1.607,2.921-3.268,5.9-3.268s4.469,1.661,5.906,3.268c1.378,1.543,2.679,3,5.3,3s3.924-1.457,5.3-3c1.437-1.607,2.921-3.268,5.9-3.268s4.469,1.661,5.906,3.268c1.378,1.543,2.681,3,5.3,3s3.924-1.457,5.3-3c1.437-1.607,2.921-3.268,5.9-3.268h0c2.982,0,4.469,1.661,5.906,3.268,1.378,1.543,2.682,3,5.3,3Z" transform="translate(-297.907 -169.038)" fill="#fff"/>
  </g>
  <g id="Grupo_38" data-name="Grupo 38" transform="translate(0 267.216)">
    <path id="Caminho_109" data-name="Caminho 109" d="M533.243,181.034c-2.985,0-4.469-1.663-5.906-3.27-1.38-1.541-2.682-3-5.3-3s-3.924,1.457-5.3,3c-1.437,1.607-2.924,3.27-5.906,3.27s-4.467-1.663-5.9-3.27c-1.38-1.541-2.682-3-5.3-3s-3.922,1.457-5.3,3c-1.437,1.607-2.921,3.27-5.9,3.27s-4.469-1.663-5.9-3.27c-1.38-1.541-2.682-3-5.3-3s-3.924,1.457-5.3,3c-1.437,1.607-2.921,3.27-5.9,3.27s-4.467-1.663-5.9-3.27c-1.378-1.541-2.682-3-5.3-3s-3.924,1.457-5.3,3c-1.437,1.607-2.921,3.27-5.9,3.27s-4.469-1.663-5.906-3.27c-1.378-1.541-2.679-3-5.3-3s-3.924,1.457-5.3,3c-1.437,1.607-2.921,3.27-5.9,3.27s-4.467-1.663-5.9-3.27c-1.38-1.541-2.682-3-5.3-3s-3.924,1.457-5.3,3c-1.437,1.607-2.921,3.27-5.9,3.27s-4.469-1.663-5.9-3.27c-1.38-1.541-2.682-3-5.3-3s-3.924,1.457-5.3,3c-1.437,1.607-2.924,3.27-5.906,3.27s-4.467-1.663-5.9-3.27c-1.378-1.541-2.679-3-5.3-3s-3.924,1.457-5.3,3c-1.435,1.607-2.921,3.27-5.9,3.27s-4.467-1.663-5.9-3.27c-1.378-1.541-2.679-3-5.3-3s-3.922,1.457-5.3,3c-1.437,1.607-2.921,3.27-5.9,3.27s-4.467-1.663-5.9-3.27c-1.378-1.541-2.682-3-5.3-3s-3.922,1.457-5.3,3c-1.437,1.607-2.924,3.27-5.9,3.27s-4.467-1.663-5.9-3.27c-1.378-1.541-2.682-3-5.3-3v-.808c2.983,0,4.467,1.661,5.9,3.27,1.378,1.541,2.682,3,5.3,3s3.922-1.457,5.3-3c1.437-1.609,2.924-3.27,5.9-3.27s4.467,1.661,5.9,3.268c1.378,1.543,2.682,3,5.3,3s3.922-1.457,5.3-3c1.435-1.609,2.921-3.27,5.9-3.27s4.469,1.661,5.9,3.27c1.38,1.541,2.682,3,5.3,3s3.924-1.457,5.3-3c1.437-1.609,2.924-3.27,5.906-3.27s4.467,1.661,5.9,3.27c1.378,1.541,2.679,3,5.3,3s3.924-1.457,5.3-3c1.435-1.607,2.921-3.268,5.9-3.268s4.467,1.661,5.9,3.268c1.378,1.543,2.679,3,5.3,3s3.922-1.457,5.3-3c1.435-1.609,2.922-3.27,5.9-3.27s4.467,1.661,5.9,3.27c1.378,1.541,2.681,3,5.3,3s3.924-1.457,5.3-3c1.437-1.609,2.921-3.27,5.9-3.27s4.469,1.661,5.9,3.268c1.38,1.543,2.682,3,5.3,3s3.924-1.457,5.3-3c1.437-1.609,2.921-3.27,5.9-3.27s4.467,1.661,5.9,3.27c1.378,1.541,2.682,3,5.3,3s3.924-1.457,5.3-3c1.437-1.609,2.921-3.27,5.9-3.27s4.469,1.661,5.906,3.27c1.378,1.541,2.679,3,5.3,3s3.924-1.457,5.3-3c1.437-1.607,2.921-3.268,5.9-3.268s4.469,1.661,5.906,3.27c1.378,1.541,2.681,3,5.3,3s3.924-1.457,5.3-3c1.437-1.607,2.921-3.268,5.9-3.268h0c2.982,0,4.469,1.661,5.906,3.268,1.378,1.543,2.682,3,5.3,3Z" transform="translate(-297.907 -173.958)" fill="#fff"/>
  </g>
  <g id="Grupo_39" data-name="Grupo 39" transform="translate(0 278.35)">
    <path id="Caminho_110" data-name="Caminho 110" d="M533.243,185.954c-2.985,0-4.469-1.661-5.906-3.268-1.38-1.543-2.682-3-5.3-3s-3.924,1.457-5.3,3c-1.437,1.609-2.924,3.27-5.906,3.27s-4.467-1.661-5.9-3.27c-1.38-1.541-2.682-3-5.3-3s-3.922,1.457-5.3,3c-1.437,1.609-2.921,3.27-5.9,3.27s-4.469-1.661-5.9-3.268c-1.38-1.543-2.682-3-5.3-3s-3.924,1.457-5.3,3c-1.437,1.609-2.921,3.27-5.9,3.27s-4.467-1.661-5.9-3.27c-1.378-1.541-2.682-3-5.3-3s-3.924,1.457-5.3,3c-1.437,1.609-2.921,3.27-5.9,3.27s-4.469-1.661-5.906-3.27c-1.378-1.541-2.679-3-5.3-3s-3.924,1.457-5.3,3c-1.437,1.607-2.921,3.268-5.9,3.268s-4.467-1.661-5.9-3.27c-1.38-1.541-2.682-3-5.3-3s-3.924,1.457-5.3,3c-1.437,1.609-2.921,3.27-5.9,3.27s-4.469-1.661-5.9-3.27c-1.38-1.541-2.682-3-5.3-3s-3.924,1.457-5.3,3c-1.437,1.609-2.924,3.27-5.906,3.27s-4.467-1.661-5.9-3.27c-1.378-1.541-2.679-3-5.3-3s-3.924,1.457-5.3,3c-1.435,1.609-2.921,3.27-5.9,3.27s-4.467-1.661-5.9-3.27c-1.378-1.541-2.679-3-5.3-3s-3.922,1.457-5.3,3c-1.437,1.609-2.921,3.27-5.9,3.27s-4.467-1.661-5.9-3.27c-1.378-1.541-2.682-3-5.3-3s-3.922,1.457-5.3,3c-1.437,1.607-2.924,3.268-5.9,3.268s-4.467-1.661-5.9-3.27c-1.378-1.541-2.682-3-5.3-3v-.808c2.983,0,4.467,1.663,5.9,3.27,1.378,1.541,2.682,3,5.3,3s3.922-1.457,5.3-3c1.437-1.607,2.924-3.27,5.9-3.27s4.467,1.663,5.9,3.27c1.378,1.541,2.682,3,5.3,3s3.922-1.457,5.3-3c1.435-1.607,2.921-3.27,5.9-3.27s4.469,1.663,5.9,3.27c1.38,1.541,2.682,3,5.3,3s3.924-1.457,5.3-3c1.437-1.607,2.924-3.27,5.906-3.27s4.467,1.663,5.9,3.27c1.378,1.541,2.679,3,5.3,3s3.924-1.457,5.3-3c1.435-1.607,2.921-3.27,5.9-3.27s4.467,1.663,5.9,3.27c1.378,1.541,2.679,3,5.3,3s3.922-1.457,5.3-3c1.435-1.607,2.922-3.27,5.9-3.27s4.467,1.663,5.9,3.27c1.378,1.541,2.681,3,5.3,3s3.924-1.457,5.3-3c1.437-1.607,2.921-3.27,5.9-3.27s4.469,1.663,5.9,3.27c1.38,1.541,2.682,3,5.3,3s3.924-1.457,5.3-3c1.437-1.607,2.921-3.27,5.9-3.27s4.467,1.663,5.9,3.27c1.378,1.541,2.682,3,5.3,3s3.924-1.457,5.3-3c1.437-1.607,2.921-3.27,5.9-3.27s4.469,1.663,5.906,3.27c1.378,1.541,2.679,3,5.3,3s3.924-1.457,5.3-3c1.437-1.607,2.921-3.27,5.9-3.27s4.469,1.663,5.906,3.27c1.378,1.541,2.681,3,5.3,3s3.924-1.457,5.3-3c1.437-1.607,2.921-3.27,5.9-3.27h0c2.982,0,4.469,1.663,5.906,3.27,1.378,1.541,2.682,3,5.3,3Z" transform="translate(-297.907 -178.878)" fill="#fff"/>
  </g>
</svg>
